<?xml version="1.0" encoding="utf-8"?>
<!-- Generator: Adobe Illustrator 23.0.5, SVG Export Plug-In . SVG Version: 6.00 Build 0)  -->
<svg version="1.1" id="OBJECTS" xmlns="http://www.w3.org/2000/svg" xmlns:xlink="http://www.w3.org/1999/xlink" x="0px" y="0px"
	 viewBox="0 0 1200 800" style="enable-background:new 0 0 1200 800;" xml:space="preserve">
<style type="text/css">
	.st0{fill:url(#SVGID_3_);fill-opacity:0.48;}
	.st1{opacity:0.28;fill:url(#SVGID_4_);}
	.st2{fill:url(#SVGID_5_);fill-opacity:0.28;}
</style>
<g>
	<g>
		<defs>
			<rect id="SVGID_1_" transform="matrix(-1 -1.224647e-16 1.224647e-16 -1 1200 800)" width="1200" height="800"/>
		</defs>
		<clipPath id="SVGID_2_">
			<use xlink:href="#SVGID_1_"  style="overflow:visible;"/>
		</clipPath>
	</g>
	<linearGradient id="SVGID_3_" gradientUnits="userSpaceOnUse" x1="-3.268000e-03" y1="418.2005" x2="1200" y2="418.2005">
		<stop  offset="0" style="stop-color:#FFBF00"/>
		<stop  offset="0.2679" style="stop-color:#FF5515"/>
		<stop  offset="0.616" style="stop-color:#B520B3"/>
		<stop  offset="1" style="stop-color:#0068E5"/>
	</linearGradient>
	<path class="st0" d="M0,38.3c0-0.7,122.4-22.4,212.3,98.9c89.9,124.5,62.2,321.8,196.8,233.8c78.2-48.7,128.7-121.4,180.4-174.9
		c51.7-52.3,104.6-85.5,187.6-27.6c77.3,55.3,96.2,151.1,115.5,230c19.3,79.3,39.2,141.6,118.4,138.4
		c123.7-7.3,189.1-186,189.1-184.7c0,149.2,0,298.5,0,447.7c-98.2,0-196.4,0-294.7,0c0-1.2-44.7-13.3-93.1-56.8
		c-48.4-43.1-100.4-117.5-115-234.3C660,213.8,561.1,572.4,394,624.7c-83.5,26.3-139.9-29.2-186.6-90.4
		c-46.7-61.6-83.7-128.9-128.6-138.2c-27.1-5.8-54.1,3.2-78.7,19.4"/>
	<linearGradient id="SVGID_4_" gradientUnits="userSpaceOnUse" x1="-3.268000e-03" y1="490.3369" x2="1199.9994" y2="490.3369">
		<stop  offset="0" style="stop-color:#FFBF00"/>
		<stop  offset="0.2679" style="stop-color:#FF9700"/>
		<stop  offset="0.616" style="stop-color:#FF5515"/>
		<stop  offset="1" style="stop-color:#B520B3"/>
	</linearGradient>
	<path class="st1" d="M0,182.4c0,0,122.4-22.7,212.3,97.1s62.2,278,196.8,196.6c156.5-94.7,202-277.7,368-199.8
		c154.6,72.5,75.5,281.5,233.9,281.5c123.7,0,189.1-120.8,189.1-120.8V800H905.3c0,0-178.9-61.9-208.1-248.7
		C660,312.9,561.1,628.9,394,674.2C226.9,719.5,168.5,521.6,78.7,490.3c-27.1-9.4-54.1-8.3-78.7-2.1"/>
	<linearGradient id="SVGID_5_" gradientUnits="userSpaceOnUse" x1="-3.235000e-03" y1="497.3595" x2="1199.9994" y2="497.3595">
		<stop  offset="0" style="stop-color:#FFBF00"/>
		<stop  offset="0.2679" style="stop-color:#FF9700"/>
		<stop  offset="0.616" style="stop-color:#FF5515"/>
		<stop  offset="1" style="stop-color:#4D00E2"/>
	</linearGradient>
	<path class="st2" d="M812.2,756.5c19.4,18,38.2,32.5,53.7,43.5h334c0-152,0-303.9,0-455.9c0-1.4-16.3,59.9-48.1,120
		c-31.8,60.5-79.1,119.9-140.9,124.1c-79.2,3-99-59.1-118.4-142.8c-19.3-82.2-38.2-186.1-115.5-232.3c-83-46.3-135.9,3.6-187.6,54.3
		c-51.7,53.3-102.2,107.3-180.4,130.2c-67.3,19.6-94-0.8-115.2-32.9c-21.1-31.8-36.7-75.3-81.6-93.8c-44.9-16.9-98-7.6-139.9,1.2
		C30.6,281.7,0,290.9,0,291.9l0,134.6c24.6-13,51.7-23,78.7-24.7c44.9-3.2,81.9,26.9,128.6,67.5c46.7,39.2,103.1,88.9,186.6,93
		c41.8,0.9,79.3-9.8,112.6-28.2c33.4-18,62.6-43.7,87.7-64c50.3-40.8,84.3-58.2,102.9,73.9C711.8,643.6,763.9,711.1,812.2,756.5z"/>
</g>
</svg>
