<svg width="1200" height="800" viewBox="0 0 1200 800" fill="none" xmlns="http://www.w3.org/2000/svg">
<g clip-path="url(#clip0_header2)">
<rect width="1200" height="800" fill="url(#paint0_linear_2)"/>
<path d="M0 38.35C0 37.6 122.43 16 212.31 137.25C302.19 261.7 274.47 459.08 409.08 371.08C487.32 322.39 537.81 249.72 589.49 196.21C641.18 143.89 694.05 110.73 777.06 168.57C854.35 223.91 873.23 319.7 892.58 398.57C911.92 477.85 931.75 540.2 1010.93 537C1134.65 529.7 1200 351 1200 352.3V800H905.35C905.35 798.84 860.62 786.67 812.24 743.21C763.87 700.12 711.85 625.74 697.24 508.91C660 213.81 561.06 572.45 394 624.68C310.45 650.94 254.09 595.46 207.38 534.32C160.68 472.68 123.64 405.38 78.75 396.15C51.66 390.39 24.6 399.4 0 415.51" fill="url(#paint1_linear_2)" fill-opacity="0.48"/>
<path opacity="0.28" d="M0 182.38C0 182.38 122.43 159.73 212.31 279.46C302.19 399.19 274.47 557.46 409.08 476.05C565.57 381.39 611.08 198.33 777.08 276.22C931.66 348.74 852.58 557.74 1010.95 557.74C1134.67 557.74 1200.02 436.93 1200.02 436.93V800H905.34C905.34 800 726.44 738.07 697.25 551.27C660 312.89 561.06 628.93 394 674.23C226.94 719.53 168.51 521.63 78.73 490.34C51.66 480.91 24.6 482 0 488.22" fill="url(#paint2_linear_2)"/>
<path d="M812.24 756.53C829.155 772.22 847.117 786.744 866 800H1200V344.09C1200 342.68 1183.66 403.98 1151.86 464.09C1120.06 524.62 1072.79 583.96 1010.93 588.21C931.75 591.21 911.93 529.12 892.57 445.4C873.23 363.16 854.35 259.33 777.06 213.07C694.06 166.76 641.18 216.7 589.49 267.35C537.81 320.65 487.32 374.66 409.08 397.56C341.77 417.11 315.08 396.76 293.92 364.65C272.79 332.9 257.25 289.4 212.31 270.81C167.37 253.86 114.31 263.17 72.45 272.04C30.61 281.7 0 290.92 0 291.89V426.46C24.6 413.46 51.66 403.46 78.73 401.76C123.62 398.51 160.66 428.63 207.36 469.22C254.07 508.44 310.43 558.12 393.98 562.22C435.75 563.17 473.26 552.39 506.61 534C539.97 516 569.17 490.33 594.3 470C644.58 429.25 678.63 411.76 697.3 543.89C711.85 643.65 763.87 711.09 812.24 756.53Z" fill="url(#paint3_linear_3)" fill-opacity="0.28"/>
</g>
<defs>
<linearGradient id="paint0_linear_2" x1="1200" y1="358" x2="2.41652e-05" y2="361.5" gradientUnits="userSpaceOnUse">
<stop stop-color="#BA20AE"/>
<stop offset="1" stop-color="#FF7505"/>
</linearGradient>
<linearGradient id="paint1_linear_2" x1="0" y1="418.2" x2="1200" y2="418.2" gradientUnits="userSpaceOnUse">
<stop stop-color="#FFBF00"/>
<stop offset="0.27" stop-color="#FF5515"/>
<stop offset="0.62" stop-color="#B520B3"/>
<stop offset="1" stop-color="#0068E5"/>
</linearGradient>
<linearGradient id="paint2_linear_2" x1="0" y1="490.34" x2="1200" y2="490.34" gradientUnits="userSpaceOnUse">
<stop stop-color="#FFBF00"/>
<stop offset="0.27" stop-color="#FF9700"/>
<stop offset="0.62" stop-color="#FF5515"/>
<stop offset="1" stop-color="#B520B3"/>
</linearGradient>
<linearGradient id="paint3_linear_2" x1="0" y1="497.36" x2="1200" y2="497.36" gradientUnits="userSpaceOnUse">
<stop stop-color="#FFBF00"/>
<stop offset="0.27" stop-color="#FF9700"/>
<stop offset="0.62" stop-color="#FF5515"/>
<stop offset="1" stop-color="#4D00E2"/>
</linearGradient>
<clipPath id="clip0_header2">
<rect width="1200" height="800" fill="white"/>
</clipPath>
</defs>
</svg>
