<svg width="204" height="204" viewBox="0 0 204 204" fill="none" xmlns="http://www.w3.org/2000/svg">
<mask id="mask0" mask-type="alpha" maskUnits="userSpaceOnUse" x="0" y="0" width="204" height="204">
<rect width="204" height="204" fill="#C4C4C4"/>
</mask>
<g mask="url(#mask0)">
<g clip-path="url(#clip0)">
<path d="M227.372 172.842H-24.3721V172.943H227.372V172.842Z" fill="#EBEBEB"/>
<path d="M134.58 176.316H121.741V176.417H134.58V176.316Z" fill="#EBEBEB"/>
<path d="M204.917 179.035H174.557V179.136H204.917V179.035Z" fill="#EBEBEB"/>
<path d="M119.022 176.367H87.6543V176.467H119.022V176.367Z" fill="#EBEBEB"/>
<path d="M67.2631 180.143H60.7178V180.244H67.2631V180.143Z" fill="#EBEBEB"/>
<path d="M103.564 180.143H73.6572V180.244H103.564V180.143Z" fill="#EBEBEB"/>
<path d="M21.4454 177.978H2.06104V178.079H21.4454V177.978Z" fill="#EBEBEB"/>
<path d="M94.9549 150.387H-2.26878C-3.8296 150.387 -5.13867 149.078 -5.13867 147.517V10.8699C-5.13867 9.30907 -3.8296 8 -2.26878 8H94.9549C96.5158 8 97.8248 9.30907 97.8248 10.8699V147.517C97.8248 149.128 96.5661 150.387 94.9549 150.387ZM-2.26878 8.1007C-3.77925 8.1007 -5.03797 9.30907 -5.03797 10.8699V147.517C-5.03797 149.027 -3.8296 150.286 -2.26878 150.286H94.9549C96.4654 150.286 97.7241 149.078 97.7241 147.517V10.8699C97.7241 9.35942 96.5158 8.1007 94.9549 8.1007H-2.26878Z" fill="#EBEBEB"/>
<path d="M203.86 150.387H106.636C105.075 150.387 103.766 149.078 103.766 147.517V10.8699C103.766 9.30907 105.075 8 106.636 8H203.86C205.421 8 206.73 9.30907 206.73 10.8699V147.517C206.73 149.128 205.471 150.387 203.86 150.387ZM106.636 8.1007C105.126 8.1007 103.867 9.30907 103.867 10.8699V147.517C103.867 149.027 105.075 150.286 106.636 150.286H203.86C205.37 150.286 206.629 149.078 206.629 147.517V10.8699C206.629 9.35942 205.421 8.1007 203.86 8.1007H106.636Z" fill="#EBEBEB"/>
<path d="M74.3114 129.19H40.8797L38.8154 105.778H72.2471L74.3114 129.19Z" fill="#E6E6E6"/>
<path d="M76.0233 129.19H42.5916L40.5776 105.777H74.0093L76.0233 129.19Z" fill="#F0F0F0"/>
<path d="M47.1736 124.155L46.0659 110.812H69.4278L70.5355 124.155H47.1736Z" fill="white"/>
<path d="M81.8134 129.19H77.8862V172.842H81.8134V129.19Z" fill="#E6E6E6"/>
<path d="M83.0221 129.19H80.3032V172.842H83.0221V129.19Z" fill="#F0F0F0"/>
<path d="M45.1028 134.024H83.0659V129.19H45.1028V134.024Z" fill="#F0F0F0"/>
<path d="M46.4184 134.023H42.4912V172.893H46.4184V134.023Z" fill="#E6E6E6"/>
<path d="M47.6769 134.023H44.958V172.893H47.6769V134.023Z" fill="#F0F0F0"/>
<path d="M18.5249 134.023H14.5977V172.893H18.5249V134.023Z" fill="#E6E6E6"/>
<path d="M19.733 134.023H17.0142V172.893H19.733V134.023Z" fill="#F0F0F0"/>
<path d="M56.9917 134.023H53.0645V172.893H56.9917V134.023Z" fill="#E6E6E6"/>
<path d="M58.1998 134.023H55.481V172.893H58.1998V134.023Z" fill="#F0F0F0"/>
<path d="M45.1096 129.19H14.5981V134.023H45.1096V129.19Z" fill="#E6E6E6"/>
<path d="M158.797 20.3355H40.8296V86.0408H158.797V20.3355Z" fill="#E0E0E0"/>
<path d="M165.292 20.3355H41.4341V86.0409H165.292V20.3355Z" fill="#F5F5F5"/>
<path d="M163.272 83.9714V22.3443L43.4416 22.3443L43.4416 83.9714L163.272 83.9714Z" fill="white"/>
<path d="M91.9839 83.9765L114.591 22.3495H77.2317L54.625 83.9765H91.9839Z" fill="#F5F5F5"/>
<path d="M127.883 83.9765L150.54 22.3495H122.344L99.7378 83.9765H127.883Z" fill="#F5F5F5"/>
<path d="M196.206 110.158H186.187V172.893H196.206V110.158Z" fill="#E6E6E6"/>
<path d="M193.588 172.842H196.206V168.059H190.819L193.588 172.842Z" fill="#FAFAFA"/>
<path d="M103.715 110.158H93.6958V172.893H103.715V110.158Z" fill="#E6E6E6"/>
<path d="M196.206 110.158H101.45V171.584H196.206V110.158Z" fill="#FAFAFA"/>
<path d="M194.394 129.945H103.212V112.575H194.394V129.945ZM103.715 129.442H193.89V113.078H103.715V129.442Z" fill="#E6E6E6"/>
<path d="M178.383 121.033H121.035C118.367 121.033 115.799 118.868 113.986 115.143L113.835 114.79H185.583L185.432 115.143C183.569 118.868 181.051 121.033 178.383 121.033ZM114.641 115.294C116.353 118.617 118.669 120.53 121.035 120.53H178.332C180.699 120.53 183.015 118.617 184.727 115.294H114.641Z" fill="#E6E6E6"/>
<path d="M104.068 172.842H101.45V168.059H106.837L104.068 172.842Z" fill="#FAFAFA"/>
<path d="M194.394 149.531H103.212V132.16H194.394V149.531ZM103.715 149.027H193.89V132.664H103.715V149.027Z" fill="#E6E6E6"/>
<path d="M178.383 140.619H121.035C118.367 140.619 115.799 138.454 113.986 134.728L113.835 134.376H185.583L185.432 134.728C183.569 138.454 181.051 140.619 178.383 140.619ZM114.641 134.829C116.353 138.152 118.669 140.065 121.035 140.065H178.332C180.699 140.065 183.015 138.152 184.727 134.829H114.641Z" fill="#E6E6E6"/>
<path d="M194.394 169.066H103.212V151.696H194.394V169.066ZM103.715 168.563H193.89V152.199H103.715V168.563Z" fill="#E6E6E6"/>
<path d="M178.383 160.154H121.035C118.367 160.154 115.799 157.989 113.986 154.264L113.835 153.911H185.583L185.432 154.264C183.569 158.04 181.051 160.154 178.383 160.154ZM114.641 154.415C116.353 157.738 118.669 159.651 121.035 159.651H178.332C180.699 159.651 183.015 157.738 184.727 154.415H114.641Z" fill="#E6E6E6"/>
<path d="M36.5498 118.415V119.624H35.7443L35.1401 129.19H25.6241L24.9696 119.624H24.2144V118.415H36.5498Z" fill="#E6E6E6"/>
<path d="M33.4283 94.7512C32.6731 89.0618 24.9697 87.4506 15.2524 87.2492C5.98816 87.0478 3.01758 83.7751 3.01758 83.7751C3.01758 83.7751 3.06793 97.0672 16.4104 101.85C29.048 106.382 34.1835 100.441 33.4283 94.7512Z" fill="#E6E6E6"/>
<path d="M28.6954 107.64C28.8464 105.324 32.5723 100.994 41.5847 102.958C48.0797 104.368 50.4965 100.994 50.4965 100.994C50.4965 100.994 49.8923 110.51 40.1246 113.38C30.8101 116.049 28.3933 111.719 28.6954 107.64Z" fill="#E6E6E6"/>
<path d="M30.7597 122.04C30.8604 122.04 30.9611 121.99 31.0115 121.94C31.666 121.184 31.1121 119.321 30.4073 116.754C29.4506 113.481 28.2926 109.403 29.2996 106.432C29.8534 104.771 30.5583 103.31 31.2128 101.85C32.6226 98.8797 33.831 96.312 32.824 93.5931C32.7737 93.3917 32.5723 93.3414 32.3709 93.3917C32.1695 93.4421 32.1191 93.6435 32.1695 93.8449C33.0758 96.2616 31.9681 98.5777 30.5583 101.548C29.9038 102.908 29.1485 104.468 28.5947 106.18C27.5374 109.352 28.7458 113.531 29.7024 116.905C30.2562 118.868 30.8604 120.933 30.4576 121.436C30.3569 121.587 30.3569 121.789 30.508 121.94C30.5583 121.99 30.659 122.04 30.7597 122.04Z" fill="#E6E6E6"/>
<path d="M101.5 195.6C155.418 195.6 199.127 193.053 199.127 189.911C199.127 186.768 155.418 184.221 101.5 184.221C47.5824 184.221 3.87354 186.768 3.87354 189.911C3.87354 193.053 47.5824 195.6 101.5 195.6Z" fill="#F5F5F5"/>
<path d="M101.5 162.118H30.0044L26.0771 47.1211H97.5726L101.5 162.118Z" fill="#B7B7B7"/>
<path d="M105.024 158.543H33.5287L29.6519 43.5464H101.147L105.024 158.543Z" fill="#C8C8C8"/>
<path opacity="0.3" d="M105.024 158.543H33.5287L29.6519 43.5464H101.147L105.024 158.543Z" fill="white"/>
<path d="M81.073 90.8642C88.7347 83.0713 88.4195 70.3375 80.3688 62.4224C72.3182 54.5072 59.5808 54.4081 51.9191 62.2009C44.2574 69.9937 44.5727 82.7276 52.6233 90.6427C60.674 98.5579 73.4113 98.657 81.073 90.8642Z" fill="#BA1CDE"/>
<path d="M83.1223 76.5249C83.223 79.3948 82.5684 82.0632 81.4104 84.4296C78.7923 89.6156 73.4049 93.14 67.1113 93.14C60.8177 93.14 55.1786 89.6156 52.208 84.4296C50.8486 82.0632 50.043 79.3948 49.9423 76.5249C49.6402 67.3614 56.7898 59.9097 65.9533 59.9097C75.1168 59.9601 82.7698 67.3614 83.1223 76.5249Z" fill="white"/>
<path opacity="0.6" d="M81.3601 84.4297C78.7419 89.6156 73.3546 93.14 67.061 93.14C60.7674 93.14 55.1283 89.6156 52.1577 84.4297C56.236 81.6605 61.2205 79.999 66.6078 79.999C72.0455 80.0493 77.0804 81.6605 81.3601 84.4297Z" fill="#BA1CDE"/>
<path opacity="0.6" d="M71.676 76.1454C74.4834 73.29 74.3641 68.6204 71.4095 65.7156C68.455 62.8108 63.784 62.7707 60.9767 65.6261C58.1694 68.4815 58.2887 73.1511 61.2432 76.0559C64.1978 78.9607 68.8687 79.0008 71.676 76.1454Z" fill="#BA1CDE"/>
<path d="M90.675 116.905H45.0589L44.7568 107.842H90.3729L90.675 116.905Z" fill="white"/>
<path d="M91.2287 133.117H45.6126L45.3105 124.054H90.9267L91.2287 133.117Z" fill="white"/>
<path d="M73.6568 125.313L62.6808 126.823C62.2276 126.874 61.9255 127.277 62.0262 127.73L63.4864 135.081C63.5871 135.534 63.9898 135.836 64.443 135.786L75.419 134.275C75.8722 134.225 76.1743 133.822 76.0736 133.369L74.6135 126.018C74.5128 125.565 74.11 125.212 73.6568 125.313ZM70.4848 132.765L68.4709 133.016L68.2695 130.65C67.8667 130.449 67.5143 130.096 67.4639 129.643C67.3129 128.938 67.8164 128.233 68.5716 128.132C69.3268 128.032 70.0317 128.535 70.1828 129.24C70.2835 129.693 70.1324 130.096 69.78 130.398L70.4848 132.765Z" fill="#BA1CDE"/>
<path d="M72.5493 124.91C72.1465 124.961 71.7437 124.709 71.6934 124.306L71.5423 123.601C71.1395 121.637 69.2766 120.127 67.2123 120.278C64.997 120.479 63.5368 122.393 63.9396 124.507L64.0907 125.313C64.1914 125.716 63.8893 126.068 63.4865 126.119C63.0837 126.169 62.6809 125.917 62.6306 125.514L62.4795 124.809C61.9257 122.04 63.6879 119.372 66.5074 118.919C69.478 118.415 72.3983 120.379 72.9521 123.299L73.1031 124.105C73.2038 124.457 72.9521 124.86 72.5493 124.91Z" fill="#BA1CDE"/>
<path d="M83.7266 145.805H54.0207L53.8193 139.914H83.5252L83.7266 145.805Z" fill="#BA1CDE"/>
<path d="M69.3772 112.373C69.4275 113.28 68.6723 114.035 67.766 114.035C66.8597 114.035 66.1045 113.28 66.0541 112.373C66.0038 111.467 66.759 110.712 67.6653 110.712C68.5716 110.712 69.3772 111.467 69.3772 112.373Z" fill="#263238"/>
<path d="M62.2278 112.373C62.2781 113.28 61.5229 114.035 60.6166 114.035C59.7103 114.035 58.9551 113.28 58.9047 112.373C58.8544 111.467 59.6096 110.712 60.5159 110.712C61.4222 110.712 62.2278 111.467 62.2278 112.373Z" fill="#263238"/>
<path d="M55.1286 112.373C55.179 113.28 54.4237 114.035 53.5175 114.035C52.6112 114.035 51.856 113.28 51.8056 112.373C51.7553 111.467 52.5105 110.712 53.4168 110.712C54.323 110.712 55.0783 111.467 55.1286 112.373Z" fill="#263238"/>
<path d="M76.5266 112.373C76.5769 113.28 75.8217 114.035 74.9154 114.035C74.0091 114.035 73.2539 113.28 73.2036 112.373C73.1532 111.467 73.9084 110.712 74.8147 110.712C75.721 110.712 76.4762 111.467 76.5266 112.373Z" fill="#263238"/>
<path d="M83.6765 112.373C83.7268 113.28 82.9716 114.035 82.0653 114.035C81.159 114.035 80.4038 113.28 80.3535 112.373C80.3031 111.467 81.0583 110.712 81.9646 110.712C82.8709 110.712 83.6261 111.467 83.6765 112.373Z" fill="#263238"/>
<path d="M143.743 68.0661C144.397 69.1235 144.951 70.1808 145.555 71.2381C146.109 72.2954 146.663 73.4031 147.167 74.5108C148.174 76.7261 149.08 78.9918 149.734 81.4086C149.835 81.7107 149.885 82.0128 149.986 82.3149L150.087 82.768L150.137 83.0198L150.188 83.4225C150.339 84.4295 150.188 85.2855 150.037 86.0407C149.684 87.5008 149.08 88.6588 148.476 89.8169C147.217 92.0322 145.707 93.8951 143.995 95.7077L141.88 94.0965C142.937 92.1329 143.944 90.0183 144.7 88.0546C145.052 87.0477 145.354 86.0407 145.455 85.2351C145.505 84.8323 145.455 84.4799 145.404 84.3288L145.203 83.7246C145.102 83.4729 145.052 83.2211 144.951 82.9694C144.246 80.9554 143.29 78.8911 142.283 76.8772C141.276 74.8632 140.219 72.8493 139.111 70.936L143.743 68.0661Z" fill="#FF8B7B"/>
<path d="M142.384 93.3413L140.068 94.5497L142.736 97.6713C142.736 97.6713 144.398 96.5636 144.448 94.8518L142.384 93.3413Z" fill="#FF8B7B"/>
<path d="M136.996 96.463L139.816 98.7287L142.736 97.6714L140.067 94.5497L136.996 96.463Z" fill="#FF8B7B"/>
<path d="M127.279 51.6021C127.228 51.9042 127.027 52.0552 126.826 52.0552C126.624 52.0049 126.524 51.7531 126.574 51.5014C126.624 51.1993 126.826 51.0482 127.027 51.0482C127.228 51.0482 127.329 51.3503 127.279 51.6021Z" fill="#263238"/>
<path d="M127.027 52.1056C127.027 52.1056 126.071 53.616 125.215 54.2202C125.618 54.7741 126.524 54.7237 126.524 54.7237L127.027 52.1056Z" fill="#FF5652"/>
<path d="M126.121 61.9739V58.6509L130.501 59.1544C130.501 59.1544 130.451 61.9739 127.984 62.8299L126.121 61.9739Z" fill="#FF8B7B"/>
<path d="M127.38 56.2845L130.451 57.1908L130.501 59.2048L126.121 58.6509L127.38 56.2845Z" fill="#FF8B7B"/>
<path opacity="0.2" d="M130.451 57.1908L127.38 56.2845L126.775 57.4426C126.826 59.4062 128.034 60.967 129.595 61.7222C130.451 60.6145 130.501 59.2048 130.501 59.2048L130.451 57.1908Z" fill="black"/>
<path d="M128.588 50.2426C128.638 50.2426 128.689 50.2426 128.689 50.1923C128.739 50.1419 128.739 50.0412 128.689 49.9405C128.034 49.2357 127.279 49.3867 127.279 49.3867C127.178 49.3867 127.128 49.4874 127.128 49.5881C127.128 49.6888 127.229 49.7391 127.329 49.7391C127.329 49.7391 127.934 49.6384 128.437 50.1923C128.487 50.2426 128.538 50.2426 128.588 50.2426Z" fill="#263238"/>
<path d="M135.033 56.6873C134.529 59.2551 134.227 62.8802 136.04 64.5921C136.04 64.5921 135.335 67.2102 130.501 67.2102C125.215 67.2102 127.933 64.8942 127.933 64.8942C130.149 64.1893 130.098 61.7222 129.595 59.7082L135.033 56.6873Z" fill="#FF8B7B"/>
<path d="M136.996 66.3543C137.45 65.6998 137.45 63.5851 136.946 63.1823C136.141 62.5781 132.666 62.4271 127.984 63.5348C128.488 65.5991 127.43 66.6564 127.43 66.6564L136.996 66.3543Z" fill="#BA1CDE"/>
<path d="M152.756 185.883C152.403 185.983 152.051 185.983 151.849 185.832C151.799 185.782 151.698 185.631 151.749 185.429C151.799 185.329 151.849 185.228 151.95 185.178C152.403 184.926 153.511 185.379 153.561 185.429C153.611 185.429 153.612 185.48 153.612 185.48C153.612 185.53 153.611 185.53 153.561 185.58C153.46 185.681 153.108 185.782 152.756 185.883ZM152.202 185.329C152.151 185.329 152.151 185.329 152.101 185.379C152.051 185.429 152 185.48 151.95 185.53C151.9 185.681 151.95 185.732 152 185.732C152.202 185.883 152.907 185.732 153.41 185.53C153.058 185.379 152.504 185.228 152.202 185.329Z" fill="#BA1CDE"/>
<path d="M153.611 185.581C153.158 185.48 152.302 184.876 152.302 184.473C152.302 184.422 152.302 184.271 152.504 184.221C152.604 184.171 152.755 184.171 152.856 184.271C153.309 184.523 153.611 185.48 153.662 185.53C153.712 185.53 153.662 185.53 153.611 185.581C153.662 185.581 153.611 185.581 153.611 185.581ZM152.604 184.322C152.453 184.372 152.453 184.422 152.453 184.422C152.453 184.674 153.007 185.127 153.46 185.329C153.36 185.027 153.108 184.473 152.806 184.322C152.755 184.322 152.705 184.322 152.604 184.322Z" fill="#BA1CDE"/>
<path d="M126.624 186.487C126.171 186.487 125.718 186.436 125.567 186.235C125.517 186.185 125.466 186.034 125.567 185.883C125.617 185.782 125.718 185.732 125.819 185.681C126.423 185.53 127.631 186.235 127.682 186.235C127.732 186.235 127.732 186.285 127.732 186.336C127.732 186.386 127.682 186.386 127.682 186.386C127.48 186.436 127.027 186.487 126.624 186.487ZM126.02 185.782C125.97 185.782 125.919 185.782 125.869 185.782C125.768 185.782 125.718 185.832 125.718 185.883C125.668 185.983 125.668 186.034 125.718 186.084C125.869 186.336 126.775 186.336 127.43 186.235C127.077 186.084 126.473 185.782 126.02 185.782Z" fill="#BA1CDE"/>
<path d="M127.682 186.386C127.682 186.386 127.631 186.386 127.682 186.386C127.229 186.185 126.373 185.429 126.423 185.027C126.423 184.926 126.524 184.825 126.725 184.775C126.876 184.775 127.078 184.825 127.178 184.926C127.631 185.278 127.732 186.235 127.732 186.285C127.782 186.285 127.732 186.336 127.682 186.386C127.732 186.386 127.682 186.386 127.682 186.386ZM126.826 184.926H126.775C126.624 184.926 126.624 184.976 126.624 185.027C126.574 185.278 127.178 185.883 127.581 186.134C127.531 185.832 127.43 185.278 127.128 185.027C127.027 184.976 126.927 184.926 126.826 184.926Z" fill="#BA1CDE"/>
<path d="M131.559 186.285H128.034L127.682 178.079H131.206L131.559 186.285Z" fill="#FF8B7B"/>
<path d="M157.539 184.624L154.115 185.379L150.641 177.776L154.065 177.021L157.539 184.624Z" fill="#FF8B7B"/>
<path d="M153.763 185.027L157.639 184.171C157.79 184.12 157.941 184.221 157.992 184.322L159.351 187.242C159.502 187.544 159.301 187.896 158.999 187.947C157.639 188.199 156.935 188.299 155.273 188.652C154.216 188.903 151.849 189.457 150.389 189.759C148.979 190.062 148.426 188.702 148.979 188.4C151.497 187.242 152.604 186.235 153.259 185.278C153.36 185.228 153.561 185.077 153.763 185.027Z" fill="#263238"/>
<path d="M128.034 185.883H131.911C132.062 185.883 132.163 185.983 132.213 186.134L132.918 189.306C132.968 189.608 132.767 189.961 132.415 189.961C131.005 189.961 128.991 189.86 127.229 189.86C125.164 189.86 123.402 189.961 120.985 189.961C119.525 189.961 119.122 188.501 119.727 188.35C122.496 187.746 124.761 187.695 127.178 186.185C127.48 185.983 127.732 185.883 128.034 185.883Z" fill="#263238"/>
<path d="M142.384 65.3977C145.707 66.1529 148.426 74.6115 148.426 74.6115L141.78 79.7471C141.78 79.7471 139.312 77.431 138.255 73.2017C137.097 68.7207 138.96 64.6424 142.384 65.3977Z" fill="#BA1CDE"/>
<path opacity="0.4" d="M142.384 65.3977C145.707 66.1529 148.426 74.6115 148.426 74.6115L141.78 79.7471C141.78 79.7471 139.312 77.431 138.255 73.2017C137.097 68.7207 138.96 64.6424 142.384 65.3977Z" fill="black"/>
<path d="M124.913 75.5178C124.107 76.4241 123.251 77.2297 122.395 78.0352C121.992 78.438 121.539 78.8408 121.086 79.2436L120.431 79.8478L120.28 79.9988C120.18 80.0492 120.079 80.1499 119.978 80.2506C119.777 80.4016 119.525 80.603 119.022 80.8044C118.77 80.9051 118.418 81.0562 117.813 81.0562C117.511 81.0562 117.108 81.0058 116.756 80.8548C116.353 80.7037 116.001 80.452 115.749 80.2002C115.246 79.6464 115.044 79.1933 114.943 78.8912C114.843 78.5891 114.843 78.3373 114.792 78.1359C114.742 77.7331 114.792 77.4814 114.792 77.2297C114.792 76.9779 114.843 76.7765 114.893 76.5751C115.044 75.8199 115.246 75.1653 115.497 74.5612C115.749 73.957 116.001 73.3528 116.303 72.7486C116.605 72.0941 116.907 71.6409 117.259 71.0871C118.518 69.0228 119.978 67.1095 121.539 65.297C123.1 63.5348 124.812 61.8732 126.725 60.4131L128.588 62.3264C127.279 64.0886 126.02 65.9515 124.812 67.7641C123.654 69.627 122.546 71.4899 121.589 73.4031C121.388 73.8563 121.086 74.4101 120.935 74.8129C120.734 75.266 120.583 75.7192 120.482 76.1723C120.331 76.6255 120.23 77.0786 120.18 77.431C120.18 77.5317 120.18 77.5821 120.18 77.6324C120.18 77.6828 120.18 77.6828 120.18 77.5821C120.18 77.5317 120.18 77.431 120.129 77.2297C120.079 77.0786 119.978 76.7262 119.525 76.273C119.324 76.0716 119.022 75.8702 118.72 75.7695C118.418 75.6688 118.065 75.6185 117.864 75.6185C117.411 75.6185 117.209 75.7192 117.058 75.7695C116.806 75.8702 116.806 75.9206 116.806 75.8702L117.008 75.7192L117.612 75.1653L118.82 74.0577C119.626 73.3024 120.431 72.4969 121.187 71.7416L124.913 75.5178Z" fill="#FF8B7B"/>
<path opacity="0.2" d="M139.514 71.641C141.326 73.4032 141.88 76.6758 142.031 79.4954L141.729 79.7471C141.729 79.7471 139.262 77.4311 138.205 73.2018C138.154 72.95 138.104 72.6479 138.054 72.3962L139.514 71.641Z" fill="black"/>
<path d="M121.388 68.9725C120.683 72.799 120.23 80.6534 122.295 96.2112H141.276C141.427 93.291 139.564 79.1429 142.384 65.3977C142.384 65.3977 139.161 64.7432 136.04 64.5921C133.623 64.4914 130.099 64.3907 127.984 64.5921C127.078 64.6928 126.222 64.7935 125.467 64.9445C123.402 65.297 121.791 66.9082 121.388 68.9725Z" fill="#BA1CDE"/>
<path opacity="0.4" d="M121.388 68.9725C120.683 72.799 120.23 80.6534 122.295 96.2112H141.276C141.427 93.291 139.564 79.1429 142.384 65.3977C142.384 65.3977 139.161 64.7432 136.04 64.5921C133.623 64.4914 130.099 64.3907 127.984 64.5921C127.078 64.6928 126.222 64.7935 125.467 64.9445C123.402 65.297 121.791 66.9082 121.388 68.9725Z" fill="black"/>
<path opacity="0.2" d="M124.308 74.6115L120.885 73.8059C120.784 75.8702 120.784 78.438 120.935 81.61C122.496 79.8478 124.51 77.0282 124.308 74.6115Z" fill="black"/>
<path opacity="0.2" d="M127.682 178.078L127.883 182.308H131.407L131.206 178.078H127.682Z" fill="black"/>
<path opacity="0.2" d="M154.115 177.021L150.641 177.776L152.403 181.704L155.877 180.948L154.115 177.021Z" fill="black"/>
<path d="M136.694 52.9112C135.788 56.2845 135.435 58.3489 133.321 59.7586C130.149 61.8733 126.222 59.4565 126.121 55.8314C126.02 52.6091 127.531 47.5742 131.156 46.9196C134.781 46.2148 137.6 49.5378 136.694 52.9112Z" fill="#FF8B7B"/>
<path d="M128.739 53.0622C128.588 52.609 127.782 49.0846 128.538 48.1783C129.293 47.2721 137.651 47.9266 138.909 49.135C140.974 51.1489 139.564 52.9615 137.298 55.2775C135.586 57.0397 135.536 59.0034 134.68 59.3054C133.17 59.8089 130.854 59.3558 130.401 57.7446C129.947 56.1335 128.739 53.0622 128.739 53.0622Z" fill="#263238"/>
<path d="M137.903 45.1574C134.932 43.8987 129.394 45.3085 126.373 44.5532C126.272 46.114 127.178 48.5811 130.199 49.286C130.199 49.286 134.479 50.0916 137.752 49.9909C141.024 49.8399 140.42 46.2147 137.903 45.1574Z" fill="#263238"/>
<path d="M138.355 49.2357C138.355 49.2357 140.168 49.4371 141.477 48.6315C142.031 49.9909 139.01 50.3433 138.355 49.2357Z" fill="#263238"/>
<path d="M130.4 53.1629C130.35 54.0691 129.897 54.9251 129.393 55.5293C128.638 56.3852 127.832 55.8314 127.681 54.8244C127.581 53.8677 127.832 52.3069 128.739 51.8538C129.695 51.4006 130.451 52.1559 130.4 53.1629Z" fill="#FF8B7B"/>
<path d="M129.041 96.2112C129.041 96.2112 133.069 123.299 135.284 133.419C137.701 144.546 150.641 181.25 150.641 181.25L156.985 179.891C156.985 179.891 147.922 149.933 145.908 134.426C144.347 122.493 141.276 96.2112 141.276 96.2112H129.041Z" fill="#B5B5B5"/>
<path d="M149.13 179.136C149.08 179.136 150.288 181.452 150.288 181.452L157.438 179.891L156.834 177.726L149.13 179.136Z" fill="#263238"/>
<path opacity="0.3" d="M131.559 105.828C136.191 106.734 135.738 124.054 135.134 132.966C133.774 126.672 131.811 114.538 130.501 105.929C130.854 105.828 131.206 105.777 131.559 105.828Z" fill="black"/>
<path d="M122.294 96.2112C122.294 96.2112 121.791 122.695 122.194 133.469C122.597 144.697 126.524 181.502 126.524 181.502H132.515C132.515 181.502 132.717 145.402 133.019 134.325C133.321 122.292 134.781 96.2112 134.781 96.2112H122.294Z" fill="#B5B5B5"/>
<path d="M125.366 179.086C125.315 179.086 125.718 181.553 125.718 181.553H133.019L133.22 179.337L125.366 179.086Z" fill="#263238"/>
<path d="M128.84 70.1305C130.552 74.7122 120.582 80.0995 120.582 80.0995L116.252 74.5612C116.252 74.5612 119.122 68.8214 122.647 66.2536C127.027 63.0313 127.531 66.6564 128.84 70.1305Z" fill="#BA1CDE"/>
<path opacity="0.4" d="M128.84 70.1305C130.552 74.7122 120.582 80.0995 120.582 80.0995L116.252 74.5612C116.252 74.5612 119.122 68.8214 122.647 66.2536C127.027 63.0313 127.531 66.6564 128.84 70.1305Z" fill="black"/>
<path d="M167.911 35.3898C177.949 35.3898 186.087 30.2051 186.087 23.8095C186.087 17.4139 177.949 12.2293 167.911 12.2293C157.873 12.2293 149.735 17.4139 149.735 23.8095C149.735 30.2051 157.873 35.3898 167.911 35.3898Z" fill="#AAAAAA"/>
<path d="M161.315 29.65C160.308 29.65 159.301 29.3479 158.445 28.7437C157.287 27.9382 156.532 26.7801 156.28 25.4207C155.827 22.8026 157.589 20.1844 160.157 19.5802C162.272 19.0768 164.437 19.983 165.595 21.8459L177.276 19.4292C178.232 19.2278 179.189 19.7816 179.39 20.6879C179.491 21.1411 179.441 21.6445 179.189 22.0473C178.937 22.4501 178.534 22.7522 178.031 22.8529L177.729 22.9033C177.628 22.9033 177.578 22.9536 177.527 23.0543C177.477 23.155 177.477 23.2054 177.527 23.3061L177.729 23.8599C177.88 24.2123 177.729 24.6151 177.427 24.8165C177.175 24.9676 177.024 25.2193 176.973 25.5214C176.923 25.8739 176.671 26.176 176.369 26.2263L176.118 26.2766C175.815 26.327 175.463 26.176 175.262 25.8739C175.06 25.5214 174.657 25.32 174.204 25.4207C173.802 25.5214 173.499 25.8235 173.449 26.2766C173.399 26.6291 173.147 26.9312 172.845 26.9815L172.593 27.0319C172.291 27.0822 171.939 26.9312 171.737 26.6291C171.586 26.3773 171.334 26.1759 171.032 26.1759C170.68 26.1256 170.378 25.7732 170.378 25.4207V24.8669C170.378 24.7662 170.327 24.7158 170.277 24.6151C170.227 24.5648 170.126 24.5144 170.025 24.5648L166.3 25.32C165.997 27.4347 164.386 29.0962 162.272 29.5493C162.02 29.5997 161.667 29.65 161.315 29.65ZM160.308 20.0837C157.992 20.6376 156.381 22.9536 156.834 25.32C157.035 26.5787 157.74 27.6361 158.747 28.341C159.805 29.0458 161.013 29.2976 162.272 29.0458C164.235 28.643 165.695 27.0319 165.897 25.0683V24.8669L169.975 24.0109C170.227 23.9606 170.478 24.0109 170.63 24.162C170.831 24.313 170.932 24.5144 170.932 24.7662V25.32C170.932 25.4711 171.032 25.5718 171.183 25.6221C171.637 25.6725 172.039 25.9746 172.241 26.327C172.291 26.4277 172.392 26.5284 172.543 26.478L172.795 26.4277C172.946 26.3773 172.996 26.2766 172.996 26.1759C173.046 25.5214 173.55 25.0179 174.154 24.9172C174.758 24.7662 175.413 25.0683 175.715 25.6221C175.765 25.7228 175.866 25.8235 176.017 25.7732L176.269 25.7228C176.42 25.6725 176.47 25.5718 176.47 25.4711C176.52 25.0179 176.772 24.6151 177.175 24.4137C177.276 24.3634 177.326 24.2123 177.276 24.0613L177.074 23.5075C176.973 23.3061 177.024 23.0543 177.125 22.8026C177.225 22.6012 177.427 22.4501 177.678 22.3998L177.98 22.3494C178.333 22.2991 178.585 22.0977 178.786 21.7956C178.987 21.4935 179.038 21.1411 178.937 20.839C178.786 20.1844 178.081 19.7816 177.376 19.9327L165.343 22.3998L165.242 22.2487C164.336 20.4865 162.322 19.6306 160.308 20.0837ZM161.365 27.7871C160.761 27.7871 160.157 27.5857 159.603 27.2333C158.898 26.7801 158.395 26.0249 158.193 25.169C158.042 24.313 158.193 23.4571 158.646 22.7522C159.1 22.0473 159.855 21.5439 160.711 21.3928C161.567 21.2418 162.423 21.3928 163.128 21.8459C163.832 22.2991 164.336 23.0543 164.487 23.9102C164.638 24.7662 164.487 25.6221 164.034 26.327C163.581 27.0319 162.825 27.5354 161.97 27.7368C161.768 27.7368 161.567 27.7871 161.365 27.7871ZM161.365 21.7956C161.164 21.7956 161.013 21.7956 160.811 21.8459C160.107 21.997 159.502 22.3998 159.1 23.004C158.697 23.6082 158.546 24.313 158.697 25.0683C158.848 25.7732 159.251 26.3773 159.855 26.7801C160.459 27.1829 161.164 27.334 161.919 27.1829C162.624 27.0319 163.228 26.6291 163.631 26.0249C164.034 25.4207 164.185 24.7158 164.034 23.9606C163.883 23.2557 163.48 22.6515 162.876 22.2487C162.423 21.997 161.869 21.7956 161.365 21.7956Z" fill="white"/>
<path opacity="0.6" d="M153.108 42.1869C156.417 42.1869 159.1 40.4737 159.1 38.3604C159.1 36.2471 156.417 34.5339 153.108 34.5339C149.799 34.5339 147.117 36.2471 147.117 38.3604C147.117 40.4737 149.799 42.1869 153.108 42.1869Z" fill="#BA1CDE"/>
<path opacity="0.3" d="M143.592 43.7477C144.955 43.7477 146.059 43.0489 146.059 42.1869C146.059 41.3249 144.955 40.6261 143.592 40.6261C142.23 40.6261 141.125 41.3249 141.125 42.1869C141.125 43.0489 142.23 43.7477 143.592 43.7477Z" fill="#BA1CDE"/>
</g>
</g>
<defs>
<clipPath id="clip0">
<rect width="251.745" height="187.6" fill="white" transform="translate(-24.3721 8)"/>
</clipPath>
</defs>
</svg>
