<svg width="121" height="92" viewBox="0 0 121 92" fill="none" xmlns="http://www.w3.org/2000/svg">
<g clip-path="url(#ic_nodata_unrated)">
<path d="M79.2124 34.3922V43.8866C79.2124 45.5443 80.6118 46.9222 82.3126 46.9222H116.35C118.073 46.9222 119.451 45.5228 119.451 43.822V35.7916L123.692 31.335L82.3126 31.2058C80.6118 31.2058 79.2124 32.6052 79.2124 34.3922Z" fill="#F5F5F5"/>
<path d="M114.477 36.9756L83.5828 36.8248V35.8776L114.477 36.0283V36.9756Z" fill="#E0E0E0"/>
<path d="M114.477 40.0974L83.5828 39.9467V38.9994L114.477 39.1501V40.0974Z" fill="#E0E0E0"/>
<path d="M102.247 42.1269L102.242 43.0742L114.471 43.1344L114.475 42.1871L102.247 42.1269Z" fill="#E0E0E0"/>
<path d="M21.2126 82.7901C25.9706 79.4746 27.0471 73.2957 26.8748 67.7411C26.8533 66.8154 26.9394 65.8466 26.5088 65.0284C26.0782 64.2103 25.0448 63.6506 24.2052 64.0596C23.5163 64.3826 23.2149 65.1791 22.8273 65.8466C22.3106 66.7293 21.5571 67.4613 20.6529 67.9134C20.0716 68.2148 19.3396 68.4085 18.7583 68.0856C17.9617 67.655 17.8756 66.5355 17.8756 65.6097C17.8971 63.8874 17.8971 62.165 17.8971 60.4642C17.8971 59.5385 17.8971 58.6127 17.6172 57.73C17.3374 56.8473 16.6915 56.0507 15.8303 55.7924C14.9476 55.5556 13.8712 56.0507 13.6774 56.955C13.5913 57.321 13.6774 57.73 13.6559 58.096C13.6343 58.4835 13.4621 58.8926 13.0961 59.0002C12.7301 59.1079 12.3641 58.8495 12.0842 58.5697C11.1369 57.6439 10.4911 56.4383 9.88824 55.2542C9.28542 54.07 8.70413 52.8429 7.84296 51.831C6.98178 50.8191 5.77614 50.0225 4.46286 49.9364C3.14957 49.8718 1.72864 50.6684 1.4057 51.9817C1.06123 53.2735 1.83629 54.6083 2.6544 55.6417C3.88157 57.1918 5.32403 58.5912 6.93873 59.7322C7.21861 59.9475 7.54155 60.1628 7.64919 60.5073C7.84296 61.1316 7.26167 61.7345 6.65885 61.9282C5.96991 62.1651 5.21638 62.0789 4.50592 62.1651C3.79545 62.2512 2.99887 62.5741 2.74052 63.2415C2.35299 64.1888 3.14957 65.1792 3.92463 65.825C5.47474 67.1168 7.24014 68.1502 9.13471 68.8391C9.80212 69.0975 10.5341 69.3128 11.0723 69.7864C11.6106 70.2601 11.955 71.0997 11.6106 71.7456C11.2876 72.3915 10.4265 72.6067 9.716 72.4776C9.00554 72.3484 8.38119 71.9609 7.69225 71.7025C6.42202 71.2289 4.7858 71.315 3.98922 72.413C3.45098 73.1234 3.40793 74.1353 3.68781 74.9965C3.96769 75.8577 4.50592 76.5897 5.08721 77.2786C7.11096 79.6683 9.716 81.5845 12.644 82.5963C15.572 83.5867 18.2847 83.8666 21.2126 82.7901Z" fill="#F5F5F5"/>
<path d="M21.2773 86.9024C21.0835 84.7064 20.5883 82.1013 19.7702 79.3025C18.9521 76.5037 17.8111 73.5111 16.4978 70.4109C16.1748 69.6359 15.8304 68.8823 15.529 68.1288C15.206 67.3753 14.8831 66.6433 14.5171 65.9328C13.8066 64.5119 13.01 63.1986 12.235 61.993C11.4384 60.7658 10.6418 59.6463 9.90982 58.5914C9.15629 57.5364 8.44583 56.5676 7.73536 55.728C6.35749 54.0271 5.08726 52.7785 4.1615 51.9603C3.70939 51.5513 3.34339 51.2499 3.08504 51.0346C2.95586 50.9269 2.86974 50.8623 2.80516 50.7978C2.74057 50.7547 2.69751 50.7116 2.69751 50.7332C2.69751 50.7332 2.71904 50.7547 2.78363 50.8193C2.84821 50.8839 2.93433 50.97 3.06351 51.0561C3.30033 51.2714 3.66633 51.5943 4.11844 52.0034C5.02267 52.843 6.27137 54.0917 7.62771 55.7926C8.31665 56.6537 9.02712 57.6225 9.78064 58.6559C10.5342 59.7109 11.3092 60.8304 12.1058 62.0576C12.8809 63.2847 13.6774 64.5765 14.3879 65.9974C14.7324 66.7079 15.0553 67.4399 15.3783 68.1934C15.7012 68.9469 16.0241 69.7005 16.3471 70.4755C17.6604 73.5542 18.8014 76.5468 19.6195 79.3456C20.4376 82.1229 20.9328 84.7064 21.1481 86.9024" fill="#E0E0E0"/>
<path d="M14.4738 65.9327C14.4953 65.9327 14.5168 65.8035 14.5599 65.5451C14.6029 65.2868 14.6675 64.9208 14.7321 64.4687C14.8613 63.5429 14.9905 62.2727 15.1412 60.8733C15.2919 59.4739 15.4426 58.2037 15.5933 57.2994C15.6579 56.8473 15.7225 56.4813 15.7655 56.223C15.8086 55.9646 15.8301 55.8354 15.8086 55.8139C15.787 55.8139 15.7655 55.9431 15.7009 56.2014C15.6363 56.4598 15.5502 56.8258 15.4641 57.2779C15.2919 58.1821 15.1196 59.4523 14.9689 60.8733C14.8182 62.2512 14.7106 63.5214 14.6029 64.4687C14.5599 64.8993 14.5168 65.2652 14.4953 65.5667C14.4738 65.782 14.4522 65.9327 14.4738 65.9327Z" fill="#E0E0E0"/>
<path d="M2.63257 63.7151C2.63257 63.7366 2.8048 63.7366 3.10621 63.7797C3.40762 63.8012 3.85974 63.8443 4.39797 63.9089C5.47443 64.0165 6.98148 64.2318 8.61771 64.5547C10.2539 64.8561 11.7179 65.2006 12.7729 65.4805C13.3111 65.6097 13.7201 65.7389 14.0216 65.825C14.323 65.9111 14.4737 65.9541 14.4737 65.9326C14.4737 65.9111 14.323 65.868 14.0216 65.7604C13.7417 65.6527 13.3111 65.5236 12.7944 65.3729C11.7395 65.0714 10.2755 64.7054 8.63924 64.3825C7.00301 64.0811 5.49596 63.8873 4.39797 63.8012C3.85974 63.7582 3.40762 63.7366 3.10621 63.7366C2.78327 63.6936 2.63257 63.7151 2.63257 63.7151Z" fill="#E0E0E0"/>
<path d="M19.6194 79.0871C19.6194 79.0871 19.6624 79.044 19.7055 78.9364C19.7701 78.8287 19.8347 78.678 19.8993 78.5058C20.0715 78.1398 20.3083 77.58 20.5882 76.9126C21.1695 75.5563 21.88 73.6617 22.6765 71.5518C23.4516 69.442 24.1621 67.5474 24.7003 66.1695C24.9586 65.5021 25.1955 64.9639 25.3462 64.5548C25.4108 64.3826 25.4753 64.2319 25.5184 64.1242C25.5615 64.0166 25.583 63.9735 25.5615 63.9735C25.5615 63.9735 25.5184 64.0166 25.4753 64.1242C25.4108 64.2319 25.3462 64.3826 25.2816 64.5548C25.1094 64.9208 24.8725 65.4806 24.5926 66.148C24.0114 67.5043 23.3009 69.3989 22.5043 71.5088C21.7293 73.6187 21.0188 75.5132 20.4806 76.8911C20.2222 77.5585 19.9854 78.0967 19.8347 78.5058C19.7701 78.678 19.7055 78.8287 19.6624 78.9364C19.6409 79.044 19.6194 79.0871 19.6194 79.0871Z" fill="#E0E0E0"/>
<path d="M3.88135 74.0278C3.88135 74.0278 3.92441 74.0493 4.03205 74.0924C4.16123 74.1355 4.31193 74.1785 4.48417 74.2431C4.91475 74.3723 5.47451 74.566 6.16345 74.7813C7.58438 75.2334 9.54355 75.9009 11.718 76.6328C13.8709 77.3648 15.8516 78.0107 17.2726 78.4413C17.983 78.6566 18.5643 78.8288 18.9734 78.9365C19.1671 78.9795 19.3178 79.0226 19.447 79.0657C19.5547 79.0872 19.6192 79.1087 19.6192 79.0872C19.6192 79.0872 19.5762 79.0657 19.4685 79.0226C19.3394 78.9795 19.1887 78.9365 19.0164 78.8719C18.5858 78.7427 18.0261 78.5489 17.3371 78.3337C15.9162 77.8815 13.957 77.2141 11.7826 76.4821C9.62966 75.7502 7.64897 75.1043 6.22804 74.6737C5.51757 74.4584 4.93628 74.2862 4.52723 74.1785C4.33346 74.1355 4.18276 74.0924 4.05358 74.0493C3.94594 74.0278 3.88135 74.0063 3.88135 74.0278Z" fill="#E0E0E0"/>
<path d="M32.1925 24.5749V31.9379C32.1925 33.2727 31.1161 34.3492 29.7813 34.3492H3.40789C2.07308 34.3492 0.996616 33.2727 0.996616 31.9379V25.716L-2.29736 22.2713L29.7597 22.1636C31.0945 22.1636 32.1925 23.2401 32.1925 24.5749Z" fill="#E0E0E0"/>
<path d="M4.87207 26.6202L28.8126 26.5125V25.7805L4.87207 25.8882V26.6202Z" fill="#FAFAFA"/>
<path d="M4.87207 29.0531L28.8126 28.924V28.192L4.87207 28.2996V29.0531Z" fill="#FAFAFA"/>
<path d="M14.3432 30.6241L4.87036 30.6707L4.87396 31.4027L14.3468 31.3561L14.3432 30.6241Z" fill="#FAFAFA"/>
<path d="M121.044 91.2295C121.044 91.251 93.2711 91.2941 59.0181 91.2941C24.7435 91.2941 -3.0293 91.2726 -3.0293 91.2295C-3.0293 91.208 24.7435 91.1649 59.0181 91.1649C93.2711 91.1864 121.044 91.208 121.044 91.2295Z" fill="#263238"/>
<path d="M98.9978 38.1599V88.7537C98.9978 90.1316 97.8783 91.2296 96.5219 91.2296H21.7508C20.3729 91.2296 19.2749 90.1101 19.2749 88.7537V38.1599C19.2749 36.782 20.3944 35.6841 21.7508 35.6841H96.5219C97.8998 35.6625 98.9978 36.782 98.9978 38.1599Z" fill="#263238"/>
<path d="M24.7185 37.4312L24.7185 89.489H91.3085V37.4312L24.7185 37.4312Z" fill="white"/>
<path d="M97.0843 63.9445C97.3536 62.7985 96.643 61.6512 95.497 61.3819C94.3511 61.1125 93.2038 61.8232 92.9344 62.9691C92.6651 64.1151 93.3758 65.2624 94.5217 65.5317C95.6676 65.801 96.815 65.0904 97.0843 63.9445Z" fill="#455A64"/>
<path d="M22.4393 55.3401V71.5517C22.4393 71.7024 22.3317 71.81 22.181 71.81H21.815C21.6643 71.81 21.5566 71.7024 21.5566 71.5517V55.3401C21.5566 55.1894 21.6643 55.0818 21.815 55.0818H22.181C22.3317 55.0818 22.4393 55.1894 22.4393 55.3401Z" fill="#455A64"/>
<path d="M43.6106 67.9602C45.2449 65.4772 44.5569 62.1395 42.0739 60.5052C39.5909 58.8708 36.2532 59.5588 34.6189 62.0418C32.9845 64.5248 33.6725 67.8625 36.1555 69.4969C38.6385 71.1312 41.9762 70.4432 43.6106 67.9602Z" fill="#1CDEC8"/>
<path d="M43.6106 67.9602C45.2449 65.4772 44.5569 62.1395 42.0739 60.5052C39.5909 58.8708 36.2532 59.5588 34.6189 62.0418C32.9845 64.5248 33.6725 67.8625 36.1555 69.4969C38.6385 71.1312 41.9762 70.4432 43.6106 67.9602Z" fill="#BDBDBD"/>
<path d="M37.2517 63.6507C37.4455 63.6292 37.6393 63.866 37.6608 64.1459C37.6823 64.4473 37.5316 64.6841 37.3379 64.7056C37.1441 64.7271 36.9503 64.4903 36.9288 64.2104C36.9073 63.9306 37.058 63.6722 37.2517 63.6507Z" fill="#263238"/>
<path d="M40.675 63.5859C40.4812 63.5859 40.2875 63.8012 40.2875 64.1026C40.2659 64.4041 40.4382 64.6409 40.6319 64.6624C40.8257 64.6624 41.0195 64.4471 41.0195 64.1457C41.041 63.8443 40.8903 63.5859 40.675 63.5859Z" fill="#263238"/>
<path d="M41.2562 66.0833C41.2562 66.1479 40.2443 66.1909 39.0171 66.1909C37.79 66.1909 36.7781 66.1479 36.7781 66.0833C36.7781 66.0187 37.79 65.9757 39.0171 65.9757C40.2658 65.9541 41.2562 66.0187 41.2562 66.0833Z" fill="#263238"/>
<path d="M37.6608 63.0477C37.6392 63.1122 37.4024 63.1122 37.101 63.1553C36.7996 63.1984 36.5628 63.2845 36.5197 63.2199C36.4766 63.1768 36.7135 62.9831 37.0579 62.9185C37.4239 62.8754 37.6823 62.9831 37.6608 63.0477Z" fill="#263238"/>
<path d="M41.6437 63.3062C41.6007 63.3493 41.3639 63.2416 41.0624 63.1555C40.761 63.0694 40.5027 63.0263 40.5027 62.9617C40.5027 62.8971 40.7826 62.8326 41.127 62.9402C41.493 63.0263 41.6868 63.2631 41.6437 63.3062Z" fill="#263238"/>
<path d="M83.5858 65.437C84.0702 62.3956 81.9974 59.5373 78.956 59.0529C75.9146 58.5685 73.0564 60.6413 72.5719 63.6827C72.0875 66.7241 74.1604 69.5824 77.2018 70.0668C80.2432 70.5512 83.1014 68.4784 83.5858 65.437Z" fill="#F67E4B"/>
<path d="M83.5858 65.437C84.0702 62.3956 81.9974 59.5373 78.956 59.0529C75.9146 58.5685 73.0564 60.6413 72.5719 63.6827C72.0875 66.7241 74.1604 69.5824 77.2018 70.0668C80.2432 70.5512 83.1014 68.4784 83.5858 65.437Z" fill="#BDBDBD"/>
<path d="M76.1336 63.1552C76.3489 63.1337 76.5427 63.3705 76.5642 63.6719C76.5857 63.9733 76.435 64.2317 76.2197 64.2532C76.0044 64.2747 75.8107 64.0379 75.7892 63.7365C75.7676 63.4351 75.9183 63.1767 76.1336 63.1552Z" fill="#263238"/>
<path d="M79.6858 63.0905C79.4705 63.0905 79.2983 63.3273 79.2767 63.6287C79.2552 63.9301 79.4274 64.1884 79.6427 64.1884C79.858 64.1884 80.0303 63.9516 80.0518 63.6502C80.0518 63.3488 79.9011 63.0905 79.6858 63.0905Z" fill="#263238"/>
<path d="M80.2887 65.6741C80.2672 65.6956 80.0304 65.5449 79.6428 65.3296C79.2553 65.1359 78.6525 64.899 77.9851 64.9206C77.3177 64.9421 76.7149 65.1574 76.3273 65.3511C75.9183 65.5449 75.6815 65.6956 75.6599 65.6741C75.6384 65.6526 75.8537 65.4588 76.2412 65.222C76.6287 64.9852 77.2531 64.7268 77.9851 64.7053C78.7171 64.6837 79.3414 64.9636 79.729 65.2004C80.1165 65.4373 80.3102 65.6526 80.2887 65.6741Z" fill="#263238"/>
<path d="M76.5644 62.5307C76.5859 62.5522 76.5429 62.6168 76.4568 62.7029C76.3707 62.7891 76.2199 62.8752 76.0262 62.8967C75.8324 62.9398 75.6602 62.8967 75.5525 62.8536C75.4449 62.8106 75.3803 62.746 75.4018 62.7029C75.4234 62.6384 75.7032 62.7245 76.0047 62.6814C76.2845 62.6168 76.5214 62.4661 76.5644 62.5307Z" fill="#263238"/>
<path d="M80.6979 62.7891C80.6979 62.8106 80.6549 62.8752 80.5257 62.9182C80.3965 62.9613 80.2243 62.9613 80.0305 62.8967C79.8368 62.8321 79.7076 62.7245 79.6215 62.6168C79.5354 62.5307 79.5138 62.4446 79.5354 62.4231C79.5784 62.38 79.8152 62.5738 80.1166 62.6814C80.3965 62.7891 80.6764 62.7245 80.6979 62.7891Z" fill="#263238"/>
<path d="M67.3712 80.0558L68.6629 79.4099L69.9331 80.0988L69.7178 78.6779L70.7728 77.7091L69.3519 77.4507L68.749 76.159L68.0816 77.4292L66.6392 77.6014L67.651 78.6348L67.3712 80.0558Z" fill="#E0E0E0"/>
<path d="M62.0967 80.0558L63.3884 79.4099L64.6587 80.0988L64.4434 78.6779L65.4983 77.7091L64.0774 77.4507L63.4746 76.159L62.8072 77.4292L61.3862 77.6014L62.3766 78.6348L62.0967 80.0558Z" fill="#1C1C1E"/>
<path d="M56.8436 80.0558L58.1353 79.4099L59.384 80.0988L59.1687 78.6779L60.2452 77.7091L58.8027 77.4507L58.1999 76.159L57.5325 77.4292L56.1116 77.6014L57.1234 78.6348L56.8436 80.0558Z" fill="#1C1C1E"/>
<path d="M51.5689 80.0558L52.8607 79.4099L54.1094 80.0988L53.9156 78.6779L54.9705 77.7091L53.5496 77.4507L52.9253 76.159L52.2578 77.4292L50.8369 77.6014L51.8488 78.6348L51.5689 80.0558Z" fill="#1C1C1E"/>
<path d="M46.294 80.056L47.5858 79.4102L48.856 80.0991L48.6407 78.6782L49.6956 77.7093L48.2747 77.451L47.6719 76.1592L47.0045 77.4295L45.562 77.6017L46.5739 78.6351L46.294 80.056Z" fill="#1C1C1E"/>
<path d="M70.8373 48.3218C70.8373 48.3433 65.0459 48.3863 57.9198 48.3863C50.7936 48.3863 45.0022 48.3648 45.0022 48.3218C45.0022 48.3002 50.7936 48.2572 57.9198 48.2572C65.0459 48.2572 70.8373 48.3002 70.8373 48.3218Z" fill="#263238"/>
<path d="M64.4863 46.7715C64.4863 46.793 61.6229 46.8361 58.1136 46.8361C54.5828 46.8361 51.741 46.8145 51.741 46.7715C51.741 46.7499 54.6044 46.7069 58.1136 46.7069C61.6229 46.7069 64.4863 46.7499 64.4863 46.7715Z" fill="#263238"/>
<path d="M66.0074 65.5412C67.2505 61.6821 65.1298 57.5459 61.2707 56.3027C57.4115 55.0596 53.2753 57.1803 52.0321 61.0394C50.789 64.8986 52.9097 69.0348 56.7689 70.278C60.628 71.5211 64.7643 69.4004 66.0074 65.5412Z" fill="#BDBDBD"/>
<path d="M56.4986 61.4335C56.7785 61.412 57.0369 61.7134 57.0584 62.1224C57.1015 62.5315 56.8862 62.876 56.6063 62.8975C56.3264 62.919 56.068 62.6176 56.0465 62.2085C56.0035 61.7995 56.2188 61.455 56.4986 61.4335Z" fill="#263238"/>
<path d="M61.1491 61.3258C60.8692 61.3043 60.6324 61.6272 60.6109 62.0363C60.5893 62.4453 60.8046 62.7683 61.0845 62.7898C61.3644 62.8113 61.6012 62.4884 61.6227 62.0793C61.6443 61.6918 61.429 61.3473 61.1491 61.3258Z" fill="#263238"/>
<path d="M61.9671 63.7372C61.9886 63.7587 61.924 63.8233 61.7949 63.9525C61.6872 64.0816 61.4934 64.2539 61.2351 64.4476C60.9767 64.6199 60.6538 64.8352 60.2663 64.9859C59.8787 65.1366 59.4051 65.2227 58.9099 65.2012C58.4148 65.1796 57.9626 65.0504 57.5751 64.8997C57.1876 64.749 56.8646 64.5553 56.6063 64.383C56.0896 64.0386 55.8097 63.7587 55.8312 63.7372C55.8528 63.7156 56.1757 63.9309 56.6924 64.2323C56.9723 64.383 57.2737 64.5553 57.6612 64.6845C58.0272 64.8136 58.4578 64.9428 58.9315 64.9643C59.3836 64.9859 59.8142 64.8997 60.2017 64.7921C60.5892 64.6629 60.8906 64.4907 61.149 64.3185C61.4073 64.1462 61.6011 63.9955 61.7303 63.8879C61.8594 63.7802 61.9456 63.7372 61.9671 63.7372Z" fill="#263238"/>
<path d="M56.8218 59.7757C56.8003 59.8403 56.4558 59.8188 56.0467 59.8834C55.6377 59.948 55.2932 60.0771 55.2717 60.0125C55.2286 59.9695 55.5516 59.7327 56.0037 59.6465C56.4773 59.582 56.8433 59.7111 56.8218 59.7757Z" fill="#263238"/>
<path d="M62.7423 60.1202C62.6992 60.1633 62.3978 59.991 61.9672 59.8619C61.5581 59.7327 61.1921 59.7112 61.1921 59.6466C61.1921 59.582 61.5797 59.4959 62.0318 59.6466C62.5054 59.7758 62.7853 60.0772 62.7423 60.1202Z" fill="#263238"/>
<path d="M55.9605 63.2206C55.982 63.2206 56.0251 63.2852 56.0466 63.4359C56.0466 63.565 56.0035 63.7588 55.8959 63.9526C55.7667 64.1248 55.5945 64.2325 55.4653 64.2755C55.3361 64.3186 55.25 64.297 55.25 64.2755C55.25 64.2109 55.5299 64.1248 55.7236 63.8234C55.8959 63.522 55.8959 63.2206 55.9605 63.2206Z" fill="#263238"/>
<path d="M62.5914 63.8879C62.5914 63.9094 62.5268 63.9524 62.4192 63.974C62.3116 63.974 62.1393 63.9524 62.0101 63.8448C61.8594 63.7372 61.7949 63.5864 61.7733 63.4788C61.7518 63.3712 61.7733 63.285 61.7949 63.285C61.8594 63.285 61.924 63.5003 62.1393 63.651C62.3331 63.8233 62.5699 63.8233 62.5914 63.8879Z" fill="#263238"/>
<path d="M68.0171 63.2206C68.0171 63.2206 68.017 63.1775 67.9955 63.0699C67.9955 62.9622 67.974 62.833 67.974 62.6393C67.974 62.5532 67.9525 62.4455 67.9525 62.3163C67.9309 62.2087 67.9094 62.0795 67.8879 61.9288C67.8663 61.7996 67.8448 61.6489 67.8233 61.4767C67.8018 61.326 67.7372 61.1538 67.6941 60.9815C67.5434 60.2711 67.1989 59.4529 66.6822 58.5702C66.1655 57.6875 65.3905 56.7618 64.3786 55.9867C64.2494 55.9006 64.1203 55.793 63.9911 55.6853C63.8619 55.5992 63.7112 55.5131 63.5605 55.427C63.4098 55.3408 63.2806 55.2332 63.1084 55.1686C62.9577 55.104 62.7854 55.0179 62.6347 54.9318C62.5486 54.8887 62.484 54.8457 62.3979 54.8241C62.3118 54.8026 62.2257 54.7596 62.1396 54.738C61.9673 54.6734 61.7951 54.6088 61.6229 54.5443C61.4506 54.4797 61.2569 54.4581 61.0846 54.3936C60.9124 54.3505 60.7186 54.2859 60.5249 54.2644C60.1589 54.2213 59.7713 54.1352 59.3838 54.1352C59.1901 54.1352 58.9963 54.1137 58.8025 54.1137C58.6088 54.1137 58.3935 54.1352 58.1997 54.1352C58.0921 54.1352 58.0059 54.1352 57.8983 54.1567L57.5969 54.1998C57.4031 54.2428 57.1878 54.2644 56.9941 54.3074C56.585 54.4151 56.176 54.5012 55.7884 54.6519C55.3794 54.7811 54.9918 54.9748 54.6043 55.1686C54.4106 55.2763 54.2383 55.3839 54.0446 55.5131C53.9584 55.5777 53.8508 55.6207 53.7647 55.6853L53.5063 55.8791C53.1403 56.1374 52.8174 56.4388 52.4729 56.7618C52.3222 56.934 52.1715 57.1062 52.0208 57.2785L51.9132 57.4077L51.8055 57.5368L51.5902 57.8167L51.3749 58.0966L51.2027 58.398L51.0305 58.6994L50.9443 58.8501L50.8582 59.0008C50.7506 59.2161 50.6429 59.4314 50.5568 59.6467C50.4707 59.862 50.3846 60.0988 50.32 60.3141C50.0186 61.2183 49.8679 62.1872 49.8464 63.1775C49.8679 64.1678 50.0186 65.1367 50.32 66.0409C50.4061 66.2562 50.4922 66.493 50.5568 66.7083C50.6645 66.9236 50.7721 67.1389 50.8582 67.3542L50.9443 67.5049L51.0305 67.6556L51.2027 67.957L51.3749 68.2584L51.5902 68.5383L51.8055 68.8182L51.9132 68.9474L52.0208 69.0765C52.1715 69.2488 52.3222 69.421 52.4729 69.5932C52.8174 69.8946 53.1403 70.2176 53.5063 70.4759L53.7647 70.6697C53.8508 70.7343 53.9584 70.7773 54.0446 70.8419C54.2383 70.9496 54.4106 71.0788 54.6043 71.1864C54.9918 71.3802 55.3794 71.5739 55.7884 71.7031C56.176 71.8753 56.6065 71.9399 56.9941 72.0476C57.1878 72.0906 57.4031 72.1122 57.5969 72.1552L57.8983 72.1983C58.0059 72.2198 58.0921 72.2198 58.1997 72.2198C58.3935 72.2198 58.6088 72.2413 58.8025 72.2413C58.9963 72.2413 59.1901 72.2198 59.3838 72.2198C59.7713 72.2198 60.1589 72.1337 60.5249 72.0906C60.7186 72.0691 60.8909 72.0045 61.0846 71.9615C61.2569 71.9184 61.4506 71.8753 61.6229 71.8107C61.7951 71.7462 61.9673 71.6816 62.1396 71.617C62.2257 71.5955 62.3118 71.5524 62.3979 71.5309C62.484 71.4878 62.5486 71.4447 62.6347 71.4232C62.7854 71.3371 62.9577 71.2725 63.1084 71.1864C63.2591 71.1218 63.4098 71.0142 63.5605 70.928C63.7112 70.8419 63.8404 70.7558 63.9911 70.6697C64.1203 70.562 64.2494 70.4759 64.3786 70.3683C65.412 69.5932 66.1655 68.6675 66.6822 67.7848C67.1989 66.9021 67.5219 66.0624 67.6941 65.3735C67.7372 65.2013 67.8018 65.029 67.8233 64.8783C67.8448 64.7276 67.8663 64.5769 67.8879 64.4262C67.9094 64.297 67.9309 64.1678 67.9525 64.0387C67.9525 63.931 67.974 63.8234 67.974 63.7157C67.9955 63.522 67.9955 63.3928 67.9955 63.2851C67.9955 63.2636 68.0171 63.2206 68.0171 63.2206C68.0171 63.2206 68.0171 63.2636 68.0171 63.3713C68.0171 63.4789 68.017 63.6081 67.9955 63.8018C67.9955 63.888 67.9955 63.9956 67.974 64.1248C67.974 64.2324 67.9309 64.3616 67.9309 64.5123C67.9094 64.6415 67.8879 64.7922 67.8663 64.9644C67.8448 65.1151 67.8018 65.2874 67.7587 65.4596C67.608 66.1701 67.2851 67.0097 66.7684 67.8924C66.2517 68.7751 65.4981 69.7009 64.4432 70.4975C64.314 70.6051 64.1848 70.6912 64.0557 70.7989C63.9265 70.885 63.7758 70.9711 63.6251 71.0572C63.4744 71.1433 63.3452 71.251 63.173 71.3156C63.0223 71.4017 62.85 71.4663 62.6993 71.5524C62.6132 71.5954 62.5486 71.6385 62.4625 71.66C62.3764 71.6816 62.2903 71.7246 62.2042 71.7462C62.0319 71.8107 61.8597 71.8753 61.6874 71.9399C61.5152 72.0045 61.3215 72.026 61.1492 72.0906C60.9555 72.1337 60.7832 72.1983 60.5895 72.2198C60.2019 72.2844 59.8359 72.349 59.4269 72.349C59.2331 72.349 59.0393 72.3705 58.8241 72.3705C58.6303 72.3705 58.415 72.349 58.2212 72.349C58.1136 72.349 58.0059 72.349 57.9198 72.3274L57.6184 72.2844C57.4247 72.2413 57.2094 72.2198 56.9941 72.1767C56.585 72.0691 56.176 71.983 55.7669 71.8107C55.3578 71.6816 54.9703 71.4663 54.5613 71.294C54.3675 71.1864 54.1737 71.0572 53.98 70.9496C53.8939 70.885 53.7862 70.8419 53.7001 70.7773L53.4202 70.5836C53.0542 70.3252 52.7097 70.0023 52.3868 69.7009C52.2361 69.5286 52.0854 69.3564 51.9132 69.1842L51.8055 69.055L51.6979 68.9258L51.4826 68.6459L51.2673 68.3661L51.0735 68.0647L50.8798 67.7632L50.7936 67.6125L50.7075 67.4618C50.5999 67.2465 50.4922 67.0312 50.3846 66.8159C50.2985 66.6007 50.2123 66.3638 50.1262 66.127C49.8248 65.2013 49.6741 64.2324 49.6526 63.2206C49.6741 62.2302 49.8248 61.2399 50.1262 60.3141C50.2123 60.0773 50.2985 59.862 50.3846 59.6252C50.4922 59.4099 50.5999 59.1946 50.686 58.9793L50.7721 58.8286L50.8582 58.6779L51.052 58.3765L51.2458 58.0751L51.461 57.7952L51.6763 57.5153L51.784 57.3861L51.8916 57.2569C52.0423 57.0847 52.2146 56.9125 52.3653 56.7402C52.7097 56.4388 53.0327 56.1159 53.3987 55.8575L53.6786 55.6638C53.7647 55.5992 53.8723 55.5346 53.9584 55.4916C54.1522 55.3839 54.346 55.2547 54.5397 55.1471C54.9488 54.9533 55.3363 54.7596 55.7454 54.6304C56.1544 54.4581 56.5635 54.372 56.9725 54.2644C57.1878 54.2213 57.3816 54.1998 57.5969 54.1567L57.8983 54.1137C58.0059 54.0921 58.1136 54.0921 58.1997 54.0921C58.3935 54.0921 58.6088 54.0706 58.8025 54.0706C58.9963 54.0706 59.2116 54.0921 59.4053 54.0921C59.7929 54.0921 60.1804 54.1783 60.5679 54.2213C60.7617 54.2429 60.9339 54.3074 61.1277 54.3505C61.2999 54.3936 61.4937 54.4366 61.6659 54.5012C61.8382 54.5658 62.0104 54.6304 62.1826 54.695C62.2687 54.7165 62.3549 54.7596 62.441 54.7811C62.5271 54.8241 62.6132 54.8672 62.6778 54.8887C62.8285 54.9748 63.0007 55.0394 63.1514 55.1256C63.3021 55.1901 63.4528 55.2978 63.6036 55.3839C63.7543 55.47 63.905 55.5561 64.0341 55.6423C64.1633 55.7499 64.2925 55.836 64.4217 55.9437C65.4551 56.7402 66.2086 57.666 66.7468 58.5487C67.2635 59.4314 67.5865 60.2711 67.7372 60.9815C67.7802 61.1538 67.8448 61.326 67.8448 61.4767C67.8663 61.6274 67.8879 61.7781 67.9094 61.9288C67.9309 62.058 67.9525 62.1872 67.9525 62.3163C67.9525 62.424 67.9525 62.5316 67.974 62.6393C67.974 62.833 67.9955 62.9622 67.9955 63.0699C68.017 63.1775 68.0171 63.2206 68.0171 63.2206Z" fill="#434343"/>
<path d="M91.3117 37.4279H24.7217V40.7435H91.3117V37.4279Z" fill="#E0E0E0"/>
<path d="M26.8747 38.978C26.8747 39.2363 26.6809 39.4301 26.4226 39.4301C26.1642 39.4301 25.9705 39.2363 25.9705 38.978C25.9705 38.7196 26.1642 38.5259 26.4226 38.5259C26.6809 38.5259 26.8747 38.7412 26.8747 38.978Z" fill="white"/>
<path d="M28.36 38.978C28.36 39.2363 28.1663 39.4301 27.9079 39.4301C27.6496 39.4301 27.4558 39.2363 27.4558 38.978C27.4558 38.7196 27.6496 38.5259 27.9079 38.5259C28.1663 38.5259 28.36 38.7412 28.36 38.978Z" fill="white"/>
<path d="M29.8671 38.978C29.8671 39.2363 29.6734 39.4301 29.415 39.4301C29.1567 39.4301 28.9629 39.2363 28.9629 38.978C28.9629 38.7196 29.1567 38.5259 29.415 38.5259C29.6734 38.5259 29.8671 38.7412 29.8671 38.978Z" fill="white"/>
<path d="M83.9702 50.9481C83.9702 50.9697 72.409 51.0127 58.1566 51.0127C43.9042 51.0127 32.343 50.9912 32.343 50.9481C32.343 50.9051 43.9042 50.8835 58.1566 50.8835C72.4305 50.8835 83.9702 50.9051 83.9702 50.9481Z" fill="#E0E0E0"/>
<path d="M83.9702 52.2184C83.9702 52.24 72.409 52.283 58.1566 52.283C43.9042 52.283 32.343 52.2615 32.343 52.2184C32.343 52.1969 43.9042 52.1538 58.1566 52.1538C72.4305 52.1754 83.9702 52.1969 83.9702 52.2184Z" fill="#E0E0E0"/>
<path d="M50.1046 36.0068C50.1046 36.0068 49.6525 34.9734 49.5664 34.7581C49.3296 34.1337 47.844 30.0001 48.21 29.3758C49.8678 26.4693 51.138 24.424 54.4105 24.424L60.1588 24.381C60.1588 24.381 65.6057 23.2615 69.4594 35.6623L50.1046 36.0068Z" fill="#455A64"/>
<path d="M37.9624 37.0629L45.4976 35.4482L54.3462 30.7979L54.3892 24.4467C53.0544 24.0807 50.514 25.0065 45.9282 27.3317L39.125 30.8409C36.7998 32.025 36.24 35.0822 37.9624 37.0629Z" fill="#455A64"/>
<path d="M54.9273 49.355C54.8197 48.989 54.8843 48.7737 55.4225 48.946C56.5635 49.3335 57.597 49.2043 57.8553 48.989C58.1137 48.7737 57.8768 48.3432 57.5108 48.3647C57.2094 48.3862 56.6927 48.3001 56.3052 48.1924C55.9823 48.1063 55.6808 47.9987 55.401 47.8049C55.1641 47.6542 54.9489 47.5035 54.7766 47.3743C54.7766 47.3743 53.7217 46.5993 53.3772 45.9965L49.7388 47.5466L50.3201 49.3766C50.3201 49.3766 50.5138 50.453 51.5472 50.7975C52.5806 51.142 54.2384 51.0128 54.2384 51.0128C54.5398 50.819 55.7024 52.4983 56.0684 53.1011C56.4128 53.6824 56.8434 53.7685 56.9726 53.4025C57.0587 53.1442 56.0253 51.2927 55.6593 50.7114C55.444 50.41 55.0565 49.7856 54.9273 49.355Z" fill="#B77153"/>
<path d="M52.4514 51.0128C52.4514 51.0344 52.3653 51.0128 52.2361 50.9698C52.1069 50.9052 51.9562 50.776 51.8485 50.6038C51.7409 50.41 51.7194 50.2163 51.7409 50.0871C51.7624 49.9579 51.8055 49.8718 51.8055 49.8718C51.8485 49.8718 51.7624 50.2163 51.9562 50.5392C52.15 50.8837 52.4729 50.9913 52.4514 51.0128Z" fill="#995037"/>
<path d="M53.6143 51.0558C53.6143 51.0773 53.5281 51.0558 53.4205 50.9912C53.3128 50.9266 53.1621 50.7974 53.076 50.6252C52.9899 50.453 52.9468 50.2592 52.9684 50.13C52.9899 50.0008 53.0114 49.9147 53.033 49.9362C53.076 49.9362 53.0114 50.2592 53.1837 50.5821C53.3344 50.9266 53.6143 51.0342 53.6143 51.0558Z" fill="#995037"/>
<path d="M37.7471 36.8036C37.7471 36.8036 49.2868 50.0656 49.2868 49.8503C49.2652 49.635 54.4538 45.7597 54.4538 45.7597L43.1294 32.2824L37.7471 36.8036Z" fill="#455A64"/>
<path d="M44.7441 34.1984C44.7441 34.1984 44.7657 34.22 44.8303 34.2845C44.8948 34.3491 44.9594 34.4352 45.0456 34.5214C45.2393 34.7367 45.4977 35.0381 45.8206 35.4256C46.4665 36.1791 47.3707 37.234 48.3395 38.4182C49.3299 39.5807 50.2126 40.6572 50.8369 41.4323C51.1383 41.8198 51.3967 42.1212 51.5905 42.358C51.6766 42.4657 51.7412 42.5518 51.7842 42.6164C51.8273 42.681 51.8488 42.7025 51.8488 42.7025C51.8488 42.7025 51.8273 42.681 51.7627 42.6164C51.6981 42.5518 51.6335 42.4657 51.5474 42.3795C51.3536 42.1643 51.0953 41.8628 50.7723 41.4753C50.1265 40.7218 49.2222 39.6669 48.2534 38.4827C47.2631 37.3202 46.3804 36.2437 45.756 35.4687C45.4546 35.0811 45.1963 34.7797 45.0025 34.5429C44.9164 34.4352 44.8518 34.3491 44.8087 34.2845C44.7657 34.2415 44.7441 34.1984 44.7441 34.1984Z" fill="#263238"/>
<path d="M65.1752 35.727C65.1537 35.727 65.3044 35.4041 65.3044 34.8874C65.3044 34.629 65.2613 34.3061 65.1537 33.9831C65.046 33.6602 64.8307 33.3157 64.5508 33.0358C64.271 32.7344 63.9695 32.4976 63.7327 32.2177C63.4959 31.9594 63.3021 31.6795 63.216 31.4212C63.1084 31.1628 63.1084 30.926 63.1299 30.7753C63.1514 30.6246 63.1945 30.5385 63.1945 30.5385C63.216 30.5385 63.0868 30.8829 63.3021 31.3781C63.4098 31.6149 63.582 31.8948 63.8188 32.1316C64.0557 32.39 64.3571 32.6483 64.6585 32.9497C64.9384 33.2511 65.1752 33.5956 65.2828 33.9401C65.3905 34.2845 65.4335 34.6075 65.412 34.8874C65.3905 35.1672 65.3474 35.3825 65.2828 35.5117C65.2182 35.6624 65.1752 35.727 65.1752 35.727Z" fill="#263238"/>
<path d="M49.6097 25.5221C49.6097 25.5221 49.6743 25.5006 49.7819 25.436C49.8896 25.3929 50.0618 25.3283 50.2771 25.2637C50.4924 25.1992 50.7723 25.1346 51.0952 25.0915C51.4181 25.07 51.8057 25.07 52.2147 25.1992C52.6238 25.3283 53.0113 25.5652 53.3558 25.9312C53.7002 26.2972 53.9155 26.7923 54.0447 27.3306C54.1524 27.8688 54.217 28.4501 54.1524 29.0529C54.0878 29.6557 53.894 30.2585 53.5065 30.7752C53.1405 31.2919 52.6238 31.6795 52.1286 32.0024C51.6334 32.3254 51.1167 32.5837 50.6431 32.8421C49.6743 33.3372 48.8131 33.8109 48.0811 34.1984C47.3491 34.5644 46.7678 34.8873 46.3588 35.1026C46.165 35.2103 45.9928 35.2749 45.8851 35.3394C45.7775 35.3825 45.7129 35.4256 45.7129 35.4256C45.7129 35.4256 45.756 35.3825 45.8636 35.3179C45.9712 35.2533 46.1435 35.1672 46.3372 35.0596C46.7463 34.8443 47.3276 34.5213 48.0596 34.1338C48.7916 33.7463 49.6527 33.2726 50.6 32.7775C51.0737 32.5191 51.5904 32.2608 52.0856 31.9378C52.5807 31.6149 53.0759 31.2489 53.4419 30.7322C53.8079 30.237 54.0017 29.6342 54.0662 29.0529C54.1308 28.4716 54.0662 27.8903 53.9586 27.3736C53.851 26.8569 53.6357 26.3617 53.3127 26.0173C52.9898 25.6728 52.6023 25.4145 52.2147 25.3068C51.8272 25.1776 51.4612 25.1776 51.1383 25.1992C50.8153 25.2207 50.5354 25.2853 50.3202 25.3499C50.1049 25.4145 49.9326 25.479 49.825 25.5006C49.6743 25.5006 49.6097 25.5221 49.6097 25.5221Z" fill="#263238"/>
<path d="M46.0142 35.4257C45.9712 35.4257 45.8851 34.6721 45.3684 33.8971C44.8732 33.122 44.2058 32.713 44.2273 32.6699C44.2273 32.6484 44.3995 32.7345 44.6579 32.9283C44.8947 33.122 45.2177 33.4234 45.476 33.811C45.7344 34.22 45.8851 34.6076 45.9497 34.909C46.0358 35.2319 46.0358 35.4257 46.0142 35.4257Z" fill="#263238"/>
<path d="M62.9793 33.983C62.9793 33.983 62.8932 34.026 62.7425 34.0476C62.5702 34.0906 62.3334 34.1122 62.0105 34.0691C61.6875 34.0476 61.3 33.9399 60.9125 33.7031C60.525 33.4663 60.1374 33.1003 59.9006 32.5621C59.6638 32.0454 59.5777 31.3779 59.7714 30.7321C59.8791 30.4091 60.0729 30.0862 60.3743 29.8924C60.525 29.7848 60.7403 29.7417 60.934 29.7848C61.1278 29.8278 61.3 29.957 61.4077 30.1077C61.8383 30.7536 61.9244 31.6148 61.666 32.4114C61.5368 32.7989 61.3216 33.1864 61.0201 33.4878C60.7187 33.7892 60.3312 34.0045 59.9006 34.1122C59.061 34.3275 58.1137 34.1337 57.5109 33.5524C56.9081 32.9711 56.6712 32.1099 56.8004 31.3564C56.865 30.9689 57.0157 30.6244 57.231 30.3445C57.3386 30.2154 57.4893 30.0862 57.6616 30.0216C57.8338 29.957 58.0276 29.957 58.1998 30.0216C58.5227 30.1723 58.7165 30.4952 58.7596 30.7967C58.8026 31.1196 58.695 31.421 58.5873 31.6794C58.329 32.1961 58.006 32.6051 57.6616 32.9065C57.3386 33.2079 56.9942 33.4232 56.7143 33.5739C56.4344 33.7246 56.1976 33.8108 56.0469 33.8538C55.9608 33.8753 55.8962 33.8969 55.8747 33.8969C55.8316 33.8969 55.8101 33.9184 55.8101 33.9184C55.8101 33.9184 55.8316 33.9184 55.8747 33.8969C55.9177 33.8753 55.9823 33.8753 56.0469 33.8323C56.1976 33.7677 56.4344 33.6816 56.7143 33.5309C56.9942 33.3802 57.3171 33.1649 57.64 32.8635C57.963 32.5621 58.2859 32.153 58.5227 31.6578C58.6304 31.3995 58.7165 31.1196 58.6735 30.8182C58.6304 30.5383 58.4582 30.2369 58.1568 30.1077C58.006 30.0431 57.8553 30.0431 57.7046 30.1077C57.5539 30.1723 57.4248 30.28 57.3171 30.4091C57.1018 30.689 56.9511 31.0119 56.9081 31.3779C56.8004 32.0884 57.0157 32.9281 57.597 33.4663C58.1783 34.026 59.0825 34.2198 59.8791 34.0045C60.2881 33.8969 60.6541 33.6816 60.9556 33.4017C61.257 33.1218 61.4507 32.7558 61.5799 32.3683C61.7091 31.9808 61.7521 31.5932 61.7091 31.2057C61.6876 31.0119 61.6445 30.8397 61.5799 30.646C61.5153 30.4737 61.4507 30.3015 61.3431 30.1508C61.2354 30.0001 61.0847 29.8924 60.934 29.8709C60.7618 29.8278 60.5896 29.8709 60.4604 29.9785C60.1805 30.1508 59.9867 30.4522 59.9006 30.7536C59.7069 31.3779 59.793 32.0238 60.0298 32.519C60.2451 33.0357 60.6111 33.4017 60.9986 33.6385C61.3861 33.8753 61.7521 33.9615 62.0751 34.0045C62.6564 34.0906 62.9793 33.9615 62.9793 33.983Z" fill="#FAFAFA"/>
<path d="M63.8618 21.0656C63.625 20.7642 63.4313 20.4197 63.3451 20.0322C63.3236 19.903 63.3021 19.7738 63.3236 19.6662C63.3667 19.537 63.4743 19.4509 63.6035 19.4509C63.7327 19.4724 63.8188 19.58 63.8834 19.6877C64.0771 20.0106 64.2924 20.3336 64.4216 20.6996C64.4647 20.8072 64.4862 20.8933 64.4862 21.001C64.4862 21.1086 64.4216 21.2163 64.3355 21.2593C64.2278 21.3024 64.0987 21.2809 64.0126 21.2163C63.9264 21.1517 63.8618 21.044 63.7973 20.9579" fill="#995037"/>
<path d="M64.4003 20.8287C64.2066 20.4412 64.0128 20.0321 63.8406 19.6446C63.776 19.537 63.7329 19.4078 63.7329 19.2786C63.7329 19.1494 63.7975 18.9987 63.9267 18.9557C64.0343 18.9126 64.1635 18.9557 64.2496 19.0418C64.3357 19.1279 64.3788 19.214 64.4434 19.3217C64.5295 19.4939 64.6156 19.6661 64.7017 19.8384C64.7663 19.9891 64.8524 20.1183 64.874 20.2905C64.8955 20.4412 64.874 20.6134 64.7878 20.7426C64.6802 20.8718 64.508 20.9148 64.3573 20.8502" fill="#995037"/>
<path d="M61.8813 24.5103C61.8813 24.5103 61.0847 23.4769 61.0201 22.9387C60.9556 22.4005 61.623 21.4317 63.0439 21.2164C63.7974 21.1087 64.2495 20.8934 64.5079 20.7212C64.6801 20.592 64.7662 20.3767 64.6801 20.1614C64.4864 19.7093 64.1634 18.8697 64.1849 18.762C64.2495 18.4822 64.4433 18.4822 64.9385 19.1926C65.4336 19.9031 65.9934 20.6351 65.8858 20.9795C65.7781 21.3025 64.0342 22.3359 64.0342 22.3359L64.5079 23.1109L61.8813 24.5103Z" fill="#B77153"/>
<path d="M66.5964 35.0596L61.1279 24.3595L64.6372 22.3788L72.0217 34.0907C72.0217 34.0907 72.4093 34.8443 72.9475 35.7054H66.7471" fill="#455A64"/>
<path d="M64.5942 22.4004C64.5942 22.4004 64.5726 22.4219 64.5296 22.4434C64.4865 22.465 64.4219 22.508 64.3358 22.5511C64.1636 22.6587 63.9268 22.7879 63.6254 22.9602C63.001 23.3261 62.1398 23.8213 61.0849 24.4026L61.1064 24.338C61.6447 25.4145 62.3336 26.6847 63.0225 28.0411C64.0559 30.0648 64.9602 31.8948 65.5845 33.2511C65.9075 33.9185 66.1443 34.4783 66.3165 34.8443C66.4026 35.0165 66.4672 35.1672 66.5103 35.2749C66.5533 35.3825 66.5749 35.4256 66.5749 35.4256C66.5749 35.4256 66.5533 35.3825 66.4887 35.2749C66.4457 35.1672 66.3596 35.0165 66.2735 34.8443C66.0797 34.4568 65.8213 33.9186 65.4984 33.2727C64.8525 31.9379 63.9483 30.1079 62.9149 28.0841C62.2259 26.7278 61.537 25.4575 61.0203 24.3811L60.9988 24.338L61.0418 24.3165C62.0968 23.7352 62.9795 23.2616 63.6038 22.8956C63.9052 22.7233 64.1421 22.5942 64.3143 22.508C64.4004 22.465 64.465 22.4434 64.5081 22.4004C64.5511 22.4004 64.5942 22.4004 64.5942 22.4004Z" fill="#263238"/>
<path d="M50.1049 36.0069C50.0834 36.0284 49.782 35.4902 49.5236 34.8013C49.2653 34.0908 49.1791 33.5095 49.2007 33.488C49.2437 33.488 49.3729 34.0693 49.6313 34.7582C49.8681 35.4687 50.1264 36.0069 50.1049 36.0069Z" fill="#263238"/>
<path d="M62.1396 20.2473C63.0008 20.5918 64.0557 20.2903 64.637 19.5583C65.1968 18.8264 65.2183 17.7284 64.7016 16.9748C65.9288 16.6734 66.7038 15.231 66.4455 13.9823C66.1871 12.7336 65.0891 11.7648 63.8405 11.4849C63.3668 11.3772 62.8501 11.3772 62.398 11.5279C61.9459 11.6786 61.5153 12.0016 61.3215 12.4537" fill="#263238"/>
<path d="M61.9676 17.4486C61.9676 17.4702 61.8169 17.4917 61.5371 17.6209C61.2787 17.75 60.9342 18.0299 60.719 18.5036C60.6113 18.7404 60.5467 19.0203 60.5682 19.3217C60.5898 19.6231 60.6759 19.946 60.8697 20.2259C60.9558 20.3766 61.0849 20.5058 61.2141 20.6134C61.3433 20.7211 61.494 20.8287 61.6662 20.8933C62.0107 21.044 62.3982 21.0871 62.7858 21.001C63.1733 20.9148 63.5178 20.6995 63.7546 20.4197C63.8838 20.2905 63.9699 20.1182 64.0345 19.9675C64.099 19.7953 64.1636 19.6446 64.1636 19.4724C64.2067 19.1279 64.1421 18.805 64.0345 18.5251C63.9268 18.2452 63.7331 18.0084 63.5393 17.8577C63.1302 17.5132 62.6996 17.4271 62.4198 17.4056C62.1184 17.4271 61.9676 17.4702 61.9676 17.4486C61.9676 17.4486 62.0107 17.4271 62.0753 17.4271C62.1614 17.4056 62.2691 17.384 62.4198 17.384C62.7212 17.384 63.1733 17.4702 63.6039 17.8146C63.8192 17.9869 64.0129 18.2237 64.1421 18.5036C64.2713 18.805 64.3359 19.1494 64.2928 19.4939C64.2713 19.6661 64.2282 19.8599 64.1421 20.0321C64.0775 20.2044 63.9699 20.3766 63.8407 20.5273C63.5823 20.8287 63.2163 21.044 62.8073 21.1517C62.3982 21.2378 61.9676 21.1947 61.6232 21.044C61.4509 20.9579 61.2787 20.8718 61.128 20.7426C60.9773 20.6134 60.8697 20.4842 60.762 20.3335C60.5682 20.0321 60.4821 19.6877 60.4606 19.3647C60.4391 19.0418 60.5252 18.7404 60.6328 18.5036C60.8697 18.0084 61.2356 17.7285 61.5155 17.5993C61.6447 17.5347 61.7524 17.4917 61.8385 17.4917C61.9246 17.4486 61.9676 17.4486 61.9676 17.4486Z" fill="#434343"/>
<path d="M62.8931 14.0471C63.7758 14.004 64.6154 13.3151 64.8307 12.4539C65.046 11.5928 64.6585 10.6024 63.905 10.1288C64.271 9.09536 63.905 7.84666 63.0438 7.17926C62.1826 6.51185 60.8909 6.44726 59.9651 7.05008C59.2762 5.82291 57.7691 5.11245 56.3913 5.32774C54.9919 5.54303 53.8077 6.70561 53.5279 8.08349C52.2792 7.56678 50.7291 7.88972 49.7818 8.88007C48.856 9.87042 48.5977 11.4421 49.2005 12.6477C47.8441 12.7553 46.7031 14.1117 46.8323 15.468C46.9399 16.8244 48.2963 17.9654 49.6526 17.8578C49.3727 18.762 49.7172 19.8169 50.4922 20.3767C51.2458 20.9365 52.3653 20.958 53.1619 20.4413C53.657 21.2594 54.6474 21.733 55.5947 21.6254C56.542 21.5178 57.3816 20.8288 57.7045 19.9246" fill="#263238"/>
<path d="M60.3096 24.1657C60.3526 23.1108 60.4172 22.1635 60.4172 22.1635C60.4172 22.1635 62.7639 21.8621 62.8715 19.4724C62.9792 17.0826 62.7424 11.5711 62.7424 11.5711L58.4365 9.5043L53.7646 13.2504L54.4966 24.2303C54.6043 25.8235 55.9606 27.0291 57.5323 26.943C59.0393 26.8784 60.245 25.6728 60.3096 24.1657Z" fill="#B77153"/>
<path d="M62.5918 15.6616C62.5488 15.7047 62.3335 15.5109 62.0105 15.5109C61.6876 15.4894 61.4508 15.6616 61.4077 15.6185C61.3862 15.597 61.4293 15.5324 61.5369 15.4463C61.6445 15.3602 61.8168 15.2956 62.0105 15.3171C62.2043 15.3171 62.3765 15.4032 62.4627 15.4894C62.5918 15.5755 62.6134 15.6616 62.5918 15.6616Z" fill="#263238"/>
<path d="M59.0396 15.6616C58.9965 15.7047 58.7812 15.5109 58.4583 15.5109C58.1354 15.4894 57.8985 15.6616 57.8555 15.6185C57.834 15.597 57.877 15.5324 57.9847 15.4463C58.0923 15.3602 58.2645 15.2956 58.4583 15.3171C58.6521 15.3171 58.8243 15.4032 58.9104 15.4894C59.0181 15.5755 59.0611 15.6616 59.0396 15.6616Z" fill="#263238"/>
<path d="M60.245 18.073C60.245 18.0514 60.4388 18.0299 60.7617 17.9868C60.8479 17.9868 60.9124 17.9653 60.934 17.9007C60.9555 17.8361 60.9124 17.75 60.8909 17.6424C60.8263 17.4271 60.7402 17.1903 60.6541 16.9534C60.3311 15.9846 60.0943 15.188 60.1374 15.188C60.1804 15.1665 60.4603 15.9416 60.7833 16.9104C60.8694 17.1472 60.934 17.384 60.9986 17.5993C61.0201 17.707 61.0847 17.8146 61.0416 17.9438C61.0201 18.0084 60.9555 18.0514 60.9124 18.073C60.8694 18.0945 60.8048 18.0945 60.7833 18.0945C60.4388 18.116 60.245 18.0945 60.245 18.073Z" fill="#263238"/>
<path d="M60.3959 22.1635C60.3959 22.1635 58.8242 22.2065 57.2957 21.1516C57.2957 21.1516 58.0276 22.8955 60.3528 22.7448L60.3959 22.1635Z" fill="#995037"/>
<path d="M57.0805 9.63346C56.3055 10.6884 56.327 12.26 57.1236 13.2934C57.4681 13.7456 58.0063 14.1331 58.5661 14.1115C59.1473 14.09 59.7071 13.5518 59.5779 12.992C59.3626 13.7025 59.9439 14.5206 60.6975 14.5421C61.4294 14.5637 62.0538 13.7456 61.86 13.0351C61.9246 13.2934 61.9892 13.5518 62.1184 13.7671C62.2691 13.9824 62.5274 14.1546 62.7858 14.1115C63.1518 14.0685 63.3456 13.681 63.4317 13.315C63.6685 12.26 63.281 11.0975 62.5059 10.3439C61.7309 9.5904 60.6113 9.2244 59.5133 9.28899C58.4369 9.35358 57.3819 9.84875 56.5854 10.5807" fill="#263238"/>
<path d="M57.3817 10.4731C57.6616 11.162 57.8769 11.8725 57.8554 12.626C57.8554 13.358 57.597 14.1115 57.0803 14.6498C56.5636 15.1665 55.724 15.4033 55.0566 15.1449C55.2288 15.7908 55.1642 16.5228 54.7552 17.061C54.3461 17.5993 53.5711 17.8576 52.9898 17.5347C52.4515 17.2548 52.2362 16.6089 52.1501 16.0061C51.9779 14.5636 52.4946 13.0351 53.5065 12.0017C54.5183 10.9683 56.0254 10.4085 57.4678 10.5377" fill="#263238"/>
<path d="M54.4108 16.1784C54.0878 15.9846 53.6572 16.1353 53.3989 16.4152C53.0114 16.8458 52.9252 17.5562 53.2267 18.0514C53.5281 18.5466 54.1955 18.8265 54.7552 18.6758" fill="#B77153"/>
<path d="M54.3463 17.9652C54.3463 17.9867 54.2387 17.9867 54.0664 17.9436C53.9157 17.9006 53.6574 17.7714 53.5713 17.513C53.5282 17.3839 53.5282 17.2332 53.5928 17.1255C53.6359 17.0179 53.722 16.9317 53.7866 16.8887C53.9373 16.781 54.0449 16.8026 54.0449 16.8026C54.0449 16.8241 53.9588 16.8456 53.8296 16.9533C53.722 17.0394 53.5928 17.2547 53.6789 17.47C53.7435 17.6853 53.9588 17.8144 54.088 17.879C54.2387 17.9221 54.3463 17.9436 54.3463 17.9652Z" fill="#995037"/>
<path d="M59.2333 14.6713C59.2117 14.7574 58.8457 14.7359 58.4367 14.7574C58.0276 14.779 57.6832 14.822 57.6401 14.7359C57.597 14.6498 57.9415 14.4345 58.4367 14.413C58.9103 14.3914 59.2763 14.5852 59.2333 14.6713Z" fill="#263238"/>
<path d="M62.5918 14.6067C62.5488 14.6497 62.4842 14.6282 62.3981 14.6067C62.3119 14.5852 62.2258 14.5852 62.0967 14.5852C61.9675 14.6067 61.8383 14.6282 61.7306 14.6282C61.623 14.6282 61.5584 14.6067 61.5369 14.5636C61.5154 14.5206 61.5799 14.456 61.6661 14.3914C61.7522 14.3268 61.8814 14.2622 62.0751 14.2407C62.2689 14.2192 62.4626 14.3053 62.5272 14.4129C62.6134 14.499 62.6134 14.5852 62.5918 14.6067Z" fill="#263238"/>
<path d="M59.6855 18.6973C59.8577 18.5897 60.0945 18.5466 60.2883 18.6112C60.4821 18.6758 60.6328 18.8911 60.5897 19.1064C60.5682 19.214 60.4821 19.3217 60.3959 19.3863C60.2452 19.4939 60.073 19.537 59.9008 19.5154C59.7285 19.4724 59.5778 19.3432 59.5348 19.171C59.4917 18.9987 59.5778 18.805 59.7285 18.7189" fill="#995037"/>
<path d="M60.8696 18.9557C60.8696 18.9772 60.7835 19.0203 60.6328 19.0633C60.482 19.1064 60.2452 19.1064 60.0299 18.9987C59.8146 18.9126 59.6424 18.7404 59.5563 18.6112C59.4702 18.482 59.4486 18.3744 59.4702 18.3744C59.4917 18.3744 59.5348 18.4605 59.6209 18.5682C59.707 18.6758 59.8577 18.805 60.073 18.8911C60.2668 18.9772 60.482 18.9772 60.6328 18.9772C60.7619 18.9557 60.848 18.9342 60.8696 18.9557Z" fill="#263238"/>
<path d="M56.0038 20.0967C55.9822 20.0967 56.0038 19.9245 55.9176 19.6446C55.853 19.3647 55.6593 18.9557 55.2287 18.6543C55.0134 18.5036 54.7551 18.3744 54.4536 18.3098C54.1522 18.2667 53.8293 18.2667 53.5064 18.3959C53.3557 18.4605 53.1834 18.5466 53.0542 18.6543C52.9035 18.7619 52.7744 18.8911 52.6667 19.0418C52.4514 19.3432 52.3222 19.7092 52.3222 20.1183C52.3222 20.5058 52.4514 20.8933 52.6667 21.1947C52.7744 21.3454 52.9035 21.4746 53.0542 21.5822C53.2049 21.6899 53.3557 21.776 53.5064 21.8406C53.8293 21.9698 54.1522 21.9698 54.4536 21.9267C54.7551 21.8837 55.0134 21.7545 55.2287 21.5822C55.6378 21.2593 55.8315 20.8502 55.9176 20.5919C56.0038 20.2474 56.0038 20.0967 56.0038 20.0967C56.0038 20.0967 56.0038 20.1398 56.0038 20.2259C56.0038 20.312 56.0038 20.4197 55.9607 20.5704C55.8961 20.8502 55.7239 21.2808 55.2933 21.6253C55.078 21.7975 54.7981 21.9267 54.4967 21.9913C54.1738 22.0559 53.8293 22.0344 53.4848 21.9052C53.3126 21.8406 53.1404 21.7545 52.9897 21.6468C52.839 21.5392 52.6882 21.41 52.5806 21.2378C52.3438 20.9148 52.2146 20.5273 52.2146 20.0967C52.2146 19.6877 52.3438 19.2786 52.5806 18.9557C52.6882 18.805 52.839 18.6543 52.9897 18.5466C53.1404 18.439 53.3126 18.3528 53.4848 18.2883C53.8293 18.1591 54.1738 18.1591 54.4967 18.2021C54.8196 18.2667 55.078 18.3959 55.2933 18.5681C55.7239 18.9126 55.8961 19.3432 55.9607 19.6231C56.0038 19.7738 56.0038 19.8814 56.0038 19.9675C56.0038 20.0537 56.0038 20.0967 56.0038 20.0967Z" fill="#434343"/>
<path d="M62.592 9.39673C62.592 9.39673 62.6136 9.39673 62.6566 9.41826C62.6997 9.43979 62.7427 9.46132 62.8073 9.50437C62.915 9.61202 63.0441 9.82731 63.0011 10.1287C62.958 10.4301 62.6566 10.71 62.2476 10.7961C61.8385 10.8822 61.3864 10.7315 60.9773 10.4947L60.5252 10.2364L61.0204 10.3871C61.1926 10.4517 61.3003 10.6024 61.3433 10.7746C61.3864 10.9468 61.3649 11.1406 61.2787 11.2913C61.1926 11.442 61.0204 11.5497 60.8482 11.5927C60.6759 11.6358 60.4822 11.6358 60.3099 11.5712C59.8793 11.442 59.5995 11.076 59.3626 10.7531L59.0612 10.301L59.4488 10.6885C59.6641 10.9038 59.7286 11.2267 59.6641 11.5066C59.5995 11.7865 59.4057 12.0018 59.1904 12.1094C58.7383 12.3247 58.2431 12.1955 57.9632 11.9587C57.6834 11.7219 57.5542 11.442 57.4896 11.2698C57.4681 11.1837 57.4465 11.0975 57.4465 11.0545C57.4465 11.0114 57.4465 10.9684 57.4465 10.9684C57.4465 10.9684 57.4681 11.076 57.5326 11.2482C57.5972 11.4205 57.7264 11.6788 58.0063 11.8941C58.2646 12.1094 58.7383 12.2171 59.1473 12.0233C59.3626 11.9157 59.5133 11.7219 59.5779 11.4851C59.6425 11.2482 59.5779 10.9684 59.3842 10.7746L59.4703 10.71C59.6856 11.0114 59.9655 11.3559 60.353 11.4635C60.6759 11.5497 61.0419 11.4851 61.2142 11.2267C61.3649 10.9684 61.2787 10.5808 61.0204 10.4947L61.0635 10.4086C61.451 10.6454 61.8816 10.7961 62.2476 10.71C62.6136 10.6454 62.8934 10.3871 62.9365 10.1287C63.0011 9.87037 62.8934 9.63355 62.7858 9.54743C62.6781 9.41826 62.592 9.39673 62.592 9.39673Z" fill="#455A64"/>
<path d="M56.8436 13.2289C56.8436 13.2289 56.8436 13.2504 56.8221 13.2719C56.8005 13.2935 56.779 13.3365 56.7144 13.3796C56.6283 13.4657 56.4561 13.5949 56.2408 13.6595C56.0039 13.7456 55.7025 13.7886 55.3796 13.681C55.0566 13.5733 54.7122 13.3365 54.5184 12.949L54.6045 12.9275C54.5184 13.4226 54.1094 13.9393 53.5281 14.0685C52.9468 14.1977 52.2363 13.8963 51.9564 13.2719C51.7196 12.7122 51.8703 12.0663 52.2578 11.7003L52.3224 11.7864C52.0641 12.0017 51.7196 12.1093 51.4182 12.1093C51.0953 12.1093 50.8154 12.0232 50.5786 11.8725C50.3417 11.7218 50.1695 11.5065 50.0619 11.2697C49.9757 11.0329 49.9327 10.8176 49.9542 10.6023C49.9757 10.1932 50.1695 9.89183 50.2987 9.7196C50.4494 9.54736 50.557 9.5043 50.557 9.5043C50.557 9.5043 50.4494 9.56889 50.3202 9.74113C50.191 9.91336 50.0188 10.1932 49.9973 10.6023C49.9973 10.7961 50.0188 11.0114 50.1049 11.2266C50.191 11.4419 50.3633 11.6357 50.5786 11.7864C50.7939 11.9156 51.0737 12.0017 51.3751 12.0017C51.6766 12.0017 51.978 11.8941 52.2148 11.7003L52.2794 11.7864C51.9349 12.1309 51.7842 12.7337 51.9995 13.2289C52.2363 13.7886 52.9037 14.09 53.442 13.9609C53.9802 13.8317 54.3677 13.3796 54.4538 12.9059L54.4754 12.7552L54.5399 12.8844C54.7122 13.2504 55.0351 13.4872 55.3365 13.5949C55.6379 13.7025 55.9394 13.681 56.1762 13.5949C56.3915 13.5303 56.5637 13.4226 56.6498 13.3365C56.8005 13.2719 56.8436 13.2289 56.8436 13.2289Z" fill="#455A64"/>
<path d="M52.5808 17.061C52.5808 17.061 52.5162 17.1256 52.3871 17.1687C52.2579 17.2333 52.0426 17.2763 51.7843 17.2548C51.5259 17.2333 51.203 17.1256 50.9661 16.8457C50.7293 16.5874 50.5786 16.1783 50.6432 15.7477L50.7508 15.7908C50.5571 16.0491 50.2772 16.286 49.9327 16.4582C49.6744 16.5658 49.416 16.6304 49.1577 16.6304C48.8993 16.6304 48.641 16.5443 48.4257 16.4367C47.9951 16.1998 47.7583 15.7908 47.7367 15.4248C47.7152 15.0588 47.8444 14.7789 47.952 14.6067C48.0166 14.5206 48.0812 14.4775 48.1027 14.4344C48.1458 14.4129 48.1673 14.3914 48.1673 14.3914C48.1673 14.3914 48.0812 14.456 47.9736 14.6282C47.8659 14.7789 47.7583 15.0588 47.8013 15.4033C47.8229 15.7477 48.0597 16.1353 48.4472 16.329C48.8347 16.5443 49.373 16.5874 49.8466 16.3506C50.1696 16.1998 50.4279 15.9846 50.6217 15.7262L50.7508 15.554L50.7078 15.7693C50.6432 16.1568 50.7724 16.5443 50.9877 16.7811C51.203 17.0395 51.5044 17.1471 51.7412 17.1687C51.978 17.1902 52.1933 17.1471 52.3225 17.1041C52.5162 17.1041 52.5808 17.061 52.5808 17.061Z" fill="#455A64"/>
<path d="M64.7663 12.3891C64.7878 12.3891 64.8309 12.5398 64.8094 12.7766C64.7878 13.0134 64.6802 13.3794 64.4218 13.6593C64.142 13.9392 63.7975 14.0684 63.5607 14.0899C63.3023 14.1114 63.1516 14.0684 63.1516 14.0684C63.1516 14.0469 63.3023 14.0684 63.5391 14.0253C63.776 13.9823 64.0774 13.8531 64.3357 13.5947C64.5941 13.3364 64.7017 13.0134 64.7233 12.7766C64.7878 12.5613 64.7448 12.4106 64.7663 12.3891Z" fill="#455A64"/>
<path d="M66.1011 14.6498C66.1011 14.6498 66.1442 14.6928 66.1657 14.822C66.1872 14.9297 66.1872 15.1019 66.1226 15.2957C66.0581 15.4894 65.8858 15.7047 65.6059 15.7693C65.4768 15.7908 65.3045 15.7908 65.1754 15.7262C65.0247 15.6617 64.8955 15.554 64.8309 15.4033L64.9385 15.3602C64.9601 15.4248 64.9601 15.4894 64.9601 15.5755C64.9601 15.9415 64.7017 16.2429 64.4218 16.3506C64.2711 16.3937 64.1204 16.3937 63.9912 16.3721C63.8621 16.3291 63.7544 16.2645 63.6683 16.1999C63.4961 16.0492 63.4315 15.8769 63.41 15.7478C63.3884 15.6186 63.41 15.554 63.41 15.554C63.41 15.554 63.41 15.6186 63.453 15.7262C63.4745 15.8339 63.5607 16.0061 63.7329 16.1353C63.8836 16.2645 64.142 16.3506 64.4003 16.2645C64.6371 16.1784 64.8524 15.8985 64.8524 15.5971C64.8524 15.5325 64.8524 15.4679 64.8309 15.4248L64.9385 15.3818C65.0462 15.6401 65.3691 15.7478 65.5844 15.6832C65.8212 15.6401 65.9935 15.4464 66.0581 15.2741C66.1226 15.1019 66.1442 14.9512 66.1226 14.8435C66.1011 14.7144 66.0796 14.6498 66.1011 14.6498Z" fill="#455A64"/>
<path d="M59.5348 17.8576C59.5563 17.8576 59.5563 17.9006 59.5348 17.9868C59.5133 18.0513 59.4702 18.159 59.3841 18.2236C59.298 18.2882 59.1903 18.3312 59.1258 18.3312C59.0612 18.3312 58.9966 18.3097 58.9966 18.3097C58.9966 18.2666 59.1688 18.2666 59.3195 18.1375C59.4487 18.0083 59.4918 17.8361 59.5348 17.8576Z" fill="#263238"/>
<path d="M110.839 79.6036C110.301 80.3787 109.267 80.1203 108.772 79.6467C108.298 79.173 108.083 78.5056 107.889 77.8598C107.459 76.3742 107.028 74.8241 107.351 73.3171C107.437 72.865 107.609 72.4128 107.932 72.0899C108.255 71.7454 108.729 71.5517 109.181 71.6808C109.698 71.81 110.042 72.3267 110.279 72.8219C110.968 74.2644 111.334 75.8575 111.355 77.4722C111.355 78.2042 111.269 78.9793 110.839 79.6036Z" fill="#BFBEBF"/>
<g opacity="0.2">
<path opacity="0.2" d="M110.839 79.6036C110.301 80.3787 109.267 80.1203 108.772 79.6467C108.298 79.173 108.083 78.5056 107.889 77.8598C107.459 76.3742 107.028 74.8241 107.351 73.3171C107.437 72.865 107.609 72.4128 107.932 72.0899C108.255 71.7454 108.729 71.5517 109.181 71.6808C109.698 71.81 110.042 72.3267 110.279 72.8219C110.968 74.2644 111.334 75.8575 111.355 77.4722C111.355 78.2042 111.269 78.9793 110.839 79.6036Z" fill="black"/>
</g>
<path d="M108.837 83.4789C107.954 83.0267 106.921 82.9622 105.952 83.1344C105.435 83.2205 104.875 83.3712 104.531 83.7803C104.165 84.1678 104.1 84.8567 104.509 85.2012C104.746 85.395 105.091 85.438 105.414 85.438C106.167 85.438 107.028 85.2873 107.631 85.761C107.976 86.0193 108.212 86.4499 108.621 86.5791C109.03 86.7082 109.483 86.4714 109.698 86.1054C109.913 85.7394 109.913 85.2873 109.827 84.8567C109.827 84.8567 109.719 83.9525 108.837 83.4789Z" fill="#BFBEBF"/>
<path d="M112.324 80.7017C111.743 80.0127 111.635 79.0009 111.894 78.1397C112.152 77.2785 112.733 76.525 113.422 75.9222C114.219 75.2117 115.145 74.6735 116.156 74.3075C116.544 74.1783 116.975 74.0491 117.384 74.0922C117.793 74.1352 118.223 74.3505 118.417 74.7165C118.697 75.2548 118.438 75.9222 118.137 76.4604C117.62 77.4077 117.018 78.3334 116.35 79.1946C115.812 79.8836 115.209 80.5725 114.391 80.8739C113.573 81.1968 112.733 81.1538 112.281 80.5725" fill="#BFBEBF"/>
<path d="M110.882 91.1863C110.882 91.1863 110.86 91.0572 110.839 90.8419C110.817 90.5835 110.774 90.2606 110.753 89.8946C110.71 89.4855 110.645 89.0119 110.537 88.4952C110.43 87.9785 110.258 87.4187 110.021 86.8374C109.784 86.2777 109.504 85.761 109.181 85.3519C108.858 84.9428 108.471 84.6414 108.126 84.4692C107.76 84.297 107.459 84.2324 107.222 84.1893C107.007 84.1678 106.877 84.1463 106.877 84.1463C106.877 84.1463 107.007 84.1247 107.222 84.1463C107.459 84.1678 107.782 84.2108 108.148 84.3831C108.514 84.5553 108.923 84.8567 109.267 85.2658C109.612 85.6964 109.913 86.2131 110.15 86.7944C110.387 87.3757 110.537 87.9354 110.645 88.4736C110.753 89.0119 110.796 89.4855 110.839 89.8946C110.86 90.3036 110.882 90.6266 110.882 90.8419C110.882 91.0572 110.882 91.1863 110.882 91.1863Z" fill="#263238"/>
<path d="M110.817 90.4545C110.817 90.4545 110.817 90.3899 110.817 90.2822C110.817 90.153 110.817 90.0023 110.817 89.8301C110.817 89.421 110.817 88.8398 110.796 88.1293C110.753 86.6868 110.645 84.7061 110.408 82.5317C110.171 80.3572 109.848 78.3981 109.569 76.9771C109.504 76.6327 109.439 76.3097 109.375 76.0298C109.31 75.75 109.267 75.5131 109.203 75.3194C109.159 75.1471 109.116 74.9964 109.095 74.8673C109.073 74.7596 109.052 74.7166 109.073 74.7166C109.073 74.7166 109.095 74.7596 109.138 74.8673C109.181 74.9749 109.224 75.1256 109.267 75.3194C109.332 75.5131 109.396 75.75 109.461 76.0298C109.525 76.3097 109.612 76.6327 109.676 76.9771C109.999 78.3765 110.322 80.3357 110.559 82.5317C110.796 84.7061 110.903 86.7084 110.925 88.1508C110.925 88.8613 110.925 89.4426 110.903 89.8516C110.882 90.0454 110.882 90.1961 110.882 90.3037C110.817 90.3899 110.817 90.4545 110.817 90.4545Z" fill="#263238"/>
<path d="M110.796 86.6221C110.796 86.6221 110.796 86.4498 110.796 86.1484C110.817 85.847 110.86 85.3949 110.947 84.8351C111.033 84.2969 111.162 83.6295 111.377 82.919C111.571 82.2086 111.829 81.4335 112.174 80.6585C112.841 79.0868 113.745 77.7951 114.52 76.9985C114.714 76.7832 114.908 76.6325 115.08 76.4818C115.166 76.4172 115.231 76.3311 115.317 76.288C115.403 76.245 115.468 76.1804 115.532 76.1373C115.791 75.9651 115.941 75.879 115.941 75.879C115.963 75.9005 115.36 76.2665 114.607 77.0631C113.853 77.8597 112.97 79.1514 112.324 80.7015C111.98 81.4766 111.722 82.2301 111.528 82.9406C111.313 83.651 111.183 84.2969 111.076 84.8351C110.968 85.3734 110.925 85.8255 110.882 86.1269C110.839 86.4498 110.817 86.6221 110.796 86.6221Z" fill="#263238"/>
<path d="M35.1852 0.117645C35.1852 0.117645 35.1421 0.117645 35.0345 0.139175C34.9268 0.139175 34.7761 0.160704 34.6039 0.182233C34.4101 0.182233 34.1733 0.225292 33.8934 0.289879C33.7643 0.311409 33.592 0.332938 33.4413 0.375997C33.2906 0.419055 33.1184 0.462114 32.9461 0.526701C32.2572 0.763523 31.4176 1.10799 30.5779 1.73234C29.7383 2.35669 28.9202 3.21786 28.2743 4.35891C27.9298 4.91867 27.693 5.56455 27.4777 6.23196C27.3055 6.9209 27.1548 7.65289 27.1548 8.42794C27.1332 8.81547 27.1763 9.203 27.1978 9.59052C27.2194 9.78429 27.2624 9.97805 27.2839 10.1933C27.3055 10.3871 27.3485 10.6024 27.4131 10.7962C27.5854 11.5927 27.9298 12.3678 28.3389 13.1213C29.1785 14.6284 30.5779 15.9201 32.3003 16.6521C33.1614 17.0181 34.1087 17.2119 35.0775 17.2334C36.0464 17.2765 37.0367 17.1258 37.9625 16.7813L38.2423 16.6737L38.2854 16.6521L38.3285 16.6737C39.7279 17.3626 41.0842 18.03 42.419 18.6974L42.2898 18.8051C41.8377 17.4702 41.4071 16.157 40.9766 14.9083L40.955 14.8652L40.9981 14.8221C42.01 13.7887 42.7204 12.5185 43.0864 11.2483C43.474 9.95652 43.517 8.66477 43.3448 7.45913C43.1725 6.25349 42.7635 5.17702 42.2468 4.27279C41.7086 3.36857 41.0627 2.61504 40.3953 2.05528C39.7063 1.47399 39.0174 1.10799 38.393 0.806582C37.7472 0.548231 37.1659 0.375997 36.6922 0.289879C36.4554 0.246821 36.2401 0.225292 36.0679 0.182233C35.8957 0.182233 35.7234 0.160704 35.5942 0.160704C35.4651 0.160704 35.379 0.139175 35.3144 0.139175C35.2067 0.117645 35.1852 0.117645 35.1852 0.117645C35.1852 0.117645 35.2282 0.117645 35.2928 0.117645C35.3574 0.117645 35.4651 0.117645 35.5727 0.117645C35.7019 0.117645 35.8526 0.117645 36.0464 0.139175C36.2401 0.160704 36.4554 0.203762 36.6922 0.225292C37.1659 0.311409 37.7472 0.462114 38.4146 0.720465C39.0605 1.00035 39.7709 1.38787 40.4599 1.96916C41.1488 2.55045 41.8162 3.28245 42.3544 4.20821C42.8927 5.13397 43.3233 6.23196 43.4955 7.4376C43.6677 8.64324 43.6247 9.97805 43.2371 11.2913C42.8496 12.6046 42.1391 13.8749 41.1057 14.9298L41.1273 14.8437C41.5579 16.0924 41.9884 17.3841 42.4405 18.7405L42.5051 18.9342L42.3114 18.8481C40.9766 18.2022 39.6202 17.5133 38.2208 16.8244H38.2854L38.0055 16.932C37.0582 17.2765 36.0464 17.4487 35.056 17.3841C34.0657 17.3626 33.0968 17.1473 32.2141 16.7813C30.4487 16.0278 29.0278 14.7145 28.1666 13.1859C27.7361 12.4324 27.3916 11.6143 27.2194 10.8177C27.1548 10.6239 27.1332 10.4086 27.0902 10.2149C27.0687 10.0211 27.0256 9.80582 27.0041 9.61205C26.9825 9.203 26.9395 8.81547 26.9825 8.42794C26.9825 7.65289 27.1548 6.89937 27.327 6.21043C27.5423 5.52149 27.8006 4.87561 28.1451 4.29432C28.8125 3.15327 29.6522 2.27057 30.5133 1.64622C31.3745 1.02187 32.2141 0.677406 32.9246 0.462114C33.0968 0.419055 33.2691 0.375997 33.4198 0.332938C33.5705 0.289879 33.7212 0.26835 33.8719 0.246821C34.1518 0.203762 34.3886 0.160704 34.5824 0.160704C34.7761 0.160704 34.9268 0.139175 35.013 0.139175C35.1421 0.117645 35.1852 0.117645 35.1852 0.117645Z" fill="#263238"/>
<path d="M37.1012 7.63142H36.4984L35.1851 5.82296L35.1636 4.63885C35.1636 4.63885 34.2378 4.59579 34.367 6.1459C34.4962 7.69601 34.367 7.30848 34.367 7.30848C34.367 7.30848 32.4079 7.33001 32.2571 7.50225C32.1495 7.63142 32.1064 9.56906 32.1064 10.624C32.1064 11.1622 32.4294 11.6359 32.9246 11.765C32.9891 11.7866 33.0753 11.7866 33.1399 11.7866C33.635 11.7866 36.1109 11.356 36.1109 11.356L37.1443 11.3345L37.1012 7.63142Z" fill="#434343"/>
<path d="M37.1012 7.63142H36.4984L35.1851 5.82296L35.1636 4.63885C35.1636 4.63885 34.2378 4.59579 34.367 6.1459C34.4962 7.69601 34.367 7.30848 34.367 7.30848C34.367 7.30848 32.4079 7.33001 32.2571 7.50225C32.1495 7.63142 32.1064 9.56906 32.1064 10.624C32.1064 11.1622 32.4294 11.6359 32.9246 11.765C32.9891 11.7866 33.0753 11.7866 33.1399 11.7866C33.635 11.7866 36.1109 11.356 36.1109 11.356L37.1443 11.3345L37.1012 7.63142Z" fill="#BDBDBD"/>
<path d="M38.8017 7.28687L38.5003 11.3559L37.4669 11.3774L37.4238 7.37298L38.8017 7.28687Z" fill="#434343"/>
<path d="M38.8017 7.28687L38.5003 11.3559L37.4669 11.3774L37.4238 7.37298L38.8017 7.28687Z" fill="#BDBDBD"/>
</g>
<defs>
<clipPath id="ic_nodata_unrated">
<rect width="126.743" height="91.1765" fill="white" transform="translate(-3.0293 0.117645)"/>
</clipPath>
</defs>
</svg>
