<svg width="120" height="120" viewBox="0 0 120 120" fill="none" xmlns="http://www.w3.org/2000/svg">
<g clip-path="url(#ic_nodata_accepted)">
<path d="M32.432 2.87329H8.44287V42.5842H32.432V2.87329Z" fill="#E0E0E0"/>
<path d="M31.6459 2.87329H7.65674V42.5842H31.6459V2.87329Z" fill="#EBEBEB"/>
<path d="M30.6429 3.65936H8.68677V41.771H30.6429V3.65936Z" fill="#FAFAFA"/>
<path d="M26.361 8.61984H12.8621V36.8105H26.361V8.61984Z" fill="#EBEBEB"/>
<path d="M12.8611 26.8353C12.834 24.206 15.1922 21.6309 17.7944 21.2514C19.0413 21.0888 20.3695 21.3327 21.5351 20.8448C23.6223 20.0045 24.2729 17.2397 26.3601 16.4265L26.4685 36.8105H12.8611V26.8353Z" fill="#E0E0E0"/>
<path d="M120.799 4.36414H97.7854V28.3533H120.799V4.36414Z" fill="#E0E0E0"/>
<path d="M119.226 4.36414H96.2131V28.3533H119.226V4.36414Z" fill="#FAFAFA"/>
<path d="M119.226 28.3533H96.2131V4.33701H119.226V28.3533ZM96.2402 28.3262H119.226V4.36411H96.2402V28.3262Z" fill="#E0E0E0"/>
<path d="M116.136 7.58978H99.3032V25.1276H116.136V7.58978Z" fill="#FAFAFA"/>
<path d="M99.3033 25.2361C99.3033 25.2632 99.1677 25.4258 98.8967 25.724C98.6256 25.995 98.2461 26.4016 97.8395 26.8082C97.4058 27.2148 97.0263 27.5943 96.7282 27.8654C96.43 28.1364 96.2673 28.272 96.2402 28.272C96.2131 28.2449 96.3758 28.0822 96.6468 27.7841C96.9179 27.513 97.2974 27.1064 97.7311 26.6998C98.1648 26.2932 98.5443 25.9137 98.8425 25.6427C99.1135 25.3716 99.3033 25.209 99.3033 25.2361Z" fill="#E0E0E0"/>
<path d="M116.136 25.1819C116.164 25.1819 116.326 25.3174 116.624 25.5885C116.895 25.8595 117.302 26.239 117.709 26.6456C118.115 27.0793 118.495 27.4588 118.766 27.757C119.037 28.0551 119.172 28.2178 119.172 28.2449C119.145 28.272 118.983 28.1093 118.684 27.8383C118.413 27.5672 118.007 27.1877 117.6 26.754C117.194 26.3203 116.814 25.9408 116.543 25.6427C116.272 25.3987 116.109 25.209 116.136 25.1819Z" fill="#E0E0E0"/>
<path d="M116.082 7.61688C116.082 7.58977 116.218 7.42713 116.489 7.12896C116.76 6.8579 117.139 6.4513 117.546 6.04471C117.98 5.63811 118.359 5.25862 118.657 4.98756C118.956 4.7165 119.118 4.58096 119.145 4.58096C119.172 4.60807 119.01 4.77071 118.739 5.06888C118.468 5.33994 118.088 5.74654 117.654 6.15313C117.221 6.55973 116.841 6.93922 116.543 7.21028C116.299 7.48135 116.109 7.64399 116.082 7.61688Z" fill="#E0E0E0"/>
<path d="M99.2761 7.67109C99.249 7.67109 99.0864 7.53556 98.7882 7.26449C98.5172 6.99343 98.1106 6.61394 97.704 6.20734C97.2974 5.77364 96.9179 5.39415 96.6468 5.09598C96.3758 4.79781 96.2402 4.63517 96.2402 4.60807C96.2673 4.58096 96.43 4.7436 96.7281 5.01466C96.9992 5.28573 97.4058 5.66522 97.8124 6.09892C98.219 6.53262 98.5985 6.91211 98.8695 7.21028C99.1406 7.48135 99.2761 7.64398 99.2761 7.67109Z" fill="#E0E0E0"/>
<path d="M116.082 25.1276C116.082 25.1276 116.082 25.1005 116.082 25.0463C116.082 24.9921 116.082 24.9108 116.082 24.8023C116.082 24.5855 116.082 24.2602 116.082 23.8536C116.082 23.0133 116.082 21.8206 116.055 20.2756C116.055 17.2125 116.028 12.8213 116.028 7.58977L116.082 7.64399C111.176 7.64399 105.429 7.64399 99.3032 7.64399L99.3846 7.56267C99.3846 13.9869 99.3846 20.0316 99.3846 25.1005L99.3303 25.0463C104.345 25.0463 108.547 25.0734 111.474 25.0734C112.938 25.0734 114.103 25.0734 114.889 25.1005C115.269 25.1005 115.594 25.1005 115.784 25.1005C115.892 25.1005 115.947 25.1005 116.028 25.1005C116.055 25.1276 116.082 25.1276 116.082 25.1276C116.082 25.1276 116.055 25.1276 116.001 25.1276C115.947 25.1276 115.865 25.1276 115.784 25.1276C115.567 25.1276 115.269 25.1276 114.889 25.1276C114.103 25.1276 112.965 25.1276 111.501 25.1547C108.547 25.1547 104.345 25.1818 99.3032 25.1818H99.249V25.1276C99.249 20.0587 99.249 14.014 99.249 7.58977V7.50845H99.3303C105.456 7.50845 111.203 7.50845 116.109 7.50845H116.163V7.56267C116.136 12.8213 116.136 17.2125 116.136 20.3027C116.136 21.8206 116.136 23.0404 116.109 23.8536C116.109 24.2602 116.109 24.5584 116.109 24.7752C116.109 24.8837 116.109 24.965 116.109 25.0192C116.082 25.1005 116.082 25.1276 116.082 25.1276Z" fill="#E0E0E0"/>
<path d="M110.525 13.5532H104.914V19.1642H110.525V13.5532Z" fill="#EBEBEB"/>
<path d="M86.0483 116.747C85.5604 116.341 84.5032 115.04 85.3164 113.522C85.6146 112.979 86.2652 112.681 86.8344 112.437C87.4036 112.193 88.0271 111.977 88.515 111.57C89.4095 110.811 89.6806 109.51 90.2769 108.507C90.9546 107.341 92.2557 106.447 93.611 106.501C95.1561 106.582 96.4572 107.856 97.0535 109.293C97.6498 110.73 97.6498 112.356 97.677 113.928C97.677 114.796 97.6498 115.771 96.9993 116.368C96.403 116.91 95.5356 116.91 94.7495 116.883C91.9033 116.801 89.0842 116.72 86.2381 116.612" fill="#F5F5F5"/>
<path d="M102.312 93.3544H79.9495L83.9883 117.398C84.1781 118.455 84.937 119.268 85.8858 119.539C85.9129 119.539 85.94 119.566 85.9671 119.566C86.0213 119.593 86.1026 119.593 86.1568 119.62C86.2924 119.648 86.455 119.675 86.6176 119.675V119.702L86.7261 119.675H96.7012C96.891 119.675 97.0807 119.648 97.2433 119.62C98.4089 119.431 99.3576 118.482 99.5203 117.262L101.472 100.7L101.553 100.05L102.312 93.4899V93.3544ZM98.0836 108.697H95.7796L96.0236 101.73H98.68L98.0836 108.697ZM98.9239 101.703H101.12L100.306 108.67H98.3276L98.9239 101.703ZM92.3642 116.422L92.2287 110.35H95.5356L95.3459 116.422H92.3642ZM88.7861 110.377H92.0118L92.1473 116.449H89.2741L88.7861 110.377ZM89.0301 116.422H86.3466C86.1026 114.796 85.7502 112.654 85.3978 110.35H88.5693L89.0301 116.422ZM88.6506 108.697L88.1085 101.73H91.795L91.9576 108.697H88.6506ZM92.1744 108.697L92.0118 101.73H95.8067L95.5627 108.697H92.1744ZM91.9847 100.05L91.8492 93.5984H96.1049L95.888 100.05H91.9847ZM91.7407 100.05H87.973L87.4579 93.5984H91.6052L91.7407 100.05ZM87.7561 100.05H83.7444C83.6088 99.1552 83.4733 98.3149 83.3378 97.5559C82.9312 94.9537 82.7685 93.9507 82.6872 93.5984H87.2411L87.7561 100.05ZM87.8916 101.703L88.4338 108.67H85.1268C85.0184 107.965 84.9099 107.233 84.8015 106.528C84.5304 104.875 84.2865 103.248 84.0425 101.703H87.8916ZM84.8828 108.697H82.7143L81.5487 101.73H83.7715C84.1238 103.872 84.5033 106.257 84.8828 108.697ZM85.1539 110.377C85.4792 112.464 85.8044 114.552 86.1026 116.449H84.0154L82.9854 110.377H85.1539ZM95.5356 116.422L95.7254 110.35H97.9481L97.4331 116.422H95.5356ZM96.0778 100.05L96.2946 93.5984H99.3848L98.8426 100.05H96.0778ZM82.4975 93.5713C82.5788 94.0321 82.9854 96.5801 83.5546 100.023H81.3048L80.2205 93.5713H82.4975ZM99.3848 116.422H97.6499L98.165 110.35H100.09L99.3848 116.422ZM101.309 100.05H99.0595L99.6016 93.5984H102.068L101.309 100.05Z" fill="#E0E0E0"/>
<path d="M115.052 119.919C115.052 119.946 89.0572 120 56.9904 120C24.8964 120 -1.09863 119.946 -1.09863 119.919C-1.09863 119.892 24.8964 119.837 56.9904 119.837C89.0572 119.837 115.052 119.892 115.052 119.919Z" fill="#263238"/>
<path d="M51.1334 49.1798C50.7003 48.8705 50.1435 48.7467 49.6795 48.4993C49.1846 48.2827 48.7206 47.8806 48.6897 47.3238C48.6278 46.5195 49.4939 45.9318 49.5558 45.1585C49.6177 44.0449 48.1329 43.4262 47.8854 42.3436C47.6998 41.4465 48.4731 40.5804 48.4422 39.6524C48.4113 38.7244 47.607 38.0439 47.2358 37.1777C46.3697 35.198 47.9473 32.6615 46.7718 30.8674C46.4625 30.3724 45.9676 30.0322 45.5654 29.63C45.1633 29.2279 44.7921 28.702 44.854 28.1143L42.6268 27.0935C41.8844 25.949 40.1831 25.9181 38.9148 26.382C37.6465 26.877 36.5329 27.7431 35.2028 28.0834C34.5532 28.238 34.646 27.2791 33.9964 27.4338C33.1303 27.6194 32.0786 28.6092 31.862 29.4444C31.6146 30.3415 31.429 31.3314 31.0887 32.1975C30.7484 33.1564 29.6967 33.8369 29.6039 34.8577C29.4802 36.0332 30.7175 37.0231 30.7175 38.1985C30.7175 39.4977 29.2946 40.6422 29.7586 41.8486C30.006 42.5292 30.8103 42.9004 31.0887 43.5809C31.4599 44.5089 30.7175 45.5606 30.7794 46.5505C30.8412 47.5403 31.6764 48.3137 32.4807 48.9014C35.5121 51.2214 38.8839 53.1702 42.503 54.4075C44.0806 54.9334 45.7201 55.3664 47.3596 55.2118C48.999 55.0571 50.6694 54.2838 51.5355 52.8608C52.247 51.6854 52.247 49.9531 51.1334 49.1798Z" fill="#263238"/>
<path d="M44.761 27.5575C44.3588 25.949 43.0287 24.5879 41.4202 24.1549C39.8116 23.7218 37.9866 24.2167 36.8111 25.3922C36.3471 25.8871 35.945 26.4749 35.3882 26.8461C34.7386 27.2791 34.6458 27.1554 33.9343 27.4338C33.2229 27.7122 31.9237 29.6919 31.9237 30.4652L31.5525 33.837C31.5834 34.6103 32.6042 35.0743 33.3466 34.7959C34.089 34.5484 34.5839 33.837 34.9861 33.1564C35.3882 32.4759 35.7594 31.7335 36.3781 31.3004C37.4607 30.558 38.8837 30.8055 40.1828 31.0839C41.4511 31.3314 42.9359 31.5479 43.9258 30.6818C44.8228 29.9394 45.0394 28.6402 44.761 27.5575Z" fill="#263238"/>
<path d="M45.4414 32.3522C45.2868 30.1559 43.8329 27.4956 41.6676 27.7122L34.8623 29.4444C34.2127 29.5063 33.7178 30.094 33.7178 30.7436L34.4911 47.1382C34.4602 47.1382 34.4602 47.1382 34.4292 47.1382C34.4292 47.1382 37.1823 53.0155 41.6985 51.5926C42.5956 51.3142 41.7913 49.087 41.946 48.0971H41.9769C41.9769 47.9734 41.9769 47.8806 41.9769 47.7569C42.1316 46.6123 42.0079 45.4987 42.0079 45.4987C42.0079 44.1686 42.0079 43.6428 42.0079 43.6428C42.0079 43.6428 44.7919 43.1788 45.3796 39.5287C45.7198 37.7345 45.5961 34.7649 45.4414 32.3522Z" fill="#FFBE9D"/>
<path d="M44.8847 35.1671C44.8847 35.4145 44.6991 35.6311 44.4207 35.6311C44.1732 35.6311 43.9567 35.4455 43.9258 35.198C43.9258 34.9505 44.1114 34.734 44.3898 34.734C44.6682 34.734 44.8847 34.9196 44.8847 35.1671Z" fill="#263238"/>
<path d="M44.823 33.8988C44.7611 33.9606 44.4208 33.7132 43.895 33.7132C43.4 33.7132 43.0288 33.9606 42.967 33.8988C42.936 33.8678 42.9979 33.7751 43.1526 33.6513C43.3072 33.5276 43.5856 33.4348 43.895 33.4348C44.2043 33.4348 44.4827 33.5585 44.6374 33.6823C44.792 33.7441 44.8539 33.8678 44.823 33.8988Z" fill="#263238"/>
<path d="M40.1523 35.3217C40.1523 35.5692 39.9667 35.7857 39.6883 35.7857C39.4408 35.7857 39.2243 35.6001 39.1934 35.3527C39.1934 35.1052 39.379 34.8887 39.6574 34.8887C39.9048 34.8887 40.1214 35.0743 40.1523 35.3217Z" fill="#263238"/>
<path d="M39.8737 33.9916C39.8119 34.0535 39.4716 33.806 38.9457 33.806C38.4508 33.806 38.0796 34.0535 38.0177 33.9916C37.9868 33.9607 38.0487 33.8679 38.2033 33.7441C38.358 33.6204 38.6364 33.5276 38.9457 33.5276C39.2551 33.5276 39.5335 33.6513 39.6881 33.7751C39.8428 33.8679 39.9047 33.9607 39.8737 33.9916Z" fill="#263238"/>
<path d="M41.6988 37.7345C41.6988 37.7036 42.0082 37.6417 42.5031 37.5799C42.6268 37.5799 42.7506 37.5489 42.7815 37.4561C42.8124 37.3633 42.7506 37.2396 42.6887 37.0849C42.565 36.7756 42.4412 36.4353 42.3175 36.0951C41.7916 34.7031 41.3895 33.5585 41.4514 33.5276C41.5132 33.4967 41.9772 34.6103 42.5031 36.0023C42.6268 36.3425 42.7506 36.6828 42.8743 36.9921C42.9362 37.1468 42.998 37.3015 42.9362 37.4871C42.9052 37.5799 42.8124 37.6417 42.7196 37.6727C42.6268 37.7036 42.565 37.7036 42.5031 37.7036C42.0082 37.7345 41.6988 37.7655 41.6988 37.7345Z" fill="#263238"/>
<path d="M42.0701 43.6737C42.0701 43.6737 39.6263 43.8283 37.1826 42.3745C37.1826 42.3745 38.3581 44.8801 42.0082 44.5398L42.0701 43.6737Z" fill="#EB996E"/>
<path d="M41.4825 38.9409C41.2969 38.6934 40.9875 38.5697 40.6782 38.6006C40.4617 38.6316 40.2452 38.7244 40.1214 38.91C39.9977 39.0955 39.9668 39.343 40.0905 39.4977C40.2142 39.6833 40.5236 39.7451 40.7401 39.6523C40.9875 39.5905 41.1731 39.4358 41.3897 39.2811C41.4515 39.2502 41.5134 39.1883 41.5443 39.1265C41.5443 39.0646 41.5443 39.0027 41.4825 38.9409Z" fill="#EB996E"/>
<path d="M40.2141 38.0748C40.3069 38.0748 40.3069 38.6006 40.7709 39.0028C41.2349 39.4049 41.8226 39.343 41.8226 39.4049C41.8226 39.4358 41.6989 39.4977 41.4514 39.5286C41.204 39.5286 40.8637 39.4668 40.5853 39.2193C40.3069 38.9718 40.1832 38.6625 40.1522 38.446C40.1213 38.1985 40.1832 38.0748 40.2141 38.0748Z" fill="#263238"/>
<path d="M40.0903 33.1255C40.0285 33.2492 39.5335 33.1873 38.9458 33.2801C38.3581 33.342 37.8941 33.5276 37.8013 33.4039C37.7703 33.342 37.8631 33.2183 38.0487 33.0945C38.2343 32.9708 38.5437 32.8471 38.8839 32.7852C39.2242 32.7543 39.5645 32.8161 39.781 32.878C39.9975 32.9399 40.1213 33.0636 40.0903 33.1255Z" fill="#263238"/>
<path d="M44.6375 32.4449C44.5447 32.5686 44.2044 32.4449 43.7713 32.4449C43.3692 32.414 42.998 32.5377 42.9052 32.414C42.8743 32.3521 42.9361 32.2284 43.0908 32.1356C43.2455 32.0428 43.4929 31.95 43.7713 31.95C44.0497 31.95 44.2972 32.0737 44.4519 32.1665C44.6065 32.2593 44.6684 32.383 44.6375 32.4449Z" fill="#263238"/>
<path d="M41.5442 26.7842L41.2348 26.382C39.1314 26.6295 37.0589 27.1554 35.1101 27.9596C34.3367 28.269 33.5325 28.6711 33.0066 29.3207C32.2642 30.2178 32.1405 31.4551 32.0786 32.6305C31.7693 37.054 31.4909 41.6012 32.8829 45.8081C33.2231 45.2822 33.8727 45.0347 34.4914 44.911C35.1101 44.7873 35.7597 44.7564 36.3165 44.447C36.9351 44.1377 37.3991 43.519 37.5538 42.8385C37.7394 42.158 37.6157 41.4465 37.3373 40.7969C36.997 40.0854 36.4093 39.4049 36.533 38.6625C36.6877 37.8583 37.6157 37.3943 37.8322 36.6209C38.2034 35.2599 36.2855 34.0535 36.6877 32.6924C36.8423 32.1975 37.2754 31.8263 37.7394 31.6098C38.2034 31.3932 38.7293 31.2386 39.1933 31.022C40.7399 30.3106 41.7607 28.5164 41.5442 26.7842Z" fill="#263238"/>
<path d="M59.949 54.5622L55.6802 61.1819C55.6802 61.1819 56.1442 61.9552 57.165 61.9243C58.1858 61.8933 59.6087 59.3259 59.7634 58.8C59.918 58.2741 59.7015 57.7792 59.8562 57.439C60.0108 57.0987 59.949 56.1398 59.949 56.1398C59.949 56.2326 60.9079 54.9643 59.949 54.5622Z" fill="#FFBE9D"/>
<path d="M54.5044 61.1819L56.7316 52.3969C56.7934 52.1185 56.979 51.9019 57.1956 51.7782L60.4126 49.9531C60.5982 49.8294 60.8457 49.8913 61.0004 50.0769C61.0622 50.1697 61.0932 50.3243 61.0622 50.4481L58.7113 59.6971L54.5044 61.1819Z" fill="#263238"/>
<path d="M53.3911 67.9872L58.557 58.4907L56.6082 55.9542L49.3389 61.4603L51.2567 66.7189L53.3911 67.9872Z" fill="#A8A8A8"/>
<path d="M58.6189 60.5323C58.6189 60.5323 58.6807 60.4086 58.7117 60.1302C58.7426 59.8827 58.7117 59.4806 58.6189 59.0166V58.9856V58.9547C58.7117 58.8 58.7426 58.6454 58.6807 58.4598C58.6189 58.2742 58.4951 58.1195 58.3095 58.0267L58.2477 57.9958L58.2786 57.9339C58.4642 57.6555 58.6498 57.3771 58.8663 57.0678C58.9282 57.0059 58.9901 56.9131 58.9901 56.8512C59.021 56.7894 59.021 56.6966 58.9591 56.6347C58.8973 56.48 58.7426 56.3254 58.5879 56.2326L58.5261 56.1707L58.5879 56.1089C58.7426 55.9233 58.9282 55.7377 59.1138 55.5521C59.4231 55.2118 59.7015 54.9025 59.949 54.5622C60.0727 54.4075 60.1965 54.2219 60.2583 54.0673C60.2893 53.9745 60.3202 53.8817 60.3511 53.8198C60.3511 53.727 60.3202 53.6961 60.2583 53.6961H60.2274C60.1655 53.6651 60.0418 53.6961 59.949 53.727C59.8562 53.7579 59.7634 53.8198 59.6397 53.8507C59.4541 53.9435 59.2685 54.0673 59.1138 54.1601C58.7735 54.3766 58.5261 54.5622 58.2786 54.7169C58.0621 54.8715 57.9074 54.9953 57.7527 55.0881C57.629 55.1809 57.5671 55.2118 57.5671 55.2118C57.5671 55.2118 57.629 55.1499 57.7218 55.0571C57.8455 54.9643 58.0002 54.8097 58.2167 54.6241C58.4333 54.4385 58.7117 54.2529 59.021 54.0363C59.1757 53.9126 59.3613 53.8198 59.5469 53.6961C59.6397 53.6342 59.7325 53.6033 59.8562 53.5414C59.9799 53.5105 60.0727 53.4486 60.2583 53.4795H60.2274C60.3821 53.4795 60.4749 53.6651 60.4439 53.7579C60.4439 53.8817 60.413 53.9745 60.3511 54.0673C60.2583 54.2529 60.1346 54.4385 60.0109 54.5931C59.7634 54.9334 59.4541 55.2737 59.1447 55.583C58.9591 55.7686 58.8045 55.9542 58.6189 56.1089V55.9851C58.8045 56.1089 58.9591 56.2635 59.021 56.48C59.0519 56.5728 59.0829 56.6966 59.0519 56.8203C59.021 56.944 58.9591 57.0059 58.8973 57.0678C58.6807 57.3771 58.4951 57.6555 58.3095 57.9339L58.2786 57.8411C58.4642 57.9958 58.6189 58.1504 58.6807 58.367C58.7426 58.5835 58.6807 58.8 58.5879 58.9547V58.9238C58.7117 59.3878 58.7117 59.7899 58.6498 60.0683C58.6189 60.192 58.5879 60.2848 58.557 60.3776C58.6498 60.5014 58.6189 60.5323 58.6189 60.5323Z" fill="#EB996E"/>
<path d="M61.0005 50.0768C61.0005 50.0768 60.9077 50.1387 60.7221 50.2624C60.5365 50.3862 60.2891 50.5408 59.9797 50.7264C59.6395 50.912 59.2683 51.1595 58.8352 51.376C58.6187 51.4998 58.4021 51.6235 58.1547 51.7472C57.9072 51.871 57.6597 51.9947 57.4741 52.1803C57.2885 52.3659 57.1957 52.6134 57.1339 52.8918C57.072 53.1392 57.0101 53.3867 56.9483 53.6342C56.8245 54.0982 56.7008 54.5312 56.608 54.9024C56.5152 55.2736 56.4224 55.552 56.3605 55.7376C56.2987 55.9232 56.2677 56.0469 56.2368 56.0469C56.2368 56.0469 56.2368 55.9232 56.2987 55.7376C56.3296 55.5211 56.3915 55.2427 56.4843 54.8715C56.5771 54.5003 56.6699 54.0672 56.7936 53.6032C56.8555 53.3558 56.9173 53.1083 56.9792 52.8608C57.0411 52.6134 57.1339 52.304 57.3504 52.0875C57.5669 51.871 57.8144 51.7472 58.0619 51.6235C58.3093 51.4998 58.5259 51.376 58.7424 51.2523C59.1755 51.0048 59.5467 50.8192 59.8869 50.6336C60.2272 50.448 60.4747 50.3243 60.6603 50.2315C60.9077 50.1078 61.0005 50.0768 61.0005 50.0768Z" fill="#455A64"/>
<path d="M58.8663 53.0774C58.7735 53.263 58.7735 53.4486 58.8354 53.4795C58.8972 53.5104 59.021 53.3867 59.1138 53.2011C59.2066 53.0155 59.2066 52.8299 59.1447 52.799C59.0828 52.7681 58.9591 52.8918 58.8663 53.0774Z" fill="white"/>
<path d="M42.8123 47.7569C45.0394 48.5612 46.8645 50.2316 47.8853 52.3969L54.8143 67.1211L60.7844 69.5339L55.5258 71.0496L50.8549 67.616L42.8123 47.7569Z" fill="#A8A8A8"/>
<path d="M55.5257 71.0495L53.0201 72.9983L40.4922 60.0992L33.3157 47.1691L34.1509 44.7563L39.6879 47.0763L41.6676 50.015L42.1007 46.303L42.441 46.7979L43.0287 48.3755C43.0287 48.3755 48.4729 52.8918 49.6484 56.48C50.6382 59.4805 50.3289 65.6672 50.9166 67.3376L55.5257 71.0495Z" fill="#FAFAFA"/>
<path d="M31.9855 46.9835C31.8927 47.231 26.6341 49.3654 26.3866 51.1905C26.1392 53.0464 30.1914 67.3066 30.1914 67.3066L36.5946 72.9674H53.0201L47.7924 63.1925C46.6788 61.0891 45.2559 59.1403 43.5545 57.439C42.0079 55.8614 40.1519 53.9435 39.193 52.768C38.1412 51.5307 33.7178 45.6534 33.7178 45.6534L31.9855 46.9835Z" fill="#A8A8A8"/>
<path d="M35.2644 47.5713C35.2644 47.5403 35.6356 47.7259 36.1924 48.0043C36.7492 48.2827 37.5225 48.6849 38.3887 49.1179C38.7289 49.3035 39.0692 49.4582 39.3476 49.6129L39.2239 49.6747C39.1929 48.9633 39.2548 48.3755 39.3166 47.9425C39.4094 47.5094 39.4713 47.2929 39.5022 47.2929C39.5332 47.2929 39.4713 47.5403 39.4094 47.9734C39.3476 48.3755 39.3167 48.9942 39.3785 49.6747V49.7985L39.2548 49.7366C38.9455 49.5819 38.6361 49.4273 38.2959 49.2417C37.4297 48.8086 36.6873 48.4065 36.1305 48.0971C35.6047 47.7878 35.2644 47.5713 35.2644 47.5713Z" fill="#263238"/>
<path d="M47.947 60.5941C47.947 60.5941 47.8542 60.4395 47.6686 60.1611C47.483 59.8517 47.2664 59.4805 46.988 58.9856C46.4312 57.9958 45.627 56.6347 44.7609 55.1499C43.8638 53.6651 43.0595 52.335 42.4409 51.3761C42.1625 50.9121 41.915 50.5409 41.7294 50.2315C41.5747 49.9531 41.4819 49.7985 41.4819 49.7985C41.4819 49.7985 41.6057 49.9222 41.7913 50.2006C41.9769 50.4481 42.2243 50.8502 42.5337 51.3142C43.1523 52.2731 43.9875 53.6032 44.8846 55.088C45.7816 56.5728 46.555 57.9339 47.0808 58.9547C47.3592 59.4496 47.5758 59.8517 47.6995 60.1301C47.8851 60.4085 47.9779 60.5632 47.947 60.5941Z" fill="#263238"/>
<g opacity="0.3">
<g opacity="0.3">
<path opacity="0.3" d="M45.4416 70.5237C46.4005 70.6783 47.3904 70.833 48.3184 70.6783C49.2773 70.4927 50.2053 69.905 50.5146 68.977C50.6074 68.6986 50.6384 68.3583 50.8858 68.1418C51.257 67.8016 51.8447 68.0181 52.3397 67.9562C52.8965 67.8944 53.3605 67.4922 53.6698 67.0282C53.9482 66.5642 54.1029 66.0074 54.2266 65.4506C54.2885 65.1722 54.3503 64.8938 54.3194 64.6464C54.2885 64.368 54.1338 64.0896 53.8863 63.9658C53.5151 63.8112 53.0821 64.0277 52.7418 64.2752C50.0197 66.224 47.545 68.4821 45.1013 70.7402" fill="black"/>
</g>
</g>
<path d="M51.5663 59.6352C51.5663 59.6352 52.4943 57.4699 53.0202 57.1606C53.5151 56.8513 56.0207 55.3974 56.0207 55.3974L55.7114 56.5729L58.1551 54.8715C58.4644 54.655 60.1967 53.0774 60.506 53.6961C60.7225 54.1291 59.2996 55.3046 59.114 55.583C58.65 56.2326 58.8047 56.1707 58.8047 56.1707C58.8047 56.1707 59.3305 56.4801 59.0521 56.9441C58.8047 57.4081 58.3407 57.9648 58.3407 57.9648C58.3407 57.9648 59.0212 58.2123 58.6191 59.0784C58.6191 59.0784 58.8047 59.5424 58.6809 60.223C58.5572 60.8726 57.3817 62.1408 57.3817 62.1408L51.4426 64.9867L49.0298 60.9035L51.5663 59.6352Z" fill="#FFBE9D"/>
<path d="M37.7082 55.552L41.5129 63.6874L49.9886 60.0064C49.9886 60.0064 53.515 62.048 53.0201 64.3061L45.3796 70.5855C43.9257 71.761 42.0697 72.3178 40.2137 72.1013C38.234 71.8538 36.4399 70.7402 35.3263 69.0698L29.8202 60.656L26.7269 55.6139C25.737 54.0054 25.737 51.9328 26.8506 50.3862C27.1599 49.984 27.5311 49.6128 27.9333 49.3654C29.3562 48.5302 33.4394 48.159 37.7082 55.552Z" fill="#A8A8A8"/>
<path d="M56.4847 56.047C56.5156 56.0779 55.9588 56.48 55.2474 56.9131C54.5359 57.3462 53.9482 57.6864 53.9172 57.6555C53.8863 57.6245 54.4431 57.2224 55.1546 56.7894C55.866 56.3254 56.4538 56.016 56.4847 56.047Z" fill="#EB996E"/>
<path d="M58.8663 55.9542C58.8972 55.9851 58.4023 56.511 57.7527 57.1606C57.1031 57.7792 56.5772 58.2742 56.5463 58.2432C56.5154 58.2123 57.0103 57.6864 57.6599 57.0368C58.3095 56.4182 58.8353 55.9232 58.8663 55.9542Z" fill="#EB996E"/>
<path d="M58.5572 57.8101C58.5882 57.8411 58.3407 58.1504 58.0314 58.5525C57.722 58.9237 57.4127 59.2021 57.3818 59.1712C57.3508 59.1403 57.5983 58.8309 57.9076 58.4288C58.2479 58.0576 58.5263 57.7792 58.5572 57.8101Z" fill="#EB996E"/>
<path d="M58.6497 59.0475C58.6807 59.0784 58.5569 59.264 58.3713 59.5115C58.2167 59.7589 58.062 59.9445 58.0311 59.9136C58.0001 59.8827 58.0929 59.6661 58.2476 59.4187C58.4332 59.1712 58.6188 59.0165 58.6497 59.0475Z" fill="#EB996E"/>
<path d="M44.0805 71.3898C44.0805 71.3898 44.0805 71.3898 44.1115 71.3589C44.1424 71.328 44.1733 71.297 44.2352 71.2661C44.3589 71.1733 44.5136 71.0496 44.7301 70.864C45.1632 70.5237 45.7818 70.0288 46.5552 69.4101C48.1328 68.1728 50.3909 66.4096 53.0821 64.3061L53.0511 64.368C53.0511 63.9659 52.9893 63.5328 52.8037 63.1307C52.6181 62.7285 52.4015 62.3574 52.0922 61.9862C51.5045 61.2747 50.7621 60.656 49.9269 60.1302H49.9888C48.5968 60.7488 47.112 61.3675 45.5962 62.048C44.2043 62.6667 42.8432 63.2544 41.5131 63.8112L41.4512 63.8421L41.4203 63.7803C40.3067 61.584 39.2549 59.4806 38.2032 57.6864C37.6774 56.7894 37.1515 55.9542 36.6875 55.1499C36.1926 54.3766 35.7595 53.6342 35.2955 53.0155C34.3984 51.7473 33.4086 50.9739 32.6662 50.5718C32.4806 50.4481 32.3259 50.3862 32.1713 50.3243C32.0166 50.2625 31.8929 50.2006 31.8001 50.1387C31.7073 50.1078 31.6145 50.0769 31.5835 50.0459C31.5217 50.015 31.4907 50.015 31.5217 50.015C31.5217 50.015 31.9857 50.1387 32.7281 50.5409C33.0992 50.7265 33.5632 51.0358 34.0272 51.4379C34.4912 51.8401 34.9552 52.3659 35.4192 52.9846C35.8832 53.6033 36.3472 54.3457 36.8422 55.119C37.3371 55.8923 37.863 56.7275 38.3888 57.6555C39.4405 59.4496 40.4923 61.5531 41.6368 63.7493L41.544 63.7184C42.8741 63.1307 44.2352 62.5429 45.6272 61.9552C47.1429 61.3056 48.5968 60.656 50.0197 60.0683L50.0506 60.0374L50.0816 60.0683C50.9477 60.5942 51.6901 61.2438 52.2778 61.9552C52.5562 62.3264 52.8037 62.7285 52.9893 63.1307C53.1749 63.5637 53.2367 63.9968 53.2367 64.4299V64.4608L53.2058 64.4917C50.5146 66.5643 48.2565 68.3275 46.648 69.5648C45.8437 70.1834 45.2251 70.6474 44.792 70.9877C44.5755 71.1424 44.4208 71.2661 44.2971 71.3589C44.2352 71.3898 44.2043 71.4208 44.1733 71.4517C44.1115 71.3898 44.0805 71.3898 44.0805 71.3898Z" fill="#263238"/>
<path d="M41.0181 66.2859C40.9872 66.2549 41.2037 65.6981 41.3275 64.9248C41.4512 64.1824 41.4512 63.5328 41.5131 63.5328C41.544 63.5328 41.6368 64.1824 41.5131 64.9557C41.3584 65.7291 41.0491 66.2859 41.0181 66.2859Z" fill="#263238"/>
<path d="M87.5726 90.1972L91.996 95.7342C91.996 95.7342 99.1416 93.1049 100.039 94.0329L89.5833 103.004L82.314 94.6206L87.5726 90.1972Z" fill="#A8A8A8"/>
<g opacity="0.6">
<g opacity="0.6">
<g opacity="0.6">
<g opacity="0.6">
<g opacity="0.6">
<path opacity="0.6" d="M88.3769 98.0851C88.2223 98.3017 88.2841 98.6729 88.5007 98.8275C88.7172 98.9822 89.0884 98.9513 89.2431 98.7038C89.3977 98.4873 89.3359 98.0542 89.1193 97.9305C88.8719 97.8067 88.4697 97.8686 88.3769 98.147" fill="white"/>
</g>
</g>
</g>
</g>
</g>
<g opacity="0.6">
<g opacity="0.6">
<g opacity="0.6">
<g opacity="0.6">
<path opacity="0.6" d="M89.6143 103.034L88.9028 102.168L99.2036 93.8782C99.2036 93.8782 99.8532 93.6926 100.07 94.0638L89.6143 103.034Z" fill="white"/>
</g>
</g>
</g>
</g>
<path d="M92.1509 95.5486C92.1818 95.6105 91.9653 95.8579 91.8415 96.2291C91.7178 96.6003 91.7797 96.9406 91.7178 96.9715C91.656 97.0025 91.4704 96.6313 91.625 96.1673C91.7487 95.7033 92.1199 95.5177 92.1509 95.5486Z" fill="#263238"/>
<path d="M93.6357 95.0846C93.6975 95.1156 93.5429 95.3939 93.5429 95.7651C93.5429 96.1363 93.6975 96.4147 93.6357 96.4457C93.6047 96.5075 93.2954 96.2291 93.2954 95.7651C93.2954 95.3011 93.5738 95.0228 93.6357 95.0846Z" fill="#263238"/>
<path d="M95.3679 95.8579C95.337 95.9198 95.0276 95.7033 94.9348 95.3321C94.8111 94.9299 94.9658 94.6206 95.0276 94.6515C95.0895 94.6825 95.0586 94.9609 95.1514 95.2702C95.2442 95.5795 95.4298 95.7961 95.3679 95.8579Z" fill="#263238"/>
<path d="M90.9754 94.4041C91.0063 94.466 90.697 94.5897 90.4186 94.8681C90.1402 95.1156 89.9855 95.4249 89.9237 95.394C89.8618 95.394 89.9237 94.9918 90.233 94.6825C90.6042 94.4041 90.9754 94.3422 90.9754 94.4041Z" fill="#263238"/>
<g opacity="0.3">
<g opacity="0.3">
<g opacity="0.3">
<g opacity="0.3">
<path opacity="0.3" d="M88.4698 91.3108L89.2431 92.3007L84.0773 96.6622L83.304 95.7961L88.4698 91.3108Z" fill="black"/>
</g>
</g>
</g>
</g>
<path d="M90.0782 93.3214C90.1091 93.3524 89.9235 93.538 89.5523 93.7545C89.3667 93.8782 89.1192 93.971 88.8718 94.0638C88.748 94.0948 88.5934 94.1257 88.4387 94.1566C88.3768 94.1566 88.284 94.1876 88.1603 94.1566C88.0675 94.1566 87.9128 94.0329 87.9128 93.9092C87.9128 93.7854 87.9747 93.6617 88.0366 93.5998C88.0984 93.538 88.1912 93.507 88.2531 93.4452C88.4078 93.3833 88.5315 93.3214 88.6862 93.2905C88.9646 93.1977 89.212 93.1977 89.4286 93.1977C89.8616 93.2286 90.1091 93.3214 90.1091 93.3524C90.1091 93.3833 89.8307 93.3214 89.4286 93.3524C89.212 93.3524 88.9955 93.4142 88.748 93.4761C88.6243 93.507 88.5006 93.5689 88.3768 93.6308C88.2531 93.6926 88.1603 93.7854 88.1603 93.8473C88.1603 93.8782 88.1603 93.8782 88.2222 93.9092C88.284 93.9092 88.3459 93.9092 88.4078 93.9092C88.5624 93.8782 88.6862 93.8473 88.8099 93.8164C89.0574 93.7545 89.3048 93.6617 89.4904 93.5689C89.8307 93.4452 90.0472 93.2905 90.0782 93.3214Z" fill="#263238"/>
<path d="M90.0782 93.4452C90.0782 93.4761 89.7998 93.3833 89.4904 93.043C89.3358 92.8884 89.1811 92.6718 89.0574 92.3934C88.9955 92.2697 88.9646 92.115 88.9027 91.9604C88.8718 91.8057 88.8408 91.5892 88.9955 91.4036C89.0883 91.3108 89.243 91.3108 89.3358 91.3726C89.4286 91.4036 89.4904 91.4654 89.5523 91.5273C89.676 91.6201 89.7688 91.7438 89.8616 91.8676C90.0163 92.115 90.0782 92.3934 90.1091 92.61C90.14 93.043 89.9854 93.2905 89.9544 93.2905C89.9235 93.2905 90.0163 93.043 89.9544 92.6409C89.9235 92.4553 89.8307 92.2078 89.707 91.9913C89.6451 91.8985 89.5523 91.7748 89.4286 91.682C89.3048 91.5892 89.212 91.5273 89.1811 91.5892C89.1192 91.6201 89.1192 91.8057 89.1502 91.9294C89.1811 92.0841 89.212 92.2078 89.2739 92.3316C89.3667 92.579 89.4904 92.7956 89.6142 92.9502C89.8616 93.2596 90.0782 93.4142 90.0782 93.4452Z" fill="#263238"/>
<path d="M82.7779 107.334L82.4995 114.603C82.4995 114.603 89.7997 117.326 89.8616 118.656L75.756 118.625L75.7251 107.303L82.7779 107.334Z" fill="#A8A8A8"/>
<g opacity="0.6">
<g opacity="0.6">
<g opacity="0.6">
<g opacity="0.6">
<g opacity="0.6">
<path opacity="0.6" d="M78.1379 113.985C77.8595 114.047 77.6739 114.356 77.7358 114.634C77.7977 114.913 78.107 115.098 78.3854 115.037C78.6638 114.975 78.9113 114.603 78.8185 114.325C78.7257 114.047 78.3545 113.861 78.107 113.985" fill="white"/>
</g>
</g>
</g>
</g>
</g>
<g opacity="0.6">
<g opacity="0.6">
<g opacity="0.6">
<g opacity="0.6">
<path opacity="0.6" d="M75.7561 118.625L75.787 117.48L89.3048 117.944C89.3048 117.944 89.9235 118.223 89.8616 118.656L75.7561 118.625Z" fill="white"/>
</g>
</g>
</g>
</g>
<path d="M82.716 114.511C82.716 114.573 82.3757 114.603 82.0354 114.82C81.6952 115.037 81.5096 115.315 81.4477 115.315C81.3858 115.315 81.4786 114.882 81.9117 114.634C82.3138 114.387 82.716 114.449 82.716 114.511Z" fill="#263238"/>
<path d="M84.201 115.129C84.2319 115.191 83.9226 115.315 83.6751 115.593C83.4277 115.872 83.3658 116.181 83.3039 116.181C83.2421 116.181 83.1802 115.779 83.4895 115.439C83.7989 115.098 84.201 115.067 84.201 115.129Z" fill="#263238"/>
<path d="M85.0362 116.893C84.9744 116.893 84.8816 116.552 85.0672 116.181C85.2528 115.81 85.5621 115.655 85.593 115.717C85.624 115.779 85.4074 115.965 85.2837 116.274C85.129 116.614 85.0981 116.893 85.0362 116.893Z" fill="#263238"/>
<path d="M82.5926 112.871C82.5617 112.933 82.2523 112.84 81.8502 112.871C81.4481 112.902 81.1697 113.026 81.1078 112.964C81.0769 112.902 81.3553 112.655 81.8193 112.624C82.3142 112.593 82.6235 112.809 82.5926 112.871Z" fill="#263238"/>
<g opacity="0.3">
<g opacity="0.3">
<g opacity="0.3">
<g opacity="0.3">
<path opacity="0.3" d="M82.716 108.757L82.6541 110.056L75.7251 109.994V108.819L82.716 108.757Z" fill="black"/>
</g>
</g>
</g>
</g>
<path d="M82.6234 111.386C82.6234 111.417 82.345 111.448 81.912 111.386C81.6954 111.355 81.448 111.263 81.1696 111.17C81.0458 111.108 80.8912 111.046 80.7674 110.953C80.7056 110.922 80.6128 110.861 80.5509 110.799C80.489 110.737 80.4272 110.551 80.52 110.427C80.5818 110.335 80.7056 110.273 80.8293 110.273C80.9221 110.273 81.0149 110.304 81.1077 110.304C81.2624 110.335 81.417 110.397 81.5408 110.458C81.8192 110.582 82.0357 110.737 82.1904 110.891C82.5306 111.201 82.6234 111.448 82.5925 111.479C82.5616 111.51 82.4069 111.294 82.0666 111.046C81.912 110.922 81.6954 110.799 81.448 110.675C81.3242 110.613 81.2005 110.582 81.0458 110.551C80.8912 110.52 80.7674 110.52 80.7365 110.582C80.7365 110.613 80.7056 110.613 80.7365 110.675C80.7674 110.706 80.8293 110.768 80.8912 110.799C81.0149 110.891 81.1386 110.953 81.2624 111.015C81.5098 111.139 81.7573 111.232 81.9429 111.294C82.345 111.325 82.6234 111.355 82.6234 111.386Z" fill="#263238"/>
<path d="M82.5306 111.479C82.4996 111.479 82.3759 111.232 82.345 110.799C82.345 110.582 82.345 110.304 82.4378 110.025C82.4687 109.871 82.5306 109.747 82.6234 109.592C82.7162 109.438 82.809 109.252 83.0874 109.221C83.242 109.221 83.3348 109.314 83.3967 109.407C83.4586 109.499 83.4586 109.592 83.4586 109.654C83.4895 109.809 83.4895 109.994 83.4586 110.118C83.4276 110.427 83.3039 110.675 83.1492 110.861C82.8708 111.232 82.5924 111.294 82.5924 111.294C82.5615 111.263 82.809 111.139 83.0255 110.768C83.1183 110.582 83.2111 110.366 83.242 110.118C83.242 109.994 83.242 109.84 83.242 109.716C83.2111 109.561 83.1492 109.438 83.1183 109.469C83.0564 109.469 82.9327 109.592 82.8708 109.685C82.809 109.809 82.7471 109.933 82.6852 110.056C82.5924 110.304 82.5615 110.551 82.5615 110.768C82.4996 111.232 82.5615 111.479 82.5306 111.479Z" fill="#263238"/>
<path d="M75.6016 72.9674L89.5834 91.5273L83.0255 97.1262L76.313 88.3412L75.6016 72.9674Z" fill="#263238"/>
<path d="M46.0603 73.8645C46.0603 73.8645 68.5178 67.0283 70.5594 67.1211C72.601 67.2139 76.5295 74.6378 76.5295 74.6378L70.2191 74.4213C68.6106 78.3807 65.6101 82.4639 62.2383 86.578L49.3392 85.9903L46.0603 73.8645Z" fill="#263238"/>
<path d="M64.4039 68.4512C64.4039 68.4821 62.1148 69.2245 59.238 70.0597C56.3922 70.8949 54.0413 71.5754 54.0413 71.5135C54.0413 71.4826 56.3303 70.7402 59.2071 69.905C62.0839 69.0698 64.4039 68.4202 64.4039 68.4512Z" fill="#263238"/>
<path d="M69.6311 74.2666H75.9415C79.0966 74.2666 81.8806 76.2463 82.9324 79.2159C83.4273 80.6079 83.6438 82.0927 83.582 83.5775L83.087 109.221H74.6113L74.4567 101.024L73.374 85.4335L66.0119 85.7428L61.8359 85.4953L69.6311 74.2666Z" fill="#263238"/>
<path d="M69.817 74.1429C69.817 74.1429 69.7861 74.3284 69.6933 74.6996C69.6005 75.0399 69.4458 75.5348 69.2602 76.1535C69.0437 76.7412 68.7343 77.4527 68.3322 78.1951C67.9301 78.9375 67.4042 79.7108 66.7856 80.4842C65.5482 81.9999 64.28 83.2063 63.352 84.1033C62.9189 84.5364 62.5477 84.8767 62.2693 85.1551C62.0218 85.4025 61.8672 85.5263 61.8672 85.5263C61.8672 85.5263 61.9909 85.3716 62.2384 85.1241C62.4858 84.8767 62.857 84.5055 63.2901 84.0415C64.1872 83.1444 65.4554 81.9071 66.6618 80.3914C67.8682 78.8756 68.7034 77.298 69.1674 76.1226C69.3839 75.5348 69.5695 75.0399 69.6623 74.6996C69.7551 74.3284 69.817 74.1429 69.817 74.1429Z" fill="#455A64"/>
<path d="M77.5195 74.4522C77.5195 74.4831 77.0865 74.4212 76.375 74.3903C75.6635 74.3594 74.7046 74.3285 73.6219 74.3285C72.5393 74.3594 71.5804 74.4212 70.8689 74.4522C70.1574 74.514 69.7244 74.545 69.7244 74.5141C69.7244 74.5141 69.8172 74.4831 70.0337 74.4522C70.2193 74.4212 70.5286 74.3903 70.8689 74.3594C71.5804 74.2975 72.5393 74.2047 73.6219 74.1738C74.7046 74.1429 75.6945 74.2047 76.4059 74.2666C76.7462 74.2975 77.0555 74.3285 77.2411 74.3594C77.4267 74.4213 77.5195 74.4522 77.5195 74.4522Z" fill="#455A64"/>
<path d="M74.5497 104.55C74.5497 104.55 74.5497 104.488 74.5188 104.334C74.5188 104.179 74.4878 103.962 74.4878 103.715C74.4569 103.158 74.426 102.385 74.395 101.457C74.3022 99.539 74.2094 96.9097 74.0238 94.002C73.8382 91.0942 73.6217 88.4649 73.467 86.578C73.4052 85.65 73.3433 84.8767 73.2814 84.3199C73.2505 84.0724 73.2505 83.8559 73.2505 83.7012C73.2505 83.5465 73.2505 83.4847 73.2505 83.4847C73.2505 83.4847 73.2814 83.5465 73.2814 83.7012C73.3124 83.8559 73.3124 84.0724 73.3433 84.3199C73.4052 84.8767 73.467 85.6191 73.5908 86.578C73.7764 88.4649 74.0238 91.0942 74.1785 94.002C74.3641 96.9097 74.4569 99.539 74.5188 101.457C74.5497 102.385 74.5497 103.158 74.5806 103.715C74.5806 103.962 74.5806 104.179 74.5806 104.334C74.5497 104.457 74.5497 104.55 74.5497 104.55Z" fill="#263238"/>
<path d="M83.582 82.5876C83.613 82.5876 83.582 88.4649 83.5202 95.7033C83.4274 102.942 83.3346 108.819 83.3036 108.819C83.2727 108.819 83.3036 102.942 83.3655 95.7033C83.4274 88.4649 83.5511 82.5876 83.582 82.5876Z" fill="#455A64"/>
<path d="M76.6531 81.6287C76.6531 81.6906 75.787 81.9071 74.8281 82.4948C73.8692 83.0825 73.2814 83.7631 73.2505 83.7321C73.2505 83.7321 73.3742 83.5156 73.6217 83.2681C73.8692 82.9897 74.2713 82.6804 74.7353 82.3711C75.2302 82.0618 75.6942 81.8762 76.0345 81.7834C76.4366 81.6596 76.6531 81.6287 76.6531 81.6287Z" fill="#263238"/>
<g opacity="0.3">
<g opacity="0.3">
<path opacity="0.3" d="M61.8672 85.4954C63.5685 85.8047 65.4554 85.2788 66.9402 84.3818C68.3941 83.4538 69.4767 81.9999 69.9098 80.3605C70.0954 79.6181 70.1573 78.8447 70.3429 78.1023C70.5285 77.3599 70.8687 76.6175 71.4874 76.1535C72.1989 75.6277 73.9621 75.2874 74.4879 74.576C74.4879 74.4832 72.3845 74.6997 71.7039 74.7616C70.9306 74.7925 69.6623 75.009 69.6933 74.9162C69.6933 74.9162 69.1674 76.7103 68.9509 77.1125C67.3733 79.7109 64.0325 83.5775 61.8672 85.4954Z" fill="black"/>
</g>
</g>
<path d="M26.8508 103.653L29.2327 119.274H31.6145L30.4391 103.715L26.8508 103.653Z" fill="#263238"/>
<path d="M68.8582 103.715V119.274H71.3637L72.2917 103.653L68.8582 103.715Z" fill="#263238"/>
<path d="M26.4486 55.4283C26.4486 55.4283 23.1078 55.552 22.087 56.9749C20.2929 59.4496 21.2827 61.584 21.1899 62.3264C21.0971 63.0688 26.8816 103.684 26.8816 103.684H29.2635L72.3225 104.086L74.3641 99.0441L73.3742 85.4644L61.8671 85.5263C61.8671 85.5263 57.1652 72.0085 53.0202 71.0805C50.2362 70.4618 43.6783 70.6783 39.7189 70.8949C37.7392 70.9877 35.8832 70.0287 34.8005 68.3893L26.4486 55.4283Z" fill="#455A64"/>
<path d="M64.5892 102.076C64.5892 102.076 64.3418 102.106 63.9087 102.137C63.4447 102.137 62.7642 102.168 61.8981 102.168C60.1658 102.199 57.6293 102.199 54.4741 102.199C48.1637 102.199 39.3478 102.137 29.4182 102.045H29.3564V101.983C29.1708 101.117 28.9852 100.25 28.7996 99.3534C28.614 98.4563 28.4284 97.5593 28.2428 96.6313C26.0774 85.6191 24.8092 75.5039 24.1287 68.2037C23.7884 64.5536 23.5719 61.584 23.4481 59.5115C23.3863 58.4907 23.3553 57.6864 23.3244 57.1605C23.3244 56.8821 23.2935 56.6965 23.2935 56.5419C23.2935 56.4182 23.2935 56.3253 23.2935 56.3253C23.2935 56.3253 23.2935 56.3872 23.3244 56.5419C23.3244 56.6965 23.3553 56.8821 23.3553 57.1605C23.3863 57.7173 23.4481 58.4907 23.51 59.5115C23.6647 61.5531 23.8812 64.5226 24.2524 68.1728C24.9638 75.5039 26.2321 85.5881 28.3974 96.6003C28.583 97.4974 28.7686 98.4254 28.9542 99.3225C29.1398 100.22 29.3254 101.086 29.511 101.952L29.4492 101.89C39.4096 101.952 48.1947 102.045 54.505 102.076C57.6602 102.076 60.1967 102.076 61.929 102.106C62.7951 102.106 63.4757 102.106 63.9396 102.106C64.1562 102.106 64.3418 102.076 64.4655 102.076C64.5274 102.076 64.5892 102.076 64.5892 102.076Z" fill="#263238"/>
<path d="M64.1254 103.993C64.1254 103.993 64.1254 103.932 64.1564 103.808C64.1873 103.653 64.2182 103.498 64.2492 103.251C64.2801 103.004 64.342 102.725 64.3729 102.385C64.4038 102.045 64.4657 101.673 64.4966 101.24C64.5276 100.807 64.5894 100.343 64.5894 99.8484C64.6204 99.3534 64.6204 98.7966 64.6204 98.2398C64.6204 97.0953 64.5585 95.858 64.4038 94.5588C64.2492 93.2596 64.0326 92.0223 63.7542 90.9087C63.5068 89.7951 63.2284 88.8052 62.95 88.0009C62.8262 87.5988 62.7025 87.2276 62.5788 86.8874C62.455 86.578 62.3622 86.2996 62.2694 86.0522C62.1766 85.8356 62.1148 85.681 62.0838 85.5263C62.0529 85.4026 62.022 85.3407 62.022 85.3407C62.022 85.3407 62.0529 85.4026 62.1148 85.5263C62.1766 85.65 62.2385 85.8356 62.3313 86.0212C62.4241 86.2378 62.5478 86.5162 62.6716 86.8255C62.7953 87.1348 62.95 87.506 63.0737 87.9081C63.3521 88.7124 63.6614 89.7023 63.9089 90.8159C64.1564 91.9295 64.4038 93.1668 64.5585 94.466C64.7132 95.7652 64.775 97.0334 64.775 98.178C64.775 98.7348 64.7441 99.2916 64.7132 99.7865C64.6822 100.281 64.6513 100.776 64.5894 101.178C64.5585 101.612 64.4966 101.983 64.4348 102.323C64.4038 102.663 64.342 102.942 64.2801 103.189C64.2492 103.406 64.1873 103.591 64.1564 103.746C64.1564 103.932 64.1564 103.993 64.1254 103.993Z" fill="#263238"/>
<path d="M32.6042 74.8853C32.6042 74.8853 32.6661 74.8234 32.7898 74.7306C32.9136 74.6378 33.0992 74.4831 33.3157 74.3285C33.4394 74.2357 33.5632 74.1429 33.6869 74.0501C33.8416 73.9573 33.9962 73.8645 34.1818 73.7717C34.5221 73.5551 34.9242 73.3077 35.3882 73.0911C35.6048 72.9674 35.8522 72.8746 36.0997 72.7509C36.3472 72.6271 36.6256 72.5343 36.904 72.4106C37.1824 72.3178 37.4608 72.1631 37.7701 72.0703C38.0794 71.9775 38.3888 71.8847 38.6981 71.761C39.9973 71.3898 41.4202 71.0495 42.9669 70.8639C44.5135 70.6783 45.9674 70.5855 47.3284 70.5855C48.009 70.5855 48.6276 70.6165 49.2463 70.6474C49.834 70.7093 50.3908 70.7402 50.8858 70.8021C51.9065 70.9258 52.7108 71.1114 53.2367 71.2351C53.4841 71.297 53.7007 71.3589 53.8553 71.4207C54.01 71.4517 54.0719 71.4826 54.0719 71.4826C54.0719 71.4826 53.9791 71.4826 53.8553 71.4517C53.7007 71.4207 53.4841 71.3589 53.2057 71.297C52.6489 71.1733 51.8447 71.0186 50.8548 70.9258C50.3599 70.8639 49.8031 70.833 49.2154 70.7711C48.6276 70.7402 47.978 70.7093 47.3284 70.7093C45.9983 70.7093 44.5135 70.8021 42.9978 70.9877C41.4511 71.1733 40.0282 71.4826 38.7599 71.8538C38.4506 71.9466 38.1413 72.0394 37.832 72.1322C37.5226 72.225 37.2442 72.3487 36.9658 72.4415C36.6874 72.5653 36.409 72.6271 36.1616 72.7509C35.9141 72.8746 35.6666 72.9674 35.4501 73.0911C34.9861 73.2767 34.6149 73.5242 34.2437 73.7407C34.0581 73.8335 33.9034 73.9263 33.7488 74.0191C33.5941 74.1119 33.4704 74.2047 33.3776 74.2975C33.161 74.4522 32.9754 74.5759 32.8517 74.6687C32.6661 74.8234 32.6042 74.8853 32.6042 74.8853Z" fill="#263238"/>
<path d="M58.1863 77.0815C58.1863 77.0815 58.1863 77.1124 58.1554 77.1743C58.1244 77.2362 58.0935 77.329 58.0626 77.4527C57.9388 77.7002 57.7532 78.0714 57.413 78.4735C57.0727 78.8756 56.5778 79.2778 55.9282 79.649C55.5879 79.8036 55.2477 79.9892 54.8455 80.113C54.4434 80.2367 54.0103 80.3295 53.5463 80.3914C52.6183 80.4842 51.5975 80.4223 50.5149 80.2058C49.4322 80.0202 48.3186 79.7108 47.1122 79.4015C45.9368 79.1231 44.6685 78.8756 43.3384 78.9066C42.6888 78.9066 42.0083 78.9994 41.3587 79.2159C40.7091 79.4015 40.0904 79.7418 39.5336 80.1439C38.3891 80.9791 37.5539 82.0927 36.8424 83.2063C36.131 84.3199 35.5742 85.4953 34.9864 86.578C34.3987 87.6607 33.78 88.6505 33.0376 89.4857C32.3262 90.3209 31.5219 90.9705 30.6558 91.3726C29.8206 91.7748 28.9545 91.9294 28.2121 91.9604C27.4697 91.9604 26.8201 91.8366 26.3561 91.6201C26.1086 91.5273 25.923 91.4036 25.7374 91.2798C25.5827 91.1561 25.4281 91.0633 25.3353 90.9705C25.2425 90.8777 25.1806 90.8159 25.1188 90.754C25.0569 90.6921 25.0569 90.6612 25.0569 90.6612C25.0569 90.6612 25.0878 90.6921 25.1497 90.723C25.2116 90.7849 25.2734 90.8468 25.3662 90.9396C25.459 91.0324 25.6137 91.1252 25.7683 91.2489C25.9539 91.3417 26.1395 91.4654 26.387 91.5582C26.851 91.7438 27.5006 91.8985 28.2121 91.8676C28.9545 91.8366 29.7587 91.682 30.5939 91.2798C31.4291 90.8777 32.2334 90.2281 32.9139 89.4239C33.6254 88.5887 34.244 87.5988 34.8318 86.5471C35.4195 85.4644 35.9763 84.3199 36.6878 83.1754C37.3992 82.0618 38.2653 80.9172 39.4099 80.082C39.9976 79.649 40.6163 79.3396 41.2968 79.1231C41.9773 78.9066 42.6579 78.8138 43.3075 78.8138C44.6685 78.7828 45.9368 79.0303 47.1122 79.3396C48.3186 79.618 49.4322 79.9583 50.484 80.1439C51.5357 80.3295 52.5565 80.4223 53.4845 80.3295C53.9485 80.2986 54.3815 80.2058 54.7837 80.082C55.1858 79.9583 55.5261 79.8036 55.8663 79.649C56.5159 79.3087 57.0109 78.9066 57.3511 78.5044C58.0316 77.6383 58.1554 77.0506 58.1863 77.0815Z" fill="white"/>
<path d="M73.9003 96.8478C73.9003 96.8478 73.8694 96.8478 73.7766 96.8787C73.6838 96.9097 73.56 96.9097 73.3744 96.9715C73.1888 97.0025 73.0032 97.0953 72.7558 97.1571C72.632 97.1881 72.5083 97.2809 72.3846 97.3118C72.2608 97.3737 72.1062 97.4355 71.9515 97.5283C71.3638 97.8686 70.6832 98.3635 69.9718 99.0131C69.2603 99.6627 68.487 100.467 67.559 101.24C67.095 101.612 66.5691 102.014 65.9814 102.323C65.703 102.478 65.3627 102.601 65.0534 102.725C64.8987 102.756 64.7131 102.818 64.5275 102.849C64.3419 102.911 64.1873 102.911 64.0017 102.942C63.2902 103.034 62.5169 103.004 61.7745 102.818C61.0321 102.663 60.2897 102.354 59.5473 101.983C58.0934 101.24 56.7324 100.189 55.4332 99.0131C54.134 97.8377 52.8039 96.6003 51.2572 95.5796C50.4839 95.0846 49.6796 94.6516 48.8135 94.3732C47.9474 94.0948 47.0812 93.971 46.2151 94.002C45.349 94.0638 44.5138 94.2804 43.7405 94.5897C42.9671 94.899 42.2557 95.3012 41.5751 95.7342C40.2141 96.5694 38.9767 97.4974 37.7085 98.1779C36.4402 98.8585 35.172 99.3225 33.9965 99.6009C31.6146 100.189 29.604 100.127 28.2429 99.9411C26.8819 99.7555 26.1704 99.5081 26.1704 99.5081C26.1704 99.5081 26.2323 99.5081 26.2941 99.539C26.3869 99.5699 26.5107 99.6009 26.6963 99.6318C27.0365 99.6937 27.5624 99.7865 28.2429 99.8793C29.604 100.034 31.5837 100.096 33.9656 99.4771C35.141 99.1987 36.4093 98.7038 37.6466 98.0233C38.8839 97.3428 40.1522 96.4147 41.5133 95.5796C42.1938 95.1465 42.9362 94.7444 43.7095 94.435C44.4828 94.1257 45.349 93.8782 46.246 93.8164C47.1431 93.7545 48.0402 93.9092 48.9063 94.1876C49.7724 94.466 50.6076 94.899 51.3809 95.4249C52.9585 96.4457 54.2887 97.7139 55.5569 98.8894C56.8561 100.065 58.1862 101.117 59.6092 101.828C60.3206 102.199 61.063 102.478 61.8054 102.632C62.5478 102.787 63.2902 102.849 64.0017 102.756C64.1873 102.725 64.3419 102.725 64.5275 102.663C64.6822 102.632 64.8678 102.57 65.0225 102.54C65.3318 102.416 65.6721 102.323 65.9505 102.137C66.5382 101.828 67.0641 101.457 67.5281 101.086C68.4561 100.312 69.2294 99.539 69.9718 98.8894C70.6832 98.2398 71.3638 97.7449 71.9824 97.4046C72.1371 97.3118 72.2918 97.2499 72.4155 97.1881C72.5702 97.1262 72.6939 97.0643 72.8176 97.0334C73.0651 96.9715 73.2816 96.8787 73.4672 96.8478C73.6528 96.8169 73.7766 96.786 73.8694 96.786C73.8694 96.8478 73.9003 96.8478 73.9003 96.8478Z" fill="white"/>
<path d="M30.8721 63.0688C30.8721 63.0688 30.8721 63.2234 30.7793 63.4709C30.7174 63.7184 30.5937 64.0586 30.3772 64.4917C29.9441 65.296 29.1089 66.3477 27.8407 67.0282C26.5724 67.6778 25.2423 67.7706 24.3143 67.6469C23.8503 67.585 23.4791 67.4922 23.2626 67.3994C23.0151 67.3066 22.8914 67.2448 22.8914 67.2448C22.8914 67.2138 23.4172 67.4304 24.3452 67.5232C25.2423 67.616 26.5415 67.4922 27.7788 66.8736C29.0161 66.224 29.8513 65.2341 30.2844 64.4298C30.7174 63.6256 30.8412 63.0688 30.8721 63.0688Z" fill="white"/>
<path d="M66.4221 38.5408L66.7203 35.044C65.5005 34.2308 64.4975 33.0924 63.8199 31.6557C61.9224 27.5627 63.7115 22.7106 67.8316 20.8132C71.9247 18.9157 76.7767 20.7047 78.6742 24.8249C80.5716 28.918 78.7826 33.77 74.6624 35.6675C72.9547 36.4536 71.1115 36.5891 69.4038 36.2096L66.4221 38.5408Z" fill="white"/>
<path d="M66.4218 38.5408C66.5573 38.4324 67.5061 37.7005 69.4306 36.2096L69.4577 36.1825L69.4306 36.1554L69.4035 36.2096C69.9727 36.3452 70.6233 36.4265 71.3552 36.4265C72.087 36.4265 72.846 36.318 73.6592 36.0741C74.0658 35.9386 74.4724 35.803 74.8519 35.5862C75.0416 35.4777 75.2585 35.3693 75.4482 35.2609C75.638 35.1254 75.8277 35.0169 76.0446 34.8814C76.8036 34.3393 77.5083 33.6074 78.1047 32.74C78.6739 31.8726 79.1076 30.8697 79.3244 29.7583C79.5413 28.6469 79.5413 27.4814 79.2431 26.3158C78.9721 25.1502 78.4299 24.0389 77.6439 23.063C76.8578 22.0872 75.8277 21.274 74.635 20.7319L74.1742 20.5421C74.0116 20.4879 73.849 20.4337 73.7134 20.3795C73.5508 20.3253 73.4153 20.2711 73.2526 20.244L72.7647 20.1355C72.6021 20.1084 72.4394 20.0813 72.2768 20.0542C72.1141 20.0271 71.9515 20.0271 71.7889 20C71.6262 20 71.4636 20 71.301 20C71.1383 20 70.9757 20 70.813 20C69.539 20.0813 68.3193 20.4337 67.235 21.03C66.1778 21.6264 65.2562 22.4125 64.6057 23.3341C63.928 24.2557 63.4672 25.2857 63.2232 26.3158C62.9793 27.3458 62.9522 28.3759 63.0606 29.2975C63.1961 30.2462 63.4943 31.1136 63.8467 31.8726C64.2262 32.6316 64.687 33.255 65.1749 33.7972C65.6628 34.3122 66.1778 34.7188 66.6658 35.044V35.0169C66.5031 37.2668 66.4218 38.351 66.4218 38.5408C66.4489 38.3781 66.5302 37.2668 66.7471 35.044V35.0169C66.2592 34.6917 65.7712 34.2851 65.2833 33.77C64.7954 33.255 64.3346 32.6045 63.9822 31.8726C63.6298 31.1136 63.3317 30.2733 63.1961 29.3246C63.0877 28.3759 63.1148 27.3729 63.3588 26.37C63.6027 25.3671 64.0635 24.337 64.7141 23.4425C65.3647 22.5209 66.2863 21.7348 67.3163 21.1656C68.3735 20.5963 69.5661 20.2169 70.8401 20.1626C71.0028 20.1355 71.1654 20.1626 71.301 20.1626C71.4636 20.1626 71.6262 20.1626 71.7889 20.1626C71.9515 20.1897 72.1141 20.1897 72.2768 20.2169C72.4394 20.244 72.6021 20.244 72.7647 20.2982L73.2255 20.3524C73.3881 20.3795 73.5237 20.4337 73.6863 20.4879C73.849 20.5421 74.0116 20.5692 74.1471 20.6506L74.6079 20.8403C75.7735 21.3553 76.8036 22.1685 77.5625 23.1443C78.3486 24.0931 78.8907 25.2315 79.1618 26.37C79.4329 27.5085 79.4329 28.7012 79.2431 29.7854C79.0263 30.8697 78.6197 31.8726 78.0504 32.74C77.4812 33.6074 76.7764 34.3122 76.0175 34.8543C75.8277 34.9898 75.638 35.0983 75.4482 35.2338C75.2585 35.3422 75.0416 35.4506 74.8519 35.5591C74.4724 35.7759 74.0658 35.9115 73.6592 36.047C72.8731 36.2909 72.087 36.3994 71.3823 36.3994C70.6775 36.3994 70.027 36.318 69.4306 36.1825L69.4035 36.2367V36.1825C67.5061 37.6734 66.5573 38.4324 66.4218 38.5408Z" fill="#263238"/>
<path d="M70.0813 24.066L70.3253 28.8367C70.3524 29.2162 70.6505 29.5414 71.03 29.5686C71.4366 29.5957 71.789 29.2975 71.8432 28.8909L72.4124 24.1202C72.4667 23.7678 72.1685 23.4425 71.8161 23.4425H70.6505C70.3524 23.4154 70.0813 23.7136 70.0813 24.066Z" fill="#A8A8A8"/>
<path d="M72.304 31.9268C72.1142 32.5231 71.4366 32.8755 70.8402 32.6587C70.2439 32.4689 69.8915 31.7913 70.1084 31.1949C70.2981 30.5986 70.9758 30.2462 71.5721 30.4631C72.1684 30.6799 72.4937 31.3305 72.304 31.9268Z" fill="#A8A8A8"/>
<path d="M113.209 66.0583C110.39 67.522 108.249 70.0158 106.703 72.7807C105.158 75.5455 104.155 78.5543 103.18 81.5631L102.312 97.0409C105.565 91.4841 108.194 84.9514 108.899 78.5543C108.167 78.5001 107.462 78.4188 106.731 78.3646C108.194 78.1477 109.414 77.0906 110.2 75.8437C110.986 74.5968 111.366 73.1602 111.772 71.7235C110.878 71.8591 110.01 71.9946 109.116 72.1301C111.176 70.7206 112.694 68.4979 113.209 66.0583Z" fill="#455A64"/>
<path d="M113.209 66.0583C110.39 67.522 108.249 70.0158 106.703 72.7807C105.158 75.5455 104.155 78.5543 103.18 81.5631L102.312 97.0409C105.565 91.4841 108.194 84.9514 108.899 78.5543C108.167 78.5001 107.462 78.4188 106.731 78.3646C108.194 78.1477 109.414 77.0906 110.2 75.8437C110.986 74.5968 111.366 73.1602 111.772 71.7235C110.878 71.8591 110.01 71.9946 109.116 72.1301C111.176 70.7206 112.694 68.4979 113.209 66.0583Z" fill="#A8A8A8"/>
<g opacity="0.3">
<g opacity="0.3">
<path opacity="0.3" d="M113.209 66.0583C110.39 67.522 108.249 70.0158 106.703 72.7807C105.158 75.5455 104.155 78.5543 103.18 81.5631L102.312 97.0409C105.565 91.4841 108.194 84.9514 108.899 78.5543C108.167 78.5001 107.462 78.4188 106.731 78.3646C108.194 78.1477 109.414 77.0906 110.2 75.8437C110.986 74.5968 111.366 73.1602 111.772 71.7235C110.878 71.8591 110.01 71.9946 109.116 72.1301C111.176 70.7206 112.694 68.4979 113.209 66.0583Z" fill="black"/>
</g>
</g>
<path d="M101.824 100.673C101.824 100.673 94.7497 92.1888 94.831 84.084H97.7043C97.7043 84.084 94.587 82.0511 94.831 80.8855C95.0749 79.747 95.1563 75.41 95.1563 75.41L97.7856 76.0605C97.7856 76.0605 95.8339 75.0847 95.59 73.5125C95.346 71.9675 96.1592 64.7572 96.1592 64.7572C96.1592 64.7572 99.3578 68.1184 100.334 71.5338C101.309 74.9763 103.885 78.988 103.126 89.4511C102.339 99.9684 101.824 100.673 101.824 100.673Z" fill="#A8A8A8"/>
<path d="M105.429 101.459C105.429 101.459 113.1 96.3361 114.808 89.8035L112.504 89.18C112.504 89.18 115.459 88.2042 115.513 87.2284C115.567 86.2525 116.462 82.7558 116.462 82.7558L114.212 82.7016C114.212 82.7016 116.001 82.3492 116.543 81.1565C117.085 79.9639 118.007 74.0005 118.007 74.0005C118.007 74.0005 114.7 76.0063 113.155 78.5543C111.61 81.1023 108.655 83.7588 106.974 92.3515C105.294 100.944 105.429 101.459 105.429 101.459Z" fill="#A8A8A8"/>
<path d="M98.0564 72.1843C98.0564 72.1843 98.0564 72.2114 98.0835 72.2657C98.1106 72.3199 98.1106 72.4283 98.1377 72.5367C98.192 72.7807 98.2733 73.1059 98.3546 73.5396C98.463 73.9733 98.5714 74.5155 98.6799 75.1389C98.8154 75.7624 98.9509 76.4671 99.0865 77.2532C99.3846 78.8254 99.7099 80.6957 100.035 82.81C100.36 84.8972 100.686 87.2013 100.957 89.6408C101.228 92.0804 101.445 94.3845 101.607 96.4988C101.77 98.6131 101.878 100.511 101.933 102.11C101.96 102.923 101.987 103.628 102.014 104.278C102.041 104.902 102.041 105.471 102.041 105.905C102.041 106.338 102.041 106.691 102.041 106.935C102.041 107.043 102.041 107.124 102.041 107.206C102.041 107.26 102.041 107.287 102.041 107.287C102.041 107.287 102.041 107.26 102.041 107.206C102.041 107.124 102.041 107.043 102.014 106.935C102.014 106.691 101.987 106.338 101.987 105.905C101.987 105.444 101.96 104.902 101.933 104.278C101.906 103.655 101.878 102.923 101.824 102.11C101.743 100.511 101.607 98.6131 101.445 96.4988C101.282 94.3845 101.038 92.0804 100.767 89.6408C100.496 87.2284 100.171 84.8972 99.8454 82.81C99.5202 80.7228 99.222 78.8254 98.9238 77.2532C98.7883 76.4671 98.6528 75.7624 98.5172 75.1389C98.4088 74.5155 98.3004 73.9733 98.192 73.5396C98.1106 73.1059 98.0293 72.7807 98.0022 72.5367C97.9751 72.4283 97.9751 72.347 97.948 72.2657C98.0835 72.2114 98.0564 72.1843 98.0564 72.1843Z" fill="#263238"/>
<path d="M100.848 105.85C100.848 105.85 94.3699 98.5046 92.337 94.0321L93.8549 93.3815C92.7435 93.5713 91.6322 93.0834 90.7648 92.3786C89.8974 91.6467 89.2739 90.7251 88.6776 89.7764L90.6835 89.4511C88.8673 88.9361 87.2681 87.6892 86.3193 86.0628C88.6776 86.4423 90.819 87.7434 92.5809 89.3698C94.0176 90.6709 95.2102 92.216 96.3758 93.761C96.945 94.52 97.433 95.3332 97.8396 96.1735C98.9238 98.4504 100.848 103.167 100.848 105.85Z" fill="#A8A8A8"/>
<path d="M114.917 78.3104C114.917 78.3104 114.917 78.3375 114.89 78.3917C114.862 78.4459 114.835 78.5272 114.781 78.6085C114.7 78.7983 114.564 79.0693 114.375 79.4217C114.022 80.1265 113.534 81.1565 112.938 82.4305C111.745 84.9785 110.173 88.5295 108.628 92.5412C107.083 96.553 105.836 100.239 105.023 102.923C104.616 104.278 104.264 105.363 104.047 106.122C103.939 106.501 103.857 106.772 103.776 106.989C103.749 107.07 103.722 107.152 103.695 107.206C103.667 107.26 103.667 107.287 103.667 107.287C103.667 107.287 103.667 107.26 103.695 107.206C103.722 107.152 103.722 107.07 103.749 106.989C103.803 106.772 103.884 106.474 103.993 106.122C104.183 105.363 104.508 104.251 104.914 102.923C105.728 100.212 106.947 96.5259 108.492 92.5141C110.037 88.5024 111.637 84.9514 112.857 82.4034C113.453 81.1294 113.968 80.0994 114.347 79.4217C114.537 79.0693 114.673 78.7983 114.754 78.6085C114.808 78.5272 114.835 78.4459 114.862 78.3917C114.89 78.3104 114.917 78.3104 114.917 78.3104Z" fill="#263238"/>
<path d="M101.39 109.022C101.39 109.022 101.363 108.968 101.363 108.886C101.336 108.778 101.336 108.642 101.309 108.507C101.255 108.155 101.174 107.667 101.065 107.07C100.957 106.474 100.767 105.769 100.577 104.983C100.36 104.197 100.089 103.357 99.7641 102.489C99.4388 101.622 99.0593 100.809 98.734 100.077C98.3817 99.3449 98.0293 98.6944 97.7311 98.1794C97.4329 97.6372 97.1619 97.2306 96.9721 96.9325C96.8908 96.7969 96.8095 96.6885 96.7553 96.6072C96.7011 96.5259 96.674 96.4988 96.7011 96.4716C96.7011 96.4716 96.7282 96.4988 96.7824 96.5801C96.8366 96.6614 96.9179 96.7698 97.0263 96.9054C97.2161 97.1764 97.5143 97.6101 97.8124 98.1251C98.1377 98.6402 98.4901 99.2907 98.8696 100.023C99.222 100.754 99.6015 101.568 99.9267 102.462C100.252 103.33 100.523 104.197 100.74 104.983C100.957 105.769 101.092 106.501 101.201 107.097C101.309 107.694 101.363 108.209 101.418 108.534C101.445 108.697 101.445 108.832 101.445 108.941C101.39 108.968 101.39 109.022 101.39 109.022Z" fill="#263238"/>
<path d="M109.956 107.287H95.7524V110.187H109.956V107.287Z" fill="#455A64"/>
<path d="M97.1077 110.187L98.6527 119.919H107.218L108.655 110.187H97.1077Z" fill="#455A64"/>
<path d="M109.089 110.187C109.089 110.242 106.405 110.269 103.098 110.269C99.7912 110.269 97.1077 110.242 97.1077 110.187C97.1077 110.133 99.7912 110.106 103.098 110.106C106.405 110.106 109.089 110.133 109.089 110.187Z" fill="#263238"/>
</g>
<defs>
<clipPath id="ic_nodata_accepted">
<rect width="121.897" height="120" fill="white" transform="translate(-1.09863)"/>
</clipPath>
</defs>
</svg>
