<svg width="105" height="77" viewBox="0 0 105 77" fill="none" xmlns="http://www.w3.org/2000/svg">
<g clip-path="url(#clip0)">
<path d="M23.7796 20.9963L4.50586 33.8888L23.4912 62.2712L42.7649 49.3787L23.7796 20.9963Z" fill="#F5F5F5"/>
<path d="M32.8066 48.0417L32.5833 49.3814L22.999 48.0073L23.2223 46.6504L32.8066 48.0417Z" fill="#E0E0E0"/>
<path d="M27.9799 43.198L29.3539 43.4041L27.8253 52.8338L26.4512 52.6449L27.9799 43.198Z" fill="#E0E0E0"/>
<path d="M19.1521 31.209C19.1693 31.2262 17.2284 32.5488 14.8409 34.1462C12.4362 35.7435 10.4953 37.0318 10.4781 37.0146C10.461 36.9974 12.4019 35.6748 14.7894 34.0775C17.194 32.4801 19.1349 31.1919 19.1521 31.209Z" fill="#E0E0E0"/>
<path d="M26.2459 29.4399C26.263 29.4571 23.0511 31.6385 19.0662 34.2836C15.0985 36.9459 11.8522 39.0758 11.835 39.0586C11.8179 39.0414 15.0298 36.86 19.0147 34.2149C22.9996 31.5526 26.2287 29.4227 26.2459 29.4399Z" fill="#E0E0E0"/>
<path d="M27.6712 31.5697C27.6883 31.5869 24.4764 33.7683 20.4915 36.4134C16.5238 39.0757 13.2775 41.2056 13.2603 41.1884C13.2431 41.1712 16.4551 38.9899 20.44 36.3447C24.4077 33.6824 27.654 31.5354 27.6712 31.5697Z" fill="#E0E0E0"/>
<path d="M29.0798 33.6825C29.097 33.6997 25.8851 35.881 21.9002 38.5262C17.9325 41.1885 14.6862 43.3183 14.669 43.3011C14.6518 43.284 17.8638 41.1026 21.8487 38.4575C25.8335 35.8123 29.0627 33.6653 29.0798 33.6825Z" fill="#E0E0E0"/>
<path d="M30.5056 35.8122C30.5228 35.8294 27.3109 38.0108 23.326 40.6559C19.3583 43.3182 16.112 45.4481 16.0948 45.4309C16.0776 45.4137 19.2896 43.2324 23.2744 40.5872C27.2593 37.9249 30.4884 35.7951 30.5056 35.8122Z" fill="#E0E0E0"/>
<path d="M88.2212 40.014L72.0312 50.8436L87.9701 74.6717L104.16 63.842L88.2212 40.014Z" fill="#F5F5F5"/>
<path d="M95.8099 62.7274L95.621 63.8611L87.5825 62.6931L87.7543 61.5594L95.8099 62.7274Z" fill="#E0E0E0"/>
<path d="M91.7565 58.6738L92.9073 58.8284L91.6191 66.7638L90.4683 66.5921L91.7565 58.6738Z" fill="#E0E0E0"/>
<path d="M84.3362 48.5915C84.3533 48.6087 82.7216 49.7251 80.712 51.0649C78.7024 52.4046 77.0534 53.4867 77.0363 53.4695C77.0191 53.4524 78.6508 52.3359 80.6604 50.9962C82.6872 49.6564 84.319 48.5743 84.3362 48.5915Z" fill="#E0E0E0"/>
<path d="M90.2961 47.0972C90.3133 47.1143 87.6167 48.9522 84.2845 51.1851C80.9523 53.418 78.2213 55.2043 78.2213 55.1872C78.2041 55.17 80.9008 53.3321 84.2501 51.0992C87.5651 48.8835 90.279 47.08 90.2961 47.0972Z" fill="#E0E0E0"/>
<path d="M91.4812 48.8835C91.4984 48.9007 88.8017 50.7386 85.4695 52.9715C82.1374 55.2044 79.4063 56.9907 79.4063 56.9735C79.3892 56.9564 82.0858 55.1185 85.4352 52.8856C88.7502 50.6699 91.464 48.8664 91.4812 48.8835Z" fill="#E0E0E0"/>
<path d="M92.6838 50.6698C92.701 50.687 90.0044 52.5248 86.6722 54.7577C83.34 56.9906 80.609 58.777 80.609 58.7598C80.5918 58.7426 83.2885 56.9048 86.6378 54.6719C89.9528 52.4389 92.6667 50.6526 92.6838 50.6698Z" fill="#E0E0E0"/>
<path d="M93.8689 52.4561C93.8861 52.4732 91.1894 54.3111 87.8572 56.544C84.525 58.7769 81.794 60.5632 81.794 60.546C81.7769 60.5289 84.4735 58.691 87.8229 56.4581C91.1379 54.2252 93.8517 52.4389 93.8689 52.4561Z" fill="#E0E0E0"/>
<path d="M62.6221 22.0463L44.9619 12.6013L31.0537 38.607L48.7139 48.0519L62.6221 22.0463Z" fill="#F5F5F5"/>
<path d="M45.6894 39.9176L44.5729 40.2955L41.7217 32.4288L42.8381 32.0509L45.6894 39.9176Z" fill="#E0E0E0"/>
<path d="M47.407 34.2666L47.8192 35.4002L40.004 38.0797L39.5918 36.9461L47.407 34.2666Z" fill="#E0E0E0"/>
<path d="M52.9551 22.6727C52.938 22.7071 51.1516 21.7624 48.9531 20.5944C46.7545 19.4264 44.9854 18.4474 45.0026 18.413C45.0197 18.3787 46.8061 19.3234 49.0046 20.4913C51.2032 21.6765 52.9723 22.6384 52.9551 22.6727Z" fill="#E0E0E0"/>
<path d="M57.1972 27.3446C57.18 27.379 54.2257 25.816 50.5843 23.8579C46.943 21.917 44.0059 20.3024 44.0059 20.2852C44.023 20.2509 46.9773 21.8139 50.6187 23.772C54.26 25.7301 57.1972 27.3275 57.1972 27.3446Z" fill="#E0E0E0"/>
<path d="M56.1498 29.3026C56.1326 29.337 53.1783 27.774 49.537 25.8159C45.8956 23.875 42.9585 22.2604 42.9585 22.2432C42.9757 22.2089 45.93 23.7719 49.5713 25.73C53.2299 27.6709 56.167 29.2683 56.1498 29.3026Z" fill="#E0E0E0"/>
<path d="M55.102 31.2436C55.0848 31.2779 52.1305 29.7149 48.4891 27.7568C44.8478 25.8159 41.9106 24.2013 41.9106 24.1841C41.9278 24.1498 44.8821 25.7128 48.5235 27.6709C52.182 29.6118 55.1191 31.2092 55.102 31.2436Z" fill="#E0E0E0"/>
<path d="M54.0712 33.1845C54.054 33.2188 51.0997 31.6558 47.4584 29.6977C43.817 27.7568 40.8799 26.1422 40.8799 26.1251C40.8971 26.0907 43.8514 27.6537 47.4927 29.6118C51.1341 31.5699 54.0884 33.1673 54.0712 33.1845Z" fill="#E0E0E0"/>
<path opacity="0.2" d="M54.1575 0H53.7109V7.55753H54.1575V0Z" fill="black"/>
<path d="M43.5942 16.6952H64.2916C64.2916 16.6952 62.385 7.5575 53.7969 7.5575C46.1363 7.5575 43.5942 16.6952 43.5942 16.6952Z" fill="#FFCB14"/>
<path d="M54.1575 0H53.7109V7.55753H54.1575V0Z" fill="#FFCB14"/>
<path d="M100.001 75.5409C100.001 75.5581 77.7921 75.5924 50.4133 75.5924C23.0344 75.5924 0.842773 75.5753 0.842773 75.5409C0.842773 75.5237 23.0344 75.4894 50.4305 75.4894C77.8093 75.5066 100.001 75.5237 100.001 75.5409Z" fill="#263238"/>
<path d="M6.33885 64.7887C6.92285 64.8059 7.47248 65.1322 7.85036 65.5616C8.22824 65.991 8.4687 66.5407 8.62329 67.1075C8.91528 68.1896 8.74352 69.4778 8.41717 70.5599C7.24919 70.1477 6.51062 68.8938 6.18427 68.2239C5.66898 67.1762 5.35981 64.9776 6.33885 64.7887Z" fill="#FFCB14"/>
<path d="M10.1004 71.8825C9.72248 71.35 9.72248 70.6114 10.0145 70.0274C10.3065 69.4435 10.8733 69.0312 11.4916 68.8423C11.7836 68.7564 12.11 68.7221 12.3676 68.8766C12.6081 69.0312 12.694 69.3404 12.6768 69.6152C12.6424 69.89 12.505 70.1477 12.3333 70.371C11.7493 71.1439 11.0622 71.7966 10.1004 71.8825Z" fill="#FFCB14"/>
<path d="M10.2379 75.5067C10.2379 75.5067 10.2208 75.4208 10.1864 75.2834C10.1521 75.1288 10.1177 74.9227 10.0662 74.665C9.9803 74.1497 9.82571 73.4112 9.94594 72.5867C10.049 71.7794 10.3753 71.0752 10.7189 70.663C10.8906 70.4569 11.0452 70.3023 11.1655 70.2164C11.217 70.1649 11.2685 70.1305 11.3029 70.1133C11.3372 70.0962 11.3544 70.079 11.3544 70.079C11.3716 70.0962 11.0796 70.2679 10.7532 70.6973C10.4269 71.1096 10.1177 71.7966 10.0146 72.6039C9.91159 73.4112 10.049 74.1326 10.1177 74.665C10.1521 74.9227 10.1864 75.146 10.2208 75.2834C10.2379 75.4208 10.2379 75.5067 10.2379 75.5067Z" fill="#263238"/>
<path d="M6.7167 66.4376C6.7167 66.4376 6.73388 66.472 6.76823 66.5235C6.80258 66.5922 6.83693 66.6781 6.88846 66.7811C6.99152 67.0044 7.1461 67.348 7.31787 67.7602C7.67857 68.5846 8.14232 69.7183 8.64043 71.0065C9.13854 72.2775 9.55077 73.4455 9.84277 74.2871C9.99735 74.7166 10.1004 75.0601 10.1863 75.3005C10.2206 75.4208 10.255 75.5067 10.2722 75.5754C10.2893 75.6441 10.3065 75.6784 10.2893 75.6784C10.2893 75.6784 10.2722 75.6441 10.255 75.5925C10.2206 75.5238 10.2035 75.438 10.1519 75.3177C10.0661 75.0773 9.94582 74.7337 9.79124 74.3215C9.48207 73.4799 9.05266 72.3291 8.55455 71.0408C8.05644 69.7698 7.59269 68.619 7.24916 67.7945C7.0774 67.3823 6.93999 67.056 6.85411 66.8155C6.80258 66.7124 6.76823 66.6094 6.75105 66.5407C6.7167 66.472 6.69952 66.4376 6.7167 66.4376Z" fill="#263238"/>
<path d="M8.82938 73.102C8.14233 71.9168 6.83694 71.1096 5.48002 71.0237C5.1365 71.0065 4.70709 71.058 4.55251 71.3672C4.39792 71.6764 4.60404 72.0542 4.8445 72.3119C5.82355 73.3768 7.48964 73.7547 8.84656 73.2051" fill="#FFCB14"/>
<path d="M6.0127 71.9512C6.0127 71.9512 6.09858 71.9512 6.23599 71.9512C6.30469 71.9512 6.39057 71.9684 6.49363 71.9855C6.59669 72.0027 6.69974 72.0199 6.81998 72.0542C6.94021 72.0886 7.07762 72.1058 7.21503 72.1573C7.35244 72.1916 7.50702 72.2603 7.66161 72.3291C7.97078 72.4665 8.27995 72.6382 8.58912 72.8787C8.8983 73.1192 9.15594 73.3768 9.36205 73.6344C9.46511 73.7719 9.55099 73.8921 9.63687 74.0295C9.72275 74.1497 9.77428 74.27 9.84299 74.3902C9.91169 74.4933 9.94604 74.6135 9.9804 74.6994C10.0147 74.7852 10.0491 74.8711 10.0663 74.9398C10.1006 75.0772 10.135 75.1459 10.1178 75.1459C10.1006 75.1459 10.0147 74.854 9.79146 74.4074C9.72275 74.3043 9.67123 74.1841 9.58534 74.0638C9.51664 73.9436 9.41358 73.8234 9.31052 73.686C9.10441 73.4283 8.84677 73.1707 8.55477 72.9474C8.2456 72.7241 7.93643 72.5352 7.64443 72.3978C7.48985 72.329 7.35244 72.2775 7.21503 72.226C7.07762 72.1745 6.94021 72.1401 6.81998 72.1058C6.32187 71.9855 6.0127 71.9683 6.0127 71.9512Z" fill="#263238"/>
<path d="M83.9754 18.1209C83.4773 18.2411 83.2196 18.8251 83.1681 19.3404C83.1166 19.8557 83.1853 20.4053 82.962 20.8691C82.7215 21.4016 82.1375 21.7966 82.1204 22.3806C82.1032 22.7413 82.3265 23.0676 82.3093 23.4283C82.2921 24.0123 81.691 24.4589 81.6738 25.0429C81.6566 25.4551 81.9314 25.8674 81.8627 26.2796C81.8112 26.6059 81.5535 26.8636 81.4505 27.1728C81.2444 27.7911 81.6566 28.461 82.2062 28.8217C82.8246 29.2167 83.6147 29.3026 84.3017 29.0793C84.9888 28.856 85.5728 28.3236 85.8476 27.6537C86.1568 26.9151 86.0881 26.0735 86.0194 25.2834C85.8132 22.7928 85.6587 20.3023 85.5556 17.7946" fill="#263238"/>
<path d="M82.5155 26.915C82.4983 26.8979 82.6529 26.8635 82.7388 26.6402C82.7903 26.5372 82.8075 26.3826 82.7903 26.228C82.7903 26.0562 82.7216 25.8845 82.6701 25.6784C82.6185 25.4722 82.5327 25.2318 82.5842 24.9741C82.6357 24.6993 82.8246 24.4932 82.9964 24.2699C83.0823 24.1668 83.1682 24.0466 83.2369 23.9092C83.2884 23.789 83.3056 23.6344 83.2712 23.497C83.1854 23.2222 82.9105 23.016 82.7731 22.6897C82.7044 22.5351 82.7044 22.3462 82.7388 22.1916C82.7731 22.037 82.8418 21.8824 82.9105 21.745C83.0479 21.4702 83.1853 21.2125 83.2541 20.9377C83.3743 20.3881 83.3228 19.8728 83.4086 19.4434C83.4773 19.014 83.6663 18.6876 83.838 18.5331C83.9239 18.4472 84.0098 18.3956 84.0613 18.3785C84.1129 18.3613 84.1472 18.3441 84.1472 18.3441C84.1472 18.3613 84.027 18.3956 83.8552 18.5674C83.6835 18.7392 83.5289 19.0483 83.4602 19.4606C83.4258 19.6667 83.4258 19.9072 83.4086 20.1476C83.3915 20.4053 83.3915 20.6801 83.3228 20.9549C83.2712 21.2469 83.1166 21.5045 82.9792 21.7794C82.8418 22.0542 82.7388 22.3633 82.8418 22.6553C82.9449 22.9473 83.2197 23.1535 83.3399 23.4798C83.3915 23.6344 83.3743 23.8061 83.3056 23.9436C83.2369 24.081 83.151 24.2012 83.0651 24.3214C82.8934 24.5447 82.7044 24.7508 82.6701 24.9913C82.6185 25.2318 82.6872 25.4551 82.7559 25.6612C82.8075 25.8673 82.8762 26.0562 82.8762 26.228C82.8762 26.3998 82.859 26.5543 82.8075 26.6574C82.7559 26.7776 82.6872 26.8463 82.6357 26.8807C82.5498 26.8979 82.5155 26.915 82.5155 26.915Z" fill="#455A64"/>
<path d="M81.1585 30.9858L79.6126 35.4517L73.1544 35.7952L72.0723 38.1998L78.8225 38.8869C80.1623 39.4365 81.7081 38.7667 82.2062 37.3926L84.0097 32.3599L81.1585 30.9858Z" fill="#B78876"/>
<path d="M94.5385 73.1191C94.5385 73.1191 89.7978 58.0727 89.6948 57.5746C89.6089 57.1281 91.4124 46.307 91.6357 43.5073L85.229 43.7478C85.229 43.7478 85.229 43.765 85.229 43.7993L82.5151 43.9539L84.9542 74.7165H87.9085L87.6165 64.4966C89.4371 69.3747 92.0308 74.3386 92.0308 74.3386L94.5385 73.1191Z" fill="#B78876"/>
<path d="M87.737 68.1723C87.737 68.0864 87.7026 64.7542 87.7026 64.7542C87.6683 64.9603 86.569 61.8686 86.6033 61.6797C86.6033 61.5766 87.737 68.1723 87.737 68.1723Z" fill="#A36957"/>
<path d="M86.4659 60.2025C86.4659 60.2025 86.4487 60.2712 86.4487 60.3915C86.4487 60.5117 86.4487 60.6834 86.4487 60.9067C86.4487 61.0098 86.4659 61.13 86.4831 61.2503C86.5003 61.3705 86.5174 61.5079 86.5518 61.6453C86.6033 61.9201 86.6892 62.2293 86.7923 62.5385C86.9984 63.1568 87.2388 63.7065 87.4106 64.1015C87.4965 64.2733 87.5652 64.445 87.6167 64.5653C87.6682 64.6683 87.7026 64.737 87.7026 64.737C87.7026 64.737 87.6854 64.6683 87.6511 64.5653C87.6167 64.445 87.548 64.2905 87.4793 64.0843C87.3247 63.6893 87.1014 63.1396 86.8953 62.5213C86.7923 62.2121 86.7064 61.9201 86.6548 61.6453C86.6205 61.5079 86.6033 61.3705 86.5861 61.2503C86.569 61.13 86.5518 61.0098 86.5518 60.9067C86.5346 60.7006 86.5174 60.5289 86.5174 60.4086C86.4831 60.2712 86.4831 60.2025 86.4659 60.2025Z" fill="#A36957"/>
<path d="M84.903 74.8711V74.5963L87.926 74.4589V75.5925L87.7371 75.6097C86.9126 75.6612 83.5289 75.7986 82.9621 75.6268C82.3609 75.4551 84.903 74.8711 84.903 74.8711Z" fill="#455A64"/>
<path d="M87.9769 75.5409C87.9769 75.5409 87.9597 75.5409 87.9254 75.5409C87.8738 75.5409 87.8395 75.5409 87.7708 75.5581C87.6162 75.5581 87.4444 75.5752 87.2212 75.5752C86.7574 75.5924 86.1219 75.6096 85.4177 75.6096C84.7134 75.6096 84.0779 75.6096 83.6141 75.5924C83.3909 75.5924 83.2191 75.5752 83.0645 75.5752C83.013 75.5752 82.9615 75.5752 82.9099 75.5752C82.8756 75.5752 82.8584 75.5752 82.8584 75.5752C82.8584 75.5752 82.8756 75.5752 82.9099 75.5752C82.9615 75.5752 82.9958 75.5752 83.0645 75.5752C83.2191 75.5752 83.3909 75.5752 83.6141 75.5924C84.0779 75.5924 84.7134 75.6096 85.4177 75.6096C86.1219 75.6096 86.7574 75.5924 87.2212 75.5752C87.4444 75.5752 87.6162 75.5581 87.7708 75.5581C87.8223 75.5581 87.8738 75.5581 87.9254 75.5581C87.9426 75.5409 87.9769 75.5409 87.9769 75.5409Z" fill="#263238"/>
<path d="M83.9233 75.6267C83.9062 75.6267 83.9062 75.4893 83.8203 75.3691C83.7344 75.2317 83.6313 75.163 83.6313 75.163C83.6313 75.1458 83.7688 75.2145 83.8546 75.3519C83.9405 75.4893 83.9405 75.6439 83.9233 75.6267Z" fill="#263238"/>
<path d="M84.8163 75.1803C84.8163 75.1803 84.7648 75.1287 84.7132 75.06C84.6617 74.9913 84.6445 74.9226 84.6445 74.9226C84.6445 74.9226 84.6961 74.9741 84.7476 75.0428C84.7819 75.1115 84.8163 75.1803 84.8163 75.1803Z" fill="#263238"/>
<path d="M85.0571 75.0599C85.0571 75.0599 85.0056 75.0428 84.954 74.9912C84.9025 74.9397 84.8682 74.9054 84.8682 74.8882C84.8682 74.8882 84.9197 74.9054 84.9712 74.9569C85.0227 75.0084 85.0571 75.0428 85.0571 75.0599Z" fill="#263238"/>
<path d="M85.2115 74.768C85.2115 74.7852 85.1428 74.7852 85.0569 74.7852C84.971 74.7852 84.9023 74.7852 84.9023 74.768C84.9023 74.7509 84.971 74.7509 85.0569 74.7509C85.1256 74.7509 85.2115 74.7509 85.2115 74.768Z" fill="#263238"/>
<path d="M85.263 74.5619C85.263 74.5791 85.1943 74.6134 85.0913 74.6134C84.9882 74.6134 84.9023 74.5962 84.9023 74.5962C84.9023 74.5791 84.9882 74.5962 85.0741 74.5791C85.1772 74.5791 85.2459 74.5619 85.263 74.5619Z" fill="#263238"/>
<path d="M84.7133 74.9226C84.7133 74.9226 84.6446 74.9398 84.5244 74.9226C84.4728 74.9226 84.387 74.9054 84.3182 74.8711C84.2839 74.8539 84.2495 74.8539 84.198 74.8195C84.1808 74.8024 84.1637 74.7852 84.1465 74.768C84.1465 74.7337 84.1465 74.6993 84.1808 74.6993C84.3698 74.5962 84.5415 74.6993 84.6102 74.8024C84.6446 74.8539 84.6618 74.9054 84.6789 74.9226C84.6789 74.9569 84.6789 74.9741 84.6789 74.9741C84.6789 74.9741 84.6618 74.9054 84.5931 74.8024C84.5587 74.7508 84.5072 74.7165 84.4213 74.6993C84.3526 74.6821 84.2495 74.6821 84.198 74.7165C84.1637 74.7337 84.1808 74.768 84.2152 74.8024C84.2495 74.8195 84.2839 74.8367 84.3182 74.8539C84.387 74.8711 84.4557 74.8882 84.5244 74.9054C84.6274 74.9226 84.7133 74.9054 84.7133 74.9226Z" fill="#263238"/>
<path d="M84.6621 74.9226C84.6621 74.9226 84.6278 74.871 84.6449 74.7851C84.6449 74.7508 84.6621 74.6993 84.6965 74.6477C84.7308 74.6134 84.7824 74.5447 84.8511 74.5447C84.9026 74.5447 84.9198 74.5962 84.9026 74.6306C84.9026 74.6649 84.8854 74.6993 84.8682 74.7164C84.8339 74.768 84.7995 74.8023 84.7824 74.8367C84.7137 74.9054 84.6793 74.9226 84.6621 74.9226C84.6793 74.9226 84.7137 74.8882 84.7652 74.8195C84.7995 74.7851 84.8167 74.7508 84.8511 74.6993C84.8854 74.6649 84.9026 74.579 84.8511 74.579C84.7995 74.579 84.748 74.6306 84.7308 74.6649C84.6965 74.6993 84.6793 74.7508 84.6793 74.7851C84.6449 74.871 84.6621 74.9226 84.6621 74.9226Z" fill="#263238"/>
<path d="M87.9082 74.7164C87.9082 74.7164 87.8223 74.7164 87.6849 74.7336C87.5475 74.7507 87.3585 74.8023 87.204 74.9397C87.0494 75.0771 86.9463 75.2489 86.8948 75.3691C86.8433 75.5065 86.8433 75.5924 86.8433 75.5752C86.8433 75.5752 86.8433 75.558 86.8433 75.5065C86.8433 75.4721 86.8604 75.4034 86.8776 75.3519C86.912 75.2145 87.015 75.0427 87.1868 74.9053C87.3585 74.7679 87.5475 74.7164 87.6849 74.6992C87.7536 74.6992 87.8051 74.6992 87.8567 74.6992C87.891 74.6992 87.9082 74.7164 87.9082 74.7164Z" fill="#263238"/>
<path d="M86.4654 75.3005C86.4654 75.3177 86.2765 75.3348 86.0188 75.3348C85.7784 75.3348 85.5723 75.3005 85.5723 75.3005C85.5723 75.2833 85.7612 75.3005 86.0188 75.3005C86.2593 75.3005 86.4654 75.2833 86.4654 75.3005Z" fill="#263238"/>
<path d="M87.0494 75.2833C87.0494 75.2833 87.0322 75.3177 87.015 75.3692C86.9978 75.4207 86.9807 75.4551 86.9807 75.4551C86.9635 75.4551 86.9635 75.4036 86.9807 75.352C86.9978 75.3177 87.0322 75.2833 87.0494 75.2833Z" fill="#263238"/>
<path d="M87.2726 75.0084C87.2726 75.0084 87.2554 75.0428 87.221 75.0771C87.1867 75.1115 87.1523 75.1287 87.1523 75.1287C87.1523 75.1287 87.1695 75.0943 87.2039 75.0599C87.2382 75.0256 87.2554 75.0084 87.2726 75.0084Z" fill="#263238"/>
<path d="M87.5819 74.8882C87.5819 74.9054 87.5476 74.9054 87.496 74.9054C87.4445 74.9225 87.4273 74.9397 87.4102 74.9397C87.4102 74.9397 87.4273 74.8882 87.4789 74.871C87.5476 74.8538 87.5819 74.871 87.5819 74.8882Z" fill="#263238"/>
<path d="M87.8051 74.8195C87.8051 74.8366 87.7879 74.8366 87.7708 74.8538C87.7536 74.871 87.7192 74.871 87.7192 74.8538C87.7192 74.8366 87.7364 74.8366 87.7536 74.8195C87.7879 74.8195 87.8051 74.8195 87.8051 74.8195Z" fill="#263238"/>
<path d="M91.9804 74.6133L91.8602 74.3557L94.5568 72.9988L95.0378 74.0294L94.866 74.1152C94.1274 74.4931 91.1044 76.0218 90.5204 76.0905C89.8849 76.1764 91.9804 74.6133 91.9804 74.6133Z" fill="#455A64"/>
<path d="M95.037 73.9607C95.037 73.9607 95.0198 73.9779 94.9855 73.995C94.9511 74.0122 94.8996 74.0466 94.848 74.0638C94.7106 74.1325 94.556 74.2183 94.3671 74.3042C93.9549 74.5103 93.3881 74.7852 92.7354 75.0771C92.0999 75.3691 91.5159 75.6268 91.0865 75.7985C90.8803 75.8844 90.7258 75.9531 90.5883 76.0047C90.5368 76.0218 90.4853 76.039 90.4509 76.0562C90.4166 76.0734 90.3994 76.0734 90.3994 76.0734C90.3994 76.0734 90.4166 76.0562 90.4509 76.0562C90.4853 76.039 90.5368 76.0218 90.5883 76.0047C90.7258 75.9531 90.8975 75.8673 91.0865 75.7814C91.5159 75.5924 92.0999 75.352 92.7354 75.06C93.3709 74.768 93.9549 74.4932 94.3671 74.3042C94.556 74.2183 94.7278 74.1325 94.8652 74.0638C94.9168 74.0466 94.9511 74.0122 95.0026 73.995C95.0198 73.9607 95.037 73.9607 95.037 73.9607Z" fill="#263238"/>
<path d="M91.3959 75.6955C91.3787 75.6955 91.3272 75.5924 91.1898 75.5066C91.0695 75.4207 90.9321 75.4035 90.9321 75.3863C90.9321 75.3691 91.0695 75.3691 91.2069 75.4722C91.3444 75.5753 91.3959 75.6955 91.3959 75.6955Z" fill="#263238"/>
<path d="M92.014 74.9225C92.014 74.9225 91.9453 74.9053 91.8766 74.8538C91.8079 74.8023 91.7563 74.7679 91.7563 74.7507C91.7563 74.7507 91.8251 74.7679 91.8938 74.8194C91.9625 74.871 92.014 74.9225 92.014 74.9225Z" fill="#263238"/>
<path d="M92.1858 74.7164C92.1858 74.7336 92.1342 74.7164 92.0655 74.6993C91.9968 74.6821 91.9453 74.6477 91.9453 74.6477C91.9453 74.6306 91.9968 74.6477 92.0655 74.6649C92.1342 74.6821 92.1858 74.6993 92.1858 74.7164Z" fill="#263238"/>
<path d="M92.2031 74.3901C92.2031 74.4072 92.1516 74.4416 92.0657 74.4759C91.9798 74.5103 91.9283 74.5275 91.9111 74.5275C91.9111 74.5103 91.9627 74.4759 92.0485 74.4416C92.1344 74.4072 92.2031 74.3729 92.2031 74.3901Z" fill="#263238"/>
<path d="M92.1685 74.184C92.1685 74.184 92.117 74.2527 92.0311 74.3042C91.9453 74.3557 91.8594 74.3729 91.8594 74.3557C91.8594 74.3385 91.9281 74.3214 92.014 74.2698C92.0998 74.2183 92.1685 74.184 92.1685 74.184Z" fill="#263238"/>
<path d="M91.8077 74.7336C91.8077 74.7336 91.739 74.7679 91.636 74.8195C91.5844 74.8366 91.5157 74.8538 91.4299 74.871C91.3955 74.871 91.344 74.8882 91.3096 74.871C91.2924 74.871 91.2581 74.8538 91.2409 74.8366C91.2237 74.8195 91.2237 74.7851 91.2409 74.7508C91.3611 74.579 91.5844 74.6133 91.6875 74.6649C91.739 74.6992 91.7734 74.7336 91.7905 74.7508C91.8077 74.7851 91.8249 74.8023 91.8249 74.8023C91.8249 74.8023 91.7734 74.7336 91.6703 74.682C91.6188 74.6649 91.5501 74.6477 91.4814 74.6477C91.4127 74.6649 91.3268 74.6992 91.2753 74.7508C91.2581 74.7851 91.2753 74.8195 91.3268 74.8195C91.3611 74.8195 91.4127 74.8195 91.447 74.8195C91.5157 74.8195 91.5844 74.8023 91.6531 74.7851C91.739 74.7508 91.8077 74.7164 91.8077 74.7336Z" fill="#263238"/>
<path d="M91.7734 74.7507C91.7734 74.7507 91.7218 74.7164 91.7047 74.6305C91.6875 74.5962 91.6875 74.5446 91.6875 74.4759C91.7047 74.4244 91.7218 74.3557 91.7906 74.3213C91.8421 74.3042 91.928 74.39 91.9451 74.4244C91.9623 74.4587 91.8936 74.4416 91.8936 74.4587C91.8936 74.5103 91.8764 74.5618 91.8593 74.5962C91.8249 74.7164 91.7906 74.7507 91.7734 74.7507C91.7734 74.7336 91.8077 74.6992 91.8249 74.6133C91.8421 74.579 91.8421 74.5275 91.8421 74.4759C91.8421 74.4244 91.8421 74.3557 91.7906 74.3729C91.739 74.39 91.7218 74.4587 91.7047 74.4931C91.6875 74.5446 91.7047 74.5962 91.7047 74.6305C91.739 74.7164 91.7734 74.7507 91.7734 74.7507Z" fill="#263238"/>
<path d="M94.6418 73.2393C94.6418 73.2393 94.5559 73.2736 94.4357 73.3423C94.3154 73.411 94.178 73.5313 94.075 73.7202C93.9891 73.9091 93.9719 74.0981 93.9719 74.2355C93.9891 74.3729 94.0234 74.4588 94.0063 74.4588C94.0063 74.4588 93.9891 74.4416 93.9891 74.4072C93.9719 74.3729 93.9547 74.3214 93.9547 74.2527C93.9375 74.1152 93.9547 73.9091 94.0406 73.7202C94.1437 73.5313 94.2982 73.3938 94.4185 73.3251C94.4872 73.2908 94.5387 73.2736 94.5731 73.2564C94.6246 73.2393 94.6418 73.2393 94.6418 73.2393Z" fill="#263238"/>
<path d="M93.5596 74.3558C93.5596 74.3558 93.405 74.476 93.1818 74.5791C92.9585 74.6821 92.7695 74.7336 92.7695 74.7336C92.7695 74.7165 92.9585 74.6478 93.1646 74.5619C93.3879 74.4416 93.5596 74.3386 93.5596 74.3558Z" fill="#263238"/>
<path d="M94.1095 74.1152C94.1267 74.1152 94.1095 74.1667 94.1095 74.2011C94.1095 74.2526 94.1095 74.2869 94.1095 74.2869C94.0924 74.2869 94.0752 74.2526 94.0752 74.2011C94.0752 74.1495 94.0924 74.098 94.1095 74.1152Z" fill="#263238"/>
<path d="M94.1955 73.7718C94.2126 73.7718 94.1955 73.8062 94.1783 73.8577C94.1611 73.892 94.1439 73.9264 94.1267 73.9264C94.1096 73.9264 94.1267 73.892 94.1439 73.8405C94.1611 73.789 94.1783 73.7546 94.1955 73.7718Z" fill="#263238"/>
<path d="M94.4186 73.514C94.4186 73.5312 94.3842 73.5484 94.3499 73.5656C94.3155 73.5999 94.2983 73.6343 94.2812 73.6343C94.264 73.6343 94.2812 73.5827 94.3155 73.5484C94.3842 73.514 94.4186 73.514 94.4186 73.514Z" fill="#263238"/>
<path d="M94.6073 73.3767C94.6073 73.3767 94.6073 73.4111 94.5901 73.4283C94.5729 73.4454 94.5558 73.4626 94.5386 73.4454C94.5386 73.4454 94.5386 73.4111 94.5557 73.3939C94.5729 73.3767 94.6073 73.3596 94.6073 73.3767Z" fill="#263238"/>
<path d="M91.2245 38.406L90.7264 32.2741L93.3028 32.3257C93.3028 32.3257 93.423 31.4153 93.0452 29.4401C92.8047 28.2205 91.9974 27.482 91.0871 27.0354V27.0182L91.0012 27.001C89.8504 26.4686 88.6309 26.3827 88.6309 26.3827L85.4705 26.417C85.4705 26.417 83.0486 26.1079 81.7089 27.8427C81.1936 28.5125 79.5962 33.0642 79.5962 33.0642L83.3921 34.9021L83.0314 32.3772C83.0314 32.3772 83.1001 34.1979 83.3406 34.7818C83.478 35.1082 83.8387 36.1044 83.8387 36.1044L83.7872 39.1274L91.2245 38.406Z" fill="#FFCB14"/>
<path d="M89.4883 31.3982L89.0073 33.3906H93.4388L93.1468 30.0413L89.4883 31.3982Z" fill="#FFCB14"/>
<path d="M93.4391 33.3906C93.4391 33.3734 93.2159 33.3562 92.8552 33.339C92.4945 33.3219 91.9964 33.3047 91.4295 33.3047C90.8799 33.3047 90.3646 33.339 90.0039 33.3562C89.6432 33.3906 89.4199 33.4077 89.4199 33.4249C89.4199 33.4421 89.6432 33.4249 90.0039 33.4249C90.3646 33.4077 90.8627 33.4077 91.4295 33.3906C91.9792 33.3906 92.4773 33.3906 92.8552 33.3906C93.2159 33.4077 93.4391 33.4077 93.4391 33.3906Z" fill="#263238"/>
<path d="M89.2823 30.024C89.2651 30.024 89.2651 30.213 89.2651 30.5393C89.2651 30.8485 89.2823 31.2951 89.2995 31.7588C89.3167 32.2398 89.3338 32.6692 89.3682 32.9784C89.3854 33.2875 89.4026 33.4936 89.4197 33.4936C89.4369 33.4936 89.4369 33.3047 89.4369 32.9784C89.4369 32.6692 89.4197 32.2226 89.4025 31.7588C89.3854 31.2779 89.3682 30.8485 89.3338 30.5393C89.3167 30.213 89.2995 30.024 89.2823 30.024Z" fill="#263238"/>
<g opacity="0.3">
<path opacity="0.3" d="M85.2461 31.7589C85.2461 31.7589 86.2251 39.076 89.0077 38.8699C89.0077 38.8699 90.2615 38.8527 90.6566 38.0282V37.7019L85.2461 31.7589Z" fill="black"/>
</g>
<g opacity="0.3">
<path opacity="0.3" d="M89.2829 30.4535L88.7676 34.0261L89.1111 34.6617L89.6607 33.425H89.4203L89.2829 30.4535Z" fill="black"/>
</g>
<path d="M83.8722 36.1045C83.8722 36.1045 83.8378 36.053 83.8035 35.9327C83.7519 35.8125 83.7004 35.6579 83.6317 35.4518C83.4943 35.0396 83.3397 34.4728 83.2023 33.8372C83.0821 33.2017 83.0134 32.6005 82.9962 32.1711C82.979 31.965 82.979 31.7761 82.979 31.6559C82.979 31.5356 82.979 31.4669 82.9962 31.4669C83.0134 31.4669 83.0134 31.7246 83.0649 32.154C83.0992 32.5834 83.1679 33.1674 83.3054 33.8029C83.4256 34.4384 83.5802 35.0052 83.7004 35.4174C83.7519 35.6064 83.8035 35.7781 83.8378 35.8984C83.855 36.0358 83.8722 36.0873 83.8722 36.1045Z" fill="#263238"/>
<path d="M84.9888 38.1999C84.9716 38.1999 84.9029 38.0453 84.8342 37.8392C84.7655 37.6331 84.7483 37.4613 84.7655 37.4613C84.7826 37.4613 84.8514 37.6159 84.9201 37.822C84.9716 38.0281 85.0059 38.1999 84.9888 38.1999Z" fill="#263238"/>
<path d="M85.3667 38.1656C85.3496 38.1656 85.2637 37.9424 85.2637 37.6332C85.2637 37.324 85.3324 37.0835 85.3496 37.1007C85.3667 37.1007 85.3496 37.3412 85.3496 37.6332C85.3667 37.9252 85.4011 38.1656 85.3667 38.1656Z" fill="#263238"/>
<path d="M83.4943 34.9708C83.4771 34.988 82.6011 34.5758 81.519 34.0261C80.4369 33.4937 79.5781 33.0299 79.5781 33.0127C79.5953 32.9955 80.4713 33.4078 81.5534 33.9574C82.6355 34.4899 83.4943 34.9536 83.4943 34.9708Z" fill="#263238"/>
<path d="M85.0574 27.0182C85.0746 26.1422 85.0746 25.2318 85.0746 25.2318C85.0746 25.2318 83.9581 25.0085 83.7692 23.5486C83.5802 22.1573 84.0955 18.8766 84.0955 18.8766C85.7273 18.2583 87.4105 18.8251 88.527 20.1305L88.2522 27.1899C88.2178 28.0144 87.4964 28.6327 86.6204 28.5984C85.7273 28.5468 85.0402 27.8426 85.0574 27.0182Z" fill="#B78876"/>
<path d="M84.0098 21.4874C84.0098 21.5905 84.0785 21.6764 84.1815 21.6764C84.2846 21.6764 84.3705 21.6077 84.3705 21.5046C84.3705 21.4016 84.3018 21.3157 84.1987 21.3157C84.1128 21.3157 84.0269 21.3844 84.0098 21.4874Z" fill="#263238"/>
<path d="M83.9409 21.2469C83.9581 21.2641 84.1127 21.1782 84.3016 21.1782C84.5077 21.1782 84.6451 21.2813 84.6623 21.2641C84.6795 21.2469 84.6451 21.2126 84.5936 21.161C84.5249 21.1095 84.4219 21.058 84.3016 21.058C84.1814 21.058 84.0612 21.0923 84.0096 21.1439C83.9581 21.1782 83.9409 21.2297 83.9409 21.2469Z" fill="#263238"/>
<path d="M86.0537 21.6076C86.0537 21.7106 86.1224 21.7965 86.2255 21.7965C86.3285 21.7965 86.4144 21.7278 86.4144 21.6247C86.4144 21.5217 86.3457 21.4358 86.2427 21.4358C86.1568 21.4358 86.0709 21.5217 86.0537 21.6076Z" fill="#263238"/>
<path d="M86.0536 21.3672C86.0707 21.3843 86.2253 21.2985 86.4143 21.2985C86.6204 21.2985 86.7578 21.4015 86.775 21.3843C86.7921 21.3672 86.7578 21.3328 86.7063 21.2813C86.6375 21.2298 86.5345 21.1782 86.4143 21.1782C86.294 21.1782 86.1738 21.2126 86.1223 21.2641C86.0536 21.3156 86.0364 21.35 86.0536 21.3672Z" fill="#263238"/>
<path d="M85.2807 22.8443C85.2807 22.8271 85.1605 22.8099 84.9544 22.7756C84.9028 22.7756 84.8513 22.7584 84.8513 22.724C84.8341 22.6897 84.8685 22.6382 84.8857 22.5694C84.9372 22.4492 84.9887 22.3118 85.0402 22.1744C85.2635 21.6248 85.4353 21.161 85.4009 21.161C85.3838 21.1438 85.1777 21.5904 84.9544 22.14C84.9028 22.2775 84.8513 22.3977 84.7998 22.5351C84.7826 22.5866 84.7482 22.6553 84.7654 22.7412C84.7826 22.7756 84.817 22.8099 84.8513 22.8271C84.8857 22.8443 84.92 22.8443 84.9372 22.8443C85.1433 22.8443 85.2807 22.8614 85.2807 22.8443Z" fill="#263238"/>
<path d="M85.0747 25.2318C85.0747 25.2318 86.0538 25.3177 87.05 24.7681C87.05 24.7681 86.5519 25.7643 85.0919 25.5925L85.0747 25.2318Z" fill="#A36957"/>
<path d="M86.6893 20.7832C86.6549 20.8519 86.5004 20.8175 86.3286 20.7832C86.1568 20.7488 86.0022 20.7145 85.9851 20.6458C85.9679 20.5771 86.1397 20.474 86.3801 20.5255C86.6034 20.5771 86.7408 20.7316 86.6893 20.7832Z" fill="#263238"/>
<path d="M84.6798 20.4912C84.6626 20.5599 84.5081 20.5943 84.3191 20.5943C84.1302 20.5943 83.9584 20.5943 83.9412 20.5256C83.9241 20.4569 84.0787 20.3366 84.3019 20.3366C84.5424 20.3194 84.697 20.4225 84.6798 20.4912Z" fill="#263238"/>
<path d="M85.2808 23.3253C85.2465 23.3081 85.1949 23.3425 85.1778 23.3768C85.1606 23.4283 85.1606 23.4799 85.2121 23.5142C85.2465 23.5486 85.3152 23.5486 85.3495 23.5142C85.3839 23.4799 85.401 23.4112 85.3839 23.3768C85.3667 23.3253 85.298 23.3081 85.2465 23.3253" fill="#A36957"/>
<path d="M85.3325 23.3424C85.3497 23.3424 85.2982 23.2909 85.2123 23.3081C85.1779 23.3252 85.1264 23.3596 85.1092 23.4111C85.092 23.4627 85.1092 23.5485 85.1779 23.6001C85.2466 23.6516 85.3153 23.6344 85.3669 23.6001C85.4184 23.5657 85.4356 23.497 85.4356 23.4627C85.4184 23.3768 85.3497 23.3596 85.3497 23.3768C85.3497 23.394 85.3669 23.4111 85.3669 23.4798C85.3669 23.5142 85.3497 23.5314 85.3325 23.5485C85.3153 23.5657 85.2638 23.5657 85.2466 23.5485C85.2295 23.5314 85.2123 23.497 85.2123 23.4627C85.2123 23.4283 85.2295 23.4111 85.2638 23.394C85.281 23.3424 85.3153 23.3596 85.3325 23.3424Z" fill="#263238"/>
<path d="M87.8572 21.8481C87.6854 22.2431 87.256 22.5695 87.3247 22.9989C87.3591 23.2737 87.548 23.5485 87.5137 23.8233C87.4621 24.184 87.1014 24.4245 87.0499 24.768C86.9812 25.1974 87.4106 25.541 87.5652 25.936C87.8057 26.52 87.4965 27.1899 87.4965 27.8082C87.4793 28.7873 88.321 29.6976 89.2828 29.7663C89.6779 29.8007 90.1245 29.6804 90.3134 29.3369C90.4852 29.0621 90.4508 28.7014 90.5539 28.3922C90.7084 27.9285 91.1378 27.6021 91.2409 27.1212C91.4127 26.2624 90.3649 25.541 90.4336 24.665C90.468 24.2871 90.6913 23.9608 90.7943 23.6001C90.9317 23.1191 90.8115 22.5867 90.4852 22.2088C90.2275 21.8996 89.8496 21.6935 89.6263 21.3671C89.3687 20.9893 89.3687 20.5083 89.2828 20.0618C89.0595 18.9797 88.2351 18.035 87.2045 17.6571C86.1567 17.2792 84.9372 17.4682 84.0613 18.138C84.0613 18.138 83.8036 19.2717 84.9716 19.4606C86.1396 19.6495 86.672 19.4262 86.8094 19.89C86.8094 19.89 86.672 20.4396 87.153 20.9549C87.6167 21.4874 88.0633 21.3843 87.8572 21.8481Z" fill="#263238"/>
<path d="M89.7122 29.6977C89.7122 29.6977 89.6779 29.6977 89.6092 29.6805C89.5405 29.6633 89.4374 29.6461 89.3172 29.5946C89.0767 29.5087 88.716 29.3026 88.424 28.9247C88.2694 28.7358 88.132 28.5125 88.0461 28.2377C87.9431 27.98 87.8915 27.6709 87.8915 27.3617C87.8915 27.0525 87.9259 26.709 88.0118 26.3827C88.0633 26.2109 88.1148 26.0563 88.1835 25.8845C88.2522 25.7128 88.321 25.5582 88.3725 25.3864C88.424 25.2147 88.4068 25.0429 88.3725 24.8883C88.321 24.7166 88.2522 24.562 88.1835 24.4246C88.1148 24.27 88.029 24.1154 87.9774 23.9608C87.9259 23.8062 87.9087 23.6345 87.9431 23.4627C88.0118 23.1364 88.2007 22.8959 88.3209 22.6554C88.4412 22.4149 88.4755 22.1573 88.4755 21.9168C88.4584 21.4531 88.2522 21.1096 88.0977 20.9034C87.9259 20.6973 87.8057 20.6286 87.8057 20.6115C87.8057 20.6115 87.9431 20.6802 88.132 20.8691C88.3038 21.058 88.5271 21.4187 88.5442 21.8997C88.5614 22.1401 88.5099 22.415 88.3897 22.6726C88.2694 22.9302 88.0805 23.1707 88.029 23.4627C87.9603 23.7547 88.1148 24.0639 88.2694 24.373C88.3381 24.5276 88.424 24.6822 88.4755 24.854C88.5271 25.0257 88.5271 25.2318 88.4755 25.4036C88.424 25.5754 88.3381 25.7471 88.2866 25.9017C88.2179 26.0563 88.1664 26.2281 88.132 26.3827C88.0461 26.709 87.9946 27.0353 88.0118 27.3445C88.0118 27.9629 88.2179 28.5125 88.5099 28.8732C88.8019 29.2511 89.1282 29.44 89.3687 29.5431C89.5748 29.6805 89.7122 29.6977 89.7122 29.6977Z" fill="#455A64"/>
<path d="M89.5404 21.0408C89.5404 21.0408 89.4545 21.058 89.2827 21.0751C89.111 21.0923 88.8705 21.1095 88.5785 21.058C88.2865 21.0064 87.9258 20.869 87.6854 20.5083C87.5651 20.3366 87.5308 20.1305 87.4449 19.9243C87.3762 19.7354 87.2388 19.5636 87.0498 19.4434C86.672 19.2029 86.2254 19.1686 85.8475 19.1342C85.4524 19.0827 85.0917 19.014 84.8513 18.8251C84.5936 18.6533 84.4734 18.4128 84.4391 18.2583C84.4219 18.1724 84.4219 18.1037 84.4219 18.0693C84.4219 18.0178 84.4391 18.0006 84.4391 18.0006C84.4562 18.0006 84.4219 18.0865 84.4734 18.2583C84.5078 18.4128 84.6452 18.619 84.8856 18.7907C85.1261 18.9625 85.4696 19.0312 85.8647 19.0655C86.2426 19.1171 86.7063 19.1342 87.1014 19.3919C87.3075 19.5121 87.4621 19.7182 87.5308 19.9243C87.5995 20.1305 87.651 20.3366 87.7541 20.4912C87.9602 20.8175 88.3037 20.9549 88.5957 21.0236C88.8877 21.0751 89.1282 21.0751 89.2827 21.0751C89.4545 21.0236 89.5404 21.0236 89.5404 21.0408Z" fill="#455A64"/>
<path d="M89.1113 19.6323C89.1113 19.6323 89.0426 19.6667 88.9051 19.6667C88.7677 19.6667 88.5788 19.6495 88.3555 19.5465C88.2524 19.4949 88.1322 19.4262 88.0292 19.3232C87.9261 19.2201 87.8402 19.0999 87.7543 18.9625C87.5997 18.7048 87.4452 18.3785 87.136 18.2411C86.8268 18.1037 86.4661 18.138 86.1741 18.1552C85.865 18.1895 85.5901 18.1895 85.3497 18.1552C85.1092 18.1208 84.9374 18.0178 84.8344 17.9319C84.7829 17.8804 84.7485 17.846 84.7313 17.8117C84.7141 17.7773 84.697 17.7601 84.7141 17.7601C84.7141 17.7601 84.7657 17.8117 84.8687 17.8975C84.9718 17.9834 85.1436 18.0521 85.3668 18.0865C85.5901 18.1208 85.865 18.1037 86.1741 18.0693C86.4833 18.0521 86.8268 18.0006 87.1875 18.1552C87.3593 18.2239 87.4967 18.3613 87.5998 18.4987C87.7028 18.6361 87.7715 18.7907 87.8574 18.9109C87.9261 19.0483 88.012 19.1686 88.0979 19.2545C88.1837 19.3403 88.2868 19.4262 88.3899 19.4778C88.596 19.5808 88.7849 19.6152 88.9051 19.6152C89.0426 19.6323 89.1113 19.6323 89.1113 19.6323Z" fill="#455A64"/>
<path d="M90.2273 29.3369C90.2102 29.3369 90.2789 29.2167 90.3304 29.0106C90.3991 28.8045 90.4506 28.4781 90.4506 28.0831C90.4334 27.688 90.3476 27.2243 90.0899 26.7777C89.9697 26.5544 89.7807 26.3483 89.6262 26.1078C89.5575 25.9876 89.4888 25.8502 89.4544 25.6956C89.42 25.541 89.4372 25.3864 89.4887 25.2318C89.5918 24.9398 89.7636 24.6822 89.7979 24.4074C89.8495 24.1325 89.712 23.8921 89.5746 23.6688C89.5059 23.5486 89.4372 23.4455 89.3857 23.3253C89.3342 23.205 89.2998 23.0848 89.2826 22.9646C89.2483 22.7241 89.2826 22.5008 89.2998 22.3119C89.3513 21.9168 89.317 21.5905 89.2139 21.4015C89.128 21.1954 89.0078 21.1439 89.0078 21.1267C89.0078 21.1267 89.0078 21.1267 89.025 21.1439C89.0422 21.1439 89.0593 21.1611 89.0765 21.1782C89.1281 21.2126 89.1796 21.2813 89.2311 21.3844C89.3342 21.5905 89.3857 21.9168 89.3513 22.3119C89.3342 22.518 89.317 22.7241 89.3342 22.9474C89.3513 23.1707 89.4716 23.394 89.609 23.6173C89.6777 23.7375 89.7464 23.8405 89.7979 23.978C89.8495 24.1154 89.8666 24.27 89.8495 24.4074C89.8151 24.6994 89.6262 24.957 89.5403 25.249C89.4888 25.3864 89.4716 25.5238 89.5059 25.6612C89.5403 25.7986 89.5918 25.9189 89.6605 26.0391C89.8151 26.2796 90.004 26.4857 90.1243 26.709C90.3819 27.1727 90.485 27.6537 90.485 28.0659C90.485 28.4609 90.4163 28.7873 90.3476 28.9934C90.3132 29.0965 90.2789 29.1823 90.2445 29.2339C90.2445 29.3026 90.2273 29.3369 90.2273 29.3369Z" fill="#455A64"/>
<path d="M83.2365 61.3362C83.2365 61.3362 82.0857 50.3777 82.017 46.3242C81.9483 42.2706 83.8376 38.2685 83.8376 38.2685L91.2406 37.9594C91.2406 37.9594 92.7006 42.0645 92.7349 43.7993C92.7864 47.1486 91.8418 50.4636 91.9448 53.1259L92.1853 61.3362" fill="#263238"/>
<path d="M92.4259 47.8529C92.4259 47.8529 92.3916 47.8873 92.3057 47.9388C92.2885 47.956 92.2542 47.9731 92.237 47.9903C92.2198 48.0075 92.1855 48.0418 92.1683 48.059C92.1168 48.1105 92.0481 48.1621 91.9965 48.248C91.7561 48.54 91.5843 49.0552 91.4125 49.7079C91.3266 50.0343 91.2236 50.395 91.0347 50.7557C90.9831 50.8416 90.9316 50.9274 90.8629 51.0133C90.8285 51.0477 90.7942 51.0992 90.7598 51.1336L90.6396 51.2538C90.485 51.4084 90.2961 51.5286 90.09 51.6145C89.6777 51.8034 89.214 51.8893 88.7846 52.0954C88.3552 52.3015 88.0288 52.7138 87.8399 53.1775C87.6338 53.6413 87.5135 54.1394 87.3246 54.586C87.1528 55.0326 86.9295 55.4791 86.5517 55.754C86.191 56.046 85.7272 56.1147 85.3322 56.1318C84.9371 56.149 84.5592 56.149 84.2329 56.2005C83.9065 56.2521 83.6145 56.3551 83.4084 56.5097C83.2023 56.6643 83.0821 56.8704 83.0305 57.0593C82.979 57.2311 82.979 57.3857 82.9962 57.4888C83.0134 57.5918 83.0477 57.6262 83.0305 57.6262C83.0305 57.6262 82.9962 57.5746 82.979 57.4888C82.9447 57.3857 82.9447 57.2311 82.9962 57.0593C83.0477 56.8704 83.168 56.6643 83.3912 56.4925C83.5974 56.3208 83.9065 56.2005 84.2329 56.149C84.5764 56.0975 84.9371 56.0975 85.3322 56.0803C85.7272 56.0459 86.1566 55.9772 86.5001 55.7024C86.8437 55.4448 87.067 55.0154 87.2387 54.5688C87.4105 54.1222 87.5307 53.6241 87.754 53.1603C87.9601 52.6794 88.3036 52.25 88.7502 52.0439C89.1968 51.8206 89.6606 51.7347 90.0728 51.563C90.2789 51.4771 90.4678 51.374 90.6052 51.2194L90.7083 51.1164C90.7427 51.082 90.777 51.0305 90.7942 50.9961C90.8629 50.9274 90.8972 50.8244 90.9488 50.7385C91.1377 50.395 91.2408 50.0343 91.3266 49.7079C91.4984 49.0552 91.6874 48.5228 91.945 48.2308C91.9965 48.1449 92.0652 48.0934 92.1168 48.0418C92.1511 48.0247 92.1683 47.9903 92.1855 47.9731C92.2026 47.956 92.237 47.9388 92.2542 47.9216C92.3916 47.8701 92.4259 47.8529 92.4259 47.8529Z" fill="#FAFAFA"/>
<path d="M92.4775 42.7859C92.4775 42.7859 92.4775 42.8374 92.4946 42.9405C92.4946 43.0435 92.4775 43.1809 92.4431 43.3527C92.3572 43.7134 92.0996 44.1943 91.6015 44.6409C91.361 44.8642 91.069 45.0875 90.7427 45.2764C90.4163 45.4654 90.0385 45.6543 89.6778 45.8776C89.2999 46.0837 88.922 46.3242 88.5785 46.6505C88.235 46.9597 87.9773 47.3719 87.754 47.8185C87.5136 48.2479 87.3074 48.6945 87.0326 49.0895C86.8952 49.2785 86.7406 49.4502 86.5689 49.6048C86.3971 49.7594 86.2082 49.8797 86.002 49.9827C85.607 50.1888 85.2119 50.3091 84.8512 50.4293C84.4905 50.5495 84.147 50.6354 83.8378 50.7728C83.5459 50.8931 83.271 51.0305 83.0649 51.185C82.8588 51.3396 82.687 51.4942 82.584 51.6316C82.3607 51.9064 82.3092 52.1126 82.292 52.1126C82.292 52.1126 82.3092 52.061 82.3435 51.9752C82.3779 51.8893 82.4466 51.7519 82.5668 51.6145C82.6699 51.4599 82.8416 51.3053 83.0477 51.1507C83.2539 50.9961 83.5287 50.8415 83.8207 50.7213C84.1298 50.5839 84.4734 50.4808 84.8341 50.3778C85.1948 50.2575 85.5898 50.1373 85.9677 49.9312C86.1566 49.8281 86.3456 49.7079 86.5173 49.5705C86.6891 49.4159 86.8437 49.2613 86.9639 49.0724C87.2387 48.6945 87.4448 48.2479 87.6681 47.8185C87.9086 47.3719 88.1662 46.9597 88.5098 46.6334C88.8533 46.307 89.2484 46.0665 89.6262 45.8604C90.0041 45.6543 90.3648 45.4654 90.7083 45.2764C91.0347 45.0875 91.3267 44.8814 91.5671 44.6581C92.0481 44.2287 92.3229 43.7478 92.4088 43.4042C92.4946 42.992 92.4603 42.7859 92.4775 42.7859Z" fill="#FAFAFA"/>
<path d="M82.0516 46.891C82.0516 46.891 82.0516 46.8738 82.0344 46.8566C82.0344 46.8394 82.0173 46.8051 82.0001 46.7535C81.9829 46.6677 81.9657 46.5131 82.0173 46.3413C82.1203 45.9978 82.4982 45.5512 83.0994 45.3451C83.4085 45.242 83.7521 45.1733 84.1128 45.0875C84.4735 44.9844 84.8513 44.8642 85.1433 44.555C85.2807 44.4004 85.401 44.2286 85.504 44.0397C85.6071 43.8508 85.6758 43.6447 85.7617 43.4214C85.9163 42.992 86.0365 42.5282 86.3113 42.0988C86.569 41.6694 86.9984 41.3774 87.4278 41.2228C87.8572 41.0682 88.3038 40.9995 88.716 40.8965C89.1282 40.8106 89.5061 40.6903 89.8324 40.5186C90.1588 40.3296 90.4164 40.0892 90.5882 39.8315C90.9661 39.3162 91.0519 38.7838 91.0691 38.4403C91.0691 38.0796 91.0176 37.8906 91.0348 37.8906C91.0348 37.8906 91.1035 38.0796 91.1035 38.4403C91.1035 38.801 91.0176 39.3334 90.6397 39.8659C90.4508 40.1235 90.1931 40.3812 89.8668 40.5701C89.5404 40.759 89.1454 40.8793 88.7332 40.9652C88.3209 41.0682 87.8915 41.1369 87.4621 41.2915C87.0327 41.4461 86.6377 41.7209 86.38 42.1331C86.1224 42.5454 86.0021 43.0091 85.8476 43.4385C85.7617 43.6618 85.693 43.8679 85.5899 44.0741C85.4869 44.2802 85.3494 44.4519 85.212 44.6065C84.9029 44.9157 84.5078 45.0531 84.1471 45.139C83.7864 45.2249 83.4429 45.2936 83.1337 45.3966C82.5325 45.6027 82.1547 46.015 82.0516 46.3413C82.0001 46.5131 82.0001 46.6505 82.0173 46.7364C82.0344 46.8566 82.0516 46.891 82.0516 46.891Z" fill="#FAFAFA"/>
<path d="M91.8422 56.1661C91.8422 56.1661 91.8422 56.2005 91.8594 56.2692C91.8594 56.3379 91.8594 56.441 91.825 56.5784C91.7563 56.836 91.5674 57.1967 91.1723 57.5059C90.9834 57.6605 90.7601 57.7979 90.4853 57.9181C90.2276 58.0383 89.9356 58.1242 89.6265 58.2101C89.3173 58.296 89.0081 58.399 88.6989 58.5536C88.3898 58.691 88.0978 58.8972 87.8573 59.172C87.5997 59.4296 87.3935 59.7216 87.1531 59.9793C86.9126 60.2369 86.6378 60.443 86.363 60.5976C85.7962 60.9068 85.2122 61.0098 84.7312 61.027C84.2503 61.027 83.8552 60.9239 83.6148 60.8381C83.4945 60.7865 83.3915 60.7522 83.3228 60.7178C83.2541 60.6835 83.2197 60.6663 83.2197 60.6663C83.2197 60.6663 83.2541 60.6835 83.3228 60.7007C83.3915 60.735 83.4774 60.7694 83.6148 60.8037C83.8724 60.8896 84.2503 60.9755 84.7312 60.9583C85.2122 60.9411 85.779 60.8381 86.3286 60.5289C86.6034 60.3743 86.8611 60.1682 87.1015 59.9277C87.342 59.6701 87.5481 59.3953 87.8058 59.1204C88.0634 58.8456 88.3554 58.6223 88.6818 58.4849C88.9909 58.3303 89.3173 58.2445 89.6265 58.1414C89.9356 58.0555 90.2104 57.9696 90.4853 57.8494C90.7429 57.7463 90.9662 57.6089 91.1551 57.4715C91.533 57.1795 91.7391 56.836 91.8078 56.5784C91.8593 56.3207 91.825 56.1661 91.8422 56.1661Z" fill="#FAFAFA"/>
<path d="M91.0002 33.4085L89.5746 33.4428C89.4887 33.9238 89.2483 34.2501 89.2483 34.2501C88.0459 32.1718 87.1184 29.3893 86.8951 28.2728C86.9295 28.1526 86.9638 28.0323 87.0154 27.8949C87.0669 27.7403 87.0154 27.4312 86.9982 27.2594C86.9638 27.0189 86.8951 26.6754 86.8608 26.5208C86.7921 26.0399 86.7234 25.9712 86.5516 26.0227C86.3283 26.0914 86.6375 27.3453 86.4657 27.3796C86.3627 27.3968 86.2424 26.9674 86.2081 26.6067C86.1737 26.246 86.0191 25.1639 85.8989 25.0952C85.7272 24.9921 85.5726 25.1639 85.6241 25.5074C85.6756 25.8681 85.7272 26.9159 85.5382 26.9331C85.3493 26.9502 85.1947 25.1467 85.1947 25.1467C85.1947 25.1467 85.229 24.7517 85.0058 24.7689C84.6107 24.786 84.9199 26.6754 84.9542 26.8644C84.9714 26.9846 84.7825 27.0189 84.7653 26.8815C84.7481 26.7441 84.6451 25.078 84.25 25.0952C83.9408 25.1124 84.4905 26.6582 84.3187 27.0189C84.1469 27.3796 84.0267 25.7994 83.7347 25.8166C83.6317 25.8166 83.5458 25.851 83.7519 26.7441C83.8549 27.2251 84.1641 28.1182 84.4389 28.8396C84.9027 31.313 86.9123 39.2656 90.0899 37.8056C91.8591 36.9983 92.5805 33.3913 92.5805 33.3913L91.0002 33.4085Z" fill="#B78876"/>
<path d="M84.8855 27.001C84.8855 27.001 84.9026 27.001 84.9198 27.001C84.937 27.001 84.9885 26.9666 84.9885 26.8979C84.9885 26.7949 84.9713 26.6403 84.937 26.4342C84.9198 26.228 84.8511 25.9876 84.8511 25.6956C84.8511 25.5582 84.8511 25.4036 84.8683 25.2318C84.8683 25.1459 84.8683 25.0601 84.8855 24.9914C84.9026 24.9055 84.9542 24.8196 85.0057 24.8368C85.0744 24.8368 85.1087 24.8883 85.1259 24.957C85.1431 25.0257 85.1603 25.1116 85.1431 25.1803C85.1774 25.6269 85.229 26.1078 85.332 26.6059C85.3492 26.6746 85.3664 26.7261 85.3836 26.7949C85.4007 26.8292 85.4007 26.8636 85.4179 26.8979C85.4351 26.9151 85.4351 26.9323 85.4523 26.9494C85.4694 26.9666 85.4866 26.9838 85.521 27.001C85.5897 27.001 85.6069 26.9494 85.624 26.9151C85.6412 26.8807 85.6412 26.8464 85.6584 26.812C85.6756 26.7433 85.6756 26.6746 85.6927 26.6059C85.7099 26.3311 85.7099 26.0391 85.6756 25.7471C85.6756 25.5925 85.624 25.4551 85.6584 25.3177C85.6756 25.249 85.6927 25.1803 85.7443 25.1631C85.7614 25.1459 85.7958 25.1459 85.813 25.1459C85.8301 25.1459 85.8473 25.1631 85.8473 25.1631C85.8645 25.1803 85.8645 25.1631 85.8645 25.1803C85.916 25.3005 85.9504 25.4551 85.9847 25.6097C86.0191 25.7643 86.0363 25.9189 86.0706 26.0735C86.0878 26.228 86.1221 26.3826 86.1393 26.5544C86.1565 26.709 86.1737 26.8807 86.2252 27.0353C86.2424 27.1212 86.2767 27.1899 86.3111 27.2758C86.3283 27.3101 86.3454 27.3617 86.3798 27.396C86.397 27.4132 86.4313 27.4475 86.4828 27.4304C86.5344 27.4132 86.5515 27.3788 86.5515 27.3617C86.5859 27.2586 86.5687 27.1727 86.5687 27.0868C86.5687 27.001 86.5515 26.9151 86.5515 26.8292C86.5344 26.6918 86.5172 26.5372 86.5172 26.3998C86.5172 26.3311 86.5172 26.2624 86.5172 26.1937C86.5172 26.1593 86.5344 26.125 86.5344 26.1078C86.5344 26.0906 86.5515 26.0906 86.5515 26.0906H86.5687C86.689 26.0391 86.7233 26.1937 86.7577 26.3311C86.792 26.4685 86.8092 26.6059 86.8264 26.7433C86.8779 27.0181 86.9294 27.2758 86.9638 27.5334C86.981 27.6537 86.981 27.7911 86.9466 27.9113C86.9122 28.0315 86.8607 28.1518 86.8264 28.272V28.2892V28.3064C87.0325 29.2339 87.3245 30.0583 87.5993 30.7969C87.8741 31.5355 88.1489 32.171 88.3894 32.6863C88.6299 33.2016 88.836 33.5966 88.9906 33.8714C89.0593 34.0089 89.128 34.0947 89.1623 34.1806C89.1967 34.2493 89.231 34.2837 89.231 34.2837C89.231 34.2837 89.2139 34.2493 89.1795 34.1806C89.1452 34.0947 89.0764 33.9917 89.0077 33.8714C88.8703 33.5966 88.6642 33.1844 88.4238 32.6691C88.1833 32.1538 87.9256 31.5183 87.668 30.7797C87.4104 30.0412 87.1184 29.2167 86.9122 28.3064V28.3235C86.9466 28.2033 86.9981 28.0831 87.0325 27.9628C87.084 27.8254 87.0668 27.688 87.0497 27.5506C87.0153 27.2758 86.9638 27.0181 86.9122 26.7433C86.8779 26.6059 86.8779 26.4685 86.8435 26.3311C86.8264 26.2624 86.8092 26.1937 86.7748 26.125C86.7577 26.0906 86.7233 26.0563 86.6718 26.0219C86.6203 26.0047 86.5687 26.0047 86.5344 26.0219H86.5C86.4828 26.0219 86.4657 26.0391 86.4657 26.0391C86.4485 26.0563 86.4313 26.0735 86.4141 26.1078C86.397 26.1422 86.397 26.1937 86.3798 26.228C86.3798 26.2967 86.3798 26.3826 86.3798 26.4513C86.3798 26.5887 86.397 26.7433 86.4141 26.8807C86.4141 26.9666 86.4313 27.0525 86.4313 27.1384C86.4313 27.2243 86.4313 27.3101 86.4141 27.3617C86.4141 27.3788 86.397 27.3788 86.4141 27.3788C86.4141 27.3788 86.4141 27.396 86.4141 27.3788C86.4141 27.3788 86.4141 27.3788 86.397 27.3617C86.3798 27.3445 86.3626 27.3101 86.3454 27.2758C86.3111 27.2071 86.2939 27.1212 86.2767 27.0525C86.2424 26.8979 86.208 26.7433 86.1908 26.5716C86.1737 26.417 86.1565 26.2452 86.1221 26.0906C86.105 25.936 86.0706 25.7815 86.0363 25.6269C86.0019 25.4723 85.9847 25.3177 85.8989 25.1631C85.8989 25.1459 85.8645 25.1116 85.8473 25.0944C85.8301 25.0772 85.813 25.0772 85.7786 25.0601C85.7271 25.0429 85.6756 25.0601 85.6412 25.0772C85.5553 25.1288 85.5382 25.2146 85.521 25.3005C85.5038 25.3864 85.5038 25.4551 85.521 25.541C85.5382 25.6097 85.5382 25.6784 85.5382 25.7643C85.5553 26.0563 85.5725 26.3311 85.5553 26.6059C85.5553 26.6746 85.5382 26.7433 85.5382 26.812C85.5382 26.8464 85.521 26.8807 85.5038 26.8979C85.5038 26.9151 85.4866 26.9151 85.4866 26.9323C85.4866 26.9494 85.4694 26.9323 85.4694 26.9494C85.4866 26.9323 85.4694 26.9494 85.4694 26.9323C85.4694 26.9323 85.4523 26.9151 85.4523 26.8979C85.4351 26.8636 85.4351 26.8464 85.4179 26.812C85.4007 26.7433 85.3836 26.6918 85.3664 26.6231C85.2633 26.125 85.2118 25.644 85.1775 25.1975C85.1775 25.1116 85.1774 25.0257 85.1431 24.9398C85.1259 24.9055 85.1087 24.8539 85.0744 24.8196C85.04 24.7852 84.9885 24.7681 84.9542 24.7681H84.9713C84.9026 24.7509 84.8511 24.8024 84.8168 24.8368C84.7824 24.8711 84.7824 24.9226 84.7652 24.9742C84.748 25.0601 84.748 25.1459 84.748 25.2318C84.748 25.4036 84.748 25.5582 84.748 25.6956C84.748 25.9876 84.8168 26.228 84.8511 26.4342C84.8855 26.6403 84.9026 26.7949 84.9198 26.8979C84.937 26.9494 84.8855 26.9838 84.8683 26.9838C84.9026 27.001 84.8855 27.001 84.8855 27.001Z" fill="#A36957"/>
<path d="M73.704 35.7608C73.704 35.7608 73.223 35.7436 72.7077 35.8811C71.8146 36.1215 70.2859 37.049 70.2344 38.1827H71.3508C71.3508 38.1827 70.7325 39.5052 70.9042 39.385C71.3852 39.0586 72.3299 38.114 72.3299 38.114L73.704 35.7608Z" fill="#B78876"/>
<path d="M88.8703 15.8021C88.8531 15.8021 88.7501 14.8918 88.647 13.741C88.544 12.6073 88.4924 11.6798 88.5096 11.6798C88.5268 11.6798 88.6298 12.5901 88.7329 13.741C88.836 14.8918 88.9047 15.8021 88.8703 15.8021Z" fill="#263238"/>
<path d="M93.7485 11.7485C93.7657 11.7657 93.0099 12.8478 92.0652 14.1875C91.1205 15.5273 90.3305 16.5922 90.3133 16.575C90.2961 16.5578 91.0518 15.4757 91.9965 14.136C92.9412 12.7962 93.7313 11.7313 93.7485 11.7485Z" fill="#263238"/>
<path d="M95.7756 16.6952C95.7756 16.7124 94.8996 16.9185 93.8175 17.1418C92.7354 17.3651 91.8423 17.5196 91.8423 17.5025C91.8423 17.4853 92.7183 17.2792 93.8004 17.0559C94.8997 16.8326 95.7756 16.6608 95.7756 16.6952Z" fill="#263238"/>
<path d="M37.3592 40.2782L31.2789 71.5046L30.4888 75.5925L71.0418 75.3864C72.8624 75.3692 74.477 73.7546 75.061 71.3672L82.2578 41.8928C82.7044 40.0721 81.7254 38.1827 80.3513 38.1827L39.3173 38.2343C38.3898 38.2171 37.5997 39.0587 37.3592 40.2782Z" fill="#FFCB14"/>
<g opacity="0.5">
<path opacity="0.5" d="M37.3592 40.2782L31.2789 71.5046L30.4888 75.5925L71.0418 75.3864C72.8624 75.3692 74.477 73.7546 75.061 71.3672L82.2578 41.8928C82.7044 40.0721 81.7254 38.1827 80.3513 38.1827L39.3173 38.2343C38.3898 38.2171 37.5997 39.0587 37.3592 40.2782Z" fill="black"/>
</g>
<path d="M67.1598 69.3918L62.8658 34.7989C62.694 33.3733 61.5604 32.3256 60.2207 32.3256L50.8081 32.3599C50.1039 32.3599 49.4512 32.6519 48.9531 33.1844L44.4873 37.9422L18.3107 38.0796C16.7134 38.0796 15.4767 39.6083 15.7 41.3087L19.6848 73.2908C19.8566 74.6992 20.9902 75.7642 22.3128 75.7642L67.9328 75.6783C73.0169 75.7813 73.4979 74.287 73.4979 74.287C67.6751 75.5409 67.1598 69.3918 67.1598 69.3918Z" fill="#FFCB14"/>
<g opacity="0.5">
<path opacity="0.5" d="M47.476 62.4699L45.9302 64.1188L34.0786 53.4696L35.6245 51.8035L47.476 62.4699Z" fill="white"/>
<path opacity="0.5" d="M45.2946 51.4427L46.9951 52.9714L36.2771 64.4967L34.5767 62.968L45.2946 51.4427Z" fill="white"/>
</g>
<path d="M73.6697 17.8289C73.5667 17.7773 73.4808 17.6743 73.4808 17.554L73.4121 15.9567C73.4121 15.8536 73.4464 15.7677 73.5323 15.699C73.6182 15.6303 73.7041 15.6131 73.8071 15.6303C74.0648 15.699 74.3396 15.6303 74.5801 15.4757C74.8033 15.3383 74.9408 15.115 74.9751 14.8917C75.0095 14.6684 74.9408 14.4108 74.7862 14.2047C74.6144 13.9814 74.3568 13.8268 74.1163 13.7925C73.601 13.7409 73.0342 14.136 72.8968 14.6513C72.8453 14.823 72.6735 14.9261 72.5017 14.8746C72.33 14.823 72.2269 14.6513 72.2784 14.4795C72.5017 13.655 73.3605 13.0539 74.185 13.1398C74.6144 13.1913 75.0266 13.4318 75.3015 13.7925C75.5591 14.136 75.6793 14.5654 75.6106 14.9776C75.5419 15.3727 75.3015 15.7505 74.9408 15.991C74.6831 16.1628 74.3739 16.2658 74.0648 16.283L74.1163 17.5197C74.1163 17.6915 73.9789 17.846 73.8071 17.846C73.7556 17.846 73.7041 17.846 73.6697 17.8289Z" fill="#FFCB14"/>
<path d="M74.1336 18.4816C74.1508 18.619 74.0306 18.7564 73.8932 18.7564C73.7557 18.7736 73.6183 18.6533 73.6183 18.5159C73.6012 18.3785 73.7214 18.2411 73.8588 18.2411C73.9962 18.2411 74.1336 18.327 74.1336 18.4816Z" fill="#FFCB14"/>
<path d="M68.1559 15.5789C68.1559 15.5789 68.1559 15.5445 68.1731 15.4758C68.1731 15.4071 68.1903 15.304 68.2075 15.1666C68.2075 15.0292 68.2418 14.8746 68.2934 14.6685C68.3105 14.5655 68.3277 14.4624 68.3621 14.3593C68.3964 14.2563 68.4308 14.1361 68.4651 14.0158C68.6369 13.5349 68.8945 12.9509 69.3239 12.3841C69.7533 11.8173 70.3545 11.2505 71.1274 10.8211C71.5053 10.5978 71.9519 10.4432 72.3985 10.2886C72.8622 10.1855 73.3603 10.0825 73.8584 10.0997C74.1161 10.0825 74.3737 10.1168 74.6314 10.1512C74.7688 10.1684 74.889 10.2027 75.0264 10.2199C75.1638 10.2371 75.2841 10.2714 75.4215 10.3229C75.9539 10.4604 76.4692 10.7008 76.9502 11.0272C77.9292 11.6455 78.7708 12.6589 79.2174 13.8784C79.4407 14.4968 79.5609 15.1666 79.5609 15.8365C79.5781 16.5235 79.4407 17.2106 79.2002 17.8461L79.1144 18.0351L79.0972 18.0694L79.1144 18.0866C79.5438 19.0828 79.9732 20.0447 80.3854 20.9894L80.4541 20.9035C79.5609 20.56 78.7021 20.2336 77.8777 19.9073L77.8433 19.8901L77.8262 19.9073C77.1048 20.5943 76.2631 21.0581 75.4043 21.3157C74.5455 21.5562 73.6695 21.5734 72.8794 21.4359C72.0893 21.2985 71.3679 20.9894 70.7667 20.5943C70.1656 20.1993 69.6846 19.7355 69.3239 19.2374C68.9632 18.7565 68.7228 18.2412 68.5338 17.7946C68.3792 17.3308 68.2762 16.9358 68.2247 16.5923C68.2075 16.4205 68.1903 16.2831 68.1731 16.1457C68.1731 16.0254 68.1731 15.9052 68.1731 15.8193C68.1731 15.7334 68.1731 15.6647 68.1731 15.6132C68.1559 15.596 68.1559 15.5789 68.1559 15.5789C68.1559 15.5789 68.1559 15.596 68.1559 15.6476C68.1559 15.6991 68.1559 15.7678 68.1559 15.8537C68.1559 15.9396 68.1559 16.0598 68.1559 16.18C68.1731 16.3174 68.1903 16.4548 68.2075 16.6266C68.2418 16.9701 68.3449 17.3824 68.4995 17.8461C68.6712 18.2927 68.9117 18.808 69.2896 19.3061C69.6675 19.8042 70.1484 20.2851 70.7496 20.6802C71.3507 21.0752 72.0721 21.4016 72.8794 21.539C73.6867 21.6936 74.5627 21.6764 75.4558 21.4359C76.3318 21.1955 77.2078 20.7145 77.9292 20.0103L77.8777 20.0275C78.7021 20.3538 79.5609 20.6802 80.4541 21.0237L80.5915 21.0752L80.54 20.9378C80.1278 19.9931 79.7155 19.0141 79.2861 18.0351V18.0866L79.372 17.8805C79.6125 17.2106 79.7499 16.5064 79.7327 15.8193C79.7327 15.1323 79.6125 14.4452 79.3892 13.8097C78.9254 12.5558 78.0666 11.5425 77.0704 10.9069C76.5723 10.5978 76.0398 10.3401 75.5074 10.2027C75.37 10.1512 75.2325 10.134 75.1123 10.0997C74.9749 10.0825 74.8375 10.0481 74.7173 10.0309C74.4424 10.0138 74.1848 9.97942 73.9272 9.97942C73.4119 9.96224 72.9138 10.0653 72.4328 10.1855C71.9691 10.3229 71.5225 10.4947 71.1446 10.718C70.3545 11.1646 69.7533 11.7314 69.3239 12.3154C68.8945 12.8994 68.6369 13.4834 68.4823 13.9815C68.4479 14.1017 68.4136 14.2219 68.3792 14.325C68.3449 14.4281 68.3277 14.5483 68.3105 14.6342C68.2762 14.8231 68.2418 14.9949 68.2418 15.1323C68.2247 15.2697 68.2247 15.3727 68.2247 15.4414C68.1388 15.5445 68.1388 15.5789 68.1559 15.5789Z" fill="#263238"/>
</g>
<defs>
<clipPath id="clip0">
<rect width="103.315" height="76.1077" fill="white" transform="translate(0.842773)"/>
</clipPath>
</defs>
</svg>
