<svg width="20" height="20" viewBox="0 0 20 20" fill="none" xmlns="http://www.w3.org/2000/svg">
<path d="M12.9165 0.833313H6.24984C5.09984 0.833313 4.1665 1.76665 4.1665 2.91665V17.0833C4.1665 18.2333 5.09984 19.1666 6.24984 19.1666H12.9165C14.0665 19.1666 14.9998 18.2333 14.9998 17.0833V2.91665C14.9998 1.76665 14.0665 0.833313 12.9165 0.833313ZM9.58317 18.3333C8.8915 18.3333 8.33317 17.775 8.33317 17.0833C8.33317 16.3916 8.8915 15.8333 9.58317 15.8333C10.2748 15.8333 10.8332 16.3916 10.8332 17.0833C10.8332 17.775 10.2748 18.3333 9.58317 18.3333ZM13.3332 15H5.83317V3.33331H13.3332V15Z" fill="white"/>
</svg>
