<svg width="20" height="20" viewBox="0 0 20 20" fill="none" xmlns="http://www.w3.org/2000/svg">
<g opacity="0.6">
<path d="M15.8335 0.833344H7.50016C6.5835 0.833344 5.8335 1.58334 5.8335 2.50001V5.00001H7.50016V3.33334H15.8335V16.6667H7.50016V15H5.8335V17.5C5.8335 18.4167 6.5835 19.1667 7.50016 19.1667H15.8335C16.7502 19.1667 17.5002 18.4167 17.5002 17.5V2.50001C17.5002 1.58334 16.7502 0.833344 15.8335 0.833344ZM9.00016 9.16668V7.91668C9.00016 6.75001 7.8335 5.83334 6.66683 5.83334C5.50016 5.83334 4.3335 6.75001 4.3335 7.91668V9.16668C3.8335 9.16668 3.3335 9.66668 3.3335 10.1667V13.0833C3.3335 13.6667 3.8335 14.1667 4.3335 14.1667H8.91683C9.50016 14.1667 10.0002 13.6667 10.0002 13.1667V10.25C10.0002 9.66668 9.50016 9.16668 9.00016 9.16668ZM7.91683 9.16668H5.41683V7.91668C5.41683 7.25001 6.00016 6.83334 6.66683 6.83334C7.3335 6.83334 7.91683 7.25001 7.91683 7.91668V9.16668Z" fill="black"/>
</g>
</svg>
