<svg width="121" height="89" viewBox="0 0 121 89" fill="none" xmlns="http://www.w3.org/2000/svg">
<path d="M27.1412 24.7377L4.75476 39.7368L26.8062 72.7569L49.1926 57.7578L27.1412 24.7377Z" fill="#F5F5F5"/>
<path d="M37.6263 56.2023L37.3669 57.761L26.2347 56.1624L26.4941 54.5837L37.6263 56.2023Z" fill="#E0E0E0"/>
<path d="M32.0203 50.5674L33.6163 50.8072L31.8408 61.7777L30.2448 61.5579L32.0203 50.5674Z" fill="#E0E0E0"/>
<path d="M21.7661 36.6191C21.7861 36.6391 19.5317 38.1778 16.7586 40.0362C13.9656 41.8946 11.7112 43.3933 11.6913 43.3733C11.6713 43.3533 13.9257 41.8146 16.6988 39.9562C19.4918 38.0978 21.7462 36.5991 21.7661 36.6191Z" fill="#E0E0E0"/>
<path d="M30.0056 34.5612C30.0255 34.5811 26.2948 37.119 21.6664 40.1963C17.0579 43.2936 13.2874 45.7715 13.2674 45.7515C13.2475 45.7315 16.9781 43.1937 21.6066 40.1164C26.235 37.019 29.9856 34.5412 30.0056 34.5612Z" fill="#E0E0E0"/>
<path d="M31.6614 37.0388C31.6814 37.0588 27.9507 39.5966 23.3223 42.6739C18.7138 45.7713 14.9432 48.2491 14.9233 48.2292C14.9033 48.2092 18.634 45.6714 23.2624 42.594C27.8709 39.4967 31.6415 36.9988 31.6614 37.0388Z" fill="#E0E0E0"/>
<path d="M33.2973 39.4967C33.3173 39.5167 29.5866 42.0545 24.9582 45.1318C20.3497 48.2292 16.5791 50.707 16.5592 50.6871C16.5392 50.6671 20.2699 48.1293 24.8983 45.0519C29.5267 41.9746 33.2774 39.4767 33.2973 39.4967Z" fill="#E0E0E0"/>
<path d="M34.9532 41.9747C34.9731 41.9947 31.2425 44.5325 26.614 47.6099C22.0056 50.7072 18.235 53.1851 18.215 53.1651C18.1951 53.1451 21.9258 50.6073 26.5542 47.5299C31.1826 44.4326 34.9332 41.9547 34.9532 41.9747Z" fill="#E0E0E0"/>
<path d="M101.99 46.8627L83.1852 59.4619L101.698 87.1835L120.503 74.5843L101.99 46.8627Z" fill="#F5F5F5"/>
<path d="M110.804 73.2878L110.585 74.6067L101.248 73.2478L101.448 71.929L110.804 73.2878Z" fill="#E0E0E0"/>
<path d="M106.096 68.5718L107.433 68.7516L105.936 77.9837L104.6 77.7838L106.096 68.5718Z" fill="#E0E0E0"/>
<path d="M97.4775 56.842C97.4974 56.862 95.6022 58.1609 93.268 59.7195C90.9339 61.2782 89.0186 62.5371 88.9987 62.5171C88.9787 62.4972 90.874 61.1983 93.2082 59.6396C95.5623 58.081 97.4575 56.822 97.4775 56.842Z" fill="#E0E0E0"/>
<path d="M104.4 55.1034C104.42 55.1234 101.288 57.2616 97.4175 59.8593C93.5472 62.4571 90.3751 64.5353 90.3751 64.5153C90.3551 64.4953 93.4873 62.3572 97.3776 59.7594C101.228 57.1816 104.38 55.0834 104.4 55.1034Z" fill="#E0E0E0"/>
<path d="M105.777 57.1818C105.797 57.2018 102.664 59.3399 98.7941 61.9377C94.9238 64.5354 91.7517 66.6137 91.7517 66.5937C91.7317 66.5737 94.8639 64.4355 98.7542 61.8378C102.605 59.26 105.757 57.1618 105.777 57.1818Z" fill="#E0E0E0"/>
<path d="M107.173 59.2599C107.193 59.2799 104.061 61.418 100.191 64.0158C96.3202 66.6136 93.1482 68.6918 93.1482 68.6718C93.1282 68.6518 96.2604 66.5137 100.151 63.9159C104.001 61.3181 107.153 59.2399 107.173 59.2599Z" fill="#E0E0E0"/>
<path d="M108.55 61.3383C108.57 61.3583 105.437 63.4964 101.567 66.0942C97.6968 68.6919 94.5248 70.7701 94.5248 70.7502C94.5048 70.7302 97.637 68.592 101.527 65.9943C105.378 63.3965 108.53 61.3183 108.55 61.3383Z" fill="#E0E0E0"/>
<path d="M72.2503 25.9715L51.7445 14.9712L35.608 45.2356L56.1138 56.236L72.2503 25.9715Z" fill="#F5F5F5"/>
<path d="M52.5893 46.751L51.2926 47.1906L47.9808 38.0385L49.2776 37.5989L52.5893 46.751Z" fill="#E0E0E0"/>
<path d="M54.5843 40.1768L55.0631 41.4956L45.9858 44.6129L45.507 43.2941L54.5843 40.1768Z" fill="#E0E0E0"/>
<path d="M61.0283 26.6882C61.0084 26.7282 58.9335 25.6291 56.3799 24.2703C53.8263 22.9115 51.7715 21.7725 51.7914 21.7325C51.8114 21.6925 53.8862 22.7916 56.4398 24.1504C58.9934 25.5292 61.0483 26.6483 61.0283 26.6882Z" fill="#E0E0E0"/>
<path d="M65.9559 32.1235C65.9359 32.1634 62.5045 30.345 58.2751 28.067C54.0456 25.8089 50.6342 23.9305 50.6342 23.9106C50.6541 23.8706 54.0855 25.689 58.3149 27.9671C62.5444 30.2451 65.9559 32.1035 65.9559 32.1235Z" fill="#E0E0E0"/>
<path d="M64.7389 34.4016C64.719 34.4415 61.2876 32.6231 57.0581 30.3451C52.8287 28.087 49.4172 26.2086 49.4172 26.1886C49.4372 26.1487 52.8686 27.9671 57.098 30.2451C61.3474 32.5032 64.7589 34.3616 64.7389 34.4016Z" fill="#E0E0E0"/>
<path d="M63.5219 36.6596C63.5019 36.6996 60.0705 34.8811 55.8411 32.6031C51.6117 30.3451 48.2002 28.4667 48.2002 28.4467C48.2201 28.4067 51.6516 30.2252 55.881 32.5032C60.1304 34.7613 63.5418 36.6196 63.5219 36.6596Z" fill="#E0E0E0"/>
<path d="M62.3249 38.9177C62.3049 38.9576 58.8735 37.1392 54.6441 34.8612C50.4146 32.6031 47.0032 30.7247 47.0032 30.7047C47.0231 30.6648 50.4545 32.4832 54.684 34.7612C58.9134 37.0393 62.3448 38.8977 62.3249 38.9177Z" fill="#E0E0E0"/>
<path opacity="0.2" d="M62.4248 0.310547H61.9061V9.10297H62.4248V0.310547Z" fill="black"/>
<path d="M50.1558 19.7339H74.1957C74.1957 19.7339 71.9812 9.10303 62.0061 9.10303C53.1084 9.10303 50.1558 19.7339 50.1558 19.7339Z" fill="#CACACA"/>
<path d="M62.425 0.310547H61.9062V9.10297H62.425V0.310547Z" fill="#CACACA"/>
<path d="M115.672 88.195C115.672 88.2151 89.8762 88.2551 58.0757 88.2551C26.2752 88.2551 0.499634 88.2351 0.499634 88.195C0.499634 88.175 26.2752 88.135 58.0956 88.135C89.8961 88.155 115.672 88.175 115.672 88.195Z" fill="#263238"/>
<path d="M6.88397 75.6858C7.56227 75.7058 8.20068 76.0854 8.63958 76.585C9.07848 77.0846 9.35779 77.724 9.53734 78.3835C9.87649 79.6424 9.67699 81.1411 9.29793 82.4C7.94133 81.9204 7.08347 80.4617 6.70442 79.6823C6.10592 78.4634 5.74681 75.9056 6.88397 75.6858Z" fill="#DADADA"/>
<path d="M11.2531 83.9385C10.8142 83.3191 10.8142 82.4598 11.1534 81.7804C11.4925 81.101 12.1509 80.6214 12.8691 80.4016C13.2082 80.3017 13.5873 80.2617 13.8865 80.4415C14.1658 80.6214 14.2656 80.9811 14.2456 81.3008C14.2057 81.6205 14.0461 81.9203 13.8466 82.18C13.1683 83.0793 12.3703 83.8386 11.2531 83.9385Z" fill="#DADADA"/>
<path d="M11.4127 88.1551C11.4127 88.1551 11.3927 88.0552 11.3528 87.8953C11.3129 87.7155 11.273 87.4757 11.2132 87.176C11.1134 86.5765 10.9339 85.7172 11.0735 84.7581C11.1932 83.8189 11.5723 82.9996 11.9713 82.52C12.1708 82.2802 12.3504 82.1003 12.49 82.0004C12.5499 81.9405 12.6097 81.9005 12.6496 81.8805C12.6895 81.8606 12.7095 81.8406 12.7095 81.8406C12.7294 81.8606 12.3903 82.0604 12.0112 82.56C11.6322 83.0395 11.273 83.8389 11.1533 84.778C11.0336 85.7172 11.1932 86.5565 11.273 87.176C11.3129 87.4757 11.3528 87.7355 11.3927 87.8953C11.4127 88.0552 11.4127 88.1551 11.4127 88.1551Z" fill="#263238"/>
<path d="M7.32277 77.604C7.32277 77.604 7.34272 77.644 7.38262 77.7039C7.42252 77.7838 7.46242 77.8838 7.52227 78.0037C7.64197 78.2634 7.82152 78.6631 8.02102 79.1427C8.43997 80.1019 8.97863 81.4207 9.55718 82.9194C10.1357 84.3982 10.6145 85.757 10.9537 86.7361C11.1332 87.2357 11.2529 87.6354 11.3527 87.9151C11.3926 88.055 11.4325 88.1549 11.4524 88.2348C11.4724 88.3148 11.4923 88.3547 11.4724 88.3547C11.4724 88.3547 11.4524 88.3148 11.4325 88.2548C11.3926 88.1749 11.3726 88.075 11.3128 87.9351C11.213 87.6553 11.0734 87.2557 10.8938 86.7761C10.5347 85.797 10.036 84.4581 9.45743 82.9594C8.87888 81.4807 8.34022 80.1418 7.94122 79.1826C7.74172 78.7031 7.58212 78.3234 7.48237 78.0436C7.42252 77.9237 7.38262 77.8038 7.36267 77.7239C7.32277 77.644 7.30282 77.604 7.32277 77.604Z" fill="#263238"/>
<path d="M9.77665 85.3573C8.97865 83.9785 7.46244 83.0393 5.88638 82.9394C5.48737 82.9195 4.98862 82.9794 4.80907 83.3391C4.62952 83.6988 4.86892 84.1384 5.14822 84.4381C6.28538 85.6771 8.22054 86.1167 9.7966 85.4772" fill="#DADADA"/>
<path d="M6.505 84.0188C6.505 84.0188 6.60476 84.0188 6.76436 84.0188C6.84416 84.0188 6.94391 84.0388 7.06361 84.0588C7.18331 84.0787 7.30301 84.0987 7.44266 84.1387C7.58231 84.1787 7.74191 84.1986 7.90151 84.2586C8.06111 84.2986 8.24067 84.3785 8.42022 84.4584C8.77932 84.6183 9.13842 84.8181 9.49752 85.0979C9.85662 85.3776 10.1559 85.6774 10.3953 85.9771C10.515 86.137 10.6147 86.2769 10.7145 86.4367C10.8142 86.5766 10.8741 86.7165 10.9539 86.8564C11.0337 86.9762 11.0736 87.1161 11.1135 87.216C11.1534 87.316 11.1933 87.4159 11.2132 87.4958C11.2531 87.6557 11.293 87.7356 11.2731 87.7356C11.2531 87.7356 11.1534 87.3959 10.894 86.8763C10.8142 86.7564 10.7544 86.6166 10.6546 86.4767C10.5748 86.3368 10.4551 86.1969 10.3354 86.0371C10.096 85.7373 9.79677 85.4376 9.45762 85.1778C9.09852 84.918 8.73942 84.6982 8.40027 84.5384C8.22071 84.4584 8.06111 84.3985 7.90151 84.3385C7.74191 84.2786 7.58231 84.2386 7.44266 84.1986C6.86411 84.0588 6.505 84.0388 6.505 84.0188Z" fill="#263238"/>
<path d="M97.0581 21.3924C96.4796 21.5322 96.1803 22.2117 96.1205 22.8111C96.0606 23.4106 96.1404 24.0501 95.8811 24.5896C95.6018 25.2091 94.9235 25.6687 94.9035 26.3481C94.8836 26.7677 95.1429 27.1474 95.123 27.567C95.103 28.2465 94.4048 28.766 94.3848 29.4454C94.3649 29.925 94.6841 30.4046 94.6043 30.8842C94.5444 31.2639 94.2452 31.5636 94.1255 31.9233C93.8861 32.6427 94.3649 33.422 95.0033 33.8416C95.7215 34.3012 96.6392 34.4012 97.4372 34.1414C98.2352 33.8816 98.9135 33.2621 99.2327 32.4828C99.5918 31.6235 99.512 30.6444 99.4322 29.7252C99.1928 26.8277 99.0133 23.9302 98.8936 21.0127" fill="#263238"/>
<path d="M95.3624 31.6245C95.3424 31.6045 95.522 31.5645 95.6217 31.3048C95.6816 31.1849 95.7015 31.005 95.6816 30.8252C95.6816 30.6253 95.6018 30.4255 95.5419 30.1857C95.4821 29.9459 95.3823 29.6662 95.4422 29.3664C95.502 29.0467 95.7215 28.8069 95.921 28.5471C96.0207 28.4272 96.1205 28.2874 96.2003 28.1275C96.2601 27.9876 96.2801 27.8078 96.2402 27.6479C96.1404 27.3282 95.8212 27.0884 95.6616 26.7087C95.5818 26.5289 95.5818 26.3091 95.6217 26.1292C95.6616 25.9494 95.7414 25.7695 95.8212 25.6097C95.9808 25.2899 96.1404 24.9902 96.2202 24.6705C96.3599 24.031 96.3 23.4315 96.3998 22.932C96.4796 22.4324 96.699 22.0527 96.8985 21.8729C96.9983 21.773 97.098 21.713 97.1579 21.693C97.2177 21.6731 97.2576 21.6531 97.2576 21.6531C97.2576 21.6731 97.118 21.713 96.9185 21.9129C96.719 22.1127 96.5394 22.4724 96.4596 22.952C96.4197 23.1917 96.4197 23.4715 96.3998 23.7513C96.3798 24.051 96.3798 24.3707 96.3 24.6905C96.2402 25.0302 96.0606 25.3299 95.901 25.6496C95.7414 25.9694 95.6217 26.329 95.7414 26.6688C95.8611 27.0085 96.1803 27.2483 96.32 27.6279C96.3798 27.8078 96.3599 28.0076 96.2801 28.1675C96.2003 28.3273 96.1005 28.4672 96.0008 28.6071C95.8013 28.8669 95.5818 29.1067 95.5419 29.3864C95.4821 29.6662 95.5619 29.9259 95.6417 30.1657C95.7015 30.4055 95.7813 30.6253 95.7813 30.8252C95.7813 31.025 95.7614 31.2048 95.7015 31.3247C95.6417 31.4646 95.5619 31.5445 95.502 31.5845C95.4023 31.6045 95.3624 31.6245 95.3624 31.6245Z" fill="#455A64"/>
<path d="M93.7863 36.3599L91.9908 41.5554L84.4895 41.955L83.2327 44.7526L91.0731 45.5519C92.6292 46.1914 94.4247 45.4121 95.0032 43.8134L97.098 37.9585L93.7863 36.3599Z" fill="#B78876"/>
<path d="M109.327 85.3776C109.327 85.3776 103.821 67.8726 103.701 67.2931C103.602 66.7736 105.696 54.1844 105.956 50.9272L98.5144 51.207C98.5144 51.207 98.5144 51.227 98.5144 51.267L95.3623 51.4468L98.1952 87.236H101.627L101.287 75.3462C103.402 81.0213 106.415 86.7963 106.415 86.7963L109.327 85.3776Z" fill="#B78876"/>
<path d="M101.427 79.6225C101.427 79.5226 101.387 75.6459 101.387 75.6459C101.347 75.8857 100.071 72.2888 100.11 72.069C100.11 71.9491 101.427 79.6225 101.427 79.6225Z" fill="#A36957"/>
<path d="M99.951 70.3503C99.951 70.3503 99.931 70.4303 99.931 70.5702C99.931 70.71 99.931 70.9099 99.931 71.1696C99.931 71.2895 99.951 71.4294 99.9709 71.5693C99.9909 71.7092 100.011 71.869 100.051 72.0289C100.111 72.3486 100.21 72.7083 100.33 73.068C100.569 73.7874 100.849 74.4268 101.048 74.8864C101.148 75.0863 101.228 75.2861 101.288 75.426C101.347 75.5459 101.387 75.6258 101.387 75.6258C101.387 75.6258 101.367 75.5459 101.328 75.426C101.288 75.2861 101.208 75.1063 101.128 74.8665C100.948 74.4069 100.689 73.7674 100.45 73.048C100.33 72.6883 100.23 72.3486 100.17 72.0289C100.131 71.869 100.111 71.7092 100.091 71.5693C100.071 71.4294 100.051 71.2895 100.051 71.1696C100.031 70.9298 100.011 70.73 100.011 70.5901C99.9709 70.4303 99.9709 70.3503 99.951 70.3503Z" fill="#A36957"/>
<path d="M98.1353 87.4156V87.0959L101.646 86.936V88.2549L101.427 88.2749C100.469 88.3348 96.5392 88.4947 95.8809 88.2949C95.1826 88.095 98.1353 87.4156 98.1353 87.4156Z" fill="#455A64"/>
<path d="M101.706 88.1951C101.706 88.1951 101.686 88.1951 101.646 88.1951C101.587 88.1951 101.547 88.1951 101.467 88.2151C101.287 88.2151 101.088 88.2351 100.828 88.2351C100.29 88.2551 99.5516 88.2751 98.7337 88.2751C97.9157 88.2751 97.1776 88.2751 96.6389 88.2551C96.3796 88.2551 96.1801 88.2351 96.0005 88.2351C95.9407 88.2351 95.8808 88.2351 95.821 88.2351C95.7811 88.2351 95.7611 88.2351 95.7611 88.2351C95.7611 88.2351 95.7811 88.2351 95.821 88.2351C95.8808 88.2351 95.9207 88.2351 96.0005 88.2351C96.1801 88.2351 96.3796 88.2351 96.6389 88.2551C97.1776 88.2551 97.9157 88.2751 98.7337 88.2751C99.5516 88.2751 100.29 88.2551 100.828 88.2351C101.088 88.2351 101.287 88.2151 101.467 88.2151C101.527 88.2151 101.587 88.2151 101.646 88.2151C101.666 88.1951 101.706 88.1951 101.706 88.1951Z" fill="#263238"/>
<path d="M96.9991 88.297C96.9791 88.297 96.9791 88.1369 96.8791 87.9968C96.779 87.8367 96.6589 87.7567 96.6589 87.7567C96.6589 87.7367 96.819 87.8167 96.9191 87.9768C97.0191 88.1369 97.0191 88.317 96.9991 88.297Z" fill="#263238"/>
<path d="M98.036 87.7765C98.036 87.7765 97.976 87.7164 97.916 87.6364C97.8559 87.5564 97.8359 87.4763 97.8359 87.4763C97.8359 87.4763 97.896 87.5363 97.956 87.6164C97.996 87.6964 98.036 87.7765 98.036 87.7765Z" fill="#263238"/>
<path d="M98.3156 87.6366C98.3156 87.6366 98.2555 87.6166 98.1955 87.5566C98.1355 87.4966 98.0955 87.4565 98.0955 87.4365C98.0955 87.4365 98.1555 87.4565 98.2155 87.5166C98.2756 87.5766 98.3156 87.6166 98.3156 87.6366Z" fill="#263238"/>
<path d="M98.4953 87.2964C98.4953 87.3164 98.4153 87.3164 98.3152 87.3164C98.2152 87.3164 98.1351 87.3164 98.1351 87.2964C98.1351 87.2764 98.2152 87.2764 98.3152 87.2764C98.3953 87.2764 98.4953 87.2764 98.4953 87.2964Z" fill="#263238"/>
<path d="M98.5541 87.0562C98.5541 87.0762 98.4743 87.1162 98.3546 87.1162C98.2349 87.1162 98.1351 87.0962 98.1351 87.0962C98.1351 87.0762 98.2349 87.0962 98.3346 87.0762C98.4543 87.0762 98.5341 87.0562 98.5541 87.0562Z" fill="#263238"/>
<path d="M97.9155 87.4764C97.9155 87.4764 97.8358 87.4964 97.6961 87.4764C97.6363 87.4764 97.5365 87.4564 97.4567 87.4163C97.4168 87.3963 97.3769 87.3963 97.317 87.3563C97.2971 87.3363 97.2772 87.3163 97.2572 87.2963C97.2572 87.2563 97.2572 87.2162 97.2971 87.2162C97.5166 87.0962 97.7161 87.2162 97.7959 87.3363C97.8358 87.3963 97.8557 87.4564 97.8757 87.4764C97.8757 87.5164 97.8757 87.5364 97.8757 87.5364C97.8757 87.5364 97.8557 87.4564 97.7759 87.3363C97.736 87.2763 97.6762 87.2362 97.5764 87.2162C97.4966 87.1962 97.3769 87.1962 97.317 87.2362C97.2771 87.2563 97.2971 87.2963 97.337 87.3363C97.3769 87.3563 97.4168 87.3763 97.4567 87.3963C97.5365 87.4163 97.6163 87.4364 97.6961 87.4564C97.8158 87.4764 97.9155 87.4564 97.9155 87.4764Z" fill="#263238"/>
<path d="M97.8559 87.4766C97.8559 87.4766 97.8159 87.4166 97.8359 87.3165C97.8359 87.2765 97.8559 87.2165 97.896 87.1564C97.936 87.1164 97.996 87.0364 98.0761 87.0364C98.1361 87.0364 98.1561 87.0964 98.1361 87.1364C98.1361 87.1765 98.1161 87.2165 98.0961 87.2365C98.0561 87.2965 98.016 87.3365 97.996 87.3766C97.916 87.4566 97.8759 87.4766 97.8559 87.4766C97.8759 87.4766 97.916 87.4366 97.976 87.3566C98.016 87.3165 98.036 87.2765 98.0761 87.2165C98.1161 87.1765 98.1361 87.0764 98.0761 87.0764C98.016 87.0764 97.956 87.1364 97.936 87.1765C97.896 87.2165 97.8759 87.2765 97.8759 87.3165C97.8359 87.4166 97.8559 87.4766 97.8559 87.4766Z" fill="#263238"/>
<path d="M101.626 87.2363C101.626 87.2363 101.527 87.2363 101.367 87.2563C101.207 87.2763 100.988 87.3362 100.808 87.4961C100.629 87.6559 100.509 87.8558 100.449 87.9956C100.39 88.1555 100.39 88.2554 100.39 88.2354C100.39 88.2354 100.39 88.2155 100.39 88.1555C100.39 88.1155 100.409 88.0356 100.429 87.9757C100.469 87.8158 100.589 87.616 100.789 87.4561C100.988 87.2962 101.207 87.2363 101.367 87.2163C101.447 87.2163 101.507 87.2163 101.567 87.2163C101.606 87.2163 101.626 87.2363 101.626 87.2363Z" fill="#263238"/>
<path d="M99.9505 87.9151C99.9505 87.9352 99.731 87.9552 99.4318 87.9552C99.1525 87.9552 98.9131 87.9151 98.9131 87.9151C98.9131 87.8951 99.1325 87.9151 99.4318 87.9151C99.7111 87.9151 99.9505 87.8951 99.9505 87.9151Z" fill="#263238"/>
<path d="M100.629 87.8953C100.629 87.8953 100.609 87.9353 100.589 87.9953C100.569 88.0554 100.549 88.0954 100.549 88.0954C100.529 88.0954 100.529 88.0353 100.549 87.9753C100.569 87.9353 100.609 87.8953 100.629 87.8953Z" fill="#263238"/>
<path d="M100.889 87.5764C100.889 87.5764 100.869 87.6164 100.829 87.6565C100.789 87.6965 100.749 87.7165 100.749 87.7165C100.749 87.7165 100.769 87.6765 100.809 87.6364C100.849 87.5964 100.869 87.5764 100.889 87.5764Z" fill="#263238"/>
<path d="M101.248 87.4363C101.248 87.4563 101.208 87.4563 101.148 87.4563C101.088 87.4763 101.068 87.4963 101.048 87.4963C101.048 87.4963 101.068 87.4363 101.128 87.4162C101.208 87.3962 101.248 87.4162 101.248 87.4363Z" fill="#263238"/>
<path d="M101.507 87.3562C101.507 87.3762 101.487 87.3762 101.467 87.3962C101.447 87.4162 101.407 87.4162 101.407 87.3962C101.407 87.3762 101.427 87.3762 101.447 87.3562C101.487 87.3562 101.507 87.3562 101.507 87.3562Z" fill="#263238"/>
<path d="M106.356 87.1159L106.216 86.8162L109.348 85.2375L109.907 86.4365L109.707 86.5364C108.85 86.976 105.338 88.7545 104.66 88.8344C103.922 88.9344 106.356 87.1159 106.356 87.1159Z" fill="#455A64"/>
<path d="M109.906 86.3564C109.906 86.3564 109.886 86.3764 109.846 86.3964C109.806 86.4164 109.747 86.4564 109.687 86.4763C109.527 86.5563 109.348 86.6562 109.128 86.7561C108.649 86.9959 107.991 87.3156 107.233 87.6553C106.495 87.995 105.816 88.2948 105.318 88.4946C105.078 88.5945 104.899 88.6744 104.739 88.7344C104.679 88.7544 104.619 88.7744 104.58 88.7943C104.54 88.8143 104.52 88.8143 104.52 88.8143C104.52 88.8143 104.54 88.7943 104.58 88.7943C104.619 88.7744 104.679 88.7544 104.739 88.7344C104.899 88.6744 105.098 88.5745 105.318 88.4746C105.816 88.2548 106.495 87.975 107.233 87.6353C107.971 87.2956 108.649 86.9759 109.128 86.7561C109.348 86.6562 109.547 86.5563 109.707 86.4763C109.767 86.4564 109.806 86.4164 109.866 86.3964C109.886 86.3564 109.906 86.3564 109.906 86.3564Z" fill="#263238"/>
<path d="M105.677 88.3755C105.657 88.3755 105.597 88.2554 105.437 88.1554C105.298 88.0553 105.138 88.0353 105.138 88.0153C105.138 87.9953 105.298 87.9953 105.457 88.1153C105.617 88.2354 105.677 88.3755 105.677 88.3755Z" fill="#263238"/>
<path d="M106.396 87.4757C106.396 87.4757 106.316 87.4557 106.236 87.3957C106.156 87.3357 106.096 87.2956 106.096 87.2756C106.096 87.2756 106.176 87.2956 106.256 87.3557C106.336 87.4157 106.396 87.4757 106.396 87.4757Z" fill="#263238"/>
<path d="M106.595 87.2358C106.595 87.2558 106.535 87.2358 106.455 87.2158C106.375 87.1958 106.315 87.1557 106.315 87.1557C106.315 87.1357 106.375 87.1558 106.455 87.1758C106.535 87.1958 106.595 87.2158 106.595 87.2358Z" fill="#263238"/>
<path d="M106.616 86.8562C106.616 86.8762 106.556 86.9162 106.455 86.9562C106.355 86.9962 106.295 87.0162 106.275 87.0162C106.275 86.9962 106.335 86.9562 106.435 86.9162C106.536 86.8762 106.616 86.8361 106.616 86.8562Z" fill="#263238"/>
<path d="M106.576 86.6165C106.576 86.6165 106.516 86.6965 106.416 86.7565C106.316 86.8166 106.216 86.8366 106.216 86.8166C106.216 86.7966 106.296 86.7765 106.396 86.7165C106.496 86.6565 106.576 86.6165 106.576 86.6165Z" fill="#263238"/>
<path d="M106.156 87.2559C106.156 87.2559 106.076 87.2959 105.956 87.3559C105.896 87.3759 105.817 87.3959 105.717 87.416C105.677 87.416 105.617 87.436 105.577 87.416C105.557 87.416 105.517 87.3959 105.497 87.3759C105.477 87.3559 105.477 87.3159 105.497 87.2759C105.637 87.0758 105.896 87.1158 106.016 87.1758C106.076 87.2158 106.116 87.2559 106.136 87.2759C106.156 87.3159 106.176 87.3359 106.176 87.3359C106.176 87.3359 106.116 87.2559 105.996 87.1958C105.936 87.1758 105.856 87.1558 105.777 87.1558C105.697 87.1758 105.597 87.2158 105.537 87.2759C105.517 87.3159 105.537 87.3559 105.597 87.3559C105.637 87.3559 105.697 87.3559 105.737 87.3559C105.817 87.3559 105.896 87.3359 105.976 87.3159C106.076 87.2759 106.156 87.2359 106.156 87.2559Z" fill="#263238"/>
<path d="M106.116 87.2763C106.116 87.2763 106.056 87.2363 106.036 87.1363C106.016 87.0962 106.016 87.0362 106.016 86.9562C106.036 86.8961 106.056 86.8161 106.136 86.7761C106.196 86.756 106.296 86.8561 106.316 86.8961C106.336 86.9361 106.256 86.9161 106.256 86.9361C106.256 86.9962 106.236 87.0562 106.216 87.0962C106.176 87.2363 106.136 87.2763 106.116 87.2763C106.116 87.2563 106.156 87.2163 106.176 87.1162C106.196 87.0762 106.196 87.0162 106.196 86.9562C106.196 86.8961 106.196 86.8161 106.136 86.8361C106.076 86.8561 106.056 86.9361 106.036 86.9762C106.016 87.0362 106.036 87.0962 106.036 87.1363C106.076 87.2363 106.116 87.2763 106.116 87.2763Z" fill="#263238"/>
<path d="M109.447 85.5176C109.447 85.5176 109.348 85.5575 109.208 85.6375C109.068 85.7174 108.909 85.8573 108.789 86.0771C108.689 86.2969 108.669 86.5167 108.669 86.6766C108.689 86.8364 108.729 86.9364 108.709 86.9364C108.709 86.9364 108.689 86.9164 108.689 86.8764C108.669 86.8364 108.649 86.7765 108.649 86.6966C108.629 86.5367 108.649 86.2969 108.749 86.0771C108.869 85.8573 109.048 85.6974 109.188 85.6175C109.268 85.5775 109.328 85.5575 109.367 85.5376C109.427 85.5176 109.447 85.5176 109.447 85.5176Z" fill="#263238"/>
<path d="M108.19 86.8164C108.19 86.8164 108.011 86.9565 107.751 87.0765C107.492 87.1966 107.273 87.2566 107.273 87.2566C107.273 87.2366 107.492 87.1566 107.732 87.0565C107.991 86.9165 108.19 86.7964 108.19 86.8164Z" fill="#263238"/>
<path d="M108.829 86.5364C108.849 86.5364 108.829 86.5964 108.829 86.6365C108.829 86.6965 108.829 86.7365 108.829 86.7365C108.809 86.7365 108.789 86.6965 108.789 86.6365C108.789 86.5764 108.809 86.5164 108.829 86.5364Z" fill="#263238"/>
<path d="M108.929 86.1366C108.949 86.1366 108.929 86.1766 108.909 86.2366C108.889 86.2766 108.869 86.3167 108.849 86.3167C108.829 86.3167 108.849 86.2766 108.869 86.2166C108.889 86.1566 108.909 86.1165 108.929 86.1366Z" fill="#263238"/>
<path d="M109.188 85.8379C109.188 85.8579 109.148 85.8779 109.108 85.8979C109.068 85.9379 109.048 85.978 109.028 85.978C109.008 85.978 109.028 85.9179 109.068 85.8779C109.148 85.8379 109.188 85.8379 109.188 85.8379Z" fill="#263238"/>
<path d="M109.408 85.6777C109.408 85.6777 109.408 85.7177 109.388 85.7378C109.368 85.7578 109.348 85.7778 109.328 85.7578C109.328 85.7578 109.328 85.7177 109.348 85.6977C109.368 85.6777 109.408 85.6577 109.408 85.6777Z" fill="#263238"/>
<path d="M105.478 44.9923L104.9 37.8585L107.892 37.9184C107.892 37.9184 108.032 36.8593 107.593 34.5613C107.314 33.1425 106.376 32.2833 105.319 31.7637V31.7438L105.219 31.7238C103.882 31.1043 102.466 31.0044 102.466 31.0044L98.795 31.0444C98.795 31.0444 95.982 30.6847 94.4259 32.7029C93.8274 33.4823 91.972 38.7777 91.972 38.7777L96.381 40.9159L95.9621 37.9784C95.9621 37.9784 96.0419 40.0966 96.3212 40.776C96.4808 41.1556 96.8997 42.3146 96.8997 42.3146L96.8399 45.8316L105.478 44.9923Z" fill="#455A64"/>
<path d="M103.462 36.8394L102.903 39.1574H108.051L107.711 35.2607L103.462 36.8394Z" fill="#455A64"/>
<path d="M108.051 39.1577C108.051 39.1377 107.792 39.1177 107.373 39.0976C106.954 39.0776 106.375 39.0576 105.717 39.0576C105.078 39.0576 104.48 39.0976 104.061 39.1177C103.642 39.1577 103.383 39.1777 103.383 39.1977C103.383 39.2177 103.642 39.1977 104.061 39.1977C104.48 39.1777 105.058 39.1777 105.717 39.1577C106.355 39.1577 106.934 39.1577 107.373 39.1577C107.792 39.1777 108.051 39.1777 108.051 39.1577Z" fill="#263238"/>
<path d="M103.223 35.2407C103.203 35.2407 103.203 35.4605 103.203 35.8402C103.203 36.1999 103.223 36.7194 103.243 37.259C103.263 37.8185 103.283 38.3181 103.323 38.6778C103.343 39.0374 103.363 39.2772 103.383 39.2772C103.403 39.2772 103.403 39.0574 103.403 38.6778C103.403 38.3181 103.383 37.7985 103.363 37.259C103.343 36.6995 103.323 36.1999 103.283 35.8402C103.263 35.4605 103.243 35.2407 103.223 35.2407Z" fill="#263238"/>
<g opacity="0.3">
<path opacity="0.3" d="M98.5344 37.2593C98.5344 37.2593 99.6716 45.7719 102.904 45.5322C102.904 45.5322 104.36 45.5122 104.819 44.553V44.1733L98.5344 37.2593Z" fill="black"/>
</g>
<g opacity="0.3">
<path opacity="0.3" d="M103.223 35.7402L102.624 39.8967L103.023 40.636L103.662 39.1973H103.382L103.223 35.7402Z" fill="black"/>
</g>
<path d="M96.9385 42.3145C96.9385 42.3145 96.8986 42.2546 96.8587 42.1147C96.7989 41.9748 96.739 41.795 96.6592 41.5552C96.4996 41.0756 96.3201 40.4162 96.1605 39.6768C96.0208 38.9375 95.941 38.2381 95.9211 37.7385C95.9011 37.4987 95.9011 37.2789 95.9011 37.139C95.9011 36.9991 95.9011 36.9192 95.9211 36.9192C95.941 36.9192 95.941 37.2189 96.0009 37.7185C96.0408 38.2181 96.1206 38.8975 96.2802 39.6368C96.4198 40.3762 96.5994 41.0356 96.739 41.5152C96.7989 41.735 96.8587 41.9349 96.8986 42.0747C96.9186 42.2346 96.9385 42.2946 96.9385 42.3145Z" fill="#263238"/>
<path d="M98.2362 44.7526C98.2162 44.7526 98.1362 44.5727 98.0561 44.3329C97.9761 44.0931 97.9561 43.8933 97.9761 43.8933C97.9961 43.8933 98.0761 44.0732 98.1562 44.3129C98.2162 44.5527 98.2562 44.7526 98.2362 44.7526Z" fill="#263238"/>
<path d="M98.6746 44.7126C98.6546 44.7126 98.5546 44.4528 98.5546 44.0931C98.5546 43.7334 98.6346 43.4537 98.6546 43.4737C98.6746 43.4737 98.6546 43.7534 98.6546 44.0931C98.6746 44.4328 98.7147 44.7126 98.6746 44.7126Z" fill="#263238"/>
<path d="M96.4997 40.9959C96.4797 41.0159 95.4623 40.5363 94.2054 39.8969C92.9486 39.2774 91.951 38.7379 91.951 38.7179C91.971 38.6979 92.9885 39.1775 94.2453 39.8169C95.5022 40.4364 96.4997 40.9759 96.4997 40.9959Z" fill="#263238"/>
<path d="M98.3151 31.7438C98.3351 30.7247 98.3351 29.6656 98.3351 29.6656C98.3351 29.6656 97.0383 29.4058 96.8189 27.7073C96.5994 26.0887 97.1979 22.2719 97.1979 22.2719C99.0932 21.5526 101.048 22.212 102.345 23.7307L102.026 31.9436C101.986 32.9028 101.148 33.6222 100.131 33.5822C99.0932 33.5222 98.2952 32.703 98.3151 31.7438Z" fill="#B78876"/>
<path d="M97.0994 25.31C97.0994 25.43 97.1792 25.5301 97.2989 25.5301C97.4186 25.5301 97.5183 25.4501 97.5183 25.33C97.5183 25.2099 97.4385 25.1099 97.3188 25.1099C97.2191 25.1099 97.1193 25.1899 97.0994 25.31Z" fill="#263238"/>
<path d="M97.0193 25.0299C97.0392 25.0499 97.2188 24.9499 97.4382 24.9499C97.6776 24.9499 97.8372 25.07 97.8572 25.0499C97.8771 25.0299 97.8372 24.9899 97.7774 24.9299C97.6976 24.8698 97.5779 24.8098 97.4382 24.8098C97.2986 24.8098 97.1589 24.8498 97.0991 24.9099C97.0392 24.9499 97.0193 25.0099 97.0193 25.0299Z" fill="#263238"/>
<path d="M99.4725 25.4499C99.4725 25.5699 99.5523 25.67 99.672 25.67C99.7917 25.67 99.8915 25.5899 99.8915 25.4699C99.8915 25.3498 99.8117 25.2498 99.692 25.2498C99.5922 25.2498 99.4925 25.3498 99.4725 25.4499Z" fill="#263238"/>
<path d="M99.4723 25.1698C99.4922 25.1898 99.6718 25.0898 99.8912 25.0898C100.131 25.0898 100.29 25.2098 100.31 25.1898C100.33 25.1698 100.29 25.1298 100.23 25.0698C100.151 25.0097 100.031 24.9497 99.8912 24.9497C99.7516 24.9497 99.6119 24.9897 99.5521 25.0498C99.4723 25.1098 99.4523 25.1498 99.4723 25.1698Z" fill="#263238"/>
<path d="M98.5745 26.8878C98.5745 26.8678 98.4349 26.8479 98.1955 26.8079C98.1356 26.8079 98.0758 26.7879 98.0758 26.7479C98.0558 26.708 98.0957 26.648 98.1157 26.5681C98.1755 26.4282 98.2354 26.2684 98.2952 26.1085C98.5546 25.4691 98.7541 24.9295 98.7142 24.9295C98.6942 24.9095 98.4548 25.4291 98.1955 26.0685C98.1356 26.2284 98.0758 26.3683 98.0159 26.5281C97.996 26.5881 97.9561 26.668 97.976 26.7679C97.996 26.8079 98.0359 26.8479 98.0758 26.8678C98.1157 26.8878 98.1556 26.8878 98.1755 26.8878C98.4149 26.8878 98.5745 26.9078 98.5745 26.8878Z" fill="#263238"/>
<path d="M98.3352 29.6655C98.3352 29.6655 99.4724 29.7654 100.629 29.126C100.629 29.126 100.051 30.285 98.3552 30.0851L98.3352 29.6655Z" fill="#A36957"/>
<path d="M100.211 24.4905C100.171 24.5705 99.9911 24.5305 99.7916 24.4905C99.5921 24.4504 99.4126 24.4104 99.3926 24.3304C99.3727 24.2503 99.5722 24.1303 99.8515 24.1903C100.111 24.2503 100.27 24.4304 100.211 24.4905Z" fill="#263238"/>
<path d="M97.8771 24.1503C97.8571 24.2304 97.6776 24.2704 97.4581 24.2704C97.2387 24.2704 97.0392 24.2704 97.0192 24.1904C96.9993 24.1103 97.1788 23.9702 97.4382 23.9702C97.7175 23.9502 97.897 24.0703 97.8771 24.1503Z" fill="#263238"/>
<path d="M98.5749 27.4474C98.5349 27.4274 98.4748 27.4675 98.4548 27.5075C98.4348 27.5675 98.4348 27.6275 98.4949 27.6676C98.5349 27.7076 98.6149 27.7076 98.6549 27.6676C98.695 27.6275 98.715 27.5475 98.695 27.5075C98.675 27.4474 98.5949 27.4274 98.5349 27.4474" fill="#A36957"/>
<path d="M98.6343 27.4674C98.6543 27.4674 98.5944 27.4074 98.4947 27.4274C98.4548 27.4474 98.3949 27.4875 98.375 27.5475C98.355 27.6075 98.375 27.7076 98.4548 27.7676C98.5346 27.8276 98.6144 27.8076 98.6742 27.7676C98.7341 27.7276 98.754 27.6475 98.754 27.6075C98.7341 27.5075 98.6543 27.4875 98.6543 27.5075C98.6543 27.5275 98.6742 27.5475 98.6742 27.6275C98.6742 27.6676 98.6543 27.6876 98.6343 27.7076C98.6144 27.7276 98.5545 27.7276 98.5346 27.7076C98.5146 27.6876 98.4947 27.6475 98.4947 27.6075C98.4947 27.5675 98.5146 27.5475 98.5545 27.5275C98.5745 27.4674 98.6144 27.4875 98.6343 27.4674Z" fill="#263238"/>
<path d="M101.568 25.7288C101.369 26.1885 100.87 26.5681 100.95 27.0677C100.99 27.3874 101.209 27.7071 101.169 28.0269C101.109 28.4465 100.69 28.7263 100.631 29.1259C100.551 29.6255 101.05 30.0251 101.229 30.4848C101.508 31.1642 101.149 31.9435 101.149 32.6629C101.129 33.8019 102.107 34.861 103.224 34.9409C103.683 34.9809 104.202 34.841 104.421 34.4413C104.621 34.1216 104.581 33.702 104.7 33.3423C104.88 32.8028 105.379 32.4231 105.498 31.8636C105.698 30.8644 104.481 30.0251 104.561 29.006C104.601 28.5664 104.86 28.1867 104.98 27.7671C105.139 27.2076 105 26.5881 104.621 26.1485C104.321 25.7888 103.882 25.549 103.623 25.1693C103.324 24.7297 103.324 24.1702 103.224 23.6506C102.965 22.3917 102.007 21.2927 100.81 20.8531C99.5932 20.4134 98.1767 20.6332 97.1593 21.4126C97.1593 21.4126 96.86 22.7314 98.2166 22.9512C99.5732 23.1711 100.192 22.9113 100.351 23.4508C100.351 23.4508 100.192 24.0903 100.75 24.6897C101.289 25.3092 101.808 25.1893 101.568 25.7288Z" fill="#263238"/>
<path d="M103.722 34.8609C103.722 34.8609 103.682 34.8609 103.602 34.8409C103.522 34.821 103.402 34.801 103.263 34.741C102.984 34.6411 102.565 34.4013 102.225 33.9617C102.046 33.7419 101.886 33.4821 101.787 33.1624C101.667 32.8627 101.607 32.503 101.607 32.1433C101.607 31.7836 101.647 31.3839 101.747 31.0043C101.806 30.8044 101.866 30.6246 101.946 30.4248C102.026 30.2249 102.106 30.0451 102.166 29.8453C102.225 29.6454 102.205 29.4456 102.166 29.2658C102.106 29.0659 102.026 28.8861 101.946 28.7262C101.866 28.5464 101.767 28.3665 101.707 28.1867C101.647 28.0068 101.627 27.807 101.667 27.6072C101.747 27.2275 101.966 26.9477 102.106 26.668C102.245 26.3882 102.285 26.0885 102.285 25.8087C102.265 25.2692 102.026 24.8695 101.846 24.6297C101.647 24.39 101.507 24.31 101.507 24.29C101.507 24.29 101.667 24.37 101.886 24.5898C102.086 24.8096 102.345 25.2292 102.365 25.7887C102.385 26.0685 102.325 26.3882 102.186 26.688C102.046 26.9877 101.826 27.2675 101.767 27.6072C101.687 27.9469 101.866 28.3066 102.046 28.6663C102.126 28.8461 102.225 29.026 102.285 29.2258C102.345 29.4256 102.345 29.6654 102.285 29.8652C102.225 30.0651 102.126 30.2649 102.066 30.4447C101.986 30.6246 101.926 30.8244 101.886 31.0043C101.787 31.3839 101.727 31.7636 101.747 32.1233C101.747 32.8427 101.986 33.4821 102.325 33.9018C102.664 34.3414 103.043 34.5612 103.323 34.6811C103.562 34.8409 103.722 34.8609 103.722 34.8609Z" fill="#455A64"/>
<path d="M103.522 24.7904C103.522 24.7904 103.423 24.8104 103.223 24.8303C103.024 24.8503 102.744 24.8703 102.405 24.8104C102.066 24.7504 101.647 24.5905 101.368 24.1709C101.228 23.9711 101.188 23.7313 101.088 23.4915C101.009 23.2717 100.849 23.0718 100.63 22.932C100.191 22.6522 99.6719 22.6122 99.233 22.5723C98.7742 22.5123 98.3552 22.4324 98.0759 22.2126C97.7766 22.0128 97.637 21.733 97.5971 21.5532C97.5771 21.4532 97.5771 21.3733 97.5771 21.3333C97.5771 21.2734 97.5971 21.2534 97.5971 21.2534C97.617 21.2534 97.5771 21.3533 97.637 21.5532C97.6769 21.733 97.8365 21.9728 98.1158 22.1726C98.3951 22.3725 98.7941 22.4524 99.253 22.4923C99.6919 22.5523 100.231 22.5723 100.689 22.872C100.929 23.0119 101.108 23.2517 101.188 23.4915C101.268 23.7313 101.328 23.9711 101.447 24.1509C101.687 24.5306 102.086 24.6905 102.425 24.7704C102.764 24.8303 103.043 24.8303 103.223 24.8303C103.423 24.7704 103.522 24.7704 103.522 24.7904Z" fill="#455A64"/>
<path d="M103.023 23.1515C103.023 23.1515 102.944 23.1915 102.784 23.1915C102.624 23.1915 102.405 23.1715 102.146 23.0516C102.026 22.9917 101.886 22.9117 101.767 22.7918C101.647 22.6719 101.547 22.532 101.447 22.3722C101.268 22.0724 101.088 21.6928 100.729 21.5329C100.37 21.373 99.9511 21.413 99.612 21.433C99.2529 21.473 98.9337 21.473 98.6544 21.433C98.3751 21.393 98.1756 21.2731 98.0559 21.1732C97.996 21.1133 97.9561 21.0733 97.9362 21.0333C97.9162 20.9934 97.8963 20.9734 97.9162 20.9734C97.9162 20.9734 97.9761 21.0333 98.0958 21.1333C98.2155 21.2332 98.415 21.3131 98.6743 21.3531C98.9337 21.393 99.2529 21.373 99.612 21.3331C99.9711 21.3131 100.37 21.2531 100.789 21.433C100.989 21.5129 101.148 21.6728 101.268 21.8326C101.388 21.9925 101.467 22.1724 101.567 22.3122C101.647 22.4721 101.747 22.612 101.846 22.7119C101.946 22.8118 102.066 22.9117 102.186 22.9717C102.425 23.0916 102.644 23.1315 102.784 23.1315C102.944 23.1515 103.023 23.1515 103.023 23.1515Z" fill="#455A64"/>
<path d="M104.32 34.4414C104.3 34.4414 104.38 34.3015 104.44 34.0617C104.52 33.822 104.579 33.4423 104.579 32.9827C104.56 32.5231 104.46 31.9835 104.161 31.464C104.021 31.2042 103.801 30.9644 103.622 30.6847C103.542 30.5448 103.462 30.3849 103.422 30.2051C103.382 30.0252 103.402 29.8454 103.462 29.6655C103.582 29.3258 103.781 29.0261 103.821 28.7064C103.881 28.3866 103.722 28.1069 103.562 27.8471C103.482 27.7072 103.402 27.5873 103.343 27.4474C103.283 27.3076 103.243 27.1677 103.223 27.0278C103.183 26.748 103.223 26.4883 103.243 26.2685C103.303 25.8089 103.263 25.4292 103.143 25.2094C103.043 24.9696 102.904 24.9096 102.904 24.8896C102.904 24.8896 102.904 24.8896 102.924 24.9096C102.944 24.9096 102.964 24.9296 102.983 24.9496C103.043 24.9896 103.103 25.0695 103.163 25.1894C103.283 25.4292 103.343 25.8089 103.303 26.2685C103.283 26.5083 103.263 26.748 103.283 27.0078C103.303 27.2676 103.442 27.5274 103.602 27.7872C103.682 27.927 103.762 28.0469 103.821 28.2068C103.881 28.3667 103.901 28.5465 103.881 28.7064C103.841 29.0461 103.622 29.3458 103.522 29.6855C103.462 29.8454 103.442 30.0052 103.482 30.1651C103.522 30.325 103.582 30.4648 103.662 30.6047C103.841 30.8845 104.061 31.1243 104.2 31.3841C104.5 31.9236 104.619 32.4831 104.619 32.9627C104.619 33.4223 104.54 33.802 104.46 34.0418C104.42 34.1617 104.38 34.2616 104.34 34.3215C104.34 34.4015 104.32 34.4414 104.32 34.4414Z" fill="#455A64"/>
<path d="M96.2003 71.6695C96.2003 71.6695 94.8637 58.9205 94.7839 54.2045C94.7041 49.4886 96.8986 44.8326 96.8986 44.8326L105.497 44.4729C105.497 44.4729 107.193 49.2488 107.233 51.267C107.293 55.1637 106.195 59.0204 106.315 62.1177L106.594 71.6695" fill="#263238"/>
<path d="M106.874 55.9829C106.874 55.9829 106.834 56.0229 106.734 56.0828C106.714 56.1028 106.674 56.1228 106.654 56.1428C106.634 56.1628 106.594 56.2027 106.574 56.2227C106.515 56.2826 106.435 56.3426 106.375 56.4425C106.096 56.7822 105.896 57.3817 105.697 58.141C105.597 58.5207 105.477 58.9404 105.258 59.36C105.198 59.4599 105.138 59.5598 105.058 59.6597C105.018 59.6997 104.978 59.7597 104.938 59.7996L104.799 59.9395C104.619 60.1193 104.4 60.2592 104.16 60.3591C103.682 60.5789 103.143 60.6789 102.644 60.9187C102.145 61.1584 101.766 61.638 101.547 62.1776C101.308 62.7171 101.168 63.2966 100.948 63.8162C100.749 64.3357 100.49 64.8553 100.051 65.175C99.6318 65.5147 99.0931 65.5946 98.6343 65.6146C98.1754 65.6346 97.7365 65.6346 97.3575 65.6945C96.9784 65.7545 96.6393 65.8744 96.3999 66.0542C96.1605 66.2341 96.0208 66.4739 95.9609 66.6937C95.9011 66.8935 95.9011 67.0733 95.921 67.1932C95.941 67.3131 95.9809 67.3531 95.9609 67.3531C95.9609 67.3531 95.9211 67.2932 95.9011 67.1932C95.8612 67.0733 95.8612 66.8935 95.921 66.6937C95.9809 66.4739 96.1206 66.2341 96.3799 66.0342C96.6193 65.8344 96.9784 65.6945 97.3575 65.6346C97.7565 65.5746 98.1754 65.5746 98.6343 65.5547C99.0931 65.5147 99.5919 65.4348 99.9909 65.115C100.39 64.8153 100.649 64.3157 100.849 63.7962C101.048 63.2766 101.188 62.6971 101.447 62.1576C101.687 61.5981 102.086 61.0985 102.604 60.8587C103.123 60.5989 103.662 60.499 104.14 60.2992C104.38 60.1993 104.599 60.0794 104.759 59.8995L104.879 59.7796C104.919 59.7397 104.958 59.6797 104.978 59.6398C105.058 59.5598 105.098 59.4399 105.158 59.34C105.377 58.9404 105.497 58.5207 105.597 58.141C105.796 57.3817 106.016 56.7622 106.315 56.4225C106.375 56.3226 106.455 56.2627 106.515 56.2027C106.554 56.1827 106.574 56.1428 106.594 56.1228C106.614 56.1028 106.654 56.0828 106.674 56.0628C106.834 56.0029 106.874 55.9829 106.874 55.9829Z" fill="#FAFAFA"/>
<path d="M106.934 50.0881C106.934 50.0881 106.934 50.1481 106.954 50.268C106.954 50.3879 106.934 50.5477 106.895 50.7476C106.795 51.1672 106.496 51.7267 105.917 52.2463C105.638 52.506 105.299 52.7658 104.919 52.9856C104.54 53.2054 104.102 53.4253 103.683 53.685C103.244 53.9248 102.805 54.2046 102.406 54.5843C102.007 54.9439 101.707 55.4235 101.448 55.9431C101.169 56.4427 100.929 56.9622 100.61 57.4218C100.451 57.6416 100.271 57.8414 100.072 58.0213C99.8721 58.2011 99.6526 58.341 99.4132 58.4609C98.9544 58.7007 98.4955 58.8406 98.0766 58.9805C97.6576 59.1203 97.2586 59.2203 96.8995 59.3801C96.5604 59.52 96.2412 59.6799 96.0018 59.8597C95.7624 60.0396 95.5629 60.2194 95.4432 60.3793C95.1838 60.699 95.124 60.9388 95.104 60.9388C95.104 60.9388 95.124 60.8788 95.1639 60.7789C95.2038 60.679 95.2836 60.5191 95.4232 60.3593C95.5429 60.1794 95.7424 59.9996 95.9818 59.8197C96.2212 59.6399 96.5404 59.4601 96.8796 59.3202C97.2387 59.1603 97.6377 59.0404 98.0566 58.9205C98.4756 58.7806 98.9344 58.6408 99.3733 58.401C99.5928 58.2811 99.8122 58.1412 100.012 57.9813C100.211 57.8015 100.391 57.6216 100.53 57.4018C100.85 56.9622 101.089 56.4427 101.348 55.9431C101.628 55.4235 101.927 54.9439 102.326 54.5643C102.725 54.1846 103.184 53.9048 103.623 53.6651C104.062 53.4253 104.481 53.2054 104.88 52.9856C105.259 52.7658 105.598 52.526 105.877 52.2663C106.436 51.7667 106.755 51.2072 106.855 50.8075C106.954 50.3279 106.914 50.0881 106.934 50.0881Z" fill="#FAFAFA"/>
<path d="M94.8237 54.8638C94.8237 54.8638 94.8237 54.8438 94.8037 54.8238C94.8037 54.8039 94.7838 54.7639 94.7638 54.7039C94.7439 54.604 94.7239 54.4242 94.7838 54.2243C94.9035 53.8247 95.3424 53.3051 96.0407 53.0654C96.3998 52.9455 96.7988 52.8655 97.2177 52.7656C97.6367 52.6457 98.0756 52.5058 98.4147 52.1461C98.5743 51.9663 98.714 51.7665 98.8337 51.5467C98.9534 51.3268 99.0332 51.0871 99.1329 50.8273C99.3125 50.3277 99.4521 49.7882 99.7713 49.2886C100.071 48.789 100.569 48.4493 101.068 48.2695C101.567 48.0896 102.086 48.0097 102.564 47.8898C103.043 47.7899 103.482 47.65 103.861 47.4502C104.24 47.2304 104.539 46.9506 104.739 46.6509C105.178 46.0514 105.278 45.4319 105.298 45.0323C105.298 44.6126 105.238 44.3928 105.258 44.3928C105.258 44.3928 105.337 44.6126 105.337 45.0323C105.337 45.4519 105.238 46.0714 104.799 46.6908C104.579 46.9906 104.28 47.2903 103.901 47.5101C103.522 47.7299 103.063 47.8698 102.584 47.9697C102.105 48.0896 101.607 48.1696 101.108 48.3494C100.609 48.5293 100.15 48.849 99.8511 49.3286C99.5519 49.8082 99.4122 50.3477 99.2327 50.8473C99.1329 51.107 99.0531 51.3468 98.9334 51.5866C98.8137 51.8264 98.6541 52.0262 98.4945 52.2061C98.1354 52.5658 97.6766 52.7256 97.2576 52.8256C96.8387 52.9255 96.4397 53.0054 96.0806 53.1253C95.3823 53.3651 94.9434 53.8447 94.8237 54.2243C94.7638 54.4242 94.7638 54.584 94.7838 54.684C94.8037 54.8238 94.8237 54.8638 94.8237 54.8638Z" fill="#FAFAFA"/>
<path d="M106.195 65.6545C106.195 65.6545 106.195 65.6945 106.215 65.7744C106.215 65.8544 106.215 65.9743 106.175 66.1341C106.096 66.4339 105.876 66.8535 105.417 67.2132C105.198 67.393 104.938 67.5529 104.619 67.6928C104.32 67.8327 103.981 67.9326 103.622 68.0325C103.263 68.1324 102.903 68.2523 102.544 68.4321C102.185 68.592 101.846 68.8318 101.567 69.1515C101.268 69.4513 101.028 69.791 100.749 70.0907C100.47 70.3905 100.15 70.6302 99.8312 70.8101C99.1728 71.1698 98.4945 71.2897 97.9359 71.3097C97.3773 71.3097 96.9184 71.1898 96.6391 71.0899C96.4995 71.0299 96.3798 70.9899 96.3 70.95C96.2202 70.91 96.1803 70.89 96.1803 70.89C96.1803 70.89 96.2202 70.91 96.3 70.93C96.3798 70.97 96.4795 71.0099 96.6391 71.0499C96.9384 71.1498 97.3773 71.2497 97.9359 71.2297C98.4945 71.2097 99.1529 71.0899 99.7913 70.7302C100.11 70.5503 100.41 70.3105 100.689 70.0308C100.968 69.731 101.208 69.4113 101.507 69.0916C101.806 68.7719 102.145 68.5121 102.524 68.3522C102.884 68.1724 103.263 68.0725 103.622 67.9526C103.981 67.8526 104.3 67.7527 104.619 67.6128C104.918 67.493 105.178 67.3331 105.397 67.1732C105.836 66.8335 106.076 66.4339 106.155 66.1341C106.215 65.8344 106.175 65.6545 106.195 65.6545Z" fill="#FAFAFA"/>
<path d="M105.218 39.1775L103.562 39.2174C103.462 39.7769 103.183 40.1566 103.183 40.1566C101.786 37.7387 100.709 34.5015 100.449 33.2026C100.489 33.0627 100.529 32.9228 100.589 32.763C100.649 32.5831 100.589 32.2235 100.569 32.0236C100.529 31.7439 100.449 31.3442 100.41 31.1644C100.33 30.6048 100.25 30.5249 100.05 30.5849C99.7911 30.6648 100.15 32.1235 99.9507 32.1635C99.831 32.1835 99.6914 31.6839 99.6515 31.2643C99.6116 30.8446 99.432 29.5857 99.2924 29.5058C99.0929 29.3859 98.9133 29.5857 98.9732 29.9854C99.033 30.405 99.0929 31.624 98.8734 31.644C98.654 31.6639 98.4744 29.5657 98.4744 29.5657C98.4744 29.5657 98.5143 29.1061 98.255 29.1261C97.7961 29.1461 98.1552 31.3442 98.1951 31.564C98.2151 31.7039 97.9956 31.7439 97.9757 31.584C97.9557 31.4241 97.836 29.4858 97.3771 29.5058C97.018 29.5258 97.6564 31.3242 97.4569 31.7439C97.2574 32.1635 97.1178 30.3251 96.7786 30.3451C96.6589 30.3451 96.5592 30.385 96.7986 31.4241C96.9183 31.9837 97.2774 33.0228 97.5966 33.862C98.1353 36.7396 100.469 45.9916 104.16 44.293C106.215 43.3539 107.053 39.1575 107.053 39.1575L105.218 39.1775Z" fill="#B78876"/>
<path d="M98.1154 31.7238C98.1154 31.7238 98.1354 31.7238 98.1553 31.7238C98.1753 31.7238 98.2351 31.6838 98.2351 31.6039C98.2351 31.484 98.2152 31.3042 98.1753 31.0644C98.1553 30.8246 98.0755 30.5448 98.0755 30.2051C98.0755 30.0452 98.0755 29.8654 98.0955 29.6656C98.0955 29.5657 98.0955 29.4657 98.1154 29.3858C98.1354 29.2859 98.1952 29.186 98.2551 29.206C98.3349 29.206 98.3748 29.2659 98.3947 29.3459C98.4147 29.4258 98.4346 29.5257 98.4147 29.6056C98.4546 30.1252 98.5144 30.6847 98.6341 31.2642C98.6541 31.3441 98.674 31.4041 98.694 31.484C98.7139 31.524 98.7139 31.5639 98.7339 31.6039C98.7538 31.6239 98.7538 31.6439 98.7738 31.6639C98.7937 31.6838 98.8137 31.7038 98.8536 31.7238C98.9334 31.7238 98.9533 31.6639 98.9733 31.6239C98.9932 31.5839 98.9932 31.544 99.0132 31.504C99.0331 31.4241 99.0331 31.3441 99.0531 31.2642C99.073 30.9445 99.073 30.6048 99.0331 30.2651C99.0331 30.0852 98.9733 29.9254 99.0132 29.7655C99.0331 29.6856 99.0531 29.6056 99.1129 29.5856C99.1329 29.5657 99.1728 29.5657 99.1927 29.5657C99.2127 29.5657 99.2326 29.5856 99.2326 29.5856C99.2526 29.6056 99.2526 29.5856 99.2526 29.6056C99.3124 29.7455 99.3523 29.9254 99.3922 30.1052C99.4321 30.285 99.4521 30.4649 99.492 30.6447C99.5119 30.8246 99.5518 31.0044 99.5718 31.2043C99.5917 31.3841 99.6117 31.5839 99.6715 31.7638C99.6915 31.8637 99.7314 31.9436 99.7713 32.0435C99.7912 32.0835 99.8112 32.1434 99.8511 32.1834C99.871 32.2034 99.9109 32.2434 99.9708 32.2234C100.031 32.2034 100.051 32.1634 100.051 32.1434C100.09 32.0235 100.071 31.9236 100.071 31.8237C100.071 31.7238 100.051 31.6239 100.051 31.524C100.031 31.3641 100.011 31.1843 100.011 31.0244C100.011 30.9445 100.011 30.8645 100.011 30.7846C100.011 30.7446 100.031 30.7047 100.031 30.6847C100.031 30.6647 100.051 30.6647 100.051 30.6647H100.071C100.21 30.6048 100.25 30.7846 100.29 30.9445C100.33 31.1043 100.35 31.2642 100.37 31.4241C100.43 31.7438 100.489 32.0435 100.529 32.3433C100.549 32.4831 100.549 32.643 100.509 32.7829C100.47 32.9228 100.41 33.0626 100.37 33.2025V33.2225V33.2425C100.609 34.3216 100.948 35.2807 101.268 36.14C101.587 36.9993 101.906 37.7386 102.185 38.3381C102.465 38.9376 102.704 39.3972 102.884 39.7169C102.963 39.8768 103.043 39.9767 103.083 40.0766C103.123 40.1565 103.163 40.1965 103.163 40.1965C103.163 40.1965 103.143 40.1565 103.103 40.0766C103.063 39.9767 102.983 39.8568 102.903 39.7169C102.744 39.3972 102.504 38.9176 102.225 38.3181C101.946 37.7186 101.647 36.9793 101.347 36.12C101.048 35.2608 100.709 34.3016 100.47 33.2425V33.2625C100.509 33.1226 100.569 32.9827 100.609 32.8428C100.669 32.683 100.649 32.5231 100.629 32.3632C100.589 32.0435 100.529 31.7438 100.47 31.4241C100.43 31.2642 100.43 31.1043 100.39 30.9445C100.37 30.8645 100.35 30.7846 100.31 30.7047C100.29 30.6647 100.25 30.6247 100.19 30.5848C100.13 30.5648 100.071 30.5648 100.031 30.5848H99.9907C99.9708 30.5848 99.9508 30.6048 99.9508 30.6048C99.9309 30.6247 99.9109 30.6447 99.891 30.6847C99.871 30.7247 99.871 30.7846 99.8511 30.8246C99.8511 30.9045 99.8511 31.0044 99.8511 31.0844C99.8511 31.2442 99.871 31.4241 99.891 31.5839C99.891 31.6838 99.9109 31.7838 99.9109 31.8837C99.9109 31.9836 99.9109 32.0835 99.891 32.1434C99.891 32.1634 99.871 32.1634 99.891 32.1634C99.891 32.1634 99.891 32.1834 99.891 32.1634C99.891 32.1634 99.891 32.1634 99.871 32.1434C99.8511 32.1235 99.8311 32.0835 99.8112 32.0435C99.7713 31.9636 99.7513 31.8637 99.7314 31.7838C99.6915 31.6039 99.6516 31.4241 99.6316 31.2242C99.6117 31.0444 99.5917 30.8446 99.5518 30.6647C99.5319 30.4849 99.492 30.305 99.4521 30.1252C99.4122 29.9453 99.3922 29.7655 99.2925 29.5856C99.2925 29.5657 99.2526 29.5257 99.2326 29.5057C99.2127 29.4857 99.1927 29.4857 99.1528 29.4657C99.093 29.4458 99.0331 29.4657 98.9932 29.4857C98.8935 29.5457 98.8735 29.6456 98.8536 29.7455C98.8336 29.8454 98.8336 29.9254 98.8536 30.0253C98.8735 30.1052 98.8735 30.1851 98.8735 30.285C98.8935 30.6247 98.9134 30.9445 98.8935 31.2642C98.8935 31.3441 98.8735 31.4241 98.8735 31.504C98.8735 31.544 98.8536 31.5839 98.8336 31.6039C98.8336 31.6239 98.8137 31.6239 98.8137 31.6439C98.8137 31.6639 98.7937 31.6439 98.7937 31.6639C98.8137 31.6439 98.7937 31.6639 98.7937 31.6439C98.7937 31.6439 98.7738 31.6239 98.7738 31.6039C98.7538 31.5639 98.7538 31.544 98.7339 31.504C98.7139 31.4241 98.694 31.3641 98.674 31.2842C98.5543 30.7047 98.4945 30.1452 98.4546 29.6256C98.4546 29.5257 98.4546 29.4258 98.4147 29.3259C98.3947 29.2859 98.3748 29.226 98.3349 29.186C98.295 29.146 98.2351 29.126 98.1952 29.126H98.2152C98.1354 29.1061 98.0755 29.166 98.0356 29.206C97.9957 29.2459 97.9957 29.3059 97.9758 29.3658C97.9558 29.4657 97.9558 29.5657 97.9558 29.6656C97.9558 29.8654 97.9558 30.0452 97.9558 30.2051C97.9558 30.5448 98.0356 30.8246 98.0755 31.0644C98.1154 31.3042 98.1354 31.484 98.1553 31.6039C98.1753 31.6639 98.1154 31.7038 98.0955 31.7038C98.1354 31.7238 98.1154 31.7238 98.1154 31.7238Z" fill="#A36957"/>
<path d="M85.128 41.9149C85.128 41.9149 84.5693 41.8949 83.9708 42.0547C82.9334 42.3345 81.1579 43.4136 81.098 44.7324H82.3948C82.3948 44.7324 81.6766 46.2711 81.8761 46.1312C82.4347 45.7516 83.5319 44.6525 83.5319 44.6525L85.128 41.9149Z" fill="#B78876"/>
<path d="M102.744 18.6948C102.724 18.6948 102.604 17.6357 102.485 16.2969C102.365 14.978 102.305 13.8989 102.325 13.8989C102.345 13.8989 102.465 14.958 102.584 16.2969C102.704 17.6357 102.784 18.6948 102.744 18.6948Z" fill="#263238"/>
<path d="M108.41 13.9792C108.43 13.9992 107.552 15.2581 106.455 16.8168C105.358 18.3755 104.44 19.6144 104.42 19.5944C104.4 19.5744 105.278 18.3155 106.375 16.7568C107.473 15.1982 108.39 13.9593 108.41 13.9792Z" fill="#263238"/>
<path d="M110.764 19.7339C110.764 19.7538 109.747 19.9936 108.49 20.2534C107.233 20.5132 106.196 20.693 106.196 20.6731C106.196 20.6531 107.213 20.4133 108.47 20.1535C109.747 19.8937 110.764 19.6939 110.764 19.7339Z" fill="#263238"/>
<path d="M42.9135 47.1703L35.8512 83.499L34.9335 88.2549L82.0357 88.0151C84.1504 87.9951 86.0257 86.1168 86.704 83.3392L95.0631 49.0487C95.5818 46.9305 94.4447 44.7324 92.8487 44.7324L45.1878 44.7924C44.1105 44.7724 43.1928 45.7515 42.9135 47.1703Z" fill="#87949B"/>
<g opacity="0.5">
<path opacity="0.5" d="M42.9135 47.1703L35.8512 83.499L34.9335 88.2549L82.0357 88.0151C84.1504 87.9951 86.0257 86.1168 86.704 83.3392L95.0631 49.0487C95.5818 46.9305 94.4447 44.7324 92.8487 44.7324L45.1878 44.7924C44.1105 44.7724 43.1928 45.7515 42.9135 47.1703Z" fill="black"/>
</g>
<path d="M77.5271 81.041L72.5396 40.7957C72.3401 39.1372 71.0234 37.9182 69.4673 37.9182L58.5346 37.9582C57.7166 37.9582 56.9585 38.2979 56.38 38.9174L51.193 44.4526L20.789 44.6124C18.9336 44.6124 17.4972 46.3909 17.7565 48.3692L22.385 85.5771C22.5845 87.2157 23.9012 88.4547 25.4373 88.4547L78.4249 88.3547C84.3301 88.4746 84.8887 86.7361 84.8887 86.7361C78.1256 88.1949 77.5271 81.041 77.5271 81.041Z" fill="#87949B"/>
<g opacity="0.5">
<path opacity="0.5" d="M54.6644 72.9884L52.8689 74.9067L39.1033 62.5174L40.8988 60.5791L54.6644 72.9884Z" fill="white"/>
<path opacity="0.5" d="M52.1309 60.1589L54.1059 61.9374L41.6571 75.3458L39.682 73.5674L52.1309 60.1589Z" fill="white"/>
</g>
<path d="M85.0885 21.0527C84.9688 20.9927 84.869 20.8728 84.869 20.733L84.7892 18.8746C84.7892 18.7547 84.8291 18.6548 84.9289 18.5748C85.0286 18.4949 85.1284 18.4749 85.2481 18.4949C85.5473 18.5748 85.8665 18.4949 86.1458 18.3151C86.4052 18.1552 86.5648 17.8954 86.6047 17.6356C86.6446 17.3759 86.5648 17.0761 86.3852 16.8363C86.1857 16.5765 85.8865 16.3967 85.6072 16.3567C85.0087 16.2968 84.3503 16.7564 84.1907 17.3559C84.1308 17.5557 83.9313 17.6756 83.7318 17.6157C83.5323 17.5557 83.4126 17.3559 83.4725 17.1561C83.7318 16.1969 84.7294 15.4975 85.687 15.5974C86.1857 15.6573 86.6645 15.9371 86.9837 16.3567C87.283 16.7564 87.4226 17.256 87.3428 17.7355C87.263 18.1952 86.9837 18.6348 86.5648 18.9145C86.2655 19.1144 85.9064 19.2343 85.5473 19.2542L85.6072 20.693C85.6072 20.8928 85.4476 21.0727 85.2481 21.0727C85.1882 21.0727 85.1284 21.0727 85.0885 21.0527Z" fill="#656F74"/>
<path d="M85.627 21.8126C85.647 21.9727 85.5073 22.1328 85.3477 22.1328C85.1881 22.1528 85.0285 22.0127 85.0285 21.8527C85.0086 21.6926 85.1482 21.5325 85.3078 21.5325C85.4674 21.5325 85.627 21.6325 85.627 21.8126Z" fill="#87949B"/>
<path d="M78.6843 18.435C78.6843 18.435 78.6843 18.3951 78.7042 18.3151C78.7042 18.2352 78.7242 18.1153 78.7441 17.9554C78.7441 17.7956 78.784 17.6157 78.8439 17.3759C78.8638 17.256 78.8838 17.1361 78.9237 17.0163C78.9636 16.8964 79.0035 16.7565 79.0434 16.6166C79.2429 16.0571 79.5421 15.3777 80.0409 14.7182C80.5396 14.0588 81.2379 13.3994 82.1356 12.8998C82.5745 12.64 83.0932 12.4602 83.6119 12.2803C84.1506 12.1604 84.7291 12.0405 85.3077 12.0605C85.6069 12.0405 85.9062 12.0805 86.2055 12.1205C86.3651 12.1405 86.5047 12.1804 86.6643 12.2004C86.8239 12.2204 86.9636 12.2604 87.1232 12.3203C87.7416 12.4802 88.3401 12.7599 88.8987 13.1396C90.0359 13.859 91.0134 15.038 91.5321 16.4567C91.7915 17.1761 91.9311 17.9554 91.9311 18.7348C91.9511 19.5341 91.7915 20.3334 91.5122 21.0728L91.4124 21.2926L91.3925 21.3325L91.4124 21.3525C91.9112 22.5115 92.4099 23.6306 92.8887 24.7296L92.9685 24.6297C91.9311 24.23 90.9336 23.8504 89.976 23.4707L89.9361 23.4507L89.9162 23.4707C89.0783 24.27 88.1007 24.8095 87.1032 25.1093C86.1057 25.389 85.0882 25.409 84.1705 25.2492C83.2528 25.0893 82.4149 24.7296 81.7167 24.27C81.0184 23.8104 80.4598 23.2709 80.0409 22.6914C79.6219 22.1318 79.3426 21.5324 79.1232 21.0128C78.9436 20.4733 78.8239 20.0137 78.7641 19.614C78.7441 19.4142 78.7242 19.2543 78.7042 19.0945C78.7042 18.9546 78.7042 18.8147 78.7042 18.7148C78.7042 18.6149 78.7042 18.5349 78.7042 18.475C78.6843 18.455 78.6843 18.435 78.6843 18.435C78.6843 18.435 78.6843 18.455 78.6843 18.515C78.6843 18.5749 78.6843 18.6548 78.6843 18.7548C78.6843 18.8547 78.6843 18.9945 78.6843 19.1344C78.7042 19.2943 78.7242 19.4542 78.7441 19.654C78.784 20.0536 78.9037 20.5332 79.0833 21.0728C79.2828 21.5923 79.5621 22.1918 80.001 22.7713C80.4399 23.3508 80.9985 23.9103 81.6967 24.3699C82.395 24.8295 83.2329 25.2092 84.1705 25.3691C85.1082 25.5489 86.1256 25.5289 87.1631 25.2492C88.1805 24.9694 89.198 24.4099 90.0359 23.5906L89.976 23.6106C90.9336 23.9902 91.9311 24.3699 92.9685 24.7696L93.1281 24.8295L93.0683 24.6697C92.5895 23.5706 92.1107 22.4316 91.6119 21.2926V21.3525L91.7117 21.1127C91.991 20.3334 92.1506 19.5141 92.1306 18.7148C92.1306 17.9155 91.991 17.1162 91.7316 16.3768C91.193 14.9181 90.1955 13.7391 89.0384 12.9997C88.4598 12.64 87.8414 12.3403 87.2229 12.1804C87.0633 12.1205 86.9037 12.1005 86.7641 12.0605C86.6045 12.0405 86.4449 12.0006 86.3052 11.9806C85.986 11.9606 85.6867 11.9206 85.3875 11.9206C84.789 11.9007 84.2104 12.0206 83.6518 12.1604C83.1132 12.3203 82.5945 12.5201 82.1556 12.7799C81.2379 13.2995 80.5396 13.9589 80.0409 14.6383C79.5421 15.3177 79.2429 15.9971 79.0633 16.5766C79.0234 16.7165 78.9835 16.8564 78.9436 16.9763C78.9037 17.0962 78.8838 17.2361 78.8638 17.336C78.8239 17.5558 78.784 17.7556 78.784 17.9155C78.7641 18.0753 78.7641 18.1952 78.7641 18.2752C78.6643 18.3951 78.6643 18.435 78.6843 18.435Z" fill="#263238"/>
</svg>
