<svg width="125" height="125" viewBox="0 0 125 125" fill="none" xmlns="http://www.w3.org/2000/svg">
<path fill-rule="evenodd" clip-rule="evenodd" d="M120 8C120 6.34315 118.657 5 117 5H8C6.34315 5 5 6.34315 5 8V117C5 118.657 6.34315 120 8 120H117C118.657 120 120 118.657 120 117V8ZM3 0C1.34315 0 0 1.34314 0 3V122C0 123.657 1.34314 125 3 125H122C123.657 125 125 123.657 125 122V3C125 1.34315 123.657 0 122 0H3Z" fill="#BA1CDE"/>
<path d="M61.7713 47.6919C61.7713 48.8537 61.5551 49.9412 61.1228 50.9543C60.6905 51.954 60.0961 52.8321 59.3396 53.5886C58.5966 54.3316 57.7185 54.9193 56.7054 55.3516C55.7057 55.7839 54.6317 56 53.4834 56H30.3119C29.1648 56 28.2349 55.0701 28.2349 53.923C28.2349 52.7759 29.1648 51.8459 30.3119 51.8459H53.4834C54.0643 51.8459 54.6047 51.7379 55.1045 51.5217C55.6044 51.3056 56.0367 51.0084 56.4014 50.6301C56.7797 50.2519 57.0769 49.8128 57.293 49.313C57.5091 48.7996 57.6172 48.2593 57.6172 47.6919C57.6172 47.1245 57.5091 46.5909 57.293 46.0911C57.0769 45.5912 56.7797 45.1522 56.4014 44.7739C56.0367 44.3957 55.6044 44.0985 55.1045 43.8823C54.6047 43.6662 54.0643 43.5581 53.4834 43.5581H36.543C35.4082 43.5581 34.3343 43.342 33.3211 42.9097C32.3079 42.4774 31.423 41.8897 30.6665 41.1467C29.9235 40.3902 29.3291 39.5054 28.8833 38.4922C28.451 37.479 28.2349 36.3983 28.2349 35.25C28.2349 34.1152 28.451 33.0413 28.8833 32.0281C29.3291 31.0149 29.9235 30.1368 30.6665 29.3938C31.423 28.6373 32.3079 28.0429 33.3211 27.6106C34.3343 27.1648 35.4082 26.9419 36.543 26.9419H57.6273C58.7745 26.9419 59.7044 27.8718 59.7044 29.0189C59.7044 30.166 58.7745 31.0959 57.6273 31.0959H36.543C35.9756 31.0959 35.4353 31.204 34.9219 31.4202C34.4221 31.6363 33.983 31.9335 33.6048 32.3118C33.2265 32.69 32.9293 33.1358 32.7132 33.6492C32.497 34.149 32.3889 34.6826 32.3889 35.25C32.3889 35.8174 32.497 36.3577 32.7132 36.8711C32.9293 37.3709 33.2265 37.81 33.6048 38.1882C33.983 38.5665 34.4221 38.8637 34.9219 39.0798C35.4353 39.296 35.9756 39.4041 36.543 39.4041H53.4834C54.6317 39.4041 55.7057 39.627 56.7054 40.0728C57.7185 40.505 58.5966 41.0994 59.3396 41.856C60.0961 42.599 60.6905 43.4771 61.1228 44.4902C61.5551 45.4899 61.7713 46.5571 61.7713 47.6919Z" fill="#BA1CDE"/>
<path d="M97.3283 53.923C97.3283 55.0701 96.3984 56 95.2513 56H70.2773C68.6205 56 67.2773 54.6569 67.2773 53V29.9419C67.2773 28.285 68.6205 26.9419 70.2773 26.9419H95.2513C96.3984 26.9419 97.3283 27.8718 97.3283 29.0189C97.3283 30.166 96.3984 31.0959 95.2513 31.0959H74.4314C72.7745 31.0959 71.4314 32.4391 71.4314 34.0959V48.8459C71.4314 50.5028 72.7745 51.8459 74.4314 51.8459H95.2513C96.3984 51.8459 97.3283 52.7759 97.3283 53.923ZM93.8025 41.4811C93.8025 42.6282 92.8725 43.5581 91.7254 43.5581H74.4983C73.946 43.5581 73.4983 43.1104 73.4983 42.5581V40.4041C73.4983 39.8518 73.946 39.4041 74.4983 39.4041H91.7254C92.8725 39.4041 93.8025 40.334 93.8025 41.4811Z" fill="#BA1CDE"/>
<path d="M70.9016 68.9419C72.4801 68.9419 73.4933 70.6193 72.7587 72.0165L59.9398 96.3962C59.4212 97.3824 58.3987 98 57.2844 98H56.1679C55.053 98 54.0301 97.3818 53.5118 96.3947L40.704 72.0037C39.9732 70.612 40.9825 68.9419 42.5545 68.9419C43.3312 68.9419 44.0438 69.3726 44.4049 70.0602L54.0696 88.464C55.1935 90.6043 58.2577 90.6043 59.3817 88.464L69.044 70.0645C69.4065 69.3742 70.1219 68.9419 70.9016 68.9419Z" fill="#BA1CDE"/>
<path d="M83.2451 95.923C83.2451 97.0701 82.3152 98 81.1681 98C80.021 98 79.091 97.0701 79.091 95.923V71.0189C79.091 69.8718 80.021 68.9419 81.1681 68.9419C82.3152 68.9419 83.2451 69.8718 83.2451 71.0189V95.923Z" fill="#BA1CDE"/>
<path fill-rule="evenodd" clip-rule="evenodd" d="M62.2455 51.4333L62.2432 51.4388C61.7509 52.5772 61.0701 53.5844 60.2027 54.4517C59.3448 55.3097 58.3354 55.9828 57.1868 56.4732C56.0268 56.9743 54.788 57.2206 53.4834 57.2206H30.0143C28.3575 57.2206 27.0143 55.8774 27.0143 54.2206V53.6254C27.0143 51.9685 28.3575 50.6254 30.0143 50.6254H53.4834C53.909 50.6254 54.2832 50.5471 54.6201 50.4014C54.9772 50.2469 55.2741 50.0407 55.5228 49.7829L55.5305 49.7749L55.5383 49.767C55.8044 49.501 56.0144 49.1928 56.1703 48.834C56.3206 48.475 56.3966 48.0977 56.3966 47.6919C56.3966 47.284 56.3199 46.916 56.1727 46.5755C56.0165 46.2144 55.8057 45.9044 55.5383 45.637L55.5305 45.6292L55.5228 45.6212C55.2741 45.3633 54.9772 45.1571 54.6201 45.0026C54.2832 44.857 53.909 44.7787 53.4834 44.7787H36.543C35.2487 44.7787 34.0113 44.5312 32.8421 44.0323C31.6944 43.5427 30.6806 42.8714 29.8113 42.0176L29.8034 42.0098L29.7957 42.002C28.9447 41.1356 28.2687 40.1261 27.7661 38.9838L27.7606 38.9712C27.2609 37.8002 27.0143 36.5558 27.0143 35.25C27.0143 33.9557 27.2618 32.7183 27.7607 31.5491L27.766 31.5365C28.2695 30.3923 28.9478 29.3864 29.8034 28.5307C30.6719 27.6622 31.6861 26.982 32.8358 26.4906C34.006 25.9768 35.2457 25.7213 36.543 25.7213H57.925C59.5818 25.7213 60.925 27.0645 60.925 28.7213V29.3165C60.925 30.9734 59.5818 32.3165 57.925 32.3165H36.543C36.1372 32.3165 35.7599 32.3925 35.401 32.5428C35.0421 32.6988 34.7339 32.9088 34.4679 33.1749C34.2058 33.4369 33.9955 33.7489 33.8381 34.1228L33.8335 34.1337C33.6863 34.4741 33.6095 34.8421 33.6095 35.25C33.6095 35.6558 33.6855 36.0331 33.8358 36.392C33.9918 36.7509 34.2018 37.0591 34.4679 37.3251C34.7339 37.5912 35.0421 37.8012 35.4009 37.9572C35.7599 38.1075 36.1372 38.1835 36.543 38.1835H53.4834C54.791 38.1835 56.0322 38.4377 57.1934 38.9539C58.3404 39.4446 59.3474 40.1241 60.2027 40.9928C61.0731 41.8497 61.7534 42.8589 62.2443 44.0085C62.7447 45.1667 62.9919 46.3986 62.9919 47.6919C62.9919 49.0092 62.7459 50.2605 62.2455 51.4333ZM59.3396 41.856C58.5966 41.0994 57.7185 40.505 56.7054 40.0728C55.7057 39.627 54.6317 39.4041 53.4834 39.4041H36.543C35.9756 39.4041 35.4353 39.296 34.9219 39.0798C34.4221 38.8637 33.983 38.5665 33.6048 38.1882C33.2265 37.81 32.9293 37.3709 32.7132 36.8711C32.497 36.3577 32.3889 35.8174 32.3889 35.25C32.3889 34.6826 32.497 34.149 32.7132 33.6492C32.9293 33.1358 33.2265 32.69 33.6048 32.3118C33.983 31.9335 34.4221 31.6363 34.9219 31.4202C35.4353 31.204 35.9756 31.0959 36.543 31.0959H57.6273C58.7745 31.0959 59.7044 30.166 59.7044 29.0189C59.7044 27.8718 58.7745 26.9419 57.6273 26.9419H36.543C35.4082 26.9419 34.3343 27.1648 33.3211 27.6106C32.3079 28.0429 31.423 28.6373 30.6665 29.3938C29.9235 30.1368 29.3291 31.0149 28.8833 32.0281C28.451 33.0413 28.2349 34.1152 28.2349 35.25C28.2349 36.3983 28.451 37.479 28.8833 38.4922C29.3291 39.5054 29.9235 40.3902 30.6665 41.1467C31.423 41.8897 32.3079 42.4774 33.3211 42.9097C34.3343 43.342 35.4082 43.5581 36.543 43.5581H53.4834C54.0643 43.5581 54.6047 43.6662 55.1045 43.8823C55.6044 44.0985 56.0367 44.3957 56.4014 44.7739C56.7797 45.1522 57.0769 45.5912 57.293 46.0911C57.5091 46.5909 57.6172 47.1245 57.6172 47.6919C57.6172 48.2593 57.5091 48.7996 57.293 49.313C57.0769 49.8128 56.7797 50.2519 56.4014 50.6301C56.0367 51.0084 55.6044 51.3056 55.1045 51.5217C54.6047 51.7379 54.0643 51.8459 53.4834 51.8459H30.3119C29.1648 51.8459 28.2349 52.7759 28.2349 53.923C28.2349 55.0701 29.1648 56 30.3119 56H53.4834C54.6317 56 55.7057 55.7839 56.7054 55.3516C57.7185 54.9193 58.5966 54.3316 59.3396 53.5886C60.0961 52.8321 60.6905 51.954 61.1228 50.9543C61.5551 49.9412 61.7713 48.8537 61.7713 47.6919C61.7713 46.5571 61.5551 45.4899 61.1228 44.4902C60.6905 43.4771 60.0961 42.599 59.3396 41.856ZM98.5489 54.2206C98.5489 55.8774 97.2058 57.2206 95.5489 57.2206H69.0567C67.3999 57.2206 66.0567 55.8774 66.0567 54.2206V28.7213C66.0567 27.0645 67.3999 25.7213 69.0567 25.7213H95.5489C97.2058 25.7213 98.5489 27.0645 98.5489 28.7213V29.3165C98.5489 30.9734 97.2058 32.3165 95.5489 32.3165H73.652C73.0997 32.3165 72.652 32.7643 72.652 33.3165V37.1835C72.652 37.7357 73.0997 38.1835 73.652 38.1835H92.023C93.6799 38.1835 95.023 39.5266 95.023 41.1835V41.7787C95.023 43.4355 93.6799 44.7787 92.023 44.7787H73.652C73.0997 44.7787 72.652 45.2264 72.652 45.7787V49.6254C72.652 50.1776 73.0997 50.6254 73.652 50.6254H95.5489C97.2058 50.6254 98.5489 51.9685 98.5489 53.6254V54.2206ZM71.4314 34.0959C71.4314 32.4391 72.7745 31.0959 74.4314 31.0959H95.2513C96.3984 31.0959 97.3283 30.166 97.3283 29.0189C97.3283 27.8718 96.3984 26.9419 95.2513 26.9419H70.2773C68.6205 26.9419 67.2773 28.285 67.2773 29.9419V53C67.2773 54.6569 68.6205 56 70.2773 56H95.2513C96.3984 56 97.3283 55.0701 97.3283 53.923C97.3283 52.7759 96.3984 51.8459 95.2513 51.8459H74.4314C72.7745 51.8459 71.4314 50.5028 71.4314 48.8459V34.0959ZM71.4293 67.7213C73.6863 67.7213 75.135 70.1198 74.0846 72.1175L60.677 97.6168C60.1584 98.603 59.136 99.2206 58.0217 99.2206H55.4302C54.3153 99.2206 53.2924 98.6024 52.7741 97.6153L39.3843 72.116C38.3354 70.1184 39.7841 67.7213 42.0404 67.7213H42.7423C43.8571 67.7213 44.88 68.3395 45.3983 69.3265L55.8403 89.2105C56.2149 89.924 57.2363 89.924 57.611 89.2105L68.0529 69.3265C68.5713 68.3395 69.5942 67.7213 70.709 67.7213H71.4293ZM59.3817 88.464C58.2577 90.6043 55.1935 90.6043 54.0696 88.464L44.4049 70.0602C44.0438 69.3726 43.3312 68.9419 42.5545 68.9419C40.9825 68.9419 39.9732 70.612 40.704 72.0037L53.5118 96.3947C54.0301 97.3818 55.053 98 56.1679 98H57.2844C58.3987 98 59.4212 97.3824 59.9398 96.3962L72.7587 72.0165C73.4933 70.6193 72.4801 68.9419 70.9016 68.9419C70.1219 68.9419 69.4065 69.3742 69.044 70.0645L59.3817 88.464ZM84.4657 96.2206C84.4657 97.8774 83.1225 99.2206 81.4657 99.2206H80.8704C79.2136 99.2206 77.8704 97.8774 77.8704 96.2206V70.7213C77.8704 69.0645 79.2136 67.7213 80.8704 67.7213H81.4657C83.1225 67.7213 84.4657 69.0645 84.4657 70.7213V96.2206ZM91.7254 43.5581C92.8725 43.5581 93.8025 42.6282 93.8025 41.4811C93.8025 40.334 92.8725 39.4041 91.7254 39.4041H74.4983C73.946 39.4041 73.4983 39.8518 73.4983 40.4041V42.5581C73.4983 43.1104 73.946 43.5581 74.4983 43.5581H91.7254ZM81.1681 98C82.3152 98 83.2451 97.0701 83.2451 95.923V71.0189C83.2451 69.8718 82.3152 68.9419 81.1681 68.9419C80.021 68.9419 79.091 69.8718 79.091 71.0189V95.923C79.091 97.0701 80.021 98 81.1681 98Z" fill="#BA1CDE"/>
</svg>
