<svg width="111" height="112" viewBox="0 0 111 112" fill="none" xmlns="http://www.w3.org/2000/svg">
<g style="mix-blend-mode:multiply" opacity="0.38">
<path d="M47.2263 45.2929C51.3458 45.2929 54.6854 43.5905 54.6854 41.4906C54.6854 39.3906 51.3458 37.6882 47.2263 37.6882C43.1067 37.6882 39.7671 39.3906 39.7671 41.4906C39.7671 43.5905 43.1067 45.2929 47.2263 45.2929Z" fill="#B899A6"/>
</g>
<path d="M52.1942 32.2238L34.7173 31.6575L37.5401 41.2728C37.6457 42.1621 38.2283 43.0336 39.2922 43.7157C41.6415 45.2233 45.4383 45.2304 47.773 43.7325C48.1822 43.5128 48.545 43.1995 48.8377 42.8131C49.1303 42.4267 49.3462 41.9759 49.4711 41.4903L52.1942 32.2238Z" fill="url(#paint0_linear)"/>
<path d="M52.3772 31.0815C52.3929 27.9419 48.4391 25.3769 43.5462 25.3524C38.6532 25.328 34.674 27.8533 34.6583 30.9929C34.6426 34.1326 38.5964 36.6976 43.4893 36.722C48.3822 36.7465 52.3615 34.2211 52.3772 31.0815Z" fill="white"/>
<path d="M51.0585 30.901C51.0706 28.2062 47.6757 26.0027 43.4757 25.9794C39.2758 25.956 35.8612 28.1217 35.8491 30.8165C35.837 33.5112 39.2319 35.7147 43.4318 35.7381C47.6318 35.7614 51.0464 33.5958 51.0585 30.901Z" fill="#4C4099"/>
<path d="M43.7645 27.9887C44.5184 20.3652 50.3515 7.83252 50.3515 7.83252C42.8334 10.3128 42.3374 18.5709 42.3374 18.5709L43.7645 27.9887Z" fill="#4C4099"/>
<path d="M42.0635 21.2511C42.8563 13.6324 39.541 0 39.541 0C46.3733 4.27889 45.2013 12.4526 45.2013 12.4526L42.0635 21.2511Z" fill="#4C4099"/>
<path d="M53.5838 12.0574C47.3078 13.632 43.5155 25.8407 43.5155 25.8407V25.8656C43.2838 10.3074 34.4409 6.18213 34.4409 6.18213C37.0818 10.4529 39.5683 25.0033 40.3192 29.7041C40.4516 30.5611 40.8596 31.3353 41.4674 31.8826C42.0752 32.43 42.8413 32.7131 43.623 32.6793C43.7125 32.6747 43.8026 32.6667 43.8931 32.6555C44.5654 32.5611 45.1932 32.2311 45.6854 31.7133C46.1776 31.1956 46.5085 30.517 46.6303 29.7761C47.7882 23.262 53.5838 12.0574 53.5838 12.0574Z" fill="#7685DB"/>
<path d="M44.0119 32.2858C44.0119 32.2858 44.0679 25.4434 43.1646 21.2505" stroke="#332D7C" stroke-width="2.04637" stroke-linecap="round" stroke-linejoin="round"/>
<g style="mix-blend-mode:multiply" opacity="0.22">
<path d="M91.4263 75.79L108.53 65.5704L94.6483 44.0012L91.4263 75.79Z" fill="#B899A6"/>
</g>
<path d="M108.53 65.5705L68.1098 39.3292L61.1865 12.4441L101.607 38.6854L108.53 65.5705Z" fill="url(#paint1_linear)"/>
<path d="M91.4267 75.7889L51.0063 49.5475L61.0883 12.2925L101.509 38.5338L91.4267 75.7889Z" fill="#7685DB"/>
<path d="M97.5396 40.1177L63.1338 17.4705L62.5984 19.4054H62.5945L54.7212 47.9842L89.127 70.6315L89.6624 68.6966H89.6662L97.5396 40.1177Z" fill="#E1E5F7"/>
<path d="M96.4619 39.8758L62.0566 17.2285L61.5212 19.1635H61.5173L53.644 47.7423L88.0498 70.3896L88.5853 68.4546H88.5891L96.4619 39.8758Z" fill="#F5F7FF"/>
<path d="M67.3243 23.2801C67.7319 22.9286 67.7439 22.1876 67.3511 21.6251C66.9584 21.0625 66.3096 20.8914 65.902 21.2429C65.4945 21.5944 65.4824 22.3354 65.8752 22.898C66.2679 23.4606 66.9167 23.6316 67.3243 23.2801Z" fill="#E1E5F7"/>
<path d="M66.404 21.354C66.1874 21.1855 66.0123 20.9592 65.8949 20.6959C65.7774 20.4325 65.7214 20.1406 65.732 19.8469C65.6775 18.1494 66.9633 16.09 68.5402 15.35C68.891 15.177 69.27 15.0858 69.6537 15.0823C69.8603 15.0747 70.066 15.1158 70.2572 15.2028C70.4485 15.2898 70.6211 15.4208 70.7635 15.5872C70.906 15.7536 71.0152 15.9516 71.084 16.1682C71.1528 16.3848 71.1796 16.6152 71.1626 16.8441C71.1678 17.4529 71.0464 18.0548 70.8077 18.6027L71.6994 19.1945C72.0306 18.4574 72.1976 17.6425 72.1861 16.8187C72.1913 16.3398 72.0888 15.8671 71.888 15.4434C71.6871 15.0198 71.3943 14.6585 71.036 14.3925C70.5936 14.119 70.098 13.9691 69.5918 13.9556C69.0857 13.9421 68.5841 14.0655 68.1304 14.3152C66.1432 15.2478 64.6418 17.6891 64.7123 19.8729C64.7071 20.3517 64.8095 20.8245 65.0104 21.2482C65.2112 21.6719 65.504 22.0331 65.8623 22.299C66.075 22.4482 66.3072 22.5601 66.5505 22.6306C66.6249 22.6527 66.7033 22.6519 66.7773 22.6285C66.8513 22.6051 66.9182 22.5598 66.9709 22.4976C67.0237 22.4353 67.0603 22.3583 67.0768 22.2748C67.0934 22.1912 67.0893 22.1043 67.0651 22.0231C67.0299 21.9016 66.9715 21.7898 66.8941 21.6955C66.8166 21.6011 66.7219 21.5264 66.6163 21.4762C66.5424 21.4425 66.4714 21.4016 66.404 21.354Z" fill="#4C4099"/>
<path d="M73.5453 27.3245C73.9529 26.973 73.9649 26.2321 73.5722 25.6696C73.1795 25.107 72.5307 24.9359 72.1232 25.2874C71.7156 25.6389 71.7036 26.3798 72.0963 26.9424C72.4891 27.5049 73.1378 27.676 73.5453 27.3245Z" fill="#E1E5F7"/>
<path d="M72.6263 25.3984C72.4096 25.23 72.2345 25.0037 72.117 24.7403C71.9996 24.477 71.9436 24.185 71.9542 23.8913C71.8993 22.1938 73.1855 20.1345 74.7619 19.3945C75.1127 19.2214 75.4918 19.1303 75.8755 19.1267C76.0821 19.1191 76.2878 19.1602 76.479 19.2472C76.6703 19.3342 76.8429 19.4653 76.9854 19.6316C77.1278 19.798 77.2371 19.9961 77.3058 20.2127C77.3746 20.4293 77.4014 20.6596 77.3844 20.8886C77.3898 21.4973 77.2683 22.0992 77.0296 22.6472L77.9212 23.239C78.2525 22.5018 78.4194 21.687 78.4079 20.8631C78.4131 20.3843 78.3106 19.9116 78.1098 19.4879C77.9089 19.0642 77.6161 18.703 77.2578 18.437C76.8154 18.1635 76.3197 18.0135 75.8135 18C75.3074 17.9865 74.806 18.11 74.3522 18.3596C72.365 19.2922 70.8635 21.7335 70.934 23.9173C70.9288 24.3962 71.0313 24.8689 71.2322 25.2926C71.433 25.7163 71.7258 26.0775 72.0841 26.3435C72.2968 26.4927 72.529 26.6045 72.7723 26.675C72.8467 26.6971 72.9251 26.6964 72.9991 26.6729C73.0731 26.6495 73.14 26.6043 73.1927 26.542C73.2455 26.4797 73.2821 26.4027 73.2986 26.3192C73.3152 26.2357 73.311 26.1487 73.2867 26.0676C73.2516 25.946 73.1934 25.8342 73.116 25.7399C73.0386 25.6455 72.9437 25.5708 72.8381 25.5207C72.7644 25.487 72.6935 25.446 72.6263 25.3984Z" fill="#4C4099"/>
<path d="M79.7675 31.3714C80.175 31.0199 80.1871 30.279 79.7943 29.7164C79.4016 29.1539 78.7529 28.9828 78.3453 29.3343C77.9378 29.6858 77.9258 30.4267 78.3185 30.9892C78.7112 31.5518 79.36 31.7229 79.7675 31.3714Z" fill="#E1E5F7"/>
<path d="M78.846 29.4441C78.6293 29.2756 78.4542 29.0493 78.3367 28.7859C78.2193 28.5226 78.1633 28.2307 78.1738 27.937C78.1188 26.2395 79.4052 24.1801 80.9821 23.4401C81.3327 23.2671 81.7116 23.176 82.0952 23.1723C82.3018 23.1647 82.5074 23.2057 82.6987 23.2927C82.89 23.3797 83.0627 23.5107 83.2052 23.6771C83.3477 23.8435 83.4569 24.0416 83.5256 24.2582C83.5944 24.4749 83.621 24.7053 83.6039 24.9342C83.6092 25.543 83.4878 26.1448 83.2491 26.6928L84.1408 27.2846C84.472 26.5475 84.639 25.7327 84.6275 24.9088C84.6327 24.4299 84.5302 23.9572 84.3294 23.5335C84.1285 23.1099 83.8357 22.7486 83.4774 22.4827C83.0349 22.2091 82.5394 22.0591 82.0332 22.0457C81.5271 22.0322 81.0255 22.1556 80.5718 22.4053C78.5846 23.3379 77.0836 25.7792 77.1537 27.9624C77.1485 28.4413 77.2509 28.914 77.4517 29.3377C77.6526 29.7614 77.9455 30.1226 78.3038 30.3886C78.5167 30.5378 78.749 30.6497 78.9925 30.7202C79.0669 30.7422 79.1451 30.7415 79.2191 30.7181C79.2931 30.6946 79.3601 30.6494 79.4128 30.5871C79.4655 30.5248 79.5021 30.4478 79.5187 30.3643C79.5352 30.2808 79.5312 30.1938 79.5069 30.1127C79.4717 29.9911 79.4135 29.8794 79.336 29.785C79.2586 29.6906 79.1638 29.6159 79.0581 29.5658C78.9843 29.5322 78.9134 29.4915 78.846 29.4441Z" fill="#4C4099"/>
<path d="M85.9897 35.4161C86.3972 35.0646 86.4092 34.3236 86.0165 33.7611C85.6238 33.1986 84.9751 33.0275 84.5675 33.379C84.16 33.7305 84.148 34.4714 84.5407 35.0339C84.9334 35.5964 85.5821 35.7675 85.9897 35.4161Z" fill="#E1E5F7"/>
<path d="M85.0682 33.4909C84.8515 33.3225 84.6764 33.0962 84.5589 32.8328C84.4415 32.5695 84.3855 32.2775 84.396 31.9839C84.3415 30.2864 85.6274 28.227 87.2038 27.487C87.5546 27.314 87.9335 27.2228 88.3173 27.2192C88.5239 27.2116 88.7296 27.2527 88.9208 27.3398C89.1121 27.4268 89.2846 27.5578 89.4271 27.7242C89.5696 27.8906 89.6788 28.0885 89.7476 28.3052C89.8164 28.5218 89.8431 28.7521 89.8261 28.9811C89.8316 29.5898 89.7101 30.1918 89.4713 30.7397L90.363 31.3315C90.6942 30.5944 90.8612 29.7795 90.8497 28.9556C90.8549 28.4768 90.7524 28.0041 90.5516 27.5804C90.3507 27.1567 90.0579 26.7955 89.6996 26.5295C89.2571 26.256 88.7616 26.106 88.2554 26.0925C87.7493 26.0791 87.2477 26.2025 86.794 26.4521C84.8068 27.3847 83.3054 29.826 83.3759 32.0098C83.3707 32.4887 83.4731 32.9614 83.6739 33.3851C83.8748 33.8088 84.1677 34.17 84.526 34.436C84.7389 34.5852 84.9711 34.697 85.2146 34.7676C85.2889 34.7896 85.3673 34.7889 85.4413 34.7655C85.5153 34.742 85.5823 34.6968 85.635 34.6345C85.6877 34.5722 85.7243 34.4952 85.7409 34.4117C85.7574 34.3282 85.7534 34.2413 85.7291 34.1601C85.6939 34.0385 85.6357 33.9268 85.5582 33.8324C85.4808 33.738 85.386 33.6633 85.2803 33.6132C85.2065 33.5795 85.1356 33.5386 85.0682 33.4909Z" fill="#4C4099"/>
<path d="M92.2113 39.4617C92.6189 39.1102 92.6309 38.3693 92.2382 37.8068C91.8455 37.2442 91.1967 37.0731 90.7892 37.4246C90.3816 37.7761 90.3696 38.5171 90.7623 39.0796C91.1551 39.6421 91.8038 39.8132 92.2113 39.4617Z" fill="#E1E5F7"/>
<path d="M91.2894 37.5354C91.0727 37.3669 90.8977 37.1406 90.7802 36.8773C90.6628 36.6139 90.6068 36.322 90.6173 36.0283C90.5623 34.3308 91.8487 32.2714 93.4256 31.5314C93.7762 31.3584 94.155 31.2673 94.5386 31.2636C94.7452 31.2561 94.9508 31.2972 95.1421 31.3842C95.3334 31.4712 95.5059 31.6022 95.6484 31.7686C95.7909 31.935 95.9001 32.133 95.9689 32.3496C96.0376 32.5663 96.0644 32.7966 96.0474 33.0255C96.0526 33.6343 95.931 34.2362 95.6921 34.7841L96.5838 35.3759C96.915 34.6388 97.082 33.8239 97.0705 33.0001C97.0758 32.5212 96.9733 32.0485 96.7725 31.6248C96.5716 31.2011 96.2787 30.8399 95.9204 30.5739C95.478 30.3004 94.9823 30.1505 94.4761 30.137C93.97 30.1235 93.4685 30.2469 93.0148 30.4966C91.0276 31.4292 89.5261 33.8705 89.5966 36.0543C89.5914 36.5331 89.6939 37.0058 89.8948 37.4295C90.0956 37.8532 90.3884 38.2144 90.7467 38.4804C90.9596 38.6296 91.1919 38.7415 91.4354 38.812C91.5098 38.8341 91.5881 38.8333 91.6621 38.8099C91.7361 38.7865 91.8031 38.7412 91.8558 38.679C91.9086 38.6167 91.9451 38.5397 91.9617 38.4562C91.9782 38.3726 91.9742 38.2857 91.9499 38.2045C91.9148 38.083 91.8565 37.9713 91.7792 37.877C91.7018 37.7826 91.6072 37.7078 91.5016 37.6576C91.4278 37.624 91.3567 37.583 91.2894 37.5354Z" fill="#4C4099"/>
<path d="M61.1558 25.0547L92.7368 45.5577" stroke="#A8C4E5" stroke-width="1.73092" stroke-miterlimit="10"/>
<path d="M59.9385 29.6169L91.5195 50.1199" stroke="#A8C4E5" stroke-width="1.73092" stroke-miterlimit="10"/>
<path d="M58.7217 34.1802L90.3027 54.6831" stroke="#A8C4E5" stroke-width="1.73092" stroke-miterlimit="10"/>
<path d="M57.5044 38.7424L89.0854 59.2454" stroke="#A8C4E5" stroke-width="1.73092" stroke-miterlimit="10"/>
<path d="M56.2876 43.3047L87.8686 63.8077" stroke="#A8C4E5" stroke-width="1.73092" stroke-miterlimit="10"/>
<path d="M65.1279 32.9874L60.8877 30.2344L62.1044 25.6721L66.3447 28.425L65.1279 32.9874Z" stroke="#A8C4E5" stroke-width="1.73092" stroke-miterlimit="10"/>
<path d="M69.3681 35.7386L65.1274 32.9857L66.3442 28.4233L70.5849 31.1762L69.3681 35.7386Z" stroke="#A8C4E5" stroke-width="1.73092" stroke-miterlimit="10"/>
<path d="M73.6092 38.4925L69.3687 35.7396L70.5854 31.1772L74.826 33.9301L73.6092 38.4925Z" stroke="#A8C4E5" stroke-width="1.73092" stroke-miterlimit="10"/>
<path d="M77.8496 41.2452L73.6089 38.4923L74.8256 33.9299L79.0663 36.6828L77.8496 41.2452Z" stroke="#A8C4E5" stroke-width="1.73092" stroke-miterlimit="10"/>
<path d="M82.0893 43.9991L77.8486 41.2462L79.0654 36.6838L83.3061 39.4367L82.0893 43.9991Z" stroke="#A8C4E5" stroke-width="1.73092" stroke-miterlimit="10"/>
<path d="M86.3304 46.7515L82.0898 43.9986L83.3066 39.4363L87.5472 42.1892L86.3304 46.7515Z" stroke="#A8C4E5" stroke-width="1.73092" stroke-miterlimit="10"/>
<path d="M90.5708 49.5029L86.3301 46.7501L87.5468 42.1877L91.7875 44.9406L90.5708 49.5029Z" stroke="#A8C4E5" stroke-width="1.73092" stroke-miterlimit="10"/>
<path d="M63.9111 37.5481L59.6704 34.7953L60.8872 30.2329L65.1274 32.9858L63.9111 37.5481Z" stroke="#A8C4E5" stroke-width="1.73092" stroke-miterlimit="10"/>
<path d="M68.1513 40.3008L63.9106 37.548L65.1274 32.9856L69.3681 35.7385L68.1513 40.3008Z" stroke="#A8C4E5" stroke-width="1.73092" stroke-miterlimit="10"/>
<path d="M72.3914 43.0547L68.1509 40.3018L69.3676 35.7395L73.6082 38.4924L72.3914 43.0547Z" stroke="#A8C4E5" stroke-width="1.73092" stroke-miterlimit="10"/>
<path d="M76.6328 45.8074L72.3921 43.0545L73.6088 38.4922L77.8495 41.2451L76.6328 45.8074Z" stroke="#A8C4E5" stroke-width="1.73092" stroke-miterlimit="10"/>
<path d="M80.8729 48.5611L76.6323 45.8082L77.8491 41.2458L82.0896 43.9988L80.8729 48.5611Z" stroke="#A8C4E5" stroke-width="1.73092" stroke-miterlimit="10"/>
<path d="M85.1127 51.3162L80.8726 48.5634L82.0893 44.001L86.3299 46.7539L85.1127 51.3162Z" stroke="#A8C4E5" stroke-width="1.73092" stroke-miterlimit="10"/>
<path d="M89.354 54.064L85.1133 51.3112L86.33 46.7488L90.5707 49.5017L89.354 54.064Z" stroke="#A8C4E5" stroke-width="1.73092" stroke-miterlimit="10"/>
<path d="M62.6943 42.1104L58.4541 39.3575L59.6709 34.7952L63.9111 37.5481L62.6943 42.1104Z" stroke="#A8C4E5" stroke-width="1.73092" stroke-miterlimit="10"/>
<path d="M66.9344 44.8643L62.6943 42.1114L63.9111 37.5491L68.1512 40.3019L66.9344 44.8643Z" stroke="#A8C4E5" stroke-width="1.73092" stroke-miterlimit="10"/>
<path d="M71.1747 47.618L66.9341 44.8651L68.1508 40.3027L72.3914 43.0556L71.1747 47.618Z" stroke="#A8C4E5" stroke-width="1.73092" stroke-miterlimit="10"/>
<path d="M75.4155 50.3694L71.1748 47.6165L72.3916 43.0542L76.6322 45.8071L75.4155 50.3694Z" stroke="#A8C4E5" stroke-width="1.73092" stroke-miterlimit="10"/>
<path d="M79.6561 53.1233L75.4155 50.3704L76.6323 45.8081L80.8728 48.561L79.6561 53.1233Z" stroke="#A8C4E5" stroke-width="1.73092" stroke-miterlimit="10"/>
<path d="M83.8963 55.876L79.6562 53.1231L80.873 48.5608L85.1131 51.3137L83.8963 55.876Z" stroke="#A8C4E5" stroke-width="1.73092" stroke-miterlimit="10"/>
<path d="M88.1362 58.6297L83.8955 55.8768L85.1123 51.3145L89.3529 54.0673L88.1362 58.6297Z" stroke="#A8C4E5" stroke-width="1.73092" stroke-miterlimit="10"/>
<path d="M61.477 46.6739L57.2363 43.921L58.4531 39.3586L62.6938 42.1115L61.477 46.6739Z" stroke="#A8C4E5" stroke-width="1.73092" stroke-miterlimit="10"/>
<path d="M65.7176 49.4264L61.4775 46.6735L62.6943 42.1111L66.9344 44.864L65.7176 49.4264Z" stroke="#A8C4E5" stroke-width="1.73092" stroke-miterlimit="10"/>
<path d="M69.9579 52.1802L65.7173 49.4273L66.934 44.865L71.1746 47.6179L69.9579 52.1802Z" stroke="#A8C4E5" stroke-width="1.73092" stroke-miterlimit="10"/>
<path d="M74.1982 54.9329L69.9575 52.18L71.1743 47.6177L75.415 50.3706L74.1982 54.9329Z" stroke="#A8C4E5" stroke-width="1.73092" stroke-miterlimit="10"/>
<path d="M78.4383 57.6866L74.1978 54.9337L75.4145 50.3713L79.6551 53.1242L78.4383 57.6866Z" stroke="#A8C4E5" stroke-width="1.73092" stroke-miterlimit="10"/>
<path d="M82.6796 60.4381L78.4395 57.6852L79.6562 53.1228L83.8963 55.8757L82.6796 60.4381Z" stroke="#A8C4E5" stroke-width="1.73092" stroke-miterlimit="10"/>
<path d="M86.9194 63.1919L82.6787 60.439L83.8955 55.8767L88.1362 58.6296L86.9194 63.1919Z" stroke="#A8C4E5" stroke-width="1.73092" stroke-miterlimit="10"/>
<path d="M77.1416 48.0016C79.047 47.1384 79.6268 43.8077 78.4366 40.5622C77.2464 37.3167 74.7369 35.3855 72.8314 36.2488C70.926 37.112 70.3462 40.4427 71.5364 43.6882C72.7266 46.9337 75.2361 48.8649 77.1416 48.0016Z" fill="#FF4DBA"/>
<path d="M73.2222 40.449L74.0495 43.8532L77.6078 41.3107" stroke="white" stroke-width="2.67457" stroke-miterlimit="10"/>
<g style="mix-blend-mode:multiply" opacity="0.22">
<path d="M110.451 85.5753L107.011 83.3283L107.007 83.3256L96.2019 76.2694C95.8059 76.0668 95.3728 75.9698 94.9371 75.9861C94.5014 76.0025 94.0752 76.1318 93.6924 76.3636L90.0373 78.6675C89.2946 79.1354 89.2099 79.8575 89.846 80.2757L93.2865 82.5228L93.2905 82.5255L104.095 89.5816C104.491 89.7842 104.924 89.8812 105.36 89.8649C105.796 89.8485 106.222 89.7193 106.605 89.4875L110.26 87.1836C111.002 86.7113 111.088 85.9897 110.451 85.5753Z" fill="#B899A6"/>
</g>
<path d="M94.7248 76.9171L91.6396 74.9021L94.7326 72.9546L97.8475 74.9658L94.7248 76.9171Z" fill="white"/>
<path d="M94.6382 81.5661L97.8167 79.4845L97.8478 74.9617L94.6703 76.9231L94.6382 81.5661Z" fill="#BAD4F5"/>
<path d="M94.6969 81.5586L94.729 76.9161L91.6439 74.9011L91.6118 79.5435L94.6969 81.5586Z" fill="#EDF6FF"/>
<path d="M99.6921 77.5514L96.6187 75.5304L99.7116 73.583L102.797 75.598L99.6921 77.5514Z" fill="#7685DB"/>
<path d="M99.6418 84.8688L96.5845 82.8543L96.6332 75.5381L99.6905 77.5526L99.6418 84.8688Z" fill="#586BDB"/>
<path d="M99.6421 84.8692L102.727 82.9066L102.775 75.5903L99.6906 77.5529L99.6421 84.8692Z" fill="#4C5CBD"/>
<path d="M34.1099 48.0378L30.4669 50.2952L26.5977 48.1915L30.2405 45.9341L34.1099 48.0378Z" fill="#FED7E4"/>
<path d="M30.1504 51.793L26.5075 54.0503L22.6382 51.9466L26.2812 49.6892L30.1504 51.793Z" fill="#7685DB"/>
<g style="mix-blend-mode:multiply" opacity="0.22">
<path d="M90.0206 82.6673L64.9778 66.5974C64.9213 66.5625 64.8588 66.5412 64.7944 66.5351L39.9541 50.5951C39.8838 50.5499 39.8039 50.5261 39.7227 50.5261C39.6414 50.5261 39.5616 50.5499 39.4913 50.5951L5.15987 72.6257C5.12165 72.6502 5.0868 72.6806 5.05626 72.716L2.86123 74.1224C2.79089 74.1676 2.73246 74.2326 2.69185 74.3108C2.65124 74.389 2.62988 74.4777 2.62988 74.568C2.62988 74.6583 2.65124 74.7469 2.69185 74.8251C2.73246 74.9033 2.79089 74.9683 2.86123 75.0134L27.9039 91.0833C27.9604 91.1182 28.0229 91.1394 28.0874 91.1455L52.9276 107.086C52.998 107.131 53.0778 107.155 53.159 107.155C53.2403 107.155 53.3201 107.131 53.3905 107.086L90.021 83.5544C90.0906 83.509 90.1482 83.4441 90.1882 83.3663C90.2282 83.2885 90.2492 83.2003 90.2492 83.1107C90.2491 83.021 90.228 82.933 90.1879 82.8552C90.1478 82.7774 90.0901 82.7126 90.0206 82.6673Z" fill="#B899A6"/>
</g>
<path d="M82.6917 78.4111V79.6553L60.8146 65.6166C60.758 65.5817 60.6955 65.5606 60.631 65.5544L35.7908 49.6143C35.7205 49.5691 35.6407 49.5454 35.5594 49.5454C35.4782 49.5454 35.3983 49.5691 35.328 49.6143L4.1616 69.6137V68.1823L0.764913 70.438V71.9587H0.780538C0.754037 72.068 0.760814 72.1841 0.799906 72.2887C0.838999 72.3933 0.908194 72.4806 0.996619 72.5369L26.0393 88.6069C26.0958 88.6417 26.1583 88.6629 26.2228 88.6691L51.063 104.609C51.1334 104.654 51.2132 104.678 51.2944 104.678C51.3757 104.678 51.4555 104.654 51.5258 104.609L85.8572 82.5785C85.9206 82.5384 85.9743 82.482 86.014 82.414C86.0537 82.3461 86.0782 82.2686 86.0855 82.188H86.0884V80.4802L82.6917 78.4111Z" fill="#4C4099"/>
<path d="M60.84 64.5078H59.8481V65.2431H60.84V64.5078Z" fill="#DD4078"/>
<path d="M26.0382 86.9547L0.995437 70.8848C0.924981 70.8397 0.866504 70.7748 0.825817 70.6965C0.785129 70.6183 0.763672 70.5294 0.763672 70.4391C0.763672 70.3487 0.785129 70.2599 0.825817 70.1817C0.866504 70.1034 0.924981 70.0385 0.995437 69.9933L35.3268 47.9627C35.3972 47.9176 35.477 47.8938 35.5583 47.8938C35.6395 47.8938 35.7194 47.9176 35.7897 47.9627L60.8324 64.0327C60.9027 64.0778 60.9611 64.1427 61.0017 64.2209C61.0423 64.2991 61.0638 64.3879 61.0638 64.4781C61.0638 64.5684 61.0423 64.6571 61.0017 64.7353C60.9611 64.8135 60.9027 64.8784 60.8324 64.9236L26.501 86.9542C26.4307 86.9994 26.3509 87.0233 26.2696 87.0234C26.1884 87.0235 26.1086 86.9998 26.0382 86.9547Z" fill="#FF4DBA"/>
<path d="M51.0622 102.955L26.0194 86.8848C25.9491 86.8397 25.8907 86.7747 25.8501 86.6965C25.8095 86.6183 25.7881 86.5296 25.7881 86.4393C25.7881 86.3491 25.8095 86.2603 25.8501 86.1821C25.8907 86.104 25.9491 86.039 26.0194 85.9938L60.3508 63.9632C60.4212 63.9181 60.5009 63.8943 60.5822 63.8943C60.6634 63.8943 60.7433 63.9181 60.8137 63.9632L85.8564 80.0332C85.9267 80.0783 85.9851 80.1432 86.0257 80.2214C86.0663 80.2996 86.0877 80.3883 86.0877 80.4786C86.0877 80.5689 86.0663 80.6576 86.0257 80.7358C85.9851 80.814 85.9267 80.8789 85.8564 80.9241L51.525 102.955C51.4546 103 51.3748 103.024 51.2935 103.024C51.2123 103.024 51.1325 103 51.0622 102.955Z" fill="#FF4DBA"/>
<path d="M26.3794 84.2418C26.3794 84.2418 16.9525 78.2832 4.72419 69.8272C4.33969 69.5805 4.19271 67.4568 4.37669 65.8161L32.598 48.9542C32.8222 48.8202 33.0716 48.7464 33.3261 48.7389C33.5806 48.7314 33.8331 48.7903 34.0635 48.9109C45.3797 52.7716 54.7638 56.0552 57.922 60.0511C57.922 60.0511 58.2291 64.018 58.2355 65.2443L26.3794 84.2418Z" fill="#E1E5F7"/>
<path d="M26.38 80.2226C26.38 80.2226 15.1144 73.3769 4.37728 65.8166C4.03659 65.5347 35.2205 45.7285 35.2205 45.7285C35.4285 45.5958 35.6646 45.5278 35.9044 45.5314C36.1441 45.535 36.3786 45.6102 36.5832 45.7491C48.3886 51.9532 54.1191 55.9097 57.9221 60.0522L26.38 80.2226Z" fill="#F5F9FF"/>
<path d="M48.3995 98.7477C48.3995 98.7477 37.1338 91.902 26.3967 84.3417C26.056 84.0599 58.1832 63.4434 58.1832 63.4434C58.1832 63.4434 76.1395 74.4348 79.9426 78.5769L48.3995 98.7477Z" fill="#F5F9FF"/>
<path d="M51.214 63.6515C51.6062 63.6515 51.9241 63.3314 51.9241 62.9367C51.9241 62.5419 51.6062 62.2219 51.214 62.2219C50.8218 62.2219 50.5039 62.5419 50.5039 62.9367C50.5039 63.3314 50.8218 63.6515 51.214 63.6515Z" fill="#ACB2CF"/>
<path d="M55.0742 65.7717C55.2449 65.6628 55.3843 65.5024 55.4763 65.3091C55.5684 65.1158 55.6094 64.8976 55.5945 64.6795C55.6368 63.352 54.642 61.555 53.4219 60.7549C53.1582 60.5737 52.8658 60.4501 52.5604 60.3909C52.3416 60.346 52.1157 60.3754 51.9121 60.4753C51.7415 60.5842 51.6021 60.7445 51.5101 60.9378C51.4181 61.1311 51.3774 61.3494 51.3924 61.5674C51.3874 61.931 51.4391 62.2929 51.5452 62.6369C51.5757 62.7369 51.5717 62.8459 51.534 62.9429C51.4963 63.0398 51.4276 63.1177 51.3412 63.1616C51.2936 63.1856 51.2421 63.1984 51.1898 63.1992C51.1375 63.2 51.0856 63.1887 51.0375 63.1661C50.9893 63.1435 50.9459 63.11 50.91 63.0678C50.874 63.0256 50.8463 62.9756 50.8287 62.9209C50.6705 62.4356 50.5937 61.9222 50.602 61.4062C50.587 61.0511 50.6625 60.6985 50.8199 60.389C50.9773 60.0794 51.2101 59.8256 51.4916 59.6568C51.8629 59.5058 52.2618 59.4578 52.6536 59.5171C53.0454 59.5764 53.4183 59.7412 53.7397 59.997C55.2772 61.0048 56.4384 63.1345 56.3839 64.8401C56.399 65.1953 56.3235 65.5479 56.1661 65.8575C56.0087 66.167 55.7758 66.4208 55.4943 66.5896C55.3267 66.6784 55.1466 66.7344 54.9618 66.7551C54.9 66.7585 54.8384 66.7456 54.7819 66.7175C54.7255 66.6893 54.6758 66.6467 54.637 66.5932C54.5981 66.5397 54.5713 66.4767 54.5585 66.4094C54.5458 66.3421 54.5475 66.2724 54.5637 66.206C54.591 66.1167 54.6377 66.0362 54.6996 65.9716C54.7615 65.907 54.8366 65.8603 54.9185 65.8355C54.9721 65.8198 55.0243 65.7985 55.0742 65.7717Z" fill="#4C4099"/>
<path d="M47.6051 66.3944C47.9973 66.3944 48.3152 66.0744 48.3152 65.6796C48.3152 65.2849 47.9973 64.9648 47.6051 64.9648C47.2129 64.9648 46.895 65.2849 46.895 65.6796C46.895 66.0744 47.2129 66.3944 47.6051 66.3944Z" fill="#ACB2CF"/>
<path d="M51.4653 68.5145C51.636 68.4056 51.7754 68.2451 51.8674 68.0517C51.9594 67.8583 52.0003 67.6399 51.9852 67.4218C52.0275 66.0943 51.0327 64.2973 49.8125 63.4972C49.5488 63.316 49.2564 63.1925 48.951 63.1332C48.7322 63.0883 48.5063 63.1177 48.3027 63.2176C48.132 63.3265 47.9926 63.4869 47.9005 63.6803C47.8084 63.8737 47.7675 64.0922 47.7825 64.3103C47.7776 64.6739 47.8293 65.0357 47.9353 65.3797C47.9658 65.4797 47.9618 65.5888 47.9242 65.6857C47.8865 65.7827 47.8179 65.8606 47.7314 65.9044C47.6838 65.9284 47.6322 65.9412 47.5799 65.9419C47.5277 65.9427 47.4759 65.9314 47.4277 65.9088C47.3796 65.8862 47.3362 65.8527 47.3002 65.8105C47.2643 65.7684 47.2365 65.7184 47.2188 65.6637C47.0608 65.1785 46.984 64.6651 46.9921 64.1491C46.9771 63.7939 47.0526 63.4413 47.21 63.1318C47.3674 62.8223 47.6002 62.5685 47.8817 62.3996C48.2531 62.2486 48.6519 62.2007 49.0437 62.26C49.4355 62.3193 49.8084 62.484 50.1299 62.7399C51.6674 63.7477 52.8286 65.8774 52.774 67.583C52.7891 67.9382 52.7137 68.2908 52.5562 68.6003C52.3988 68.9098 52.1659 69.1636 51.8844 69.3324C51.7168 69.4213 51.5367 69.4773 51.352 69.498C51.2902 69.5014 51.2285 69.4885 51.1721 69.4603C51.1156 69.4322 51.0659 69.3896 51.0271 69.3361C50.9883 69.2825 50.9614 69.2196 50.9487 69.1523C50.9359 69.085 50.9377 69.0153 50.9538 68.9489C50.9811 68.8596 51.0277 68.779 51.0896 68.7144C51.1515 68.6498 51.2267 68.6031 51.3086 68.5783C51.3626 68.5627 51.4151 68.5414 51.4653 68.5145Z" fill="#4C4099"/>
<path d="M43.9957 69.1373C44.3879 69.1373 44.7058 68.8173 44.7058 68.4225C44.7058 68.0278 44.3879 67.7078 43.9957 67.7078C43.6036 67.7078 43.2856 68.0278 43.2856 68.4225C43.2856 68.8173 43.6036 69.1373 43.9957 69.1373Z" fill="#ACB2CF"/>
<path d="M47.856 71.257C48.0265 71.148 48.166 70.9876 48.2579 70.7943C48.3499 70.601 48.3908 70.3828 48.3758 70.1648C48.4182 68.8373 47.4233 67.0403 46.2031 66.2402C45.9395 66.059 45.6472 65.9354 45.3418 65.8761C45.123 65.8313 44.8971 65.8607 44.6935 65.9605C44.5229 66.0695 44.3835 66.2299 44.2915 66.4232C44.1995 66.6164 44.1587 66.8347 44.1736 67.0527C44.1687 67.4162 44.2204 67.7778 44.3264 68.1216C44.357 68.2216 44.3531 68.3307 44.3154 68.4276C44.2777 68.5245 44.209 68.6025 44.1225 68.6464C44.0749 68.6704 44.0234 68.6832 43.9712 68.684C43.9189 68.6848 43.867 68.6735 43.8188 68.6509C43.7707 68.6282 43.7273 68.5948 43.6913 68.5526C43.6554 68.5104 43.6277 68.4603 43.6101 68.4056C43.4519 67.9203 43.375 67.407 43.3832 66.891C43.3682 66.5359 43.4437 66.1832 43.6011 65.8737C43.7585 65.5642 43.9915 65.3104 44.273 65.1416C44.6443 64.9906 45.0432 64.9427 45.4349 65.002C45.8267 65.0613 46.1995 65.226 46.521 65.4818C48.058 66.4896 49.2198 68.6193 49.1653 70.3249C49.1803 70.68 49.1048 71.0327 48.9474 71.3422C48.79 71.6517 48.557 71.9055 48.2755 72.0743C48.1079 72.1631 47.9278 72.2191 47.7431 72.2399C47.6813 72.2433 47.6196 72.2304 47.5632 72.2022C47.5067 72.1741 47.4572 72.1316 47.4183 72.078C47.3795 72.0245 47.3525 71.9615 47.3398 71.8942C47.3271 71.8269 47.3289 71.7572 47.345 71.6908C47.3724 71.6015 47.419 71.521 47.4808 71.4564C47.5427 71.3918 47.6179 71.3451 47.6998 71.3203C47.7536 71.3048 47.8058 71.2836 47.856 71.257Z" fill="#4C4099"/>
<path d="M35.2365 73.6715C35.6286 73.6715 35.9466 73.3515 35.9466 72.9567C35.9466 72.562 35.6286 72.2419 35.2365 72.2419C34.8443 72.2419 34.5264 72.562 34.5264 72.9567C34.5264 73.3515 34.8443 73.6715 35.2365 73.6715Z" fill="#ACB2CF"/>
<path d="M39.0962 75.7916C39.2668 75.6827 39.4061 75.5223 39.4981 75.3291C39.59 75.1358 39.6309 74.9175 39.6159 74.6995C39.6583 73.372 38.6635 71.575 37.4434 70.7749C37.1797 70.5937 36.8873 70.4701 36.5819 70.4108C36.3631 70.366 36.1372 70.3954 35.9336 70.4952C35.763 70.6042 35.6236 70.7647 35.5316 70.9581C35.4396 71.1515 35.3987 71.3698 35.4137 71.5879C35.4089 71.9514 35.4607 72.313 35.5667 72.6569C35.5972 72.7569 35.5932 72.8659 35.5555 72.9628C35.5178 73.0598 35.4491 73.1377 35.3627 73.1816C35.3151 73.2056 35.2636 73.2184 35.2113 73.2192C35.159 73.22 35.1071 73.2088 35.0589 73.1861C35.0108 73.1635 34.9674 73.13 34.9314 73.0878C34.8955 73.0456 34.8678 72.9955 34.8502 72.9408C34.692 72.4556 34.6152 71.9423 34.6235 71.4262C34.6084 71.0711 34.684 70.7185 34.8414 70.409C34.9988 70.0995 35.2316 69.8457 35.5131 69.6768C35.8844 69.5258 36.2833 69.4778 36.6751 69.5371C37.0668 69.5964 37.4396 69.7612 37.7611 70.0171C39.2986 71.0248 40.4599 73.1546 40.4059 74.8602C40.4209 75.2153 40.3454 75.5679 40.1879 75.8774C40.0305 76.1869 39.7977 76.4407 39.5162 76.6096C39.3487 76.6984 39.1685 76.7544 38.9838 76.7751C38.922 76.7785 38.8603 76.7656 38.8039 76.7374C38.7474 76.7093 38.6978 76.6668 38.6589 76.6132C38.6201 76.5597 38.5932 76.4967 38.5805 76.4294C38.5678 76.3621 38.5695 76.2924 38.5856 76.226C38.613 76.1367 38.6597 76.0563 38.7216 75.9916C38.7834 75.927 38.8585 75.8803 38.9404 75.8555C38.994 75.8397 39.0462 75.8183 39.0962 75.7916Z" fill="#4C4099"/>
<path d="M31.6276 76.4144C32.0198 76.4144 32.3377 76.0944 32.3377 75.6996C32.3377 75.3049 32.0198 74.9849 31.6276 74.9849C31.2354 74.9849 30.9175 75.3049 30.9175 75.6996C30.9175 76.0944 31.2354 76.4144 31.6276 76.4144Z" fill="#ACB2CF"/>
<path d="M35.4873 78.5358C35.6579 78.4269 35.7973 78.2666 35.8893 78.0733C35.9813 77.88 36.0222 77.6617 36.0072 77.4436C36.0495 76.1162 35.0546 74.3191 33.835 73.5191C33.5713 73.3378 33.2789 73.2143 32.9735 73.155C32.7547 73.1102 32.5288 73.1396 32.3252 73.2394C32.1545 73.3484 32.0152 73.5088 31.9232 73.7022C31.8312 73.8956 31.7904 74.114 31.8055 74.3321C31.8006 74.6956 31.8523 75.0572 31.9583 75.401C31.9888 75.501 31.9849 75.6101 31.9472 75.707C31.9095 75.804 31.8408 75.8819 31.7544 75.9257C31.7068 75.9498 31.6552 75.9627 31.6029 75.9634C31.5506 75.9642 31.4988 75.9529 31.4507 75.9303C31.4025 75.9077 31.3591 75.8742 31.3232 75.832C31.2872 75.7897 31.2595 75.7397 31.2419 75.685C31.0837 75.1998 31.0068 74.6864 31.0151 74.1704C31 73.8152 31.0756 73.4626 31.233 73.1531C31.3904 72.8436 31.6233 72.5898 31.9048 72.4209C32.2761 72.2699 32.675 72.222 33.0668 72.2813C33.4586 72.3406 33.8314 72.5053 34.1528 72.7612C35.6903 73.769 36.8516 75.8987 36.7971 77.6043C36.8121 77.9594 36.7365 78.312 36.5791 78.6216C36.4217 78.9311 36.1889 79.1849 35.9074 79.3537C35.7398 79.4425 35.5597 79.4986 35.3749 79.5193C35.3131 79.5227 35.2515 79.5098 35.195 79.4816C35.1386 79.4535 35.0889 79.4109 35.0501 79.3574C35.0112 79.3038 34.9844 79.2408 34.9716 79.1735C34.9589 79.1062 34.9606 79.0366 34.9767 78.9702C35.0041 78.8809 35.0508 78.8004 35.1127 78.7358C35.1745 78.6712 35.2497 78.6244 35.3316 78.5996C35.3852 78.5839 35.4374 78.5626 35.4873 78.5358Z" fill="#4C4099"/>
<path d="M28.0182 79.1585C28.4104 79.1585 28.7283 78.8385 28.7283 78.4438C28.7283 78.049 28.4104 77.729 28.0182 77.729C27.626 77.729 27.3081 78.049 27.3081 78.4438C27.3081 78.8385 27.626 79.1585 28.0182 79.1585Z" fill="#ACB2CF"/>
<path d="M31.8781 81.2778C32.0486 81.1688 32.1879 81.0084 32.2799 80.8151C32.3719 80.6219 32.4127 80.4036 32.3978 80.1856C32.4401 78.8581 31.4454 77.0605 30.2252 76.261C29.9616 76.0798 29.6692 75.9562 29.3638 75.897C29.1449 75.852 28.919 75.8815 28.7155 75.9813C28.5448 76.0902 28.4053 76.2506 28.3132 76.4438C28.2212 76.6371 28.1802 76.8555 28.1951 77.0735C28.1902 77.437 28.2419 77.7986 28.3479 78.1424C28.3785 78.2424 28.3746 78.3515 28.3369 78.4484C28.2992 78.5454 28.2305 78.6233 28.144 78.6671C28.0964 78.6912 28.0449 78.7041 27.9927 78.7048C27.9404 78.7056 27.8885 78.6943 27.8403 78.6717C27.7922 78.6491 27.7488 78.6156 27.7128 78.5734C27.6769 78.5312 27.6492 78.4811 27.6315 78.4264C27.4735 77.9412 27.3966 77.4278 27.4047 76.9118C27.3897 76.5566 27.4652 76.204 27.6226 75.8944C27.78 75.5849 28.0129 75.3311 28.2945 75.1623C28.6658 75.0113 29.0647 74.9634 29.4564 75.0227C29.8482 75.082 30.221 75.2467 30.5425 75.5026C32.0795 76.5104 33.2413 78.6401 33.1868 80.3457C33.2018 80.7008 33.1263 81.0535 32.9689 81.363C32.8115 81.6725 32.5785 81.9263 32.297 82.0951C32.1294 82.1839 31.9493 82.2399 31.7646 82.2607C31.7028 82.2641 31.6411 82.2512 31.5847 82.223C31.5282 82.1949 31.4787 82.1523 31.4398 82.0988C31.401 82.0452 31.374 81.9823 31.3613 81.915C31.3486 81.8477 31.3504 81.778 31.3665 81.7116C31.3939 81.6223 31.4405 81.5418 31.5023 81.4772C31.5642 81.4126 31.6394 81.3658 31.7213 81.341C31.7753 81.3255 31.8277 81.3044 31.8781 81.2778Z" fill="#4C4099"/>
<path d="M79.9421 78.5759L82.3819 80.5872L78.1787 83.8735L70.3521 84.2408L79.9421 78.5759Z" fill="#F5F9FF"/>
<path d="M46.1473 59.3958L33.334 51.1734L36.1874 49.3423L49.0008 57.5647L46.1473 59.3958Z" stroke="#4C4099" stroke-width="1.6384" stroke-linecap="round" stroke-linejoin="round"/>
<path d="M41.4834 62.4243L28.6699 54.202L31.5235 52.3708L44.3368 60.5932L41.4834 62.4243Z" stroke="#4C4099" stroke-width="1.6384" stroke-linecap="round" stroke-linejoin="round"/>
<path d="M36.8192 65.4563L24.0059 57.2339L26.8594 55.4028L39.6727 63.6252L36.8192 65.4563Z" stroke="#4C4099" stroke-width="1.6384" stroke-linecap="round" stroke-linejoin="round"/>
<path d="M32.1561 68.4862L19.3428 60.2637L22.1962 58.4326L35.0096 66.6551L32.1561 68.4862Z" stroke="#4C4099" stroke-width="1.6384" stroke-linecap="round" stroke-linejoin="round"/>
<path d="M27.4911 71.5159L14.6777 63.2935L17.5313 61.4624L30.3446 69.6848L27.4911 71.5159Z" stroke="#4C4099" stroke-width="1.6384" stroke-linecap="round" stroke-linejoin="round"/>
<path d="M22.827 74.5466L10.0137 66.3243L12.8671 64.4932L25.6805 72.7155L22.827 74.5466Z" stroke="#4C4099" stroke-width="1.6384" stroke-linecap="round" stroke-linejoin="round"/>
<path d="M69.0257 77.8579L56.2124 69.6356L59.0659 67.8044L71.8793 76.0268L69.0257 77.8579Z" stroke="#4C4099" stroke-width="1.6384" stroke-linecap="round" stroke-linejoin="round"/>
<path d="M55.1165 73.5205L52.9702 72.1433L55.1034 70.7747L57.2498 72.1519L55.1165 73.5205Z" stroke="#4C4099" stroke-width="1.6384" stroke-linecap="round" stroke-linejoin="round"/>
<path d="M51.5444 75.968L49.3979 74.5908L51.5312 73.2222L53.6776 74.5994L51.5444 75.968Z" stroke="#4C4099" stroke-width="1.6384" stroke-linecap="round" stroke-linejoin="round"/>
<path d="M47.971 78.4119L45.8247 77.0346L47.9578 75.666L50.1043 77.0433L47.971 78.4119Z" stroke="#4C4099" stroke-width="1.6384" stroke-linecap="round" stroke-linejoin="round"/>
<path d="M44.3983 80.8572L42.252 79.4799L44.3852 78.1113L46.5315 79.4886L44.3983 80.8572Z" stroke="#4C4099" stroke-width="1.6384" stroke-linecap="round" stroke-linejoin="round"/>
<path d="M40.8261 83.3023L38.6797 81.925L40.8129 80.5564L42.9592 81.9337L40.8261 83.3023Z" stroke="#4C4099" stroke-width="1.6384" stroke-linecap="round" stroke-linejoin="round"/>
<path d="M37.2537 85.7473L35.1074 84.3701L37.2405 83.0015L39.387 84.3787L37.2537 85.7473Z" stroke="#4C4099" stroke-width="1.6384" stroke-linecap="round" stroke-linejoin="round"/>
<path d="M57.6416 72.5811L67.5552 78.8403" stroke="#4C4099" stroke-width="1.6384" stroke-linecap="round" stroke-linejoin="round"/>
<path d="M56.1074 73.9094L61.7819 77.4921" stroke="#4C4099" stroke-width="1.6384" stroke-linecap="round" stroke-linejoin="round"/>
<path d="M54.0459 75.2837L63.9595 81.543" stroke="#4C4099" stroke-width="1.6384" stroke-linecap="round" stroke-linejoin="round"/>
<path d="M52.5117 76.6108L58.1862 80.1935" stroke="#4C4099" stroke-width="1.6384" stroke-linecap="round" stroke-linejoin="round"/>
<path d="M50.4507 77.9829L60.3643 84.2422" stroke="#4C4099" stroke-width="1.6384" stroke-linecap="round" stroke-linejoin="round"/>
<path d="M48.916 79.3113L54.5905 82.894" stroke="#4C4099" stroke-width="1.6384" stroke-linecap="round" stroke-linejoin="round"/>
<path d="M46.855 80.6858L56.7686 86.9451" stroke="#4C4099" stroke-width="1.6384" stroke-linecap="round" stroke-linejoin="round"/>
<path d="M45.3208 82.0117L50.9952 85.5944" stroke="#4C4099" stroke-width="1.6384" stroke-linecap="round" stroke-linejoin="round"/>
<path d="M43.2593 83.386L53.1729 89.6453" stroke="#4C4099" stroke-width="1.6384" stroke-linecap="round" stroke-linejoin="round"/>
<path d="M41.7251 84.7144L47.3995 88.297" stroke="#4C4099" stroke-width="1.6384" stroke-linecap="round" stroke-linejoin="round"/>
<path d="M39.6641 86.0852L49.5777 92.3445" stroke="#4C4099" stroke-width="1.6384" stroke-linecap="round" stroke-linejoin="round"/>
<path d="M38.1299 87.4136L43.8043 90.9963" stroke="#4C4099" stroke-width="1.6384" stroke-linecap="round" stroke-linejoin="round"/>
<path d="M18.8265 19.9763C19.2059 19.6702 19.2902 19.0802 19.0147 18.6585C18.7393 18.2367 18.2085 18.143 17.8291 18.4491C17.4497 18.7553 17.3654 19.3453 17.6408 19.767C17.9163 20.1887 18.4471 20.2824 18.8265 19.9763Z" stroke="white" stroke-width="3.86008" stroke-linecap="round" stroke-linejoin="round"/>
<path d="M101.413 13.5271C102.145 13.0197 102.369 11.9484 101.912 11.1342C101.456 10.3201 100.492 10.0715 99.7594 10.579C99.0269 11.0864 98.8032 12.1578 99.2598 12.9719C99.7163 13.786 100.68 14.0346 101.413 13.5271Z" stroke="white" stroke-width="3.86008" stroke-linecap="round" stroke-linejoin="round"/>
<g style="mix-blend-mode:multiply" opacity="0.22">
<path d="M72.8069 80.8489C72.7277 80.5166 72.5346 80.2321 72.269 80.0562C72.0033 79.8802 71.6862 79.8269 71.3857 79.9076L48.2319 86.2611C48.0577 86.3088 47.8962 86.4015 47.7602 86.5315L45.6344 88.234C45.5989 88.263 45.5724 88.3035 45.5586 88.35C45.5448 88.3966 45.5443 88.4467 45.5573 88.4935C45.5703 88.5403 45.5961 88.5815 45.6311 88.6113C45.6661 88.641 45.7086 88.658 45.7526 88.6597L48.412 88.7917C48.5466 88.8083 48.6828 88.7986 48.8144 88.763L71.9682 82.4095C72.1159 82.369 72.2548 82.2964 72.377 82.1958C72.4992 82.0952 72.6024 81.9687 72.6804 81.8235C72.7583 81.6784 72.8097 81.5176 72.8314 81.3503C72.8531 81.1831 72.8448 81.0126 72.8069 80.8489Z" fill="#B899A6"/>
</g>
<path d="M71.6764 81.3688L48.5226 87.7222C48.222 87.803 47.9049 87.7497 47.6392 87.5737C47.3736 87.3978 47.1805 87.1132 47.1013 86.781C47.0634 86.6173 47.055 86.4468 47.0767 86.2794C47.0984 86.1121 47.1498 85.9512 47.2277 85.806C47.3057 85.6608 47.4087 85.5343 47.531 85.4336C47.6532 85.333 47.7923 85.2604 47.94 85.2198L71.0938 78.8664C71.3944 78.7856 71.7115 78.8389 71.9771 79.0148C72.2428 79.1908 72.4358 79.4754 72.5149 79.8076C72.5529 79.9714 72.5613 80.1418 72.5396 80.3092C72.5179 80.4765 72.4666 80.6375 72.3886 80.7826C72.3106 80.9278 72.2075 81.0543 72.0852 81.1549C71.963 81.2555 71.824 81.3283 71.6764 81.3688Z" fill="#4C4099"/>
<path d="M47.4673 85.4917L45.3413 87.1945C45.3058 87.2235 45.2793 87.2641 45.2655 87.3106C45.2517 87.3571 45.2513 87.4073 45.2644 87.4541C45.2774 87.5009 45.3031 87.5421 45.3381 87.5719C45.3731 87.6017 45.4156 87.6186 45.4597 87.6203L48.2757 87.7605L47.4673 85.4917Z" fill="#4C4099"/>
<g style="mix-blend-mode:multiply" opacity="0.22">
<path d="M77.6662 111.739L66.6708 104.923C66.0118 104.515 66.0842 103.782 66.8318 103.285L86.3973 90.2925C86.7807 90.0461 87.2107 89.903 87.6529 89.8748C88.095 89.8466 88.537 89.9341 88.9432 90.1302L99.9387 96.9462C100.598 97.3546 100.525 98.0875 99.7776 98.5841L80.2123 111.577C79.8289 111.823 79.3988 111.966 78.9567 111.994C78.5145 112.023 78.0725 111.935 77.6662 111.739Z" fill="#B899A6"/>
</g>
<path d="M97.3914 95.8949L86.3959 89.0789C85.9896 88.8828 85.5476 88.7953 85.1053 88.8235C84.6631 88.8517 84.2329 88.9947 83.8495 89.2413L64.3283 102.204L63.6528 101.733L63.7015 102.947C63.6573 103.131 63.6755 103.327 63.7529 103.497C63.8303 103.668 63.9612 103.8 64.121 103.87L75.1166 110.686C75.5228 110.882 75.9647 110.97 76.4069 110.941C76.849 110.913 77.2791 110.77 77.6625 110.524L97.2278 97.5312C97.9778 97.0363 98.0499 96.3033 97.3914 95.8949Z" fill="white"/>
<path d="M97.8384 96.5537L97.8229 95.2105L96.4285 95.2986L86.3951 89.0777C85.9889 88.8816 85.547 88.7941 85.1048 88.8223C84.6627 88.8505 84.2326 88.9936 83.8492 89.24L76.2144 103.942L76.3574 110.944C76.8165 110.921 77.264 110.777 77.6638 110.525L97.2291 97.5328C97.391 97.4502 97.5316 97.3237 97.6381 97.165C97.7446 97.0063 97.8134 96.8205 97.8384 96.6246C97.8396 96.601 97.8396 96.5773 97.8384 96.5537Z" fill="#EDF6FF"/>
<path d="M75.1002 109.3L64.1046 102.485C63.4461 102.076 63.5182 101.343 64.2658 100.846L83.8311 87.854C84.2145 87.6075 84.6445 87.4645 85.0867 87.4363C85.5289 87.4081 85.9708 87.4956 86.377 87.6917L97.3726 94.5077C98.0316 94.9161 97.959 95.6491 97.2114 96.1457L77.6461 109.138C77.2627 109.384 76.8328 109.527 76.3906 109.556C75.9485 109.584 75.5065 109.496 75.1002 109.3Z" fill="#4C4099"/>
<path d="M94.4386 98.7566L95.6188 97.9726C95.6573 97.9407 95.6889 97.8992 95.7105 97.8515C95.7321 97.8038 95.7434 97.7511 95.7435 97.6977C95.7435 97.5933 95.6836 97.5457 95.6135 97.5895L94.4331 98.373C94.3945 98.4049 94.3633 98.4463 94.3416 98.494C94.32 98.5417 94.3087 98.5945 94.3086 98.6479C94.3096 98.7556 94.368 98.8026 94.4386 98.7566Z" fill="#4C4099"/>
<path d="M92.7652 99.9634L93.9454 99.1794C93.9839 99.1474 94.0153 99.1059 94.0369 99.0582C94.0585 99.0105 94.0697 98.958 94.0699 98.9046C94.0699 98.8002 94.01 98.7525 93.9399 98.7963L92.7598 99.5803C92.7212 99.6122 92.6899 99.6537 92.6683 99.7014C92.6467 99.7492 92.6353 99.8018 92.6353 99.8552C92.6372 99.9623 92.6956 100.01 92.7652 99.9634Z" fill="#4C4099"/>
<path d="M84.4556 88.5696L68.0022 99.4967C67.9148 99.5547 67.8427 99.6372 67.7931 99.736C67.7435 99.8348 67.7183 99.9465 67.7198 100.06C67.7213 100.173 67.7497 100.283 67.8019 100.38C67.8541 100.477 67.9284 100.558 68.0173 100.613L78.1801 106.911C78.2689 106.967 78.3693 106.995 78.4711 106.993C78.5728 106.991 78.6724 106.96 78.7598 106.902L95.2132 95.9746C95.3005 95.9166 95.3726 95.8341 95.4222 95.7353C95.4717 95.6365 95.4971 95.5249 95.4956 95.4117C95.4941 95.2986 95.4657 95.1881 95.4135 95.091C95.3613 94.9939 95.287 94.9137 95.1981 94.8586L85.0352 88.5598C84.9463 88.5048 84.846 88.4766 84.7442 88.4783C84.6425 88.4801 84.5429 88.5116 84.4556 88.5696Z" fill="white"/>
<path d="M89.3948 97.7393L80.9983 92.5353C80.6089 92.2935 80.6507 91.8592 81.0956 91.5649L83.8065 89.7646C84.0339 89.6188 84.2887 89.5343 84.5507 89.5179C84.8128 89.5014 85.0746 89.5534 85.3152 89.6699L93.7124 94.8739C94.1017 95.1157 94.0598 95.55 93.6149 95.8443L90.9041 97.6446C90.6767 97.7905 90.4217 97.875 90.1596 97.8915C89.8974 97.9079 89.6355 97.8559 89.3948 97.7393Z" fill="#CED8F7"/>
<path d="M84.2686 92.8642C85.3077 92.8527 86.1453 92.3026 86.1393 91.6356C86.1333 90.9686 85.286 90.4373 84.2468 90.4488C83.2076 90.4604 82.3701 91.0104 82.3761 91.6774C82.3821 92.3444 83.2294 92.8758 84.2686 92.8642Z" fill="white"/>
<path d="M86.7573 92.5867L91.8219 95.7415" stroke="white" stroke-width="1.96196" stroke-linecap="round" stroke-linejoin="round"/>
<path d="M85.8403 93.4836L88.4729 95.1242" stroke="white" stroke-width="1.96196" stroke-linecap="round" stroke-linejoin="round"/>
<path d="M84.095 101.388L75.6985 96.1838C75.3091 95.942 75.3509 95.5075 75.7958 95.2132L78.5067 93.413C78.734 93.2671 78.9889 93.1825 79.2509 93.166C79.513 93.1496 79.7748 93.2018 80.0154 93.3183L88.412 98.5223C88.8013 98.7641 88.7595 99.1985 88.3147 99.4927L85.6038 101.293C85.3765 101.439 85.1216 101.523 84.8595 101.54C84.5975 101.556 84.3356 101.504 84.095 101.388Z" fill="#7685DB"/>
<path d="M78.97 96.5109C80.0092 96.4999 80.8469 95.9503 80.8412 95.2833C80.8355 94.6164 79.9885 94.0846 78.9494 94.0956C77.9102 94.1066 77.0725 94.6562 77.0782 95.3231C77.0839 95.9901 77.9309 96.5219 78.97 96.5109Z" fill="white"/>
<path d="M81.46 96.2324L86.5246 99.3872" stroke="white" stroke-width="1.96196" stroke-linecap="round" stroke-linejoin="round"/>
<path d="M80.543 97.1292L83.1755 98.7697" stroke="white" stroke-width="1.96196" stroke-linecap="round" stroke-linejoin="round"/>
<path d="M78.7967 105.028L70.4001 99.8245C70.0108 99.5827 70.0526 99.1482 70.4974 98.854L73.2084 97.0538C73.4357 96.9079 73.6907 96.8234 73.9527 96.8069C74.2148 96.7905 74.4766 96.8426 74.7172 96.9591L83.1138 102.163C83.5031 102.405 83.4613 102.839 83.0165 103.133L80.3055 104.934C80.0782 105.079 79.8232 105.164 79.5612 105.181C79.2991 105.197 79.0373 105.145 78.7967 105.028Z" fill="#CED8F7"/>
<path d="M73.6728 100.154C74.712 100.142 75.5496 99.5919 75.5436 98.9249C75.5376 98.2579 74.6903 97.7266 73.6511 97.7381C72.6119 97.7497 71.7744 98.2997 71.7804 98.9667C71.7864 99.6337 72.6337 100.165 73.6728 100.154Z" fill="white"/>
<path d="M76.1616 99.8772L81.2262 103.032" stroke="white" stroke-width="1.96196" stroke-linecap="round" stroke-linejoin="round"/>
<path d="M75.2446 100.773L77.8772 102.414" stroke="white" stroke-width="1.96196" stroke-linecap="round" stroke-linejoin="round"/>
<path d="M72.2803 83.6093L79.4961 78.6677L81.8322 80.4794L77.9746 83.46L72.2803 83.6093Z" fill="#7685DB"/>
<g style="mix-blend-mode:multiply" opacity="0.22">
<path d="M1.18937 92.2401C1.20563 92.2799 1.2248 92.3181 1.24676 92.3543C1.51785 92.8049 2.27711 93.1657 3.32011 93.0354C3.34201 93.0327 3.91341 92.9591 4.83279 92.8806C4.89898 92.9402 4.96713 92.9996 5.0377 93.0597C11.4237 98.4778 16.8645 94.1015 16.8645 94.1015L17.0154 94.2065L17.4836 94.531L17.6345 94.636C17.6345 94.636 12.3961 98.6487 18.8605 102.768C20.0021 103.509 21.2653 103.989 22.576 104.18C22.4095 105.01 22.1789 105.823 21.8868 106.609C21.8285 106.743 21.804 106.893 21.8159 107.041C21.8278 107.19 21.8756 107.332 21.9544 107.453C22.2228 107.804 22.5998 108.031 23.011 108.088C23.4047 108.19 23.8165 108.165 24.1976 108.015C24.5786 107.864 24.9128 107.596 25.1608 107.241C25.7341 106.221 26.1213 105.085 26.3002 103.899C27.5961 103.518 28.8285 102.907 29.9505 102.092C30.1025 101.982 30.2311 101.836 30.3273 101.665C30.4235 101.494 30.4849 101.302 30.5073 101.102C30.5296 100.902 30.5125 100.699 30.4569 100.507C30.4013 100.315 30.3087 100.139 30.1855 99.9908C29.6688 99.3796 29.1068 98.8177 28.5054 98.3112C26.7342 96.6657 24.7793 95.281 22.6893 94.1914C22.3146 93.993 21.9379 93.8022 21.5592 93.619C21.4682 93.5341 21.3782 93.4497 21.2847 93.3648C19.3852 91.6919 17.3371 90.2388 15.1723 89.028C13.0187 87.2448 10.6038 85.8892 8.03431 85.0212C7.75431 84.9276 7.45356 84.9467 7.18502 85.0753C5.9342 85.6806 2.34333 87.6945 3.1717 90.5215C2.98724 90.5518 2.80275 90.5832 2.6178 90.6184C1.45021 90.8651 0.996635 91.7668 1.18937 92.2401ZM4.65901 89.6019C4.65674 89.7613 4.65954 89.9209 4.66733 90.0807C4.64562 89.9222 4.6428 89.7612 4.65901 89.6019Z" fill="#B899A6"/>
</g>
<path d="M24.5469 106.026C25.2302 104.875 25.6462 103.555 25.7578 102.182C25.8694 100.809 25.6731 99.427 25.1865 98.1592C24.4034 96.056 22.769 94.0756 20.6056 91.9129C16.6554 88.094 12.1835 84.9984 7.35761 82.7422L6.22314 83.1101C6.27181 83.1458 16.8853 90.2543 21.0285 95.8839C23.5852 99.3547 21.2418 105.321 21.2169 105.384C21.1576 105.52 21.1327 105.672 21.1447 105.823C21.1568 105.974 21.2055 106.119 21.2856 106.242C21.5581 106.6 21.9415 106.831 22.3602 106.891C22.7609 106.994 23.18 106.967 23.5676 106.814C23.9552 106.661 24.295 106.387 24.5469 106.026Z" fill="#383173"/>
<path d="M22.0346 92.7527C19.1803 91.2314 16.1572 90.1372 13.0442 89.4985C9.21196 88.7238 5.45512 88.384 1.62187 89.1197C0.431401 89.368 -0.0304506 90.285 0.16569 90.7665C0.18223 90.8069 0.201762 90.8458 0.224091 90.8827C0.500051 91.3409 1.27196 91.7071 2.33297 91.5751C2.42155 91.5637 11.2323 90.4348 16.2341 92.2513C20.8379 93.8684 25.2772 96.0155 29.4797 98.6577L29.4008 98.4722C29.3711 98.444 26.9795 95.3709 22.0346 92.7527Z" fill="#383173"/>
<path d="M3.88644 91.2354C10.3815 96.7455 15.9162 92.2946 15.9162 92.2946L16.0695 92.4028L16.5455 92.7344L16.6993 92.8425C16.6993 92.8425 11.3714 96.924 17.9462 101.113C22.8025 104.207 27.2388 101.862 29.226 100.424C29.4937 100.231 29.6851 99.9313 29.7614 99.5866L29.9823 98.7324L29.7336 98.8011C29.6771 98.6104 29.5843 98.4355 29.4616 98.2883C28.0954 96.6476 25.6458 93.3083 18.8408 91.1689L17.04 90.4267C16.1236 86.25 8.89892 82.9973 7.23732 82.451C6.78106 82.4306 6.32656 82.5243 5.90721 82.7252C4.28358 83.509 -1.07012 87.0317 3.88644 91.2354ZM17.6673 93.2261C17.6673 93.2261 18.6947 92.0982 19.7115 92.4217C22.8038 93.4419 25.6518 95.2179 28.0467 97.6197C28.7184 98.3229 27.599 99.844 26.7497 100.241C25.4674 100.89 24.0659 101.195 22.658 101.133C21.2501 101.071 19.875 100.642 18.6432 99.8819C13.7523 96.765 17.6678 93.2261 17.6678 93.2261H17.6673ZM5.9286 83.5242C6.332 83.2784 6.78611 83.1536 7.24612 83.1623C8.47455 83.5788 13.7426 85.9119 16.0136 89.5174C16.51 90.3055 14.7145 91.1142 13.9314 91.5243C12.5007 92.1806 10.9449 92.428 9.40603 92.2438C7.86716 92.0596 6.39433 91.4498 5.12215 90.47C1.44999 87.6765 4.60771 84.2512 5.92813 83.5242H5.9286Z" fill="#3C337A"/>
<path opacity="0.34" d="M18.5703 91.2578L17.1383 92.3906C17.1383 92.3906 12.1818 96.1875 18.2982 100.085C22.8162 102.963 26.9434 100.781 28.7919 99.444C28.9357 99.3399 29.0574 99.2022 29.1484 99.0404C29.2394 98.8786 29.2974 98.6968 29.3186 98.5075C29.3397 98.3182 29.3236 98.126 29.271 97.9444C29.2185 97.7628 29.1309 97.5961 29.0144 97.456C27.7436 95.9305 24.9008 93.248 18.5703 91.2578Z" fill="#D7D1FF"/>
<path opacity="0.34" d="M6.82801 82.4165L4.64076 83.7148C4.64076 83.7148 -0.315768 87.5117 5.8006 91.4087C10.3186 94.2876 14.4458 92.1048 16.2943 90.7682C16.4381 90.6641 16.5598 90.5263 16.6508 90.3646C16.7417 90.2028 16.7998 90.0209 16.821 89.8316C16.8422 89.6423 16.826 89.4501 16.7734 89.2685C16.7209 89.0869 16.6332 88.9203 16.5167 88.7802C15.245 87.2585 13.158 84.4072 6.82801 82.4165Z" fill="#D7D1FF"/>
<path d="M29.6945 97.3959C28.3283 95.7552 25.0878 92.8141 18.2833 90.6746L18.2439 90.647C14.7946 85.0066 8.82864 82.7178 7.16656 82.1715C6.88151 82.0769 6.57555 82.0971 6.30265 82.2288C4.67659 83.0159 -0.838189 86.1431 4.11642 90.3463C10.6114 95.8564 16.1462 91.4054 16.1462 91.4054L16.3 91.5136L16.776 91.8453L16.9293 91.9534C16.9293 91.9534 11.6014 96.0348 18.1762 100.224C23.033 103.318 27.4693 100.973 29.456 99.5353C29.6112 99.4237 29.7425 99.2756 29.8407 99.1015C29.9389 98.9274 30.0016 98.7314 30.0243 98.5275C30.0471 98.3235 30.0293 98.1165 29.9723 97.921C29.9153 97.7255 29.8205 97.5463 29.6945 97.3959ZM16.2274 90.6129C14.3882 91.9329 10.2566 94.2005 5.91963 91.2183C-0.937011 86.5034 6.15858 82.8585 6.15858 82.8585C6.52973 82.6488 6.95949 82.6069 7.35781 82.7416C13.1194 84.7101 15.1791 87.6756 16.389 89.1286C16.4816 89.2299 16.5521 89.3534 16.595 89.4897C16.6379 89.626 16.6521 89.7714 16.6365 89.9148C16.621 90.0581 16.5761 90.1955 16.5052 90.3166C16.4344 90.4376 16.3396 90.539 16.228 90.6129H16.2274ZM28.3736 99.1648C26.6453 100.415 22.7857 102.456 18.5612 99.7636C12.842 96.1193 17.4768 92.569 17.4768 92.569L18.1519 92.0351C18.3622 91.8692 18.604 91.7593 18.8586 91.7139C19.1132 91.6685 19.3738 91.6888 19.6203 91.7733C24.9793 93.6017 27.4488 95.9451 28.5823 97.3061C28.6912 97.4372 28.773 97.593 28.822 97.7629C28.871 97.9327 28.8861 98.1124 28.8663 98.2894C28.8464 98.4663 28.792 98.6364 28.7069 98.7876C28.6218 98.9388 28.508 99.0675 28.3736 99.1648Z" fill="#6156A6"/>
<path d="M17.831 96.0765C17.8142 96.0523 17.8034 96.0236 17.7997 95.9933C17.7961 95.963 17.7996 95.9321 17.8101 95.9038C17.8205 95.8755 17.8375 95.8507 17.8593 95.832C17.8811 95.8133 17.9069 95.8014 17.9341 95.7973L22.3569 94.3537C22.4221 94.3339 22.4912 94.3354 22.5558 94.3578C22.6204 94.3802 22.6779 94.4228 22.7214 94.4804C22.7382 94.5046 22.749 94.5333 22.7527 94.5636C22.7563 94.5939 22.7528 94.6247 22.7423 94.653C22.7319 94.6813 22.7148 94.7061 22.693 94.7248C22.6712 94.7435 22.6454 94.7554 22.6181 94.7595L18.1955 96.2031C18.1303 96.2229 18.0612 96.2216 17.9966 96.1991C17.932 96.1767 17.8745 96.1342 17.831 96.0765Z" fill="white"/>
<path d="M18.5736 97.0919C18.5636 97.0775 18.5572 97.0605 18.555 97.0425C18.5529 97.0245 18.555 97.0062 18.5612 96.9894C18.5674 96.9726 18.5776 96.9579 18.5906 96.9468C18.6035 96.9358 18.6188 96.9286 18.635 96.9262L21.2543 96.0676C21.2929 96.0559 21.3338 96.0566 21.372 96.0698C21.4102 96.0831 21.4442 96.1082 21.47 96.1422C21.48 96.1566 21.4864 96.1736 21.4885 96.1916C21.4907 96.2096 21.4886 96.228 21.4824 96.2447C21.4761 96.2615 21.4661 96.2762 21.4531 96.2873C21.4402 96.2983 21.4249 96.3053 21.4087 96.3077L18.7892 97.1665C18.7506 97.1783 18.7098 97.1775 18.6716 97.1643C18.6334 97.151 18.5993 97.1259 18.5736 97.0919Z" fill="white"/>
<path d="M5.56537 87.4916C5.54855 87.4674 5.5378 87.4387 5.53412 87.4083C5.53045 87.378 5.534 87.3472 5.54446 87.3189C5.55492 87.2906 5.57186 87.2659 5.59365 87.2472C5.61544 87.2285 5.64129 87.2165 5.66857 87.2124L10.0912 85.7688C10.1565 85.749 10.2255 85.7504 10.2901 85.7728C10.3548 85.7952 10.4122 85.8378 10.4557 85.8954C10.4726 85.9196 10.4834 85.9484 10.487 85.9787C10.4907 86.009 10.4872 86.0399 10.4767 86.0682C10.4662 86.0965 10.4492 86.1212 10.4274 86.1399C10.4057 86.1586 10.3799 86.1705 10.3526 86.1746L5.92992 87.6182C5.86463 87.6381 5.79557 87.6367 5.73095 87.6143C5.66634 87.5918 5.60887 87.5493 5.56537 87.4916Z" fill="white"/>
<path d="M6.30891 88.5071C6.29894 88.4928 6.29254 88.4757 6.29037 88.4577C6.28821 88.4397 6.29034 88.4215 6.29655 88.4047C6.30277 88.3879 6.31285 88.3732 6.32578 88.3622C6.33872 88.3511 6.3541 88.344 6.37028 88.3416L8.98969 87.4829C9.02829 87.4711 9.06911 87.4719 9.10732 87.4851C9.14554 87.4984 9.17954 87.5235 9.20529 87.5575C9.21527 87.5719 9.22166 87.589 9.22383 87.6069C9.226 87.6249 9.22387 87.6433 9.21765 87.66C9.21144 87.6768 9.20136 87.6915 9.18842 87.7026C9.17549 87.7137 9.16016 87.7207 9.14398 87.7231L6.52452 88.5818C6.48592 88.5936 6.4451 88.5928 6.40688 88.5796C6.36867 88.5664 6.33466 88.5412 6.30891 88.5071Z" fill="white"/>
<path d="M105.175 77.1407L102.079 75.1257L105.181 73.1697L108.296 75.1788L105.175 77.1407Z" fill="#FF4DBA"/>
<path d="M102.078 75.126L102.048 79.48L101.999 86.7964L105.092 88.8114L105.175 77.141L102.078 75.126Z" fill="#F048AF"/>
<path d="M105.175 77.1414L105.092 88.8118L108.218 86.8498L108.298 75.1794L105.175 77.1414Z" fill="#D9409D"/>
<defs>
<linearGradient id="paint0_linear" x1="34.7173" y1="38.2543" x2="52.1942" y2="38.2543" gradientUnits="userSpaceOnUse">
<stop stop-color="#7988ED"/>
<stop offset="0.153" stop-color="#7382E6"/>
<stop offset="0.362" stop-color="#6571D5"/>
<stop offset="0.603" stop-color="#4D56B8"/>
<stop offset="0.751" stop-color="#3C43A3"/>
</linearGradient>
<linearGradient id="paint1_linear" x1="61.1865" y1="37.5729" x2="108.53" y2="37.5729" gradientUnits="userSpaceOnUse">
<stop offset="0.176" stop-color="#231A54"/>
<stop offset="0.504" stop-color="#372C75"/>
<stop offset="0.814" stop-color="#463A8F"/>
<stop offset="1" stop-color="#4C4099"/>
</linearGradient>
</defs>
</svg>
