<svg width="20" height="10" viewBox="0 0 20 10" fill="none" xmlns="http://www.w3.org/2000/svg">
<path d="M10.5418 3.33333C9.85849 1.39167 8.0085 0 5.8335 0C3.07516 0 0.833496 2.24167 0.833496 5C0.833496 7.75833 3.07516 10 5.8335 10C8.0085 10 9.85849 8.60833 10.5418 6.66667H14.1668V10H17.5002V6.66667H19.1668V3.33333H10.5418ZM5.8335 6.66667C4.91683 6.66667 4.16683 5.91667 4.16683 5C4.16683 4.08333 4.91683 3.33333 5.8335 3.33333C6.75016 3.33333 7.50016 4.08333 7.50016 5C7.50016 5.91667 6.75016 6.66667 5.8335 6.66667Z" fill="black"/>
</svg>
