<svg width="11" height="20" viewBox="0 0 11 20" fill="none" xmlns="http://www.w3.org/2000/svg">
<path d="M8.9165 0.833344H2.24984C1.09984 0.833344 0.166504 1.76668 0.166504 2.91668V17.0833C0.166504 18.2333 1.09984 19.1667 2.24984 19.1667H8.9165C10.0665 19.1667 10.9998 18.2333 10.9998 17.0833V2.91668C10.9998 1.76668 10.0665 0.833344 8.9165 0.833344ZM5.58317 18.3333C4.8915 18.3333 4.33317 17.775 4.33317 17.0833C4.33317 16.3917 4.8915 15.8333 5.58317 15.8333C6.27484 15.8333 6.83317 16.3917 6.83317 17.0833C6.83317 17.775 6.27484 18.3333 5.58317 18.3333ZM9.33317 15H1.83317V3.33334H9.33317V15Z" fill="black"/>
</svg>
